<svg width="2877" height="1454" xmlns="http://www.w3.org/2000/svg" xmlns:xlink="http://www.w3.org/1999/xlink" xml:space="preserve" overflow="hidden"><defs><clipPath id="clip0"><rect x="0" y="0" width="2877" height="1454"/></clipPath></defs><g clip-path="url(#clip0)"><rect x="0" y="0" width="2877" height="1454" fill="#FFFFFF"/><rect x="103.5" y="337.5" width="2726" height="261" stroke="#FFD966" stroke-width="4.58333" stroke-miterlimit="8" fill="#FFE699"/><path d="M360 323.5 360 370.5 398.5 370.5 321.5 417.5 244.5 370.5 283 370.5 283 323.5Z" stroke="#2F528F" stroke-width="4.58333" stroke-miterlimit="8" fill="#4472C4" fill-rule="evenodd"/><rect x="106.5" y="639.5" width="2727" height="261" stroke="#BFBFBF" stroke-width="4.58333" stroke-miterlimit="8" fill="#D9D9D9"/><rect x="103.5" y="945.5" width="2736" height="262" stroke="#A9D18E" stroke-width="4.58333" stroke-miterlimit="8" fill="#C5E0B4"/><text font-family="Calibri,Calibri_MSFontService,sans-serif" font-weight="700" font-size="50" transform="matrix(1 0 0 1 171.153 1066)">Org Statement</text><text font-family="Calibri,Calibri_MSFontService,sans-serif" font-weight="700" font-size="50" transform="matrix(1 0 0 1 544.213 1062)">Cash Account Statement</text><text font-family="Calibri,Calibri_MSFontService,sans-serif" font-weight="700" font-size="50" transform="matrix(1 0 0 1 1227.7 1059)">Tax Statement</text><text font-family="Calibri,Calibri_MSFontService,sans-serif" font-weight="700" font-size="50" transform="matrix(1 0 0 1 1747.15 1059)">Vat Statement</text><text fill="#538135" font-family="Calibri,Calibri_MSFontService,sans-serif" font-weight="700" font-size="73" transform="matrix(1 0 0 1 1150.56 1168)">PRODUCTION LAYER</text><text font-family="Calibri,Calibri_MSFontService,sans-serif" font-weight="700" font-size="50" transform="matrix(1 0 0 1 2219.29 453)">Profit and Loss</text><text font-family="Calibri,Calibri_MSFontService,sans-serif" font-weight="700" font-size="50" transform="matrix(1 0 0 1 2245.65 1062)">Trade Statement</text><text fill="#7F7F7F" font-family="Calibri,Calibri_MSFontService,sans-serif" font-weight="700" font-size="73" transform="matrix(1 0 0 1 956.828 858)">ASSET RECORDING SURFACE</text><text fill="#F4B083" font-family="Calibri,Calibri_MSFontService,sans-serif" font-weight="700" font-size="73" transform="matrix(1 0 0 1 1231.46 545)">CAPITAL LAYER</text><text font-family="Calibri,Calibri_MSFontService,sans-serif" font-weight="700" font-size="50" transform="matrix(1 0 0 1 998.906 446)">Balance Sheet</text><text font-family="Calibri,Calibri_MSFontService,sans-serif" font-weight="700" font-size="50" transform="matrix(1 0 0 1 161.577 753)">Debtors/Creditors</text><text font-family="Calibri,Calibri_MSFontService,sans-serif" font-weight="700" font-size="50" transform="matrix(1 0 0 1 641.876 753)">Fixed/Current Assets</text><text font-family="Calibri,Calibri_MSFontService,sans-serif" font-weight="700" font-size="50" transform="matrix(1 0 0 1 1250.1 753)">Bank/Cash</text><text font-family="Calibri,Calibri_MSFontService,sans-serif" font-weight="700" font-size="50" transform="matrix(1 0 0 1 2202.27 750)">Asset Value Changes</text><path d="M2114.27 1233.69 2111 254" stroke="#4472C4" stroke-width="2.29167" stroke-miterlimit="8" fill="none" fill-rule="evenodd"/><rect x="99.4998" y="44.4998" width="2726" height="262" stroke="#A9D18E" stroke-width="4.58333" stroke-miterlimit="8" fill="#F4B183"/><text fill="#FF0000" font-family="Calibri,Calibri_MSFontService,sans-serif" font-weight="700" font-size="73" transform="matrix(1 0 0 1 1261.77 253)">ASSET LAYER</text><path d="M2404 318.5 2404 271 2365.5 271 2442.5 223.5 2519.5 271 2481 271 2481 318.5Z" stroke="#2F528F" stroke-width="4.58333" stroke-miterlimit="8" fill="#C00000" fill-rule="evenodd"/><path d="M103.5 316.5 2825.77 316.5" stroke="#FF0000" stroke-width="36.6667" stroke-miterlimit="8" fill="none" fill-rule="evenodd"/><path d="M0 0 2733.17 6.52313" stroke="#7F7F7F" stroke-width="36.6667" stroke-miterlimit="8" fill="none" fill-rule="evenodd" transform="matrix(1 0 0 -1 99.4998 622.023)"/><path d="M96.5001 921.5 2846.51 921.5" stroke="#00B050" stroke-width="36.6667" stroke-miterlimit="8" fill="none" fill-rule="evenodd"/><text font-family="Calibri,Calibri_MSFontService,sans-serif" font-weight="700" font-size="50" transform="matrix(1 0 0 1 2330.14 155)">SURPLUS</text><rect x="502" y="1247" width="1622" height="121" fill="#FFFFFF"/><text font-family="Calibri,Calibri_MSFontService,sans-serif" font-weight="700" font-size="64" transform="matrix(1 0 0 1 736.258 1326)">Figure 2: The Mechanics of Capital Creation</text><text font-family="Calibri,Calibri_MSFontService,sans-serif" font-weight="700" font-size="50" transform="matrix(1 0 0 1 226.901 160)">CAPITAL </text><text font-family="Calibri,Calibri_MSFontService,sans-serif" font-weight="700" font-size="50" transform="matrix(1 0 0 1 175.728 225)">INVESTMENT</text></g></svg>