<svg width="2514" height="1708" xmlns="http://www.w3.org/2000/svg" xmlns:xlink="http://www.w3.org/1999/xlink" xml:space="preserve" overflow="hidden"><defs><clipPath id="clip0"><rect x="0" y="0" width="2514" height="1708"/></clipPath><linearGradient x1="1677" y1="361" x2="1677" y2="557" gradientUnits="userSpaceOnUse" spreadMethod="reflect" id="fill1"><stop offset="0" stop-color="#D2D2D2"/><stop offset="0.5" stop-color="#C8C8C8"/><stop offset="1" stop-color="#C0C0C0"/></linearGradient><linearGradient x1="1681" y1="1272" x2="1681" y2="1399" gradientUnits="userSpaceOnUse" spreadMethod="reflect" id="fill2"><stop offset="0" stop-color="#B5D5A7"/><stop offset="0.5" stop-color="#AACE99"/><stop offset="1" stop-color="#9CCA86"/></linearGradient><linearGradient x1="170" y1="917" x2="170" y2="711" gradientUnits="userSpaceOnUse" spreadMethod="reflect" id="fill3"><stop offset="0" stop-color="#B0500F"/><stop offset="0.48" stop-color="#EE8137"/><stop offset="1" stop-color="#F4B183"/></linearGradient><linearGradient x1="831.5" y1="361" x2="831.5" y2="567" gradientUnits="userSpaceOnUse" spreadMethod="reflect" id="fill4"><stop offset="0" stop-color="#D2D2D2"/><stop offset="0.5" stop-color="#C8C8C8"/><stop offset="1" stop-color="#C0C0C0"/></linearGradient><linearGradient x1="409" y1="361" x2="409" y2="566" gradientUnits="userSpaceOnUse" spreadMethod="reflect" id="fill5"><stop offset="0" stop-color="#B1CBE9"/><stop offset="0.5" stop-color="#A3C1E5"/><stop offset="1" stop-color="#92B9E4"/></linearGradient></defs><g clip-path="url(#clip0)"><path d="M1024.5 786.5 1337.5 753.5 1337.5 918.5 1024.5 918.5Z" stroke="#843C0C" stroke-width="4.58333" stroke-miterlimit="8" fill="#ED7D31" fill-rule="evenodd"/><text font-family="Calibri,Calibri_MSFontService,sans-serif" font-weight="400" font-size="50" transform="matrix(1 0 0 1 1116.67 869)">INPUT</text><path d="M0 33 312 0 312 165 0 165Z" stroke="#203864" stroke-width="4.58333" stroke-miterlimit="8" fill="#4472C4" fill-rule="evenodd" transform="matrix(-1 0 0 1 2323.5 746.5)"/><text font-family="Calibri,Calibri_MSFontService,sans-serif" font-weight="400" font-size="50" transform="matrix(1 0 0 1 2080.36 862)">OUTPUT</text><rect x="1482.5" y="753.5" width="395" height="158" stroke="#385723" stroke-width="4.58333" stroke-miterlimit="8" fill="#70AD47"/><text font-family="Calibri,Calibri_MSFontService,sans-serif" font-weight="400" font-size="50" transform="matrix(1 0 0 1 1539.07 849)">PRODUCTION</text><path d="M0.0816166-3.43653 121.53-0.552164 121.367 6.3209-0.0816166 3.43653ZM117.193-10.9706 144.359 3.42848 116.54 16.5217Z" fill="#70AD47" transform="matrix(1 0 0 -1 1337.5 835.929)"/><path d="M0.0973786-3.43612 110.902-0.295941 110.708 6.5763-0.0973786 3.43612ZM106.613-10.7341 133.712 3.78937 105.834 16.7548Z" fill="#70AD47" transform="matrix(1 0 0 -1 1877.5 832.289)"/><path d="M1479 393.667C1479 375.625 1567.65 361 1677 361 1786.35 361 1875 375.625 1875 393.667L1875 524.333C1875 542.375 1786.35 557 1677 557 1567.65 557 1479 542.375 1479 524.333Z" fill="url(#fill1)" fill-rule="evenodd"/><path d="M1875 393.667C1875 411.708 1786.35 426.333 1677 426.333 1567.65 426.333 1479 411.708 1479 393.667" stroke="#A5A5A5" stroke-width="2.29167" stroke-miterlimit="8" fill="none" fill-rule="evenodd"/><path d="M1479 393.667C1479 375.625 1567.65 361 1677 361 1786.35 361 1875 375.625 1875 393.667L1875 524.333C1875 542.375 1786.35 557 1677 557 1567.65 557 1479 542.375 1479 524.333Z" stroke="#A5A5A5" stroke-width="2.29167" stroke-miterlimit="8" fill="none" fill-rule="evenodd"/><text font-family="Calibri,Calibri_MSFontService,sans-serif" font-weight="400" font-size="50" transform="matrix(1 0 0 1 1586.81 493)">Territory</text><path d="M1683.8 557.427 1685.71 721.851 1673.11 721.997 1671.2 557.573ZM1698.24 715.403 1679.77 753.432 1660.43 715.842Z" fill="#FF0000"/><path d="M1492 1293.17C1492 1281.48 1501.48 1272 1513.17 1272L1848.83 1272C1860.52 1272 1870 1281.48 1870 1293.17L1870 1377.83C1870 1389.52 1860.52 1399 1848.83 1399L1513.17 1399C1501.48 1399 1492 1389.52 1492 1377.83Z" stroke="#70AD47" stroke-width="2.29167" stroke-miterlimit="8" fill="url(#fill2)" fill-rule="evenodd"/><text font-family="Calibri,Calibri_MSFontService,sans-serif" font-weight="400" font-size="50" transform="matrix(1 0 0 1 1588.1 1353)">SURPLUS</text><path d="M1685.8 911.47 1687.38 1240.9 1674.78 1240.96 1673.2 911.53ZM1699.96 1234.53 1681.23 1272.44 1662.14 1234.71Z" fill="#00B050"/><path d="M213.5 1334.5C213.5 1296.39 301.924 1265.5 411 1265.5 520.076 1265.5 608.5 1296.39 608.5 1334.5 608.5 1372.61 520.076 1403.5 411 1403.5 301.924 1403.5 213.5 1372.61 213.5 1334.5Z" stroke="#7F6000" stroke-width="4.58333" stroke-miterlimit="8" fill="#FFC000" fill-rule="evenodd"/><text font-family="Calibri,Calibri_MSFontService,sans-serif" font-weight="400" font-size="50" transform="matrix(1 0 0 1 337.141 1351)">PROFIT</text><path d="M1492.03 1341.8 1363.01 1341.8 1363.01 1329.2 1492.03 1329.2ZM1369.31 1354.41 1331.5 1335.5 1369.31 1316.59Z" fill="#00B050"/><path d="M969.5 1275.5 1372.5 1275.5 1291.9 1396.5 1050.1 1396.5Z" stroke="#525252" stroke-width="4.58333" stroke-miterlimit="8" fill="#A5A5A5" fill-rule="evenodd"/><text font-family="Calibri,Calibri_MSFontService,sans-serif" font-weight="400" font-size="50" transform="matrix(1 0 0 1 1115.83 1353)">DEBK</text><path d="M1009.61 1342.5 639.984 1340.94 640.037 1328.33 1009.66 1329.89ZM646.232 1353.57 608.5 1334.5 646.392 1315.75Z" fill="#4472C4"/><rect x="691.5" y="712.5" width="278" height="206" stroke="#7F6000" stroke-width="4.58333" stroke-miterlimit="8" fill="#FFC000"/><text font-family="Calibri,Calibri_MSFontService,sans-serif" font-weight="400" font-size="50" transform="matrix(1 0 0 1 723.937 777)">PRIVATE </text><text font-family="Calibri,Calibri_MSFontService,sans-serif" font-weight="400" font-size="50" transform="matrix(1 0 0 1 723.937 843)">WEALTH</text><rect x="30.9999" y="711" width="278" height="206" fill="url(#fill3)"/><text font-family="Calibri,Calibri_MSFontService,sans-serif" font-weight="400" font-size="50" transform="matrix(1 0 0 1 129.834 799)">THE </text><text font-family="Calibri,Calibri_MSFontService,sans-serif" font-weight="400" font-size="50" transform="matrix(1 0 0 1 107.101 864)">STATE</text><path d="M405.198 1265.72 405.198 1074.54 830.862 1074.54 824.56 1080.84 824.56 950.01 837.164 950.01 837.164 1087.15 411.5 1087.15 417.802 1080.84 417.802 1265.72ZM811.956 956.312 830.862 918.5 849.768 956.312Z" fill="#4472C4"/><path d="M0-6.30208 190.99-6.30208 190.99 240.646 184.688 234.344 316.288 234.344 316.288 246.948 178.386 246.948 178.386 0 184.688 6.30208 0 6.30208ZM309.986 221.74 347.798 240.646 309.986 259.552Z" fill="#4472C4" transform="matrix(-1.83697e-16 -1 -1 1.83697e-16 411.146 1265.3)"/><path d="M642 395.333C642 376.372 657.372 361 676.333 361L986.667 361C1005.63 361 1021 376.372 1021 395.333L1021 532.666C1021 551.628 1005.63 567 986.667 567L676.333 567C657.372 567 642 551.628 642 532.666Z" stroke="#A5A5A5" stroke-width="2.29167" stroke-miterlimit="8" fill="url(#fill4)" fill-rule="evenodd"/><text font-family="Calibri,Calibri_MSFontService,sans-serif" font-weight="400" font-size="50" transform="matrix(1 0 0 1 751.052 449)">Right to </text><text font-family="Calibri,Calibri_MSFontService,sans-serif" font-weight="400" font-size="50" transform="matrix(1 0 0 1 746.721 514)">Produce</text><path d="M6.3018-0.0597166 7.37461 113.152-5.22899 113.271-6.3018 0.0597166ZM19.9185 106.731 1.37139 144.721-17.8923 107.089Z" fill="#4472C4" transform="matrix(1 0 0 -1 830.5 712.221)"/><path d="M0.0684206-6.30171 427.26-1.6635 427.123 10.9399-0.0684206 6.30171ZM421.095-14.3353 458.7 4.98031 420.684 23.4749Z" fill="#FF0000" transform="matrix(1 0 0 -1 1021.5 464.48)"/><path d="M167.062 711.789 167.062 691.164 173.938 691.164 173.938 711.789ZM167.062 684.289 167.062 663.664 173.938 663.664 173.938 684.289ZM167.062 656.789 167.062 636.164 173.938 636.164 173.938 656.789ZM167.062 629.289 167.062 608.664 173.938 608.664 173.938 629.289ZM167.062 601.789 167.062 581.164 173.938 581.164 173.938 601.789ZM167.062 574.289 167.062 553.664 173.938 553.664 173.938 574.289ZM167.062 546.789 167.062 526.164 173.938 526.164 173.938 546.789ZM167.062 519.289 167.062 498.664 173.938 498.664 173.938 519.289ZM167.062 491.789 167.062 471.164 173.938 471.164 173.938 491.789ZM167.062 464.289 167.062 443.664 173.938 443.664 173.938 464.289ZM167.062 436.789 167.062 416.164 173.938 416.164 173.938 436.789ZM167.062 409.289 167.062 388.664 173.938 388.664 173.938 409.289ZM167.062 381.789 167.062 361.164 173.938 361.164 173.938 381.789ZM167.062 354.289 167.062 333.664 173.938 333.664 173.938 354.289ZM167.062 326.789 167.062 306.164 173.938 306.164 173.938 326.789ZM167.062 299.289 167.062 275.566 170.84 275.566 170.84 282.441 170.5 282.441 173.938 279.003 173.938 299.289ZM177.715 275.566 198.34 275.566 198.34 282.441 177.715 282.441ZM205.215 275.566 225.84 275.566 225.84 282.441 205.215 282.441ZM232.715 275.566 253.34 275.566 253.34 282.441 232.715 282.441ZM260.215 275.566 280.84 275.566 280.84 282.441 260.215 282.441ZM287.715 275.566 308.34 275.566 308.34 282.441 287.715 282.441ZM315.215 275.566 335.84 275.566 335.84 282.441 315.215 282.441ZM342.715 275.566 363.34 275.566 363.34 282.441 342.715 282.441ZM370.215 275.566 390.84 275.566 390.84 282.441 370.215 282.441ZM397.715 275.566 418.34 275.566 418.34 282.441 397.715 282.441ZM425.215 275.566 445.84 275.566 445.84 282.441 425.215 282.441ZM452.715 275.566 473.34 275.566 473.34 282.441 452.715 282.441ZM480.215 275.566 500.84 275.566 500.84 282.441 480.215 282.441ZM507.715 275.566 528.34 275.566 528.34 282.441 507.715 282.441ZM535.215 275.566 555.84 275.566 555.84 282.441 535.215 282.441ZM562.715 275.566 583.34 275.566 583.34 282.441 562.715 282.441ZM590.215 275.566 610.84 275.566 610.84 282.441 590.215 282.441ZM617.715 275.566 638.34 275.566 638.34 282.441 617.715 282.441ZM645.215 275.566 665.84 275.566 665.84 282.441 645.215 282.441ZM672.715 275.566 693.34 275.566 693.34 282.441 672.715 282.441ZM700.215 275.566 720.84 275.566 720.84 282.441 700.215 282.441ZM727.715 275.566 748.34 275.566 748.34 282.441 727.715 282.441ZM755.215 275.566 775.84 275.566 775.84 282.441 755.215 282.441ZM782.715 275.566 803.34 275.566 803.34 282.441 782.715 282.441ZM810.215 275.566 830.84 275.566 830.84 282.441 810.215 282.441ZM835.317 284.839 835.317 305.464 828.442 305.464 828.442 284.839ZM835.317 312.339 835.317 332.964 828.442 332.964 828.442 312.339ZM845.629 334 831.879 361.5 818.129 334Z" fill="#FFC000"/><path d="M167.062 711.789 167.062 691.164 173.937 691.164 173.937 711.789ZM167.062 684.289 167.062 663.664 173.937 663.664 173.937 684.289ZM167.062 656.789 167.062 636.164 173.937 636.164 173.937 656.789ZM167.062 629.289 167.062 608.664 173.937 608.664 173.937 629.289ZM167.062 601.789 167.062 581.164 173.937 581.164 173.937 601.789ZM167.062 574.289 167.062 553.664 173.937 553.664 173.937 574.289ZM167.062 546.789 167.062 526.164 173.937 526.164 173.937 546.789ZM167.062 519.289 167.062 498.664 173.937 498.664 173.937 519.289ZM167.062 491.789 167.062 471.164 173.937 471.164 173.937 491.789ZM167.062 464.289 167.062 443.664 173.937 443.664 173.937 464.289ZM167.062 436.789 167.062 416.164 173.937 416.164 173.937 436.789ZM167.062 409.289 167.062 388.664 173.937 388.664 173.937 409.289ZM167.062 381.789 167.062 361.164 173.937 361.164 173.937 381.789ZM167.062 354.289 167.062 333.664 173.937 333.664 173.937 354.289ZM167.062 326.789 167.062 306.164 173.937 306.164 173.937 326.789ZM167.062 299.289 167.062 275.567 170.84 275.567 170.84 282.442 170.5 282.442 173.937 279.004 173.937 299.289ZM177.715 275.567 198.34 275.567 198.34 282.442 177.715 282.442ZM205.215 275.567 225.84 275.567 225.84 282.442 205.215 282.442ZM232.715 275.567 253.34 275.567 253.34 282.442 232.715 282.442ZM260.215 275.567 280.84 275.567 280.84 282.442 260.215 282.442ZM287.715 275.567 308.34 275.567 308.34 282.442 287.715 282.442ZM315.215 275.567 335.84 275.567 335.84 282.442 315.215 282.442ZM342.715 275.567 363.34 275.567 363.34 282.442 342.715 282.442ZM370.215 275.567 390.84 275.567 390.84 282.442 370.215 282.442ZM397.715 275.567 418.34 275.567 418.34 282.442 397.715 282.442ZM425.215 275.567 445.84 275.567 445.84 282.442 425.215 282.442ZM452.715 275.567 473.34 275.567 473.34 282.442 452.715 282.442ZM480.215 275.567 500.84 275.567 500.84 282.442 480.215 282.442ZM507.715 275.567 528.34 275.567 528.34 282.442 507.715 282.442ZM535.215 275.567 555.84 275.567 555.84 282.442 535.215 282.442ZM562.715 275.567 583.34 275.567 583.34 282.442 562.715 282.442ZM590.215 275.567 610.84 275.567 610.84 282.442 590.215 282.442ZM617.715 275.567 638.34 275.567 638.34 282.442 617.715 282.442ZM645.215 275.567 665.84 275.567 665.84 282.442 645.215 282.442ZM672.715 275.567 693.34 275.567 693.34 282.442 672.715 282.442ZM700.215 275.567 720.84 275.567 720.84 282.442 700.215 282.442ZM727.715 275.567 748.34 275.567 748.34 282.442 727.715 282.442ZM755.215 275.567 775.84 275.567 775.84 282.442 755.215 282.442ZM782.715 275.567 803.34 275.567 803.34 282.442 782.715 282.442ZM810.215 275.567 830.84 275.567 830.84 282.442 810.215 282.442ZM837.715 275.567 858.34 275.567 858.34 282.442 837.715 282.442ZM865.215 275.567 885.84 275.567 885.84 282.442 865.215 282.442ZM892.715 275.567 913.34 275.567 913.34 282.442 892.715 282.442ZM920.215 275.567 940.84 275.567 940.84 282.442 920.215 282.442ZM947.715 275.567 968.34 275.567 968.34 282.442 947.715 282.442ZM975.215 275.567 995.84 275.567 995.84 282.442 975.215 282.442ZM1002.72 275.567 1023.34 275.567 1023.34 282.442 1002.72 282.442ZM1030.22 275.567 1050.84 275.567 1050.84 282.442 1030.22 282.442ZM1057.72 275.567 1078.34 275.567 1078.34 282.442 1057.72 282.442ZM1085.22 275.567 1105.84 275.567 1105.84 282.442 1085.22 282.442ZM1112.72 275.567 1133.34 275.567 1133.34 282.442 1112.72 282.442ZM1140.22 275.567 1160.84 275.567 1160.84 282.442 1140.22 282.442ZM1167.72 275.567 1188.34 275.567 1188.34 282.442 1167.72 282.442ZM1195.22 275.567 1215.84 275.567 1215.84 282.442 1195.22 282.442ZM1222.72 275.567 1243.34 275.567 1243.34 282.442 1222.72 282.442ZM1250.22 275.567 1270.84 275.567 1270.84 282.442 1250.22 282.442ZM1277.72 275.567 1298.34 275.567 1298.34 282.442 1277.72 282.442ZM1305.22 275.567 1325.84 275.567 1325.84 282.442 1305.22 282.442ZM1332.72 275.567 1353.34 275.567 1353.34 282.442 1332.72 282.442ZM1360.22 275.567 1380.84 275.567 1380.84 282.442 1360.22 282.442ZM1387.72 275.567 1408.34 275.567 1408.34 282.442 1387.72 282.442ZM1415.22 275.567 1435.84 275.567 1435.84 282.442 1415.22 282.442ZM1442.72 275.567 1463.34 275.567 1463.34 282.442 1442.72 282.442ZM1470.22 275.567 1490.84 275.567 1490.84 282.442 1470.22 282.442ZM1497.72 275.567 1518.34 275.567 1518.34 282.442 1497.72 282.442ZM1525.22 275.567 1545.84 275.567 1545.84 282.442 1525.22 282.442ZM1552.72 275.567 1573.34 275.567 1573.34 282.442 1552.72 282.442ZM1580.22 275.567 1600.84 275.567 1600.84 282.442 1580.22 282.442ZM1607.72 275.567 1628.34 275.567 1628.34 282.442 1607.72 282.442ZM1635.22 275.567 1655.84 275.567 1655.84 282.442 1635.22 282.442ZM1662.72 275.567 1680.75 275.567 1680.75 285.029 1673.88 285.029 1673.88 279.004 1677.32 282.442 1662.72 282.442ZM1680.75 291.904 1680.75 312.529 1673.88 312.529 1673.88 291.904ZM1680.75 319.404 1680.75 338.584 1673.88 338.584 1673.88 319.404ZM1691.07 334 1677.32 361.5 1663.57 334Z" fill="#FFC000"/><path d="M220 395.167C220 376.297 235.297 361 254.167 361L563.833 361C582.703 361 598 376.297 598 395.167L598 531.833C598 550.703 582.703 566 563.833 566L254.167 566C235.297 566 220 550.703 220 531.833Z" stroke="#5B9BD5" stroke-width="2.29167" stroke-miterlimit="8" fill="url(#fill5)" fill-rule="evenodd"/><text font-family="Calibri,Calibri_MSFontService,sans-serif" font-weight="400" font-size="50" transform="matrix(1 0 0 1 328.225 448)">Right to </text><text font-family="Calibri,Calibri_MSFontService,sans-serif" font-weight="400" font-size="50" transform="matrix(1 0 0 1 312.94 513)">Consume</text><path d="M688.293 821.137 403.198 821.137 403.198 598.01 415.802 598.01 415.802 814.835 409.5 808.533 688.293 808.533ZM390.594 604.312 409.5 566.5 428.406 604.312Z" fill="#4472C4"/><path d="M0 6.30208-165.005 6.30208-158.703 0-158.703 1758.33-165.005 1752.02 369.99 1752.02 369.99 1764.63-171.307 1764.63-171.307-6.30208 0-6.30208ZM363.688 1739.42 401.5 1758.33 363.688 1777.23Z" fill="#4472C4" transform="matrix(1.83697e-16 1 1 -1.83697e-16 409.5 361.5)"/><text font-family="Calibri,Calibri_MSFontService,sans-serif" font-weight="700" font-size="62" transform="matrix(1 0 0 1 547.033 1540)">Figure 6: Production Capitalisation</text><path d="M34.375-6.8749 119.608-6.87464 119.608 6.87536 34.375 6.8751ZM41.2499 20.6251 0 0 41.2501-20.6249Z" fill="#FF0000" transform="matrix(-1 0 0 1 2075.61 1074)"/><path d="M2039.91 1149.84 1957.92 1148.87 1958.08 1135.13 2040.07 1136.09ZM2033.36 1122.26 2074.36 1143.37 2032.87 1163.51Z" fill="#00B050"/><text font-family="Calibri,Calibri_MSFontService,sans-serif" font-weight="400" font-size="50" transform="matrix(1 0 0 1 2134.37 1148)">temporal</text><text font-family="Calibri,Calibri_MSFontService,sans-serif" font-weight="400" font-size="50" transform="matrix(1 0 0 1 2132.1 1083)">spatial</text><path d="M2048.94 1213.07 2028.32 1212.82 2028.4 1205.94 2049.02 1206.19ZM2021.44 1212.74 2000.82 1212.49 2000.9 1205.61 2021.53 1205.86ZM1993.94 1212.4 1973.32 1212.15 1973.4 1205.28 1994.03 1205.53ZM1966.45 1212.07 1955.46 1211.94 1955.54 1205.06 1966.53 1205.2ZM2044.57 1195.83 2071.9 1209.91 2044.23 1223.32Z" fill="#FFC000"/><text font-family="Calibri,Calibri_MSFontService,sans-serif" font-weight="400" font-size="50" transform="matrix(1 0 0 1 2131.01 1215)">enforcement</text><path d="M2034.31 1279.8 1949.43 1278.8 1949.57 1266.2 2034.45 1267.2ZM2028.3 1254.52 2065.89 1273.88 2027.86 1292.33Z" fill="#4472C4"/><text font-family="Calibri,Calibri_MSFontService,sans-serif" font-weight="400" font-size="50" transform="matrix(1 0 0 1 2125.48 1279)">money</text></g></svg>