<svg width="1980" height="1199" xmlns="http://www.w3.org/2000/svg" xmlns:xlink="http://www.w3.org/1999/xlink" xml:space="preserve" overflow="hidden"><defs><clipPath id="clip0"><rect x="0" y="0" width="1980" height="1199"/></clipPath></defs><g clip-path="url(#clip0)"><rect x="0" y="0" width="1980" height="1199" fill="#FFFFFF"/><rect x="1169.5" y="277.5" width="343" height="141" stroke="#000000" stroke-width="3.4375" stroke-miterlimit="8" fill="#3366FF"/><rect x="1169.5" y="418.5" width="347" height="139" stroke="#000000" stroke-width="3.4375" stroke-miterlimit="8" fill="#99CCFF"/><rect x="368.5" y="277.5" width="313" height="71.0002" stroke="#000000" stroke-width="3.4375" stroke-miterlimit="8" fill="#FF6600"/><rect x="368.5" y="418.5" width="313" height="139" stroke="#000000" stroke-width="3.4375" stroke-miterlimit="8" fill="#CCFFCC"/><rect x="368.5" y="348.5" width="313" height="69.9998" stroke="#000000" stroke-width="3.4375" stroke-miterlimit="8" fill="#FFCC00"/><rect x="678.5" y="277.5" width="519" height="280" stroke="#000000" stroke-width="3.4375" stroke-miterlimit="8" fill="#00FF00"/><path d="M89.5194 338.188 280.415 338.548 280.376 359.173 89.4804 358.813ZM270.142 317.904 331.958 348.958 270.025 379.779Z"/><path d="M1517.52 338.188 1708.64 338.549 1708.61 359.173 1517.48 358.813ZM1698.37 317.904 1760.19 348.958 1698.25 379.779Z"/><path d="M678.5 35.4999 678.5 277.958" stroke="#000000" stroke-width="9.16667" stroke-linejoin="round" stroke-miterlimit="10" stroke-dasharray="9.16667 9.16667" fill="none" fill-rule="evenodd"/><path d="M1197.5 35.4999 1197.5 277.958" stroke="#000000" stroke-width="9.16667" stroke-linejoin="round" stroke-miterlimit="10" stroke-dasharray="9.16667 9.16667" fill="none" fill-rule="evenodd"/><path d="M701.418 240.791 1175.33 241 1175.33 244.438 701.416 244.229ZM705.994 256.262 678.5 242.5 706.006 228.762ZM1170.76 228.967 1198.25 242.729 1170.74 256.467Z"/><path d="M366.5 35.4999 366.958 277.958" stroke="#000000" stroke-width="9.16667" stroke-linejoin="round" stroke-miterlimit="10" stroke-dasharray="9.16667 9.16667" fill="none" fill-rule="evenodd"/><path d="M389.418 240.798 655.48 240.993 655.478 244.431 389.415 244.235ZM393.99 256.27 366.5 242.5 394.01 228.77ZM650.906 228.959 678.396 242.729 650.886 256.459Z"/><text font-family="Calibri,Calibri_MSFontService,sans-serif" font-weight="400" font-size="62" transform="matrix(1 0 0 1 122.023 320)">INPUT</text><path d="M1509.5 35.4999 1509.96 277.958" stroke="#000000" stroke-width="9.16667" stroke-linejoin="round" stroke-miterlimit="10" stroke-dasharray="9.16667 9.16667" fill="none" fill-rule="evenodd"/><path d="M1220.42 240.798 1486.02 240.993 1486.02 244.431 1220.42 244.235ZM1224.99 256.27 1197.5 242.5 1225.01 228.77ZM1481.45 228.959 1508.94 242.729 1481.43 256.459Z"/><text font-family="Calibri,Calibri_MSFontService,sans-serif" font-weight="400" font-size="62" transform="matrix(1 0 0 1 414.772 95)">Material </text><text font-family="Calibri,Calibri_MSFontService,sans-serif" font-weight="400" font-size="62" transform="matrix(1 0 0 1 408.264 175)">Interface</text><text font-family="Calibri,Calibri_MSFontService,sans-serif" font-weight="400" font-size="62" transform="matrix(1 0 0 1 742.366 95)">Transformation</text><text font-family="Calibri,Calibri_MSFontService,sans-serif" font-weight="400" font-size="62" transform="matrix(1 0 0 1 1204.62 95)">Component </text><text font-family="Calibri,Calibri_MSFontService,sans-serif" font-weight="400" font-size="62" transform="matrix(1 0 0 1 1239.68 175)">Interface</text><text font-family="Calibri,Calibri_MSFontService,sans-serif" font-weight="700" font-size="62" transform="matrix(1 0 0 1 492.162 1120)">Figure 5: The Industrial Revolution</text><path d="M1346.82 557 1346.82 562.286 534.208 562.286 534.208 551.974 1341.67 551.974 1336.51 557.13 1336.51 557ZM562.26 579.988 523.976 557 562.831 534.991C565.309 533.587 568.455 534.458 569.859 536.936 571.263 539.413 570.392 542.56 567.914 543.964L536.75 561.616 536.863 552.709 567.569 571.147C570.01 572.613 570.801 575.781 569.335 578.222 567.869 580.664 564.701 581.454 562.26 579.988Z"/><text font-family="Calibri,Calibri_MSFontService,sans-serif" font-weight="400" font-size="62" transform="matrix(1 0 0 1 734.608 738)">FEEDBACK LOOP</text><text font-family="Calibri,Calibri_MSFontService,sans-serif" font-weight="400" font-size="37" transform="matrix(1 0 0 1 471.993 1004)">MANUFACTURED COMPONENT</text><rect x="367.5" y="766.5" width="70.0001" height="47.0001" stroke="#000000" stroke-width="3.4375" stroke-miterlimit="8" fill="#FF6600"/><rect x="367.5" y="860.5" width="70.0001" height="47.0001" stroke="#000000" stroke-width="3.4375" stroke-miterlimit="8" fill="#FFCC00"/><rect x="367.5" y="955.5" width="70.0001" height="46.9998" stroke="#000000" stroke-width="3.4375" stroke-miterlimit="8" fill="#CCFFCC"/><rect x="1415.5" y="766.5" width="68.0001" height="47.0001" stroke="#000000" stroke-width="3.4375" stroke-miterlimit="8" fill="#3366FF"/><rect x="1413.5" y="860.5" width="68.0001" height="47.0001" stroke="#000000" stroke-width="3.4375" stroke-miterlimit="8" fill="#99CCFF"/><text font-family="Calibri,Calibri_MSFontService,sans-serif" font-weight="400" font-size="37" transform="matrix(1 0 0 1 471.993 815)">RAW MATERIAL</text><text font-family="Calibri,Calibri_MSFontService,sans-serif" font-weight="400" font-size="37" transform="matrix(1 0 0 1 471.993 909)">PURCHASED COMPONENT</text><text font-family="Calibri,Calibri_MSFontService,sans-serif" font-weight="400" font-size="37" transform="matrix(1 0 0 1 1517.33 815)">PRODUCT</text><text font-family="Calibri,Calibri_MSFontService,sans-serif" font-weight="400" font-size="37" transform="matrix(1 0 0 1 1517.33 909)">COMPONENT</text></g></svg>