<svg width="2867" height="1983" xmlns="http://www.w3.org/2000/svg" xmlns:xlink="http://www.w3.org/1999/xlink" xml:space="preserve" overflow="hidden"><defs><clipPath id="clip0"><rect x="0" y="0" width="2867" height="1983"/></clipPath></defs><g clip-path="url(#clip0)"><rect x="0" y="0" width="2867" height="1983" fill="#FFFFFF"/><rect x="92.5" y="422.5" width="458" height="224" stroke="#1F4E79" stroke-width="4.58333" stroke-miterlimit="8" fill="#5B9BD5"/><text fill="#FFFFFF" font-family="Calibri,Calibri_MSFontService,sans-serif" font-weight="700" font-size="50" transform="matrix(1 0 0 1 143.444 501)">ORGANISATIONS</text><text fill="#FFFFFF" font-family="Calibri,Calibri_MSFontService,sans-serif" font-weight="700" font-size="50" transform="matrix(1 0 0 1 218.152 603)">(Subjects)</text><rect x="89.4999" y="910.5" width="458" height="224" stroke="#507E32" stroke-width="4.58333" stroke-miterlimit="8" fill="#70AD47"/><text fill="#FFFFFF" font-family="Calibri,Calibri_MSFontService,sans-serif" font-weight="700" font-size="50" transform="matrix(1 0 0 1 204.927 989)">ACTIVITIES</text><text fill="#FFFFFF" font-family="Calibri,Calibri_MSFontService,sans-serif" font-weight="700" font-size="50" transform="matrix(1 0 0 1 223.008 1091)">(Objects)</text><rect x="725.5" y="653.5" width="362" height="223" stroke="#AE5A21" stroke-width="4.58333" stroke-miterlimit="8" fill="#ED7D31"/><text fill="#FFFFFF" font-family="Calibri,Calibri_MSFontService,sans-serif" font-weight="700" font-size="50" transform="matrix(1 0 0 1 840.395 731)">TASKS</text><text fill="#FFFFFF" font-family="Calibri,Calibri_MSFontService,sans-serif" font-weight="700" font-size="50" transform="matrix(1 0 0 1 797.656 833)">(Quantity)</text><path d="M550 532.854 638.522 532.854 638.522 764.198 637.376 763.052 701.836 763.052 701.836 765.344 636.23 765.344 636.23 534 637.376 535.146 550 535.146ZM697.252 750.448 724.752 764.198 697.252 777.948Z" fill="#4472C4"/><path d="M0-1.14583 90.3358-1.14583 90.3358 257.757 89.19 256.611 155.463 256.611 155.463 258.903 88.0442 258.903 88.0442 0 89.19 1.14583 0 1.14583ZM150.88 244.007 178.38 257.757 150.88 271.507Z" fill="#4472C4" transform="matrix(1 0 0 -1 547 1021.76)"/><rect x="718.5" y="1093.5" width="375" height="223" stroke="#AE5A21" stroke-width="4.58333" stroke-miterlimit="8" fill="#FF0000"/><text fill="#FFFFFF" font-family="Calibri,Calibri_MSFontService,sans-serif" font-weight="700" font-size="50" transform="matrix(1 0 0 1 796.747 1189)">MATERIAL</text><text fill="#FFFFFF" font-family="Calibri,Calibri_MSFontService,sans-serif" font-weight="700" font-size="50" transform="matrix(1 0 0 1 828.075 1254)">INPUTS</text><rect x="725.5" y="251.5" width="361" height="223" stroke="#AE5A21" stroke-width="4.58333" stroke-miterlimit="8" fill="#0070C0"/><text fill="#FFFFFF" font-family="Calibri,Calibri_MSFontService,sans-serif" font-weight="700" font-size="50" transform="matrix(1 0 0 1 764.81 329)">COMPONENT</text><text fill="#FFFFFF" font-family="Calibri,Calibri_MSFontService,sans-serif" font-weight="700" font-size="50" transform="matrix(1 0 0 1 805.441 431)">OUTPUTS</text><path d="M3.4375-0.00131894 3.51171 193.415-3.36329 193.418-3.4375 0.00131894ZM13.8225 188.828 0.0830052 216.333-13.6775 188.839Z" transform="matrix(1 0 0 -1 906.5 1092.83)"/><path d="M903.148 653.384 903.073 497.418 909.948 497.415 910.023 653.381ZM892.763 502.006 906.5 474.5 920.263 501.993Z"/><rect x="1134.5" y="653.5" width="361" height="223" stroke="#AE5A21" stroke-width="4.58333" stroke-miterlimit="8" fill="#ED7D31"/><text fill="#FFFFFF" font-family="Calibri,Calibri_MSFontService,sans-serif" font-weight="700" font-size="50" transform="matrix(1 0 0 1 1215.18 731)">INVOICES</text><text fill="#FFFFFF" font-family="Calibri,Calibri_MSFontService,sans-serif" font-weight="700" font-size="50" transform="matrix(1 0 0 1 1239.29 833)">(Value)</text><rect x="1127.5" y="1092.5" width="375" height="224" stroke="#AE5A21" stroke-width="4.58333" stroke-miterlimit="8" fill="#0070C0"/><text fill="#FFFFFF" font-family="Calibri,Calibri_MSFontService,sans-serif" font-weight="700" font-size="50" transform="matrix(1 0 0 1 1201.89 1189)">FINANCIAL</text><text fill="#FFFFFF" font-family="Calibri,Calibri_MSFontService,sans-serif" font-weight="700" font-size="50" transform="matrix(1 0 0 1 1214.4 1254)">OUTPUTS</text><rect x="1134.5" y="251.5" width="361" height="223" stroke="#AE5A21" stroke-width="4.58333" stroke-miterlimit="8" fill="#FF0000"/><text fill="#FFFFFF" font-family="Calibri,Calibri_MSFontService,sans-serif" font-weight="700" font-size="50" transform="matrix(1 0 0 1 1201.89 328)">FINANCIAL</text><text fill="#FFFFFF" font-family="Calibri,Calibri_MSFontService,sans-serif" font-weight="700" font-size="50" transform="matrix(1 0 0 1 1237.06 430)">INPUTS</text><path d="M3.4375-0.00127865 3.50945 193.44-3.36555 193.443-3.4375 0.00127865ZM13.8202 188.853 0.080479 216.358-13.6797 188.863Z" transform="matrix(-1 0 0 1 1315.58 876.5)"/><path d="M1318.94 474.498 1319.01 630.668 1312.13 630.671 1312.06 474.501ZM1329.32 626.08 1315.58 653.586 1301.82 626.092Z"/><rect x="2045.5" y="659.5" width="361" height="224" stroke="#787878" stroke-width="4.58333" stroke-miterlimit="8" fill="#A5A5A5"/><text fill="#FFFFFF" font-family="Calibri,Calibri_MSFontService,sans-serif" font-weight="700" font-size="50" transform="matrix(1 0 0 1 2116.4 738)">NETWORK</text><text fill="#FFFFFF" font-family="Calibri,Calibri_MSFontService,sans-serif" font-weight="700" font-size="50" transform="matrix(1 0 0 1 2107 840)">(Ethereum)</text><rect x="2471.5" y="663.5" width="362" height="223" stroke="#BC8C00" stroke-width="4.58333" stroke-miterlimit="8" fill="#FFC000"/><text fill="#FFFFFF" font-family="Calibri,Calibri_MSFontService,sans-serif" font-weight="700" font-size="50" transform="matrix(1 0 0 1 2567.62 741)">WALLET</text><text fill="#FFFFFF" font-family="Calibri,Calibri_MSFontService,sans-serif" font-weight="700" font-size="50" transform="matrix(1 0 0 1 2563.24 843)">(Bitcoin)</text><path d="M0 1.14583-206.249 1.14583-205.103 0-205.103 1319.99-206.249 1318.84 386.024 1318.84 386.024 1321.13-207.395 1321.13-207.395-1.14583 0-1.14583ZM381.441 1306.24 408.941 1319.99 381.441 1333.74Z" fill="#4472C4" transform="matrix(1.83697e-16 1 1 -1.83697e-16 906 251)"/><path d="M2227.13 883 2227.13 1475.42 904.854 1475.42 904.854 1339.07 907.146 1339.07 907.146 1474.28 906 1473.13 2225.98 1473.13 2224.84 1474.28 2224.84 883ZM892.25 1343.65 906 1316.15 919.75 1343.65Z" fill="#4472C4"/><rect x="1564.5" y="416.5" width="361" height="223" stroke="#000000" stroke-width="4.58333" stroke-miterlimit="8"/><text fill="#FFFFFF" font-family="Calibri,Calibri_MSFontService,sans-serif" font-weight="700" font-size="50" transform="matrix(1 0 0 1 1633.47 493)">COMPANY</text><text fill="#FFFFFF" font-family="Calibri,Calibri_MSFontService,sans-serif" font-weight="700" font-size="50" transform="matrix(1 0 0 1 1616.44 595)">STATEMENT</text><rect x="1564.5" y="893.5" width="361" height="223" stroke="#000000" stroke-width="4.58333" stroke-miterlimit="8"/><text fill="#FFFFFF" font-family="Calibri,Calibri_MSFontService,sans-serif" font-weight="700" font-size="50" transform="matrix(1 0 0 1 1687.75 971)">CASH</text><text fill="#FFFFFF" font-family="Calibri,Calibri_MSFontService,sans-serif" font-weight="700" font-size="50" transform="matrix(1 0 0 1 1627.73 1073)">ACCOUNTS</text><path d="M0 0 47.6017 0.114403" stroke="#4472C4" stroke-width="6.875" stroke-miterlimit="8" fill="none" fill-rule="evenodd" transform="matrix(1 0 0 -1 1086.5 362.615)"/><path d="M0 0 47.4068 0.114403" stroke="#4472C4" stroke-width="6.875" stroke-miterlimit="8" fill="none" fill-rule="evenodd" transform="matrix(1 0 0 -1 1087.5 764.614)"/><path d="M0 0 33.8459 0.34393" stroke="#4472C4" stroke-width="6.875" stroke-miterlimit="8" fill="none" fill-rule="evenodd" transform="matrix(1 0 0 -1 1093.5 1204.84)"/><path d="M2653.33 886 2653.33 1005.78 1947.92 1005.78 1947.92 1003.48 2652.18 1003.48 2651.03 1004.63 2651.03 886ZM1952.5 1018.38 1925 1004.63 1952.5 990.88Z" fill="#4472C4"/><path d="M1925 525.854 2653.1 525.854 2653.1 639.943 2650.81 639.943 2650.81 527 2651.95 528.146 1925 528.146ZM2665.7 635.359 2651.95 662.859 2638.2 635.359Z" fill="#4472C4"/><path d="M103.5 1570.25 2690 1570.25 2690 1526.5 2777.5 1614 2690 1701.5 2690 1657.75 103.5 1657.75Z" stroke="#2F528F" stroke-width="4.58333" stroke-miterlimit="8" fill="#4472C4" fill-rule="evenodd"/><text font-family="Calibri,Calibri_MSFontService,sans-serif" font-weight="700" font-size="50" transform="matrix(1 0 0 1 1284.23 1629)">SEQUENCE</text><rect x="412" y="1729" width="1623" height="120" fill="#FFFFFF"/><text font-family="Calibri,Calibri_MSFontService,sans-serif" font-weight="700" font-size="64" transform="matrix(1 0 0 1 611.408 1807)">Figure 1a: Production System Implementation</text><path d="M45.4999 351.171C45.4999 235.373 139.372 141.5 255.17 141.5L1773.83 141.5C1889.63 141.5 1983.5 235.373 1983.5 351.171L1983.5 1189.83C1983.5 1305.63 1889.63 1399.5 1773.83 1399.5L255.17 1399.5C139.372 1399.5 45.4999 1305.63 45.4999 1189.83Z" stroke="#00B050" stroke-width="4.58333" stroke-miterlimit="8" fill="none" fill-rule="evenodd"/><rect x="158" y="216" width="365" height="138" fill="#FFFFFF"/><text font-family="Calibri,Calibri_MSFontService,sans-serif" font-weight="700" font-size="64" transform="matrix(1 0 0 1 268.384 295)">Node </text></g></svg>