<svg width="2688" height="1262" xmlns="http://www.w3.org/2000/svg" xmlns:xlink="http://www.w3.org/1999/xlink" xml:space="preserve" overflow="hidden"><defs><clipPath id="clip0"><rect x="0" y="0" width="2688" height="1262"/></clipPath></defs><g clip-path="url(#clip0)"><rect x="0" y="0" width="2688" height="1262" fill="#FFFFFF"/><path d="M663.5 229.503C663.5 156.048 723.047 96.5001 796.503 96.5001L1878.5 96.5001C1951.95 96.5001 2011.5 156.048 2011.5 229.503L2011.5 761.497C2011.5 834.952 1951.95 894.5 1878.5 894.5L796.503 894.5C723.047 894.5 663.5 834.952 663.5 761.497Z" stroke="#00B050" stroke-width="4.58333" stroke-miterlimit="8" fill="none" fill-rule="evenodd"/><rect x="85.5001" y="154.5" width="458" height="224" stroke="#1F4E79" stroke-width="4.58333" stroke-miterlimit="8" fill="#5B9BD5"/><text fill="#FFFFFF" font-family="Calibri,Calibri_MSFontService,sans-serif" font-weight="700" font-size="50" transform="matrix(1 0 0 1 209.11 232)">Org.tbOrg</text><text fill="#FFFFFF" font-family="Calibri,Calibri_MSFontService,sans-serif" font-weight="700" font-size="50" transform="matrix(1 0 0 1 220.935 334)">(Subject)</text><rect x="82.5" y="642.5" width="457" height="224" stroke="#507E32" stroke-width="4.58333" stroke-miterlimit="8" fill="#70AD47"/><text fill="#FFFFFF" font-family="Calibri,Calibri_MSFontService,sans-serif" font-weight="700" font-size="50" transform="matrix(1 0 0 1 122.39 720)">Activity.tbActivity</text><text fill="#FFFFFF" font-family="Calibri,Calibri_MSFontService,sans-serif" font-weight="700" font-size="50" transform="matrix(1 0 0 1 225.79 822)">(Object)</text><rect x="718.5" y="384.5" width="361" height="224" stroke="#AE5A21" stroke-width="4.58333" stroke-miterlimit="8" fill="#ED7D31"/><text fill="#FFFFFF" font-family="Calibri,Calibri_MSFontService,sans-serif" font-weight="700" font-size="50" transform="matrix(1 0 0 1 775.31 463)">Task.tbTask</text><text fill="#FFFFFF" font-family="Calibri,Calibri_MSFontService,sans-serif" font-weight="700" font-size="50" transform="matrix(1 0 0 1 790.389 565)">(Quantity)</text><path d="M543 264.854 631.522 264.854 631.522 496.198 630.376 495.052 694.836 495.052 694.836 497.344 629.23 497.344 629.23 266 630.376 267.146 543 267.146ZM690.253 482.448 717.753 496.198 690.253 509.948Z" fill="#4472C4"/><path d="M0-1.14583 90.3358-1.14583 90.3358 257.757 89.19 256.611 155.463 256.611 155.463 258.903 88.0442 258.903 88.0442 0 89.19 1.14583 0 1.14583ZM150.88 244.007 178.38 257.757 150.88 271.507Z" fill="#4472C4" transform="matrix(1 0 0 -1 539 753.757)"/><rect x="1127.5" y="384.5" width="430" height="224" stroke="#AE5A21" stroke-width="4.58333" stroke-miterlimit="8" fill="#ED7D31"/><text fill="#FFFFFF" font-family="Calibri,Calibri_MSFontService,sans-serif" font-weight="700" font-size="50" transform="matrix(1 0 0 1 1162.38 463)">Invoice.tbInvoice</text><text fill="#FFFFFF" font-family="Calibri,Calibri_MSFontService,sans-serif" font-weight="700" font-size="50" transform="matrix(1 0 0 1 1266.29 565)">(Value)</text><path d="M0 0 47.4068 0.114403" stroke="#4472C4" stroke-width="6.875" stroke-miterlimit="8" fill="none" fill-rule="evenodd" transform="matrix(1 0 0 -1 1079.5 496.614)"/><rect x="178" y="1000" width="1622" height="120" fill="#FFFFFF"/><text font-family="Calibri,Calibri_MSFontService,sans-serif" font-weight="700" font-size="64" transform="matrix(1 0 0 1 570.145 1078)">Figure 1b: Node Schema Design</text><path d="M898.5 385.047 898.5 259.5 1711.13 259.5" stroke="#FFC000" stroke-width="12.6042" stroke-miterlimit="8" fill="none" fill-rule="evenodd"/><path d="M0 0 128.713 0 128.713 369.37" stroke="#FFC000" stroke-width="12.6042" stroke-miterlimit="8" fill="none" fill-rule="evenodd" transform="matrix(1.83697e-16 1 1 -1.83697e-16 1342.5 608.5)"/><rect x="704" y="673" width="365" height="138" fill="#FFFFFF"/><text font-family="Calibri,Calibri_MSFontService,sans-serif" font-weight="700" font-size="64" transform="matrix(1 0 0 1 771.628 752)">(Project)</text><path d="M0 0 233.75 3.43786" stroke="#FFC000" stroke-width="12.6042" stroke-miterlimit="8" fill="none" fill-rule="evenodd" transform="matrix(1 0 0 -1 2214.5 268.938)"/><path d="M0 0 3.4375 220" stroke="#FFC000" stroke-width="12.6042" stroke-miterlimit="8" fill="none" fill-rule="evenodd" transform="matrix(-1 0 0 1 2358.94 151.5)"/><path d="M0 0 233.75 3.4375" stroke="#FFC000" stroke-width="12.6042" stroke-miterlimit="8" fill="none" fill-rule="evenodd" transform="matrix(1 0 0 -1 2213.5 738.938)"/><path d="M0 0 3.4375 220" stroke="#FFC000" stroke-width="12.6042" stroke-miterlimit="8" fill="none" fill-rule="evenodd" transform="matrix(-1 0 0 1 2357.94 622.5)"/><rect x="1711.5" y="147.5" width="499" height="223" stroke="#000000" stroke-width="4.58333" stroke-miterlimit="8"/><text fill="#FFFFFF" font-family="Calibri,Calibri_MSFontService,sans-serif" font-weight="700" font-size="50" transform="matrix(1 0 0 1 1778.2 276)">Task.tbAllocation</text><rect x="1711.5" y="625.5" width="502" height="223" stroke="#000000" stroke-width="4.58333" stroke-miterlimit="8"/><text fill="#FFFFFF" font-family="Calibri,Calibri_MSFontService,sans-serif" font-weight="700" font-size="50" transform="matrix(1 0 0 1 1789.38 754)">Invoice.tbMirror</text></g></svg>