<svg width="2121" height="1155" xmlns="http://www.w3.org/2000/svg" xmlns:xlink="http://www.w3.org/1999/xlink" xml:space="preserve" overflow="hidden"><defs><clipPath id="clip0"><rect x="0" y="0" width="2121" height="1155"/></clipPath></defs><g clip-path="url(#clip0)"><rect x="0" y="0" width="2121" height="1155" fill="#FFFFFF"/><rect x="35.4999" y="436.5" width="2031" height="47.0001" stroke="#2F528F" stroke-width="4.58333" stroke-miterlimit="8" fill="#4472C4"/><rect x="1251.5" y="369.5" width="516" height="173" stroke="#AE5A21" stroke-width="4.58333" stroke-miterlimit="8" fill="#FF0000"/><text fill="#FFFFFF" font-family="Calibri,Calibri_MSFontService,sans-serif" font-weight="700" font-size="50" transform="matrix(1 0 0 1 1438.93 473)">BUYER</text><rect x="92.5" y="371.5" width="516" height="173" stroke="#AE5A21" stroke-width="4.58333" stroke-miterlimit="8"/><text fill="#FFFFFF" font-family="Calibri,Calibri_MSFontService,sans-serif" font-weight="700" font-size="50" transform="matrix(1 0 0 1 278.143 475)">SELLER</text><rect x="766.5" y="86.5001" width="377" height="114" stroke="#787878" stroke-width="4.58333" stroke-miterlimit="8" fill="#A5A5A5"/><text fill="#FFFFFF" font-family="Calibri,Calibri_MSFontService,sans-serif" font-weight="700" font-size="50" transform="matrix(1 0 0 1 893.948 152)">LAWS</text><rect x="760.5" y="242.5" width="377" height="114" stroke="#507E32" stroke-width="4.58333" stroke-miterlimit="8" fill="#70AD47"/><text fill="#FFFFFF" font-family="Calibri,Calibri_MSFontService,sans-serif" font-weight="700" font-size="50" transform="matrix(1 0 0 1 870.833 307)">GOODS</text><rect x="733.5" y="725.5" width="377" height="114" stroke="#BC8C00" stroke-width="4.58333" stroke-miterlimit="8" fill="#FFC000"/><text fill="#FFFFFF" font-family="Calibri,Calibri_MSFontService,sans-serif" font-weight="700" font-size="50" transform="matrix(1 0 0 1 864.875 789)">CASH</text><text font-family="Calibri,Calibri_MSFontService,sans-serif" font-weight="700" font-size="50" transform="matrix(1 0 0 1 1614.78 141)">Supply Chain</text><text font-family="Calibri,Calibri_MSFontService,sans-serif" font-weight="700" font-size="50" transform="matrix(1 0 0 1 1608.14 789)">Value Chain</text><path d="M345.917 371.496 345.917 138.92 743.489 138.92 743.489 148.087 350.5 148.087 355.083 143.504 355.083 371.496ZM738.906 129.754 766.406 143.504 738.906 157.254Z" fill="#FF0000"/><path d="M345.917 372.195 345.917 294.918 737.742 294.918 737.742 304.084 350.5 304.084 355.083 299.501 355.083 372.195ZM733.159 285.751 760.659 299.501 733.159 313.251Z" fill="#FF0000"/><path d="M1143.5 138.917 1513.97 138.917 1513.97 346.652 1504.8 346.652 1504.8 143.5 1509.38 148.083 1143.5 148.083ZM1523.13 342.068 1509.38 369.568 1495.63 342.068Z" fill="#FF0000"/><path d="M1137.5 294.917 1513.88 294.917 1513.88 347.347 1504.72 347.347 1504.72 299.5 1509.3 304.083 1137.5 304.083ZM1523.05 342.763 1509.3 370.263 1495.55 342.763Z" fill="#FF0000"/><path d="M1514.38 542.5 1514.38 786.739 1133.42 786.739 1133.42 777.572 1509.8 777.572 1505.22 782.155 1505.22 542.5ZM1138 795.905 1110.5 782.155 1138 768.405Z" fill="#4472C4"/><path d="M719.276 779.06 345.917 779.06 345.917 567.413 355.083 567.413 355.083 774.477 350.5 769.894 719.276 769.894ZM336.75 571.996 350.5 544.496 364.25 571.996Z" fill="#4472C4"/><text font-family="Calibri,Calibri_MSFontService,sans-serif" font-weight="700" font-size="62" transform="matrix(1 0 0 1 607.831 1005)">Figure 2: Sovereignty in Trade</text></g></svg>