<svg width="1853" height="904" xmlns="http://www.w3.org/2000/svg" xmlns:xlink="http://www.w3.org/1999/xlink" xml:space="preserve" overflow="hidden"><defs><clipPath id="clip0"><rect x="0" y="0" width="1853" height="904"/></clipPath></defs><g clip-path="url(#clip0)"><rect x="0" y="0" width="1853" height="904" fill="#FFFFFF"/><rect x="351" y="244" width="687" height="76" stroke="#000000" stroke-width="2.29167" stroke-linejoin="round" stroke-miterlimit="10" fill="#FFFFFF"/><text font-family="Calibri,Calibri_MSFontService,sans-serif" font-weight="400" font-size="50" transform="matrix(1 0 0 1 487.644 293)">INFINITE TERRITORY</text><rect x="130" y="725" width="1623" height="120" fill="#FFFFFF"/><text font-family="Calibri,Calibri_MSFontService,sans-serif" font-weight="700" font-size="64" transform="matrix(1 0 0 1 630.246 803)">Figure 2: Store of Value</text><rect x="350.5" y="319.5" width="595" height="173" stroke="#000000" stroke-width="4.58333" stroke-miterlimit="8" fill="#FBE5D6"/><text font-family="Calibri,Calibri_MSFontService,sans-serif" font-weight="700" font-size="50" transform="matrix(1 0 0 1 597.628 423)">RICH</text><rect x="949.5" y="319.5" width="89.0001" height="173" stroke="#000000" stroke-width="4.58333" stroke-miterlimit="8" fill="#E2F0D9"/><text font-family="Calibri,Calibri_MSFontService,sans-serif" font-weight="700" font-size="50" transform="matrix(6.12323e-17 1 -1 6.12323e-17 976.433 344)">POOR</text><path d="M945.5 424.25 882 424.25 882 440.5 849.5 408 882 375.5 882 391.75 945.5 391.75Z" stroke="#2F528F" stroke-width="4.58333" stroke-miterlimit="8" fill="#4472C4" fill-rule="evenodd"/><rect x="48.5" y="316.5" width="241" height="173" stroke="#BC8C00" stroke-width="4.58333" stroke-miterlimit="8" fill="#FFC000"/><text font-family="Calibri,Calibri_MSFontService,sans-serif" font-weight="700" font-size="50" transform="matrix(1 0 0 1 87.1822 387)">MONEY </text><text font-family="Calibri,Calibri_MSFontService,sans-serif" font-weight="700" font-size="50" transform="matrix(1 0 0 1 89.3135 452)">SUPPLY</text><path d="M289.064 400.856 327.706 403.015 327.578 405.303 288.936 403.144ZM323.833 390.175 350.523 405.437 322.299 417.632Z" fill="#4472C4"/><rect x="1097" y="244" width="687" height="74.9999" stroke="#000000" stroke-width="2.29167" stroke-linejoin="round" stroke-miterlimit="10" fill="#FFFFFF"/><text font-family="Calibri,Calibri_MSFontService,sans-serif" font-weight="400" font-size="50" transform="matrix(1 0 0 1 1256.31 293)">FINITE TERRITORY</text><rect x="1096.5" y="319.5" width="475" height="173" stroke="#000000" stroke-width="4.58333" stroke-miterlimit="8" fill="#FBE5D6"/><text font-family="Calibri,Calibri_MSFontService,sans-serif" font-weight="700" font-size="50" transform="matrix(1 0 0 1 1283.41 422)">RICH</text><rect x="1568.5" y="319.5" width="216" height="173" stroke="#000000" stroke-width="4.58333" stroke-miterlimit="8" fill="#E2F0D9"/><text font-family="Calibri,Calibri_MSFontService,sans-serif" font-weight="700" font-size="50" transform="matrix(6.12323e-17 1 -1 6.12323e-17 1658.83 344)">POOR</text><path d="M1571.5 380.75 1635 380.75 1635 364.5 1667.5 397 1635 429.5 1635 413.25 1571.5 413.25Z" stroke="#2F528F" stroke-width="4.58333" stroke-miterlimit="8" fill="#4472C4" fill-rule="evenodd"/><path d="M649.146 492.458 649.146 574.958 648 573.812 1333.78 573.812 1332.64 574.958 1332.64 514.917 1334.93 514.917 1334.93 576.104 646.854 576.104 646.854 492.458ZM1320.03 519.5 1333.78 492 1347.53 519.5Z" fill="#4472C4"/><path d="M1438.9 244 1438.9 161.5 1440.04 162.646 694 162.646 695.146 161.5 695.146 221.435 692.854 221.435 692.854 160.354 1441.19 160.354 1441.19 244ZM707.75 216.852 694 244.352 680.25 216.852Z" fill="#4472C4"/><text font-family="Calibri,Calibri_MSFontService,sans-serif" font-weight="700" font-size="50" transform="matrix(1 0 0 1 807.801 131)">Increasing Exchange Rate</text><text font-family="Calibri,Calibri_MSFontService,sans-serif" font-weight="700" font-size="50" transform="matrix(1 0 0 1 823.09 635)">Money Transfer</text></g></svg>