<svg width="2853" height="1537" xmlns="http://www.w3.org/2000/svg" xmlns:xlink="http://www.w3.org/1999/xlink" xml:space="preserve" overflow="hidden"><defs><clipPath id="clip0"><rect x="0" y="0" width="2853" height="1537"/></clipPath><linearGradient x1="1154.5" y1="1210" x2="1154.5" y2="1330" gradientUnits="userSpaceOnUse" spreadMethod="reflect" id="fill1"><stop offset="0" stop-color="#B1CBE9"/><stop offset="0.5" stop-color="#A3C1E5"/><stop offset="1" stop-color="#92B9E4"/></linearGradient><linearGradient x1="388" y1="1210" x2="388" y2="1330" gradientUnits="userSpaceOnUse" spreadMethod="reflect" id="fill2"><stop offset="0" stop-color="#FFDD9C"/><stop offset="0.5" stop-color="#FFD78E"/><stop offset="1" stop-color="#FFD479"/></linearGradient></defs><g clip-path="url(#clip0)"><rect x="0" y="0" width="2853" height="1537" fill="#FFFFFF"/><path d="M58.4999 474.169C58.4999 423.542 99.5416 382.5 150.169 382.5L2335.83 382.5C2386.46 382.5 2427.5 423.542 2427.5 474.169L2427.5 840.831C2427.5 891.458 2386.46 932.5 2335.83 932.5L150.169 932.5C99.5416 932.5 58.4999 891.458 58.4999 840.831Z" stroke="#2F528F" stroke-width="4.58333" stroke-miterlimit="8" fill="none" fill-rule="evenodd"/><rect x="894.5" y="76.5002" width="515" height="264" stroke="#787878" stroke-width="4.58333" stroke-miterlimit="8" fill="#A5A5A5"/><text font-family="Calibri,Calibri_MSFontService,sans-serif" font-weight="700" font-size="50" transform="matrix(1 0 0 1 978.736 225)">COAL COMPANY</text><rect x="890.5" y="488.5" width="516" height="120" stroke="#000000" stroke-width="4.58333" stroke-miterlimit="8"/><text fill="#FFFFFF" font-family="Calibri,Calibri_MSFontService,sans-serif" font-weight="700" font-size="50" transform="matrix(1 0 0 1 1016.19 566)">COAL MINES</text><rect x="887.5" y="687.5" width="515" height="120" stroke="#2F528F" stroke-width="4.58333" stroke-miterlimit="8" fill="#4472C4"/><text fill="#FFFFFF" font-family="Calibri,Calibri_MSFontService,sans-serif" font-weight="700" font-size="50" transform="matrix(1 0 0 1 1056.98 764)">PROFITS</text><rect x="893.5" y="983.5" width="516" height="120" stroke="#AE5A21" stroke-width="4.58333" stroke-miterlimit="8" fill="#ED7D31"/><text fill="#FFFFFF" font-family="Calibri,Calibri_MSFontService,sans-serif" font-weight="700" font-size="50" transform="matrix(1 0 0 1 1006.61 1060)">NEW CAPITAL</text><path d="M1.14546-0.0294318 4.34619 124.54 2.05528 124.599-1.14546 0.0294318ZM16.8285 119.634 3.78937 147.478-10.6625 120.341Z" fill="#4472C4" transform="matrix(-1 0 0 1 1151.79 340)"/><path d="M1.14475-0.0497718 3.58682 56.1177 1.29731 56.2172-1.14475 0.0497718ZM15.98 50.9912 3.4375 79.0625-11.494 52.1857Z" fill="#4472C4" transform="matrix(-1 0 0 1 1147.44 608)"/><path d="M1145.14 806.955 1151.12 959.598 1148.83 959.688 1142.86 807.045ZM1163.54 954.525 1150.88 982.542 1136.06 955.601Z" fill="#4472C4"/><rect x="127.5" y="484.5" width="515" height="348" stroke="#000000" stroke-width="4.58333" stroke-miterlimit="8"/><text fill="#FFFFFF" font-family="Calibri,Calibri_MSFontService,sans-serif" font-weight="700" font-size="50" transform="matrix(1 0 0 1 181.79 675)">MORE COAL MINES</text><rect x="127.5" y="983.5" width="515" height="120" stroke="#BC8C00" stroke-width="4.58333" stroke-miterlimit="8" fill="#FFC000"/><text font-family="Calibri,Calibri_MSFontService,sans-serif" font-weight="700" font-size="50" transform="matrix(1 0 0 1 263.923 1060)">RETENTION</text><path d="M892.937 1044.26 664.916 1044.16 664.917 1041.86 892.938 1041.97ZM669.494 1056.76 642 1043 669.506 1029.26Z" fill="#4472C4"/><path d="M1.14583-2.74058e-06 1.14614 127.972-1.14553 127.972-1.14583 2.74058e-06ZM13.7503 123.389 0.000360892 150.889-13.7497 123.389Z" fill="#4472C4" transform="matrix(1 0 0 -1 385 982.889)"/><path d="M0-1.14583 121.282-1.14583 121.282 125.852 120.137 124.706 217.356 124.706 217.356 126.998 118.991 126.998 118.991 0 120.137 1.14583 0 1.14583ZM212.773 112.102 240.273 125.852 212.773 139.602Z" fill="#4472C4" transform="matrix(1 0 0 -1 650 673.852)"/><rect x="1608.5" y="983.5" width="516" height="120" stroke="#000000" stroke-width="4.58333" stroke-miterlimit="8" fill="#C00000"/><text fill="#FFFFFF" font-family="Calibri,Calibri_MSFontService,sans-serif" font-weight="700" font-size="50" transform="matrix(1 0 0 1 1731.88 1060)">EXTRACTION</text><path d="M0.000657488-1.14583 176.459-1.04458 176.458 1.24709-0.000657488 1.14583ZM171.883-13.6514 199.375 0.114403 171.867 13.8486Z" fill="#4472C4" transform="matrix(1 0 0 -1 1409 1043.11)"/><rect x="1605.5" y="1213.5" width="516" height="121" stroke="#2F528F" stroke-width="4.58333" stroke-miterlimit="8" fill="#4472C4"/><text fill="#FFFFFF" font-family="Calibri,Calibri_MSFontService,sans-serif" font-weight="700" font-size="50" transform="matrix(1 0 0 1 1678.33 1290)">PRIVATE WEALTH</text><path d="M1.14528-0.0356656 3.86947 87.4424 1.57891 87.5138-1.14528 0.0356656ZM16.3249 82.469 3.4375 110.384-11.1618 83.3249Z" fill="#4472C4" transform="matrix(-1 0 0 1 1866.44 1103)"/><rect x="2234.5" y="990.5" width="516" height="110" stroke="#787878" stroke-width="4.58333" stroke-miterlimit="8" fill="#A5A5A5"/><text font-family="Calibri,Calibri_MSFontService,sans-serif" font-weight="700" font-size="50" transform="matrix(1 0 0 1 2295.58 1063)">STEAM PUMPS Co.</text><rect x="1602.5" y="502.5" width="515" height="347" stroke="#507E32" stroke-width="4.58333" stroke-miterlimit="8" fill="#70AD47"/><text fill="#FFFFFF" font-family="Calibri,Calibri_MSFontService,sans-serif" font-weight="700" font-size="50" transform="matrix(1 0 0 1 1753.08 642)">SUPERIOR</text><text fill="#FFFFFF" font-family="Calibri,Calibri_MSFontService,sans-serif" font-weight="700" font-size="50" transform="matrix(1 0 0 1 1782.09 744)">PUMPS</text><path d="M0-1.14583 315.467-1.14583 315.467 351.771 313.176 351.771 313.176 0 314.321 1.14583 0 1.14583ZM328.071 347.188 314.321 374.688 300.571 347.188Z" fill="#4472C4" transform="matrix(-1.83697e-16 -1 -1 1.83697e-16 2491.69 989.322)"/><path d="M1601.94 676.44 1502.82 676.44 1502.82 548 1503.97 549.146 1428.92 549.146 1428.92 546.854 1505.11 546.854 1505.11 675.294 1503.97 674.148 1601.94 674.148ZM1433.5 561.75 1406 548 1433.5 534.25Z" fill="#4472C4"/><text font-family="Calibri,Calibri_MSFontService,sans-serif" font-weight="700" font-size="50" transform="matrix(1 0 0 1 167.062 327)">ASSET LAYER</text><text font-family="Calibri,Calibri_MSFontService,sans-serif" font-weight="700" font-size="50" transform="matrix(1 0 0 1 1885.62 460)">PRODUCTION LAYER</text><rect x="450" y="1388" width="1622" height="121" fill="#FFFFFF"/><text font-family="Calibri,Calibri_MSFontService,sans-serif" font-weight="700" font-size="64" transform="matrix(1 0 0 1 865.05 1467)">Figure 1: Industrial Capitalism</text><rect x="2237.5" y="1213.5" width="516" height="120" stroke="#AE5A21" stroke-width="4.58333" stroke-miterlimit="8" fill="#ED7D31"/><text fill="#FFFFFF" font-family="Calibri,Calibri_MSFontService,sans-serif" font-weight="700" font-size="50" transform="matrix(1 0 0 1 2333.36 1290)">PUBLIC SHARES</text><path d="M0.00248378-1.14583 93.9609-0.94216 93.9559 1.3495-0.00248378 1.14583ZM89.4049-13.5562 116.875 0.253346 89.3453 13.9437Z" fill="#4472C4" transform="matrix(1 0 0 -1 2121 1273.25)"/><path d="M2491.21 1210 2490.93 1122.92 2493.22 1122.91 2493.5 1210ZM2478.34 1127.54 2492 1100 2505.84 1127.46Z" fill="#4472C4"/><rect x="897" y="1210" width="515" height="120" stroke="#5B9BD5" stroke-width="2.29167" stroke-miterlimit="8" fill="url(#fill1)"/><text font-family="Calibri,Calibri_MSFontService,sans-serif" font-weight="700" font-size="50" transform="matrix(1 0 0 1 1113.01 1287)">TAX</text><path d="M1152.15 1102.96 1154.85 1186.85 1152.55 1186.92 1149.85 1103.04ZM1167.3 1181.86 1154.44 1209.79 1139.81 1182.75Z" fill="#4472C4"/><rect x="130" y="1210" width="516" height="120" stroke="#FFC000" stroke-width="2.29167" stroke-miterlimit="8" fill="url(#fill2)"/><text font-family="Calibri,Calibri_MSFontService,sans-serif" font-weight="700" font-size="50" transform="matrix(1 0 0 1 199.905 1287)">INFRASTRUCTURE</text><path d="M1.64791e-06-1.14583 228.021-1.14551 228.021 1.14616-1.64791e-06 1.14583ZM223.438-13.7497 250.938 0.000360892 223.437 13.7503Z" fill="#4472C4" transform="matrix(-1 0 0 1 896.937 1270)"/></g></svg>