<svg width="2316" height="1561" xmlns="http://www.w3.org/2000/svg" xmlns:xlink="http://www.w3.org/1999/xlink" xml:space="preserve" overflow="hidden"><defs><clipPath id="clip0"><rect x="0" y="0" width="2316" height="1561"/></clipPath></defs><g clip-path="url(#clip0)"><rect x="0" y="0" width="2316" height="1561" fill="#FFFFFF"/><rect x="1543.5" y="471.5" width="516" height="347" stroke="#AE5A21" stroke-width="4.58333" stroke-miterlimit="8" fill="#ED7D31"/><text fill="#FFFFFF" font-family="Calibri,Calibri_MSFontService,sans-serif" font-weight="700" font-size="50" transform="matrix(1 0 0 1 1713.63 661)">CAPITAL</text><rect x="178.5" y="477.5" width="516" height="348" stroke="#507E32" stroke-width="4.58333" stroke-miterlimit="8" fill="#70AD47"/><text fill="#FFFFFF" font-family="Calibri,Calibri_MSFontService,sans-serif" font-weight="700" font-size="50" transform="matrix(1 0 0 1 329.957 618)">SUPERIOR</text><text fill="#FFFFFF" font-family="Calibri,Calibri_MSFontService,sans-serif" font-weight="700" font-size="50" transform="matrix(1 0 0 1 358.97 720)">PUMPS</text><path d="M1771.5 478.5 1651.39 379.501 1700.89 379.501C1625.11 204.66 1360.37 82.5009 1057.25 82.5009L1156.25 82.5C1459.37 82.5 1724.11 204.659 1799.89 379.5L1849.39 379.501Z" fill="#4472C4" fill-rule="evenodd"/><path d="M1106.75 83.5991C759.787 99.0329 491.499 271.234 491.499 478.5L392.5 478.5C392.5 259.795 690.119 82.5 1057.25 82.5 1073.77 82.5 1090.28 82.8667 1106.75 83.5994Z" fill="#375C9E" fill-rule="evenodd"/><path d="M1106.75 83.5991C759.787 99.0329 491.499 271.234 491.499 478.5L392.5 478.5C392.5 259.795 690.119 82.5 1057.25 82.5L1156.25 82.5C1459.37 82.5 1724.11 204.659 1799.89 379.5L1849.39 379.501 1771.5 478.5 1651.39 379.501 1700.89 379.501C1625.11 204.66 1360.37 82.5009 1057.25 82.5009" stroke="#2F528F" stroke-width="4.58333" stroke-miterlimit="8" fill="none" fill-rule="evenodd"/><path d="M480.25 821.5 600.115 920.25 550.74 920.25C626.542 1094.65 891.353 1216.5 1194.56 1216.5L1095.81 1216.5C792.601 1216.5 527.791 1094.65 451.988 920.25L402.615 920.25Z" fill="#4472C4" fill-rule="evenodd"/><path d="M1145.19 1215.41C1492.31 1200.05 1760.75 1028.27 1760.75 821.5L1859.5 821.5C1859.5 1039.65 1561.8 1216.5 1194.56 1216.5 1178.09 1216.5 1161.62 1216.14 1145.19 1215.41Z" fill="#375C9E" fill-rule="evenodd"/><path d="M1145.19 1215.41C1492.31 1200.05 1760.75 1028.27 1760.75 821.5L1859.5 821.5C1859.5 1039.65 1561.8 1216.5 1194.56 1216.5L1095.81 1216.5C792.601 1216.5 527.791 1094.65 451.988 920.25L402.615 920.25 480.25 821.5 600.115 920.25 550.74 920.25C626.542 1094.65 891.353 1216.5 1194.56 1216.5" stroke="#2F528F" stroke-width="4.58333" stroke-miterlimit="8" fill="none" fill-rule="evenodd"/><rect x="842.5" y="65.5002" width="515" height="303" stroke="#000000" stroke-width="4.58333" stroke-miterlimit="8"/><text fill="#FFFFFF" font-family="Calibri,Calibri_MSFontService,sans-serif" font-weight="700" font-size="50" transform="matrix(1 0 0 1 926.76 233)">COAL COMPANY</text><rect x="880.5" y="890.5" width="515" height="337" stroke="#787878" stroke-width="4.58333" stroke-miterlimit="8" fill="#A5A5A5"/><text font-family="Calibri,Calibri_MSFontService,sans-serif" font-weight="700" font-size="50" transform="matrix(1 0 0 1 980.465 1043)">STEAM PUMPS </text><text font-family="Calibri,Calibri_MSFontService,sans-serif" font-weight="700" font-size="50" transform="matrix(1 0 0 1 1026.57 1108)">COMPANY</text><path d="M364 71.9998 1917.75 1151.37" stroke="#92D050" stroke-width="26.3542" stroke-miterlimit="8" fill="none" fill-rule="evenodd"/><text font-family="Calibri,Calibri_MSFontService,sans-serif" font-weight="700" font-size="50" transform="matrix(0.819718 0.572767 -0.572767 0.819718 1113.25 468)">Primary Industry</text><text font-family="Calibri,Calibri_MSFontService,sans-serif" font-weight="700" font-size="50" transform="matrix(0.819718 0.572767 -0.572767 0.819718 822.753 542)">Secondary Industry</text><rect x="292" y="1313" width="1740" height="120" fill="#FFFFFF"/><text font-family="Calibri,Calibri_MSFontService,sans-serif" font-weight="700" font-size="64" transform="matrix(1 0 0 1 476.719 1391)">Figure 2: Industrial Capital </text><text font-family="Calibri,Calibri_MSFontService,sans-serif" font-weight="700" font-size="64" transform="matrix(1 0 0 1 1189.98 1391)">-</text><text font-family="Calibri,Calibri_MSFontService,sans-serif" font-weight="700" font-size="64" transform="matrix(1 0 0 1 1224.12 1391)">Positive Feedback Loop</text></g></svg>