<svg width="2032" height="2032" xmlns="http://www.w3.org/2000/svg" xmlns:xlink="http://www.w3.org/1999/xlink" xml:space="preserve" overflow="hidden"><defs><clipPath id="clip0"><rect x="0" y="0" width="2032" height="2032"/></clipPath></defs><g clip-path="url(#clip0)"><text font-family="Calibri,Calibri_MSFontService,sans-serif" font-weight="700" font-size="62" transform="matrix(1 0 0 1 580.883 1902)">Figure 6: Consumption Network</text><rect x="65.5002" y="498.5" width="352" height="164" stroke="#385723" stroke-width="4.58333" stroke-miterlimit="8" fill="#70AD47"/><text font-family="Calibri,Calibri_MSFontService,sans-serif" font-weight="400" font-size="41" transform="matrix(1 0 0 1 169.059 581)">SUBCON </text><text font-family="Calibri,Calibri_MSFontService,sans-serif" font-weight="400" font-size="41" transform="matrix(1 0 0 1 149.557 634)">ELECTRICS</text><path d="M995.54 282 995.54 389.939 241 389.939 241 497.877" stroke="#FF0000" stroke-width="13.75" stroke-miterlimit="8" fill="none" fill-rule="evenodd"/><rect x="442.5" y="498.5" width="352" height="164" stroke="#843C0C" stroke-width="4.58333" stroke-miterlimit="8" fill="#ED7D31"/><text font-family="Calibri,Calibri_MSFontService,sans-serif" font-weight="400" font-size="41" transform="matrix(1 0 0 1 488.002 536)">TRANSMISSION </text><text font-family="Calibri,Calibri_MSFontService,sans-serif" font-weight="400" font-size="41" transform="matrix(1 0 0 1 540.573 589)">FACTORY</text><path d="M995.56 282 995.56 389.938 618 389.938 618 497.877" stroke="#FF0000" stroke-width="13.75" stroke-miterlimit="8" fill="none" fill-rule="evenodd"/><path d="M0 0 107.917 0 107.917 0.793602 215.833 0.793602" stroke="#FF0000" stroke-width="13.75" stroke-miterlimit="8" fill="none" fill-rule="evenodd" transform="matrix(1.83697e-16 1 1 -1.83697e-16 996 282)"/><rect x="1205.5" y="498.5" width="373" height="164" stroke="#843C0C" stroke-width="4.58333" stroke-miterlimit="8" fill="#ED7D31"/><text font-family="Calibri,Calibri_MSFontService,sans-serif" font-weight="400" font-size="41" transform="matrix(1 0 0 1 1255.96 563)">CHASSIS MAKER</text><path d="M0 0 107.955 0 107.955 396.09 215.91 396.09" stroke="#FF0000" stroke-width="13.75" stroke-miterlimit="8" fill="none" fill-rule="evenodd" transform="matrix(1.83697e-16 1 1 -1.83697e-16 996 282)"/><path d="M34.375-6.875 114.81-6.875 114.81 798.813 107.935 791.938 215.87 791.938 215.87 805.688 101.06 805.688 101.06 0 107.935 6.875 34.375 6.875ZM41.25 20.625 0 0 41.25-20.625Z" fill="#FF0000" transform="matrix(1.83697e-16 1 1 -1.83697e-16 996 282)"/><path d="M927.292 217 927.292 364.367 166 364.367 172.875 357.492 172.875 463.609 159.125 463.609 159.125 350.617 920.417 350.617 913.542 357.492 913.542 217ZM186.625 456.734 166 497.984 145.375 456.734Z" fill="#5B9BD5"/><path d="M927.312 217 927.312 364.367 543 364.367 549.875 357.492 549.875 463.609 536.125 463.609 536.125 350.617 920.437 350.617 913.562 357.492 913.562 217ZM563.625 456.734 543 497.984 522.375 456.734Z" fill="#5B9BD5"/><path d="M0-6.875 147.367-6.875 147.367 0.6875 140.492-6.1875 246.609-6.1875 246.609 7.5625 133.617 7.5625 133.617 0 140.492 6.875 0 6.875ZM239.734-19.9375 280.984 0.6875 239.734 21.3125Z" fill="#5B9BD5" transform="matrix(1.83697e-16 1 1 -1.83697e-16 921 217)"/><path d="M0-6.875 147.551-6.875 147.551 387.292 140.676 380.417 246.977 380.417 246.977 394.167 133.801 394.167 133.801 0 140.676 6.875 0 6.875ZM240.102 366.667 281.352 387.292 240.102 407.917Z" fill="#5B9BD5" transform="matrix(1.83697e-16 1 1 -1.83697e-16 921 217)"/><path d="M0-6.875 147.551-6.875 147.551 768.167 140.676 761.292 246.977 761.292 246.977 775.042 133.801 775.042 133.801 0 140.676 6.875 0 6.875ZM240.102 747.542 281.352 768.167 240.102 788.792Z" fill="#5B9BD5" transform="matrix(1.83697e-16 1 1 -1.83697e-16 921 217)"/><rect x="65.5002" y="1037.5" width="352" height="165" stroke="#843C0C" stroke-width="4.58333" stroke-miterlimit="8" fill="#ED7D31"/><text font-family="Calibri,Calibri_MSFontService,sans-serif" font-weight="400" font-size="41" transform="matrix(1 0 0 1 91.9106 1147)">PISTON FACTORY</text><path d="M995.416 779 995.416 907.906 241 907.906 241 1036.81" stroke="#FF0000" stroke-width="13.75" stroke-miterlimit="8" fill="none" fill-rule="evenodd"/><path d="M995.438 779 995.438 907.906 618 907.906 618 1036.81" stroke="#FF0000" stroke-width="13.75" stroke-miterlimit="8" fill="none" fill-rule="evenodd"/><path d="M0 0 128.906 0 128.906 0.6875 257.812 0.6875" stroke="#FF0000" stroke-width="13.75" stroke-miterlimit="8" fill="none" fill-rule="evenodd" transform="matrix(1.83697e-16 1 1 -1.83697e-16 996 779)"/><rect x="1609.5" y="1037.5" width="371" height="164" stroke="#203864" stroke-width="4.58333" stroke-miterlimit="8" fill="#4472C4"/><text fill="#FFFFFF" font-family="Calibri,Calibri_MSFontService,sans-serif" font-weight="400" font-size="41" transform="matrix(1 0 0 1 1635.44 1102)">MANIFOLD MAKER</text><path d="M0 0 128.906 0 128.906 396 257.812 396" stroke="#FF0000" stroke-width="13.75" stroke-miterlimit="8" fill="none" fill-rule="evenodd" transform="matrix(1.83697e-16 1 1 -1.83697e-16 996 779)"/><path d="M34.375-6.875 135.782-6.875 135.782 798.646 128.907 791.771 257.812 791.771 257.812 805.521 122.032 805.521 122.032 0 128.907 6.875 34.375 6.875ZM41.25 20.625 0 0 41.25-20.625Z" fill="#FF0000" transform="matrix(1.83697e-16 1 1 -1.83697e-16 996 779)"/><path d="M927.292 862 927.292 956.188 166 956.188 172.875 949.313 172.875 1002.25 159.125 1002.25 159.125 942.438 920.417 942.438 913.542 949.313 913.542 862ZM186.625 995.376 166 1036.63 145.375 995.376Z" fill="#5B9BD5"/><path d="M927.313 862 927.313 956.188 543 956.188 549.875 949.313 549.875 1002.25 536.125 1002.25 536.125 942.438 920.438 942.438 913.563 949.313 913.563 862ZM563.625 995.375 543 1036.63 522.375 995.375Z" fill="#5B9BD5"/><path d="M0-6.875 94.1879-6.875 94.1879 0.6875 87.3129-6.1875 140.25-6.1875 140.25 7.5625 80.4379 7.5625 80.4379 0 87.3129 6.875 0 6.875ZM133.375-19.9375 174.625 0.6875 133.375 21.3125Z" fill="#5B9BD5" transform="matrix(1.83697e-16 1 1 -1.83697e-16 921 862)"/><path d="M0-6.875 94.3021-6.875 94.3021 387.292 87.4271 380.417 140.479 380.417 140.479 394.167 80.5521 394.167 80.5521 0 87.4271 6.875 0 6.875ZM133.604 366.667 174.854 387.292 133.604 407.917Z" fill="#5B9BD5" transform="matrix(1.83697e-16 1 1 -1.83697e-16 921 862)"/><path d="M0-6.875 94.3021-6.875 94.3021 768.167 87.4271 761.292 140.479 761.292 140.479 775.042 80.5521 775.042 80.5521 0 87.4271 6.875 0 6.875ZM133.604 747.542 174.854 768.167 133.604 788.792Z" fill="#5B9BD5" transform="matrix(1.83697e-16 1 1 -1.83697e-16 921 862)"/><path d="M0 0 0.000360892 91.8958" stroke="#4472C4" stroke-width="13.75" stroke-miterlimit="8" fill="none" fill-rule="evenodd" transform="matrix(1 0 0 -1 921 870.896)"/><rect x="819.5" y="498.5" width="355" height="281" stroke="#843C0C" stroke-width="4.58333" stroke-miterlimit="8" fill="#ED7D31"/><text font-family="Calibri,Calibri_MSFontService,sans-serif" font-weight="400" font-size="41" transform="matrix(1 0 0 1 849.257 621)">ENGINE FACTORY</text><path d="M6.8753 34.3749 6.87572 83.0088-6.87428 83.0089-6.8747 34.3751ZM-20.6246 41.2502 0 0 20.6254 41.2498Z" fill="#FF0000" transform="matrix(-1 0 0 1 241.001 664)"/><path d="M6.87515 34.375 6.87536 84.6772-6.87464 84.6773-6.87485 34.375ZM-20.6248 41.2501 0 0 20.6252 41.2499Z" fill="#5B9BD5" transform="matrix(1 0 0 -1 166 746.677)"/><path d="M6.87515 34.375 6.87536 82.9583-6.87464 82.9584-6.87485 34.375ZM-20.6248 41.2501 0 0 20.6252 41.2499Z" fill="#FF0000" transform="matrix(-1 0 0 1 618 664)"/><path d="M6.87515 34.375 6.87536 84.5625-6.87464 84.5625-6.87485 34.375ZM-20.6248 41.2501 0 0 20.6252 41.2499Z" fill="#5B9BD5" transform="matrix(1 0 0 -1 543 746.563)"/><path d="M6.87515 34.375 6.87536 82.9583-6.87464 82.9584-6.87485 34.375ZM-20.6248 41.2501 0 0 20.6252 41.2499Z" fill="#FF0000" transform="matrix(-1 0 0 1 1392 664)"/><path d="M6.87515 34.375 6.87536 84.5625-6.87464 84.5625-6.87485 34.375ZM-20.6248 41.2501 0 0 20.6252 41.2499Z" fill="#5B9BD5" transform="matrix(1 0 0 -1 1317 746.563)"/><path d="M6.87515 34.375 6.87536 82.9583-6.87464 82.9584-6.87485 34.375ZM-20.6248 41.2501 0 0 20.6252 41.2499Z" fill="#FF0000" transform="matrix(-1 0 0 1 1791 662)"/><path d="M6.87515 34.375 6.87536 84.5625-6.87464 84.5625-6.87485 34.375ZM-20.6248 41.2501 0 0 20.6252 41.2499Z" fill="#5B9BD5" transform="matrix(1 0 0 -1 1716 744.562)"/><rect x="1609.5" y="498.5" width="371" height="164" stroke="#203864" stroke-width="4.58333" stroke-miterlimit="8" fill="#4472C4"/><text fill="#FFFFFF" font-family="Calibri,Calibri_MSFontService,sans-serif" font-weight="400" font-size="41" transform="matrix(1 0 0 1 1741.63 536)">CABIN </text><text fill="#FFFFFF" font-family="Calibri,Calibri_MSFontService,sans-serif" font-weight="400" font-size="41" transform="matrix(1 0 0 1 1687.43 589)">FABRICATOR</text><rect x="819.5" y="1410.5" width="355" height="282" stroke="#843C0C" stroke-width="4.58333" stroke-miterlimit="8" fill="#FF0000"/><text fill="#FFFFFF" font-family="Calibri,Calibri_MSFontService,sans-serif" font-weight="700" font-size="41" transform="matrix(1 0 0 1 877.559 1534)">STEEL WORKS</text><path d="M0-6.875 135.781-6.875 135.781 377.208 128.906 370.333 223.438 370.333 223.438 384.083 122.031 384.083 122.031 0 128.906 6.875 0 6.875ZM216.562 356.583 257.812 377.208 216.562 397.833Z" fill="#FF0000" transform="matrix(-1.83697e-16 -1 -1 1.83697e-16 992.208 1459.81)"/><path d="M985.125 1459.81 985.125 1324.03 992.688 1324.03 985.813 1330.91 985.813 1236.38 999.563 1236.38 999.563 1337.78 992 1337.78 998.875 1330.91 998.875 1459.81ZM972.063 1243.25 992.688 1202 1013.31 1243.25Z" fill="#FF0000"/><path d="M985.125 1459.81 985.125 1324.03 1387.77 1324.03 1380.9 1330.9 1380.9 1236.36 1394.65 1236.36 1394.65 1337.78 992 1337.78 998.875 1330.9 998.875 1459.81ZM1367.15 1243.24 1387.77 1201.99 1408.4 1243.24Z" fill="#FF0000"/><path d="M6.87515 34.375 6.87536 82.9583-6.87464 82.9584-6.87485 34.375ZM-20.6248 41.2501 0 0 20.6252 41.2499Z" fill="#FF0000" transform="matrix(-1 0 0 1 241 1202)"/><path d="M6.87515 34.375 6.87536 84.5625-6.87464 84.5625-6.87485 34.375ZM-20.6248 41.2501 0 0 20.6252 41.2499Z" fill="#5B9BD5" transform="matrix(1 0 0 -1 166 1284.56)"/><path d="M6.87515 34.375 6.87536 82.9583-6.87464 82.9584-6.87485 34.375ZM-20.6248 41.2501 0 0 20.6252 41.2499Z" fill="#FF0000" transform="matrix(-1 0 0 1 1784 1200)"/><path d="M6.87515 34.375 6.87536 84.5625-6.87464 84.5625-6.87485 34.375ZM-20.6248 41.2501 0 0 20.6252 41.2499Z" fill="#5B9BD5" transform="matrix(1 0 0 -1 1709 1282.56)"/><path d="M34.375-6.875 135.781-6.875 135.781 376.979 128.906 370.104 257.812 370.104 257.812 383.854 122.031 383.854 122.031 0 128.906 6.875 34.375 6.875ZM41.25 20.625 0 0 41.25-20.625Z" fill="#5B9BD5" transform="matrix(-1.83697e-16 -1 -1 1.83697e-16 911.979 1410.81)"/><path d="M905.125 1376.44 905.125 1275.03 912.687 1275.03 905.812 1281.91 905.812 1153 919.562 1153 919.562 1288.78 912 1288.78 918.875 1281.91 918.875 1376.44ZM932.625 1369.56 912 1410.81 891.375 1369.56Z" fill="#5B9BD5"/><path d="M905.125 1376.44 905.125 1275.03 1307.54 1275.03 1300.67 1281.91 1300.67 1153 1314.42 1153 1314.42 1288.78 912 1288.78 918.875 1281.91 918.875 1376.44ZM932.625 1369.56 912 1410.81 891.375 1369.56Z" fill="#5B9BD5"/><rect x="442.5" y="1037.5" width="352" height="164" stroke="#843C0C" stroke-width="4.58333" stroke-miterlimit="8" fill="#ED7D31"/><text font-family="Calibri,Calibri_MSFontService,sans-serif" font-weight="400" font-size="41" transform="matrix(1 0 0 1 535.749 1076)">CYLINDER </text><text font-family="Calibri,Calibri_MSFontService,sans-serif" font-weight="400" font-size="41" transform="matrix(1 0 0 1 540.584 1129)">FACTORY</text><rect x="819.5" y="1037.5" width="355" height="164" stroke="#843C0C" stroke-width="4.58333" stroke-miterlimit="8" fill="#ED7D31"/><text font-family="Calibri,Calibri_MSFontService,sans-serif" font-weight="400" font-size="41" transform="matrix(1 0 0 1 867.247 1102)">RODS FACTORY</text><rect x="1205.5" y="1037.5" width="373" height="164" stroke="#843C0C" stroke-width="4.58333" stroke-miterlimit="8" fill="#ED7D31"/><text font-family="Calibri,Calibri_MSFontService,sans-serif" font-weight="400" font-size="41" transform="matrix(1 0 0 1 1251.28 1102)">CRANK FACTORY</text><path d="M34.375-6.8749 119.731-6.87464 119.731 6.87536 34.375 6.8751ZM41.2499 20.6251 0 0 41.2501-20.6249Z" fill="#FF0000" transform="matrix(-1 0 0 1 1577.73 1625)"/><path d="M1574.32 1543.48 1492.28 1542.35 1492.47 1528.6 1574.51 1529.73ZM1498.96 1556.19 1458 1535 1499.53 1514.95Z" fill="#5B9BD5"/><text font-family="Calibri,Calibri_MSFontService,sans-serif" font-weight="400" font-size="50" transform="matrix(1 0 0 1 1634.61 1542)">money</text><text font-family="Calibri,Calibri_MSFontService,sans-serif" font-weight="400" font-size="50" transform="matrix(1 0 0 1 1634.61 1636)">goods</text><rect x="705.5" y="41.5001" width="581" height="241" stroke="#1F4E79" stroke-width="4.58333" stroke-miterlimit="8" fill="#5B9BD5"/><text fill="#FFFFFF" font-family="Calibri,Calibri_MSFontService,sans-serif" font-weight="700" font-size="50" transform="matrix(1 0 0 1 952.692 141)">CAR</text><text fill="#FFFFFF" font-family="Calibri,Calibri_MSFontService,sans-serif" font-weight="700" font-size="50" transform="matrix(1 0 0 1 815.329 244)">MANUFACTURER</text></g></svg>