<svg width="2323" height="1675" xmlns="http://www.w3.org/2000/svg" xmlns:xlink="http://www.w3.org/1999/xlink" xml:space="preserve" overflow="hidden"><defs><clipPath id="clip0"><rect x="0" y="0" width="2323" height="1675"/></clipPath><linearGradient x1="643" y1="1045" x2="643" y2="1170" gradientUnits="userSpaceOnUse" spreadMethod="reflect" id="fill1"><stop offset="0" stop-color="#F18C55"/><stop offset="0.5" stop-color="#F67B28"/><stop offset="1" stop-color="#E56B17"/></linearGradient><linearGradient x1="1076" y1="1045" x2="1076" y2="1170" gradientUnits="userSpaceOnUse" spreadMethod="reflect" id="fill2"><stop offset="0" stop-color="#F18C55"/><stop offset="0.5" stop-color="#F67B28"/><stop offset="1" stop-color="#E56B17"/></linearGradient><linearGradient x1="210" y1="1045" x2="210" y2="1170" gradientUnits="userSpaceOnUse" spreadMethod="reflect" id="fill3"><stop offset="0" stop-color="#F18C55"/><stop offset="0.5" stop-color="#F67B28"/><stop offset="1" stop-color="#E56B17"/></linearGradient><linearGradient x1="1508" y1="1045" x2="1508" y2="1170" gradientUnits="userSpaceOnUse" spreadMethod="reflect" id="fill4"><stop offset="0" stop-color="#F18C55"/><stop offset="0.5" stop-color="#F67B28"/><stop offset="1" stop-color="#E56B17"/></linearGradient><linearGradient x1="1746" y1="1327" x2="1746" y2="1452" gradientUnits="userSpaceOnUse" spreadMethod="reflect" id="fill5"><stop offset="0" stop-color="#F18C55"/><stop offset="0.5" stop-color="#F67B28"/><stop offset="1" stop-color="#E56B17"/></linearGradient><linearGradient x1="1313.5" y1="1327" x2="1313.5" y2="1452" gradientUnits="userSpaceOnUse" spreadMethod="reflect" id="fill6"><stop offset="0" stop-color="#F18C55"/><stop offset="0.5" stop-color="#F67B28"/><stop offset="1" stop-color="#E56B17"/></linearGradient></defs><g clip-path="url(#clip0)"><rect x="767.5" y="46.4999" width="550" height="124" stroke="#1F4E79" stroke-width="4.58333" stroke-miterlimit="8" fill="#5B9BD5"/><text fill="#FFFFFF" font-family="Calibri,Calibri_MSFontService,sans-serif" font-weight="700" font-size="50" transform="matrix(1 0 0 1 911.006 125)">BELL MAKER</text><rect x="187.5" y="302.5" width="549" height="124" stroke="#AE5A21" stroke-width="4.58333" stroke-miterlimit="8" fill="#ED7D31"/><text fill="#FFFFFF" font-family="Calibri,Calibri_MSFontService,sans-serif" font-weight="700" font-size="50" transform="matrix(1 0 0 1 356.446 381)">FOUNDRY</text><rect x="767.5" y="303.5" width="550" height="124" stroke="#BC8C00" stroke-width="4.58333" stroke-miterlimit="8" fill="#FFC000"/><text fill="#FFFFFF" font-family="Calibri,Calibri_MSFontService,sans-serif" font-weight="700" font-size="50" transform="matrix(1 0 0 1 969.466 382)">OFFICE</text><rect x="1348.5" y="300.5" width="550" height="124" stroke="#507E32" stroke-width="4.58333" stroke-miterlimit="8" fill="#70AD47"/><text fill="#FFFFFF" font-family="Calibri,Calibri_MSFontService,sans-serif" font-weight="700" font-size="50" transform="matrix(1 0 0 1 1574.88 379)">R&amp;D</text><path d="M0 0 0.000360892 132.916" stroke="#4472C4" stroke-width="12.6042" stroke-miterlimit="8" fill="none" fill-rule="evenodd" transform="matrix(-1 0 0 1 1042.5 170.5)"/><path d="M1042.21 170.5 1042.21 236.615 461.5 236.615 461.5 302.729" stroke="#4472C4" stroke-width="12.6042" stroke-miterlimit="8" fill="none" fill-rule="evenodd"/><path d="M0 0 65.0833 0 65.0833 580.708 130.167 580.708" stroke="#4472C4" stroke-width="12.6042" stroke-miterlimit="8" fill="none" fill-rule="evenodd" transform="matrix(1.83697e-16 1 1 -1.83697e-16 1042.5 170.5)"/><rect x="560.5" y="543.5" width="306" height="125" stroke="#FFFFFF" stroke-width="6.875" stroke-miterlimit="8" fill="#FFC000"/><text fill="#FFFFFF" font-family="Calibri,Calibri_MSFontService,sans-serif" font-weight="700" font-size="50" transform="matrix(1 0 0 1 600.026 622)">PURCHASE</text><rect x="887.5" y="541.5" width="306" height="125" stroke="#FFFFFF" stroke-width="6.875" stroke-miterlimit="8" fill="#FFC000"/><text fill="#FFFFFF" font-family="Calibri,Calibri_MSFontService,sans-serif" font-weight="700" font-size="50" transform="matrix(1 0 0 1 977.555 620)">SALES</text><rect x="1218.5" y="541.5" width="306" height="125" stroke="#FFFFFF" stroke-width="6.875" stroke-miterlimit="8" fill="#FFC000"/><text fill="#FFFFFF" font-family="Calibri,Calibri_MSFontService,sans-serif" font-weight="700" font-size="50" transform="matrix(1 0 0 1 1294.92 620)">ADMIN</text><rect x="1550.5" y="541.5" width="306" height="125" stroke="#FFFFFF" stroke-width="6.875" stroke-miterlimit="8" fill="#FFC000"/><text fill="#FFFFFF" font-family="Calibri,Calibri_MSFontService,sans-serif" font-weight="700" font-size="50" transform="matrix(1 0 0 1 1610.75 620)">FINANCE</text><path d="M1042.7 427.5 1042.7 485.709 713.5 485.709 713.5 543.917" stroke="#4472C4" stroke-width="12.6042" stroke-miterlimit="8" fill="none" fill-rule="evenodd"/><path d="M1042.91 427.5 1042.91 484.677 1040.5 484.677 1040.5 541.855" stroke="#4472C4" stroke-width="12.6042" stroke-miterlimit="8" fill="none" fill-rule="evenodd"/><path d="M0 0 57.1774 0 57.1774 329.427 114.355 329.427" stroke="#4472C4" stroke-width="12.6042" stroke-miterlimit="8" fill="none" fill-rule="evenodd" transform="matrix(1.83697e-16 1 1 -1.83697e-16 1042.5 427.5)"/><path d="M0 0 57.1773 0 57.1773 661.146 114.355 661.146" stroke="#4472C4" stroke-width="12.6042" stroke-miterlimit="8" fill="none" fill-rule="evenodd" transform="matrix(-1.83697e-16 -1 -1 1.83697e-16 1703.65 541.855)"/><rect x="187.5" y="788.5" width="549" height="125" stroke="#FFFFFF" stroke-width="6.875" stroke-miterlimit="8" fill="#ED7D31"/><text fill="#FFFFFF" font-family="Calibri,Calibri_MSFontService,sans-serif" font-weight="700" font-size="50" transform="matrix(1 0 0 1 318.119 867)">PRODUCTION</text><rect x="765.5" y="788.5" width="550" height="124" stroke="#FFFFFF" stroke-width="6.875" stroke-miterlimit="8" fill="#ED7D31"/><text fill="#FFFFFF" font-family="Calibri,Calibri_MSFontService,sans-serif" font-weight="700" font-size="50" transform="matrix(1 0 0 1 948.198 867)">QUALITY</text><path d="M0 0 181.041 0 181.041 0.0126312 362.083 0.0126312" stroke="#4472C4" stroke-width="12.6042" stroke-miterlimit="8" fill="none" fill-rule="evenodd" transform="matrix(1.83697e-16 1 1 -1.83697e-16 461.5 426.5)"/><path d="M0 0 304.678 0 304.678 578.862 361.854 578.862" stroke="#4472C4" stroke-width="12.6042" stroke-miterlimit="8" fill="none" fill-rule="evenodd" transform="matrix(1.83697e-16 1 1 -1.83697e-16 461.5 426.5)"/><rect x="448" y="1045" width="390" height="125" stroke="#ED7D31" stroke-width="2.29167" stroke-miterlimit="8" fill="url(#fill1)"/><text fill="#FFFFFF" font-family="Calibri,Calibri_MSFontService,sans-serif" font-weight="700" font-size="50" transform="matrix(1 0 0 1 563.098 1125)">STORES</text><rect x="881" y="1045" width="390" height="125" stroke="#ED7D31" stroke-width="2.29167" stroke-miterlimit="8" fill="url(#fill2)"/><text fill="#FFFFFF" font-family="Calibri,Calibri_MSFontService,sans-serif" font-weight="700" font-size="50" transform="matrix(1 0 0 1 1006.65 1125)">TOOLS</text><rect x="15.0001" y="1045" width="390" height="125" stroke="#ED7D31" stroke-width="2.29167" stroke-miterlimit="8" fill="url(#fill3)"/><text fill="#FFFFFF" font-family="Calibri,Calibri_MSFontService,sans-serif" font-weight="700" font-size="50" transform="matrix(1 0 0 1 152.07 1125)">SHOP</text><rect x="1313" y="1045" width="390" height="125" stroke="#ED7D31" stroke-width="2.29167" stroke-miterlimit="8" fill="url(#fill4)"/><text fill="#FFFFFF" font-family="Calibri,Calibri_MSFontService,sans-serif" font-weight="700" font-size="50" transform="matrix(1 0 0 1 1370.05 1125)">WAREHOUSE</text><path d="M461.466 913.5 461.466 979.959 210.5 979.959 210.5 1046.42" stroke="#4472C4" stroke-width="12.6042" stroke-miterlimit="8" fill="none" fill-rule="evenodd"/><path d="M0 0 66.4587 0 66.4587 181.626 132.917 181.626" stroke="#4472C4" stroke-width="12.6042" stroke-miterlimit="8" fill="none" fill-rule="evenodd" transform="matrix(1.83697e-16 1 1 -1.83697e-16 461.5 913.5)"/><path d="M0 0 66.459 0 66.459 614.473 132.917 614.473" stroke="#4472C4" stroke-width="12.6042" stroke-miterlimit="8" fill="none" fill-rule="evenodd" transform="matrix(1.83697e-16 1 1 -1.83697e-16 461.5 913.5)"/><path d="M0 0 66.4587 0 66.4587 1046.96 132.917 1046.96" stroke="#4472C4" stroke-width="12.6042" stroke-miterlimit="8" fill="none" fill-rule="evenodd" transform="matrix(-1.83697e-16 -1 -1 1.83697e-16 1508.46 1046.42)"/><rect x="1551" y="1327" width="390" height="125" stroke="#ED7D31" stroke-width="2.29167" stroke-miterlimit="8" fill="url(#fill5)"/><text fill="#FFFFFF" font-family="Calibri,Calibri_MSFontService,sans-serif" font-weight="700" font-size="50" transform="matrix(1 0 0 1 1635.64 1406)">DESPATCH</text><rect x="1119" y="1327" width="389" height="125" stroke="#ED7D31" stroke-width="2.29167" stroke-miterlimit="8" fill="url(#fill6)"/><text fill="#FFFFFF" font-family="Calibri,Calibri_MSFontService,sans-serif" font-weight="700" font-size="50" transform="matrix(1 0 0 1 1206.49 1406)">GOODS IN</text><path d="M1508.29 1170.5 1508.29 1249.33 1313.5 1249.33 1313.5 1328.17" stroke="#4472C4" stroke-width="12.6042" stroke-miterlimit="8" fill="none" fill-rule="evenodd"/><path d="M0 0 78.8333 0 78.8333 237.875 157.667 237.875" stroke="#4472C4" stroke-width="12.6042" stroke-miterlimit="8" fill="none" fill-rule="evenodd" transform="matrix(-1.83697e-16 -1 -1 1.83697e-16 1746.37 1328.17)"/><rect x="686" y="1331" width="390" height="124" fill="#ADB9CA"/><text fill="#FFFFFF" font-family="Calibri,Calibri_MSFontService,sans-serif" font-weight="700" font-size="50" transform="matrix(1 0 0 1 728.221 1410)">COMPONENTS</text><rect x="254" y="1331" width="389" height="124" stroke="#ED7D31" stroke-width="2.29167" stroke-miterlimit="8" fill="#FF0000"/><text fill="#FFFFFF" font-family="Calibri,Calibri_MSFontService,sans-serif" font-weight="700" font-size="50" transform="matrix(1 0 0 1 327.488 1410)">MATERIALS</text><path d="M643.292 1173.5 643.292 1252.33 448.5 1252.33 448.5 1331.17" stroke="#4472C4" stroke-width="12.6042" stroke-miterlimit="8" fill="none" fill-rule="evenodd"/><path d="M0 0 78.8333 0 78.8333 237.875 157.667 237.875" stroke="#4472C4" stroke-width="12.6042" stroke-miterlimit="8" fill="none" fill-rule="evenodd" transform="matrix(-1.83697e-16 -1 -1 1.83697e-16 881.375 1331.17)"/><text font-family="Calibri,Calibri_MSFontService,sans-serif" font-weight="700" font-size="62" transform="matrix(1 0 0 1 583.706 1610)">Figure 9: Organisation Structure</text></g></svg>