<svg width="2128" height="2403" xmlns="http://www.w3.org/2000/svg" xmlns:xlink="http://www.w3.org/1999/xlink" xml:space="preserve" overflow="hidden"><defs><clipPath id="clip0"><rect x="0" y="0" width="2128" height="2403"/></clipPath></defs><g clip-path="url(#clip0)"><path d="M0-5.15625 93.5139-5.15625 93.5139 357.043 88.3577 351.887 123.656 351.887 123.656 362.199 83.2014 362.199 83.2014 0 88.3577 5.15625 0 5.15625ZM118.499 341.574 149.437 357.043 118.499 372.512Z" fill="#D9D9D9" transform="matrix(-1.83697e-16 -1 -1 1.83697e-16 689.043 1753.44)"/><rect x="1528" y="445" width="473" height="90.9997" fill="#FFFFFF"/><text font-family="Calibri,Calibri_MSFontService,sans-serif" font-weight="400" font-size="50" transform="matrix(1 0 0 1 1561.37 510)">Primary Resource</text><rect x="557.5" y="541.5" width="520" height="102" stroke="#000000" stroke-width="4.58333" stroke-miterlimit="8" fill="#00B050"/><text fill="#FFFFFF" font-family="Calibri,Calibri_MSFontService,sans-serif" font-weight="700" font-size="37" transform="matrix(1 0 0 1 781.352 603)">MDF </text><rect x="44.4998" y="772.5" width="290" height="107" stroke="#000000" stroke-width="4.58333" stroke-miterlimit="8" fill="#00B050"/><text fill="#FFFFFF" font-family="Calibri,Calibri_MSFontService,sans-serif" font-weight="700" font-size="37" transform="matrix(1 0 0 1 111.638 834)">FORESTRY</text><rect x="350.5" y="1013.5" width="342" height="110" stroke="#000000" stroke-width="4.58333" stroke-miterlimit="8" fill="#F8CBAD"/><text font-family="Calibri,Calibri_MSFontService,sans-serif" font-weight="700" font-size="37" transform="matrix(1 0 0 1 393.014 1075)">FORMALDEHYDE</text><rect x="784.5" y="772.5" width="393" height="109" stroke="#000000" stroke-width="4.58333" stroke-miterlimit="8" fill="#F8CBAD"/><text font-family="Calibri,Calibri_MSFontService,sans-serif" font-weight="700" font-size="37" transform="matrix(1 0 0 1 845.565 834)">MELAMINE RESIN</text><rect x="353.5" y="1239.5" width="331" height="111" stroke="#000000" stroke-width="4.58333" stroke-miterlimit="8" fill="#F8CBAD"/><text font-family="Calibri,Calibri_MSFontService,sans-serif" font-weight="700" font-size="37" transform="matrix(1 0 0 1 429.742 1301)">METHANOL</text><text font-family="Calibri,Calibri_MSFontService,sans-serif" font-weight="700" font-size="62" transform="matrix(1 0 0 1 521.095 2130)">Figure 4:  MDF Production</text><rect x="557.5" y="181.5" width="523" height="114" stroke="#000000" stroke-width="4.58333" stroke-miterlimit="8" fill="#00B0F0"/><text fill="#FFFFFF" font-family="Calibri,Calibri_MSFontService,sans-serif" font-weight="700" font-size="37" transform="matrix(1 0 0 1 685.384 256)">Furniture</text><text fill="#FFFFFF" font-family="Calibri,Calibri_MSFontService,sans-serif" font-weight="700" font-size="37" transform="matrix(1 0 0 1 838.903 256)">Factory</text><path d="M5.1551-0.108816 7.39372 105.944-2.91649 106.162-5.1551 0.108816ZM24.1363 77.2446 2.45457 116.284-20.8552 78.1943C-22.3417 75.7654-21.5776 72.5913-19.1486 71.1048-16.7197 69.6183-13.5456 70.3824-12.0591 72.8113L6.63665 103.361-2.26909 103.549 15.1209 72.2376C16.5035 69.7481 19.6425 68.8508 22.1321 70.2334 24.6216 71.6161 25.5189 74.7551 24.1363 77.2446Z" transform="matrix(1 0 0 -1 519 1239.26)"/><path d="M5.15521-0.103608 6.38209 60.9422-3.92833 61.1494-5.15521 0.103608ZM23.1536 32.26 1.4325 71.277-21.8388 33.1643C-23.3228 30.7338-22.5555 27.5605-20.1251 26.0765-17.6946 24.5924-14.5213 25.3597-13.0372 27.7902L5.62763 58.3588-3.27829 58.5378 14.1433 27.2439C15.5285 24.7558 18.6684 23.8616 21.1565 25.2468 23.6447 26.632 24.5388 29.7719 23.1536 32.26Z" transform="matrix(1 0 0 -1 817 541.253)"/><path d="M609 771.604 609 707.309 817.707 707.309 817.707 643.014" stroke="#000000" stroke-width="10.3125" stroke-miterlimit="8" fill="none" fill-rule="evenodd"/><path d="M0-5.15625 69.4402-5.15625 69.4402 162.982 64.284 157.825 118.359 157.825 118.359 168.138 59.1277 168.138 59.1277 0 64.284 5.15625 0 5.15625ZM90.0191 140.481 128.592 162.982 90.0191 185.482C87.5593 186.917 84.4021 186.086 82.9672 183.626 81.5323 181.167 82.3632 178.009 84.823 176.575L115.76 158.528 115.76 167.435 84.823 149.389C82.3632 147.954 81.5323 144.796 82.9672 142.337 84.4021 139.877 87.5593 139.046 90.0191 140.481Z" transform="matrix(-1.83697e-16 -1 -1 1.83697e-16 979.981 771.568)"/><rect x="464.5" y="772.5" width="290" height="112" stroke="#000000" stroke-width="4.58333" stroke-miterlimit="8" fill="#FF0000"/><text fill="#FFFFFF" font-family="Calibri,Calibri_MSFontService,sans-serif" font-weight="700" font-size="37" transform="matrix(1 0 0 1 512.278 834)">WOOD PULP</text><path d="M334.084 820.844 452.969 822.772 452.801 833.084 333.917 831.156ZM424.914 804.971 463.117 828.094 424.185 849.966C421.702 851.361 418.558 850.479 417.164 847.996 415.769 845.514 416.651 842.37 419.134 840.976L450.36 823.433 450.215 832.339 419.574 813.793C417.138 812.318 416.359 809.148 417.833 806.712 419.308 804.276 422.478 803.496 424.914 804.971Z" fill="#70AD47"/><path d="M515.844 1012.64 515.844 941.668 980.206 941.668 975.05 946.825 975.05 906.795 985.363 906.795 985.363 951.981 521 951.981 526.156 946.825 526.156 1012.64ZM964.738 911.952 980.206 881.014 995.675 911.952Z"/><rect x="1226.5" y="1013.5" width="343" height="110" stroke="#000000" stroke-width="4.58333" stroke-miterlimit="8" fill="#F8CBAD"/><text font-family="Calibri,Calibri_MSFontService,sans-serif" font-weight="700" font-size="37" transform="matrix(1 0 0 1 1311.77 1075)">MELAMINE</text><path d="M0-5.15625 70.9673-5.15625 70.9673 417.162 65.8111 412.005 105.84 412.005 105.84 422.318 60.6548 422.318 60.6548 0 65.8111 5.15625 0 5.15625ZM100.684 401.693 131.622 417.162 100.684 432.63Z" transform="matrix(-1.83697e-16 -1 -1 1.83697e-16 1397.16 1012.64)"/><rect x="735.5" y="1242.5" width="342" height="110" stroke="#000000" stroke-width="4.58333" stroke-miterlimit="8" fill="#F8CBAD"/><text font-family="Calibri,Calibri_MSFontService,sans-serif" font-weight="700" font-size="37" transform="matrix(1 0 0 1 863.882 1304)">UREA</text><path d="M900.844 1242.76 900.844 1177.73 1397.29 1177.73 1392.13 1182.89 1392.13 1148.79 1402.45 1148.79 1402.45 1188.04 906 1188.04 911.156 1182.89 911.156 1242.76ZM1381.82 1153.95 1397.29 1123.01 1412.76 1153.95Z"/><path d="M0-5.15625 65.8423-5.15625 65.8423 283.882 60.686 278.726 95.5908 278.726 95.5908 289.038 55.5298 289.038 55.5298 0 60.686 5.15625 0 5.15625ZM90.4345 268.413 121.372 283.882 90.4345 299.351Z" transform="matrix(-1.83697e-16 -1 -1 1.83697e-16 1680.88 1244.39)"/><rect x="1093.5" y="1494.5" width="255" height="110" stroke="#000000" stroke-width="4.58333" stroke-miterlimit="8" fill="#FF0000"/><text fill="#FFFFFF" font-family="Calibri,Calibri_MSFontService,sans-serif" font-weight="700" font-size="37" transform="matrix(1 0 0 1 1144.93 1556)">CATALYST</text><rect x="1371.5" y="1494.5" width="264" height="113" stroke="#000000" stroke-width="4.58333" stroke-miterlimit="8" fill="#FF0000"/><text fill="#FFFFFF" font-family="Calibri,Calibri_MSFontService,sans-serif" font-weight="700" font-size="37" transform="matrix(1 0 0 1 1414.85 1555)">HYDROGEN</text><rect x="1658.5" y="1494.5" width="264" height="110" stroke="#000000" stroke-width="4.58333" stroke-miterlimit="8" fill="#FF0000"/><text fill="#FFFFFF" font-family="Calibri,Calibri_MSFontService,sans-serif" font-weight="700" font-size="37" transform="matrix(1 0 0 1 1708.84 1555)">NITROGEN</text><path d="M1215.84 1493.79 1215.84 1418.74 1681.43 1418.74 1676.28 1423.9 1676.28 1379.78 1686.59 1379.78 1686.59 1429.05 1221 1429.05 1226.16 1423.9 1226.16 1493.79ZM1665.96 1384.94 1681.43 1354 1696.9 1384.94Z"/><path d="M1497.84 1493.69 1497.84 1418.69 1681.46 1418.69 1676.31 1423.84 1676.31 1379.78 1686.62 1379.78 1686.62 1429 1503 1429 1508.16 1423.84 1508.16 1493.69ZM1665.99 1384.94 1681.46 1354 1696.93 1384.94Z"/><path d="M0-5.15625 75.143-5.15625 75.143 108.919 69.9868 103.763 114.192 103.763 114.192 114.075 64.8305 114.075 64.8305 0 69.9868 5.15625 0 5.15625ZM109.036 93.45 139.974 108.919 109.036 124.388Z" transform="matrix(-1.83697e-16 -1 -1 1.83697e-16 1789.92 1493.97)"/><rect x="1462" y="350" width="49.0001" height="58.0001" fill="#FBE5D6"/><rect x="1529" y="332" width="407" height="91.0001" fill="#FFFFFF"/><text font-family="Calibri,Calibri_MSFontService,sans-serif" font-weight="400" font-size="50" transform="matrix(1 0 0 1 1561.58 397)">Material Input</text><rect x="1461" y="463" width="50.0002" height="58.0001" fill="#FF0000"/><rect x="1461" y="582" width="50.0002" height="58.0001" fill="#00B050"/><rect x="1529" y="564" width="407" height="90.9998" fill="#FFFFFF"/><text font-family="Calibri,Calibri_MSFontService,sans-serif" font-weight="400" font-size="50" transform="matrix(1 0 0 1 1561.53 629)">Industry Sector</text><rect x="544.5" y="1754.5" width="290" height="107" stroke="#000000" stroke-width="4.58333" stroke-miterlimit="8" fill="#00B050"/><text fill="#FFFFFF" font-family="Calibri,Calibri_MSFontService,sans-serif" font-weight="700" font-size="37" transform="matrix(1 0 0 1 627.559 1816)">METALS</text><rect x="771.5" y="1493.5" width="264" height="114" stroke="#000000" stroke-width="4.58333" stroke-miterlimit="8" fill="#FF0000"/><text fill="#FFFFFF" font-family="Calibri,Calibri_MSFontService,sans-serif" font-weight="700" font-size="37" transform="matrix(1 0 0 1 871.552 1554)">CO2</text><rect x="31.5001" y="1242.5" width="255" height="111" stroke="#000000" stroke-width="4.58333" stroke-miterlimit="8" fill="#FF0000"/><text fill="#FFFFFF" font-family="Calibri,Calibri_MSFontService,sans-serif" font-weight="700" font-size="37" transform="matrix(1 0 0 1 82.0924 1303)">CATALYST</text><path d="M152.844 1242.69 152.844 1188.04 520.961 1188.04 515.805 1193.2 515.805 1148.79 526.117 1148.79 526.117 1198.35 158 1198.35 163.156 1193.2 163.156 1242.69ZM505.492 1153.95 520.961 1123.01 536.43 1153.95Z"/><path d="M683.844 1753.44 683.844 1660.03 1220.83 1660.03 1215.67 1665.18 1215.67 1629.8 1225.98 1629.8 1225.98 1670.34 689 1670.34 694.156 1665.18 694.156 1753.44ZM1205.36 1634.95 1220.83 1604.02 1236.3 1634.95Z" fill="#D9D9D9"/><path d="M0-5.15625 88.7028-5.15625 88.7028 531.007 83.5465 525.85 375.19 525.85 375.19 536.163 78.3903 536.163 78.3903 0 83.5465 5.15625 0 5.15625ZM370.033 515.538 400.971 531.007 370.033 546.475Z" fill="#D9D9D9" transform="matrix(-1.83697e-16 -1 -1 1.83697e-16 689.007 1754.01)"/><path d="M0-5.15625 58.6828-5.15625 58.6828 598.513 53.5266 593.356 119.085 593.356 119.085 603.669 48.3703 603.669 48.3703 0 53.5266 5.15625 0 5.15625ZM113.929 583.044 144.867 598.513 113.929 613.981Z" fill="#FFC000" transform="matrix(-1.83697e-16 -1 -1 1.83697e-16 1501.51 1751.88)"/><path d="M1510.06 1303.78 1087.19 1302.19 1087.23 1291.88 1510.1 1293.47ZM1115.46 1319.65 1076.98 1297 1115.63 1274.64C1118.1 1273.22 1121.25 1274.06 1122.68 1276.53 1124.1 1278.99 1123.26 1282.15 1120.8 1283.57L1089.79 1301.5 1089.82 1292.59 1120.69 1310.76C1123.15 1312.2 1123.97 1315.36 1122.52 1317.82 1121.08 1320.27 1117.92 1321.09 1115.46 1319.65Z" fill="#FF0000"/><path d="M5.15599-0.0514114 6.49777 134.514-3.81422 134.617-5.15599 0.0514114ZM23.5588 106.003 1.44381 144.798-21.4404 106.452C-22.8997 104.006-22.1004 100.841-19.655 99.3815-17.2097 97.9222-14.0443 98.7215-12.5849 101.167L5.76951 131.923-3.13777 132.012 14.5997 100.896C16.01 98.4218 19.1588 97.5595 21.6328 98.9698 24.1068 100.38 24.9691 103.529 23.5588 106.003Z" fill="#FFC000" transform="matrix(1 0 0 -1 1501 1751.77)"/><rect x="1510.5" y="1244.5" width="342" height="110" stroke="#000000" stroke-width="4.58333" stroke-miterlimit="8" fill="#F8CBAD"/><text font-family="Calibri,Calibri_MSFontService,sans-serif" font-weight="700" font-size="37" transform="matrix(1 0 0 1 1597.75 1305)">AMMONIA</text><path d="M5.15489-0.118608 8.16808 130.839-2.14169 131.077-5.15489 0.118608ZM24.8561 102.108 3.24858 141.188-20.1335 103.143C-21.6246 100.717-20.8666 97.5418-18.4404 96.0507-16.0143 94.5596-12.8387 95.3176-11.3476 97.7438L7.40611 128.258-1.49926 128.463 15.8312 97.1184C17.2091 94.6263 20.3464 93.723 22.8386 95.1009 25.3307 96.4789 26.234 99.6162 24.8561 102.108Z" transform="matrix(1 0 0 -1 903 1493.16)"/><rect x="205.5" y="1494.5" width="255" height="110" stroke="#000000" stroke-width="4.58333" stroke-miterlimit="8" fill="#FF0000"/><text fill="#FFFFFF" font-family="Calibri,Calibri_MSFontService,sans-serif" font-weight="700" font-size="37" transform="matrix(1 0 0 1 256.018 1555)">CATALYST</text><rect x="483.5" y="1494.5" width="263" height="113" stroke="#000000" stroke-width="4.58333" stroke-miterlimit="8" fill="#FF0000"/><text fill="#FFFFFF" font-family="Calibri,Calibri_MSFontService,sans-serif" font-weight="700" font-size="37" transform="matrix(1 0 0 1 563.39 1555)">CO + H</text><path d="M326.844 1493.3 326.844 1416 518.656 1416 513.5 1421.15 513.5 1374.78 523.813 1374.78 523.813 1426.31 332 1426.31 337.156 1421.15 337.156 1493.3ZM503.188 1379.94 518.656 1349 534.125 1379.94Z"/><path d="M0-5.15625 77.2907-5.15625 77.2907 95.8184 72.1344 90.6621 118.488 90.6621 118.488 100.975 66.9782 100.975 66.9782 0 72.1344 5.15625 0 5.15625ZM113.331 80.3496 144.269 95.8184 113.331 111.287Z" transform="matrix(-1.83697e-16 -1 -1 1.83697e-16 614.818 1493.27)"/><path d="M0-5.15625 58.5905-5.15625 58.5905 886.978 53.4342 881.822 118.905 881.822 118.905 892.134 48.278 892.134 48.278 0 53.4342 5.15625 0 5.15625ZM113.749 871.509 144.686 886.978 113.749 902.447Z" fill="#FFC000" transform="matrix(-1.83697e-16 -1 -1 1.83697e-16 1501.98 1751.7)"/><rect x="1348.5" y="1752.5" width="306" height="107" stroke="#000000" stroke-width="4.58333" stroke-miterlimit="8" fill="#00B050"/><text fill="#FFFFFF" font-family="Calibri,Calibri_MSFontService,sans-serif" font-weight="700" font-size="37" transform="matrix(1 0 0 1 1371.53 1814)">HYDROCARBONS</text><rect x="475" y="375" width="688" height="94.9999" stroke="#000000" stroke-width="2.29167" stroke-linejoin="round" stroke-miterlimit="10" fill="#FFFF00"/><text font-family="Calibri,Calibri_MSFontService,sans-serif" font-weight="400" font-size="50" transform="matrix(1 0 0 1 594.343 439)">MATERIAL INTERFACE</text><path d="M813.958 374.978 813.858 305.217 824.171 305.202 824.27 374.963ZM796.554 333.581 819 294.976 841.556 333.517C842.994 335.974 842.168 339.133 839.71 340.571 837.252 342.01 834.094 341.183 832.656 338.725L814.565 307.814 823.472 307.801 805.47 338.764C804.038 341.226 800.882 342.061 798.42 340.63 795.958 339.199 795.123 336.043 796.554 333.581Z" fill="#DAE3F3"/></g></svg>