<svg width="2198" height="2115" xmlns="http://www.w3.org/2000/svg" xmlns:xlink="http://www.w3.org/1999/xlink" xml:space="preserve" overflow="hidden"><defs><clipPath id="clip0"><rect x="0" y="0" width="2198" height="2115"/></clipPath></defs><g clip-path="url(#clip0)"><text font-family="Calibri,Calibri_MSFontService,sans-serif" font-weight="700" font-size="62" transform="matrix(1 0 0 1 710.714 1860)">Figure 8: Namespaces</text><path d="M690.5 233.15 667.375 233.15 667.375 1659.5 639.625 1659.5 639.625 233.15 616.5 233.15 653.5 209.5Z" stroke="#843C0C" stroke-width="4.58333" stroke-miterlimit="8" fill="#FF0000" fill-rule="evenodd"/><path d="M336.5 1633 362.437 1633 362.437 207.5 393.563 207.5 393.563 1633 419.5 1633 378.001 1659.5Z" stroke="#203864" stroke-width="4.58333" stroke-miterlimit="8" fill="#4472C4" fill-rule="evenodd"/><rect x="249.5" y="290.5" width="550" height="125" stroke="#1F4E79" stroke-width="4.58333" stroke-miterlimit="8" fill="#5B9BD5"/><text fill="#FFFFFF" font-family="Calibri,Calibri_MSFontService,sans-serif" font-weight="700" font-size="50" transform="matrix(1 0 0 1 482.544 370)">IaM</text><rect x="249.5" y="456.5" width="549" height="124" stroke="#1F4E79" stroke-width="4.58333" stroke-miterlimit="8" fill="#70AD47"/><text font-family="Calibri,Calibri_MSFontService,sans-serif" font-weight="400" font-size="50" transform="matrix(1 0 0 1 489.127 535)">Tor</text><rect x="249.5" y="622.5" width="549" height="125" stroke="#1F4E79" stroke-width="4.58333" stroke-miterlimit="8" fill="#A9D18E"/><text font-family="Calibri,Calibri_MSFontService,sans-serif" font-weight="400" font-size="50" transform="matrix(1 0 0 1 398.261 701)">Glastonbury</text><rect x="249.5" y="788.5" width="549" height="124" stroke="#1F4E79" stroke-width="4.58333" stroke-miterlimit="8" fill="#C5E0B4"/><text font-family="Calibri,Calibri_MSFontService,sans-serif" font-weight="400" font-size="50" transform="matrix(1 0 0 1 426.301 867)">Somerset</text><rect x="239.5" y="954.5" width="560" height="124" stroke="#1F4E79" stroke-width="4.58333" stroke-miterlimit="8" fill="#E2F0D9"/><text font-family="Calibri,Calibri_MSFontService,sans-serif" font-weight="400" font-size="50" transform="matrix(1 0 0 1 436.776 1033)">England</text><rect x="239.5" y="1120.5" width="559" height="124" stroke="#1F4E79" stroke-width="4.58333" stroke-miterlimit="8" fill="#F8CBAD"/><text font-family="Calibri,Calibri_MSFontService,sans-serif" font-weight="400" font-size="50" transform="matrix(1 0 0 1 489.09 1199)">UK</text><rect x="239.5" y="1286.5" width="560" height="124" stroke="#1F4E79" stroke-width="4.58333" stroke-miterlimit="8" fill="#F4B183"/><text font-family="Calibri,Calibri_MSFontService,sans-serif" font-weight="400" font-size="50" transform="matrix(1 0 0 1 434.347 1365)">EUROPE</text><rect x="239.5" y="1452.5" width="560" height="124" stroke="#1F4E79" stroke-width="4.58333" stroke-miterlimit="8" fill="#FF0000"/><text fill="#FFFFFF" font-family="Calibri,Calibri_MSFontService,sans-serif" font-weight="700" font-size="50" transform="matrix(1 0 0 1 437.911 1531)">WORLD</text><path d="M990.5 1639.87 1013.61 1639.87 1013.61 214.5 1041.34 214.5 1041.34 1639.87 1064.45 1639.87 1027.47 1663.5Z" stroke="#843C0C" stroke-width="4.58333" stroke-miterlimit="8" fill="#FF0000" fill-rule="evenodd"/><path d="M1344.5 240.001 1318.56 240.001 1318.56 1665.5 1287.44 1665.5 1287.44 240.001 1261.5 240.001 1303 213.5Z" stroke="#203864" stroke-width="4.58333" stroke-miterlimit="8" fill="#4472C4" fill-rule="evenodd"/><rect x="881.5" y="1458.5" width="560" height="124" stroke="#1F4E79" stroke-width="4.58333" stroke-miterlimit="8" fill="#5B9BD5"/><text fill="#FFFFFF" font-family="Calibri,Calibri_MSFontService,sans-serif" font-weight="700" font-size="50" transform="matrix(1 0 0 1 1119.95 1537)">IaM</text><rect x="882.5" y="1292.5" width="559" height="124" stroke="#1F4E79" stroke-width="4.58333" stroke-miterlimit="8" fill="#70AD47"/><text font-family="Calibri,Calibri_MSFontService,sans-serif" font-weight="400" font-size="50" transform="matrix(1 0 0 1 1127.17 1371)">Tor</text><rect x="882.5" y="1126.5" width="559" height="124" stroke="#1F4E79" stroke-width="4.58333" stroke-miterlimit="8" fill="#A9D18E"/><text font-family="Calibri,Calibri_MSFontService,sans-serif" font-weight="400" font-size="50" transform="matrix(1 0 0 1 1036.17 1205)">Glastonbury</text><rect x="882.5" y="960.5" width="559" height="124" stroke="#1F4E79" stroke-width="4.58333" stroke-miterlimit="8" fill="#C5E0B4"/><text font-family="Calibri,Calibri_MSFontService,sans-serif" font-weight="400" font-size="50" transform="matrix(1 0 0 1 1064.35 1039)">Somerset</text><rect x="892.5" y="794.5" width="549" height="124" stroke="#1F4E79" stroke-width="4.58333" stroke-miterlimit="8" fill="#E2F0D9"/><text font-family="Calibri,Calibri_MSFontService,sans-serif" font-weight="400" font-size="50" transform="matrix(1 0 0 1 1084.83 873)">England</text><rect x="892.5" y="628.5" width="549" height="124" stroke="#1F4E79" stroke-width="4.58333" stroke-miterlimit="8" fill="#F8CBAD"/><text font-family="Calibri,Calibri_MSFontService,sans-serif" font-weight="400" font-size="50" transform="matrix(1 0 0 1 1137.42 707)">UK</text><rect x="892.5" y="463.5" width="549" height="124" stroke="#1F4E79" stroke-width="4.58333" stroke-miterlimit="8" fill="#F4B183"/><text font-family="Calibri,Calibri_MSFontService,sans-serif" font-weight="400" font-size="50" transform="matrix(1 0 0 1 1082.49 542)">EUROPE</text><rect x="892.5" y="297.5" width="549" height="124" stroke="#1F4E79" stroke-width="4.58333" stroke-miterlimit="8" fill="#FF0000"/><text fill="#FFFFFF" font-family="Calibri,Calibri_MSFontService,sans-serif" font-weight="700" font-size="50" transform="matrix(1 0 0 1 1086.06 376)">WORLD</text><text font-family="Calibri,Calibri_MSFontService,sans-serif" font-weight="400" font-size="37" transform="matrix(1 0 0 1 458.005 131)">Address</text><text font-family="Calibri,Calibri_MSFontService,sans-serif" font-weight="400" font-size="37" transform="matrix(1 0 0 1 1097.15 131)">Namespace</text><rect x="1659.5" y="498.5" width="498" height="192" stroke="#1F4E79" stroke-width="4.58333" stroke-miterlimit="8" fill="#FFF2CC"/><text font-family="Calibri,Calibri_MSFontService,sans-serif" font-weight="400" font-size="50" transform="matrix(1 0 0 1 1739.58 579)">INTERNATIONAL </text><text font-family="Calibri,Calibri_MSFontService,sans-serif" font-weight="400" font-size="50" transform="matrix(1 0 0 1 1854.53 644)">POST</text><path d="M1658.8 601.347 1543.03 601.347 1543.03 525 1549.9 531.875 1475.38 531.875 1475.38 518.125 1556.78 518.125 1556.78 594.472 1549.9 587.597 1658.8 587.597ZM1482.25 545.625 1441 525 1482.25 504.375Z" fill="#10F82C"/><path d="M0-6.875 115.777-6.875 115.777 96.2157 108.902 89.3407 183.43 89.3407 183.43 103.091 102.027 103.091 102.027 0 108.902 6.875 0 6.875ZM176.555 75.5907 217.805 96.2157 176.555 116.841Z" fill="#10F82C" transform="matrix(-1 1.22465e-16 1.22465e-16 1 1658.8 594)"/><rect x="1659.5" y="929.5" width="498" height="189" stroke="#1F4E79" stroke-width="4.58333" stroke-miterlimit="8" fill="#FFF2CC"/><text font-family="Calibri,Calibri_MSFontService,sans-serif" font-weight="400" font-size="50" transform="matrix(1 0 0 1 1741.11 1040)">NATIONAL POST</text><path d="M1658.9 1029.87 1543.07 1029.87 1543.07 856 1549.95 862.875 1475.38 862.875 1475.38 849.125 1556.82 849.125 1556.82 1022.99 1549.95 1016.12 1658.9 1016.12ZM1482.25 876.625 1441 856 1482.25 835.375Z" fill="#10F82C"/><path d="M1658.95 1029.95 1543.1 1029.95 1543.1 1022 1549.98 1028.88 1475.38 1028.88 1475.38 1015.12 1556.85 1015.12 1556.85 1023.08 1549.98 1016.2 1658.95 1016.2ZM1482.25 1042.62 1441 1022 1482.25 1001.38Z" fill="#10F82C"/><path d="M0-6.875 115.927-6.875 115.927 164.611 109.052 157.736 183.73 157.736 183.73 171.486 102.177 171.486 102.177 0 109.052 6.875 0 6.875ZM176.855 143.986 218.105 164.611 176.855 185.236Z" fill="#10F82C" transform="matrix(-1 1.22465e-16 1.22465e-16 1 1659.1 1023)"/><rect x="1652.5" y="1327.5" width="498" height="193" stroke="#1F4E79" stroke-width="4.58333" stroke-miterlimit="8" fill="#FFF2CC"/><text font-family="Calibri,Calibri_MSFontService,sans-serif" font-weight="400" font-size="50" transform="matrix(1 0 0 1 1736.03 1440)">HAND DELIVERY</text><path d="M1651.83 1430.15 1539.54 1430.15 1539.54 1354 1546.41 1360.88 1475.38 1360.88 1475.38 1347.13 1553.29 1347.13 1553.29 1423.28 1546.41 1416.4 1651.83 1416.4ZM1482.25 1374.63 1441 1354 1482.25 1333.38Z" fill="#10F82C"/><path d="M0-6.875 112.414-6.875 112.414 96.136 105.539 89.261 176.703 89.261 176.703 103.011 98.6638 103.011 98.6638 0 105.539 6.875 0 6.875ZM169.828 75.511 211.078 96.136 169.828 116.761Z" fill="#10F82C" transform="matrix(-1 1.22465e-16 1.22465e-16 1 1652.08 1423)"/><text font-family="Calibri,Calibri_MSFontService,sans-serif" font-weight="400" font-size="37" transform="matrix(1 0 0 1 1744.7 131)">Delivery (supply)</text><path d="M1552.11 101.5 1552.11 117.75 1708.5 117.75 1708.5 137.25 1552.11 137.25 1552.11 153.5 1535.5 127.5Z" stroke="#843C0C" stroke-width="4.58333" stroke-miterlimit="8" fill="#FF0000" fill-rule="evenodd"/><text font-family="Calibri,Calibri_MSFontService,sans-serif" font-weight="400" font-size="37" transform="matrix(1 0 0 1 1745.1 213)">Post (demand)</text><path d="M0 156.075 16.5626 156.075 16.5626 0 36.4374 0 36.4374 156.075 52.9999 156.075 26.5001 173Z" stroke="#203864" stroke-width="4.58333" stroke-miterlimit="8" fill="#4472C4" fill-rule="evenodd" transform="matrix(1.83697e-16 1 1 -1.83697e-16 1535.5 182.5)"/><text font-family="Calibri,Calibri_MSFontService,sans-serif" font-weight="400" font-size="37" transform="matrix(1 0 0 1 1740.02 301)">Post Office (production)</text><path d="M1547.1 271.5 1547.1 287.75 1703.5 287.75 1703.5 307.25 1547.1 307.25 1547.1 323.501 1530.5 297.5Z" fill="#10F82C" fill-rule="evenodd"/><path d="M1549.4 263.654 1549.4 287.75 1547.1 285.459 1705.79 285.459 1705.79 309.542 1547.1 309.542 1549.4 307.25 1549.4 331.347 1527.78 297.5ZM1532.43 298.734 1532.43 296.267 1549.04 322.267 1544.81 323.501 1544.81 304.959 1703.5 304.959 1701.21 307.25 1701.21 287.75 1703.5 290.042 1544.81 290.042 1544.81 271.5 1549.04 272.734Z" fill="#203864"/></g></svg>