<svg width="1973" height="622" xmlns="http://www.w3.org/2000/svg" xmlns:xlink="http://www.w3.org/1999/xlink" xml:space="preserve" overflow="hidden"><defs><clipPath id="clip0"><rect x="0" y="0" width="1973" height="622"/></clipPath></defs><g clip-path="url(#clip0)"><text font-family="Calibri,Calibri_MSFontService,sans-serif" font-weight="700" font-size="62" transform="matrix(1 0 0 1 558.521 540)">Figure 2: Car Structure (Level 2)</text><rect x="808.5" y="72.5" width="352" height="157" stroke="#1F4E79" stroke-width="4.58333" stroke-miterlimit="8" fill="#5B9BD5"/><text fill="#FFFFFF" font-family="Calibri,Calibri_MSFontService,sans-serif" font-weight="700" font-size="50" transform="matrix(1 0 0 1 941.131 168)">CAR</text><rect x="51.5001" y="316.5" width="352" height="155" stroke="#843C0C" stroke-width="4.58333" stroke-miterlimit="8" fill="#ED7D31"/><text fill="#FFFFFF" font-family="Calibri,Calibri_MSFontService,sans-serif" font-weight="700" font-size="41" transform="matrix(1 0 0 1 161.203 401)">ENGINE</text><path d="M984.293 229.5 984.293 272.972 227.5 272.972 227.5 316.444" stroke="#4472C4" stroke-width="12.6042" stroke-miterlimit="8" fill="none" fill-rule="evenodd"/><rect x="428.5" y="316.5" width="352" height="155" stroke="#843C0C" stroke-width="4.58333" stroke-miterlimit="8" fill="#ED7D31"/><text fill="#FFFFFF" font-family="Calibri,Calibri_MSFontService,sans-serif" font-weight="700" font-size="41" transform="matrix(1 0 0 1 470.453 401)">TRANSMISSION</text><path d="M984.268 229.5 984.268 273.062 604.5 273.062 604.5 316.624" stroke="#4472C4" stroke-width="12.6042" stroke-miterlimit="8" fill="none" fill-rule="evenodd"/><rect x="805.5" y="316.5" width="355" height="155" stroke="#385723" stroke-width="4.58333" stroke-miterlimit="8" fill="#70AD47"/><text fill="#FFFFFF" font-family="Calibri,Calibri_MSFontService,sans-serif" font-weight="700" font-size="41" transform="matrix(1 0 0 1 894.79 382)">ELECTRICS</text><path d="M984.908 229.5 984.908 273.116 983.5 273.116 983.5 316.732" stroke="#4472C4" stroke-width="12.6042" stroke-miterlimit="8" fill="none" fill-rule="evenodd"/><rect x="1185.5" y="316.5" width="355" height="145" stroke="#843C0C" stroke-width="4.58333" stroke-miterlimit="8" fill="#ED7D31"/><text fill="#FFFFFF" font-family="Calibri,Calibri_MSFontService,sans-serif" font-weight="700" font-size="41" transform="matrix(1 0 0 1 1291.17 396)">CHASSIS</text><rect x="1565.5" y="316.5" width="354" height="145" stroke="#203864" stroke-width="4.58333" stroke-miterlimit="8" fill="#4472C4"/><text fill="#FFFFFF" font-family="Calibri,Calibri_MSFontService,sans-serif" font-weight="700" font-size="41" transform="matrix(1 0 0 1 1687.8 395)">CABIN</text><path d="M0 0 43.7066 0 43.7066 378.433 87.4128 378.433" stroke="#4472C4" stroke-width="12.6042" stroke-miterlimit="8" fill="none" fill-rule="evenodd" transform="matrix(1.83697e-16 1 1 -1.83697e-16 984.5 229.5)"/><path d="M0 0 43.4718 0 43.4718 757.948 86.9437 757.948" stroke="#4472C4" stroke-width="12.6042" stroke-miterlimit="8" fill="none" fill-rule="evenodd" transform="matrix(1.83697e-16 1 1 -1.83697e-16 984.5 229.5)"/></g></svg>