<svg width="2093" height="1619" xmlns="http://www.w3.org/2000/svg" xmlns:xlink="http://www.w3.org/1999/xlink" xml:space="preserve" overflow="hidden"><defs><clipPath id="clip0"><rect x="0" y="0" width="2093" height="1619"/></clipPath></defs><g clip-path="url(#clip0)"><path d="M531 917 531 1011.52" stroke="#4472C4" stroke-width="2.29167" stroke-linecap="square" stroke-miterlimit="8" stroke-dasharray="6.875 2.29167" fill="none" fill-rule="evenodd"/><text font-family="Calibri,Calibri_MSFontService,sans-serif" font-weight="700" font-size="62" transform="matrix(1 0 0 1 644.918 1478)">Figure 2: Capital Extraction</text><path d="M230.5 106.5 230.501 1302.77" stroke="#4472C4" stroke-width="9.16667" stroke-miterlimit="8" fill="none" fill-rule="evenodd"/><path d="M0 0 1369.65 0.000360892" stroke="#4472C4" stroke-width="9.16667" stroke-miterlimit="8" fill="none" fill-rule="evenodd" transform="matrix(-1 0 0 1 1517.15 1220.5)"/><text font-family="Calibri,Calibri_MSFontService,sans-serif" font-weight="700" font-size="50" transform="matrix(6.12323e-17 -1 1 6.12323e-17 151.802 296)">capital</text><text font-family="Calibri,Calibri_MSFontService,sans-serif" font-weight="700" font-size="50" transform="matrix(1 0 0 1 1508.87 1312)">year</text><text font-family="Calibri,Calibri_MSFontService,sans-serif" font-weight="700" font-size="50" transform="matrix(1 0 0 1 496.516 1321)">Y1</text><text font-family="Calibri,Calibri_MSFontService,sans-serif" font-weight="700" font-size="50" transform="matrix(1 0 0 1 781.404 1321)">Y2</text><text font-family="Calibri,Calibri_MSFontService,sans-serif" font-weight="700" font-size="50" transform="matrix(1 0 0 1 1080.51 1321)">Y3</text><path d="M208.5 1134.5C208.5 1122.9 217.678 1113.5 229 1113.5 240.322 1113.5 249.5 1122.9 249.5 1134.5 249.5 1146.1 240.322 1155.5 229 1155.5 217.678 1155.5 208.5 1146.1 208.5 1134.5Z" stroke="#FF0000" stroke-width="4.58333" stroke-miterlimit="8" fill="#FF0000" fill-rule="evenodd"/><path d="M511.5 897C511.5 885.678 520.678 876.5 532 876.5 543.322 876.5 552.5 885.678 552.5 897 552.5 908.322 543.322 917.5 532 917.5 520.678 917.5 511.5 908.322 511.5 897Z" stroke="#92D050" stroke-width="4.58333" stroke-miterlimit="8" fill="#92D050" fill-rule="evenodd"/><path d="M0 0 273.879 208.022" stroke="#000000" stroke-width="2.29167" stroke-miterlimit="8" fill="none" fill-rule="evenodd" transform="matrix(1 0 0 -1 243 1119.02)"/><path d="M511.5 1033C511.5 1021.68 520.678 1012.5 532 1012.5 543.322 1012.5 552.5 1021.68 552.5 1033 552.5 1044.32 543.322 1053.5 532 1053.5 520.678 1053.5 511.5 1044.32 511.5 1033Z" stroke="#FF0000" stroke-width="4.58333" stroke-miterlimit="8" fill="#FF0000" fill-rule="evenodd"/><path d="M0 0 314.341 2.74278" stroke="#4472C4" stroke-width="2.29167" stroke-linecap="square" stroke-miterlimit="8" stroke-dasharray="6.875 2.29167" fill="none" fill-rule="evenodd" transform="matrix(-1 0 0 1 563.34 1131)"/><path d="M0 0 5.99153 203.619" stroke="#4472C4" stroke-width="2.29167" stroke-linecap="square" stroke-miterlimit="8" stroke-dasharray="6.875 2.29167" fill="none" fill-rule="evenodd" transform="matrix(-1 0 0 1 530.991 1053)"/><path d="M0 0 0.93832 163.27" stroke="#4472C4" stroke-width="2.29167" stroke-linecap="square" stroke-miterlimit="8" stroke-dasharray="6.875 2.29167" fill="none" fill-rule="evenodd" transform="matrix(-1 0 0 1 813.938 773)"/><path d="M793.5 753C793.5 741.678 802.678 732.5 814 732.5 825.322 732.5 834.5 741.678 834.5 753 834.5 764.322 825.322 773.5 814 773.5 802.678 773.5 793.5 764.322 793.5 753Z" stroke="#92D050" stroke-width="4.58333" stroke-miterlimit="8" fill="#92D050" fill-rule="evenodd"/><path d="M0 0 253.378 250.969" stroke="#000000" stroke-width="2.29167" stroke-miterlimit="8" fill="none" fill-rule="evenodd" transform="matrix(1 0 0 -1 546 1017.97)"/><path d="M792.5 957.5C792.5 945.902 801.678 936.5 813 936.5 824.322 936.5 833.5 945.902 833.5 957.5 833.5 969.098 824.322 978.5 813 978.5 801.678 978.5 792.5 969.098 792.5 957.5Z" stroke="#FF0000" stroke-width="4.58333" stroke-miterlimit="8" fill="#FF0000" fill-rule="evenodd"/><path d="M0 0 290.519 4.79987" stroke="#4472C4" stroke-width="2.29167" stroke-linecap="square" stroke-miterlimit="8" stroke-dasharray="6.875 2.29167" fill="none" fill-rule="evenodd" transform="matrix(-1 0 0 1 842.519 1028)"/><path d="M0 0 2.49052 279.263" stroke="#4472C4" stroke-width="2.29167" stroke-linecap="square" stroke-miterlimit="8" stroke-dasharray="6.875 2.29167" fill="none" fill-rule="evenodd" transform="matrix(-1 0 0 1 812.49 978)"/><path d="M814 622 814 732.002" stroke="#4472C4" stroke-width="2.29167" stroke-linecap="square" stroke-miterlimit="8" stroke-dasharray="6.875 2.29167" fill="none" fill-rule="evenodd"/><path d="M793.5 602C793.5 590.678 802.678 581.5 814 581.5 825.322 581.5 834.5 590.678 834.5 602 834.5 613.322 825.322 622.5 814 622.5 802.678 622.5 793.5 613.322 793.5 602Z" stroke="#000000" stroke-width="4.58333" stroke-miterlimit="8" fill="#FFFF00" fill-rule="evenodd"/><path d="M0 0 3.32057 300.664" stroke="#4472C4" stroke-width="2.29167" stroke-linecap="square" stroke-miterlimit="8" stroke-dasharray="6.875 2.29167" fill="none" fill-rule="evenodd" transform="matrix(-1 0 0 1 1116.32 563)"/><path d="M1096.5 543C1096.5 531.678 1105.68 522.5 1117 522.5 1128.32 522.5 1137.5 531.678 1137.5 543 1137.5 554.322 1128.32 563.5 1117 563.5 1105.68 563.5 1096.5 554.322 1096.5 543Z" stroke="#92D050" stroke-width="4.58333" stroke-miterlimit="8" fill="#92D050" fill-rule="evenodd"/><path d="M0 0 268.574 399.659" stroke="#000000" stroke-width="2.29167" stroke-miterlimit="8" fill="none" fill-rule="evenodd" transform="matrix(1 0 0 -1 833 956.659)"/><path d="M1092.5 885C1092.5 873.678 1101.68 864.5 1113 864.5 1124.32 864.5 1133.5 873.678 1133.5 885 1133.5 896.322 1124.32 905.5 1113 905.5 1101.68 905.5 1092.5 896.322 1092.5 885Z" stroke="#FF0000" stroke-width="4.58333" stroke-miterlimit="8" fill="#FF0000" fill-rule="evenodd"/><path d="M0 0 309.215 1.26312" stroke="#4472C4" stroke-width="2.29167" stroke-linecap="square" stroke-miterlimit="8" stroke-dasharray="6.875 2.29167" fill="none" fill-rule="evenodd" transform="matrix(-1 0 0 1 1142.21 956)"/><path d="M0 0 3.68146 351.551" stroke="#4472C4" stroke-width="2.29167" stroke-linecap="square" stroke-miterlimit="8" stroke-dasharray="6.875 2.29167" fill="none" fill-rule="evenodd" transform="matrix(-1 0 0 1 1112.68 905)"/><path d="M0 0 2.38225 199.396" stroke="#4472C4" stroke-width="2.29167" stroke-linecap="square" stroke-miterlimit="8" stroke-dasharray="6.875 2.29167" fill="none" fill-rule="evenodd" transform="matrix(-1 0 0 1 1118.38 323)"/><path d="M1098.5 303C1098.5 291.678 1107.68 282.5 1119 282.5 1130.32 282.5 1139.5 291.678 1139.5 303 1139.5 314.322 1130.32 323.5 1119 323.5 1107.68 323.5 1098.5 314.322 1098.5 303Z" stroke="#000000" stroke-width="4.58333" stroke-miterlimit="8" fill="#FFFF00" fill-rule="evenodd"/><path d="M1171 548C1175.69 548 1179.5 548.635 1179.5 549.418L1179.5 606.082C1179.5 606.865 1183.31 607.5 1188 607.5 1183.31 607.5 1179.5 608.135 1179.5 608.918L1179.5 665.582C1179.5 666.365 1175.69 667 1171 667" stroke="#4472C4" stroke-width="2.29167" stroke-miterlimit="8" fill="none" fill-rule="evenodd"/><text font-family="Calibri,Calibri_MSFontService,sans-serif" font-weight="700" font-size="50" transform="matrix(1 0 0 1 1249.21 631)">TAX</text><path d="M1171 703C1175.69 703 1179.5 703.636 1179.5 704.421L1179.5 795.079C1179.5 795.864 1183.31 796.5 1188 796.5 1183.31 796.5 1179.5 797.136 1179.5 797.921L1179.5 888.579C1179.5 889.364 1175.69 890 1171 890" stroke="#4472C4" stroke-width="2.29167" stroke-miterlimit="8" fill="none" fill-rule="evenodd"/><text font-family="Calibri,Calibri_MSFontService,sans-serif" font-weight="700" font-size="50" transform="matrix(1 0 0 1 1256.07 815)">DIVIDEND</text><path d="M1556.5 249C1556.5 237.678 1565.9 228.5 1577.5 228.5 1589.1 228.5 1598.5 237.678 1598.5 249 1598.5 260.322 1589.1 269.5 1577.5 269.5 1565.9 269.5 1556.5 260.322 1556.5 249Z" stroke="#FF0000" stroke-width="4.58333" stroke-miterlimit="8" fill="#FF0000" fill-rule="evenodd"/><text font-family="Calibri,Calibri_MSFontService,sans-serif" font-weight="400" font-size="50" transform="matrix(1 0 0 1 1672.82 261)">Opening</text><path d="M1553.5 373C1553.5 361.678 1562.9 352.5 1574.5 352.5 1586.1 352.5 1595.5 361.678 1595.5 373 1595.5 384.322 1586.1 393.5 1574.5 393.5 1562.9 393.5 1553.5 384.322 1553.5 373Z" stroke="#92D050" stroke-width="4.58333" stroke-miterlimit="8" fill="#92D050" fill-rule="evenodd"/><text font-family="Calibri,Calibri_MSFontService,sans-serif" font-weight="400" font-size="50" transform="matrix(1 0 0 1 1669.28 385)">Closing</text><text font-family="Calibri,Calibri_MSFontService,sans-serif" font-weight="400" font-size="55" transform="matrix(1 0 0 1 1669.28 514)">Un</text><text font-family="Calibri,Calibri_MSFontService,sans-serif" font-weight="400" font-size="55" transform="matrix(1 0 0 1 1733.47 514)">-</text><text font-family="Calibri,Calibri_MSFontService,sans-serif" font-weight="400" font-size="55" transform="matrix(1 0 0 1 1750.31 514)">extracted</text><rect x="1465.5" y="123.5" width="570" height="456" stroke="#203864" stroke-width="4.58333" stroke-miterlimit="8" fill="none"/><path d="M1558.5 488C1558.5 476.678 1566.78 467.5 1577 467.5 1587.22 467.5 1595.5 476.678 1595.5 488 1595.5 499.322 1587.22 508.5 1577 508.5 1566.78 508.5 1558.5 499.322 1558.5 488Z" stroke="#000000" stroke-width="4.58333" stroke-miterlimit="8" fill="#FFFF00" fill-rule="evenodd"/><rect x="1609" y="76" width="275" height="124" fill="#FFFFFF"/><text font-family="Calibri,Calibri_MSFontService,sans-serif" font-weight="700" font-size="50" transform="matrix(1 0 0 1 1641.6 141)">CAPITAL</text></g></svg>