<svg width="2198" height="1616" xmlns="http://www.w3.org/2000/svg" xmlns:xlink="http://www.w3.org/1999/xlink" xml:space="preserve" overflow="hidden"><defs><clipPath id="clip0"><rect x="0" y="0" width="2198" height="1616"/></clipPath></defs><g clip-path="url(#clip0)"><path d="M0 0 317.187 0.000360892" stroke="#4472C4" stroke-width="2.29167" stroke-linecap="square" stroke-miterlimit="8" stroke-dasharray="6.875 2.29167" fill="none" fill-rule="evenodd" transform="matrix(-1 0 0 1 1176.19 766)"/><path d="M0 0 276.943 242.087" stroke="#000000" stroke-width="2.29167" stroke-miterlimit="8" fill="none" fill-rule="evenodd" transform="matrix(1 0 0 -1 881 762.087)"/><path d="M0 0 18.0825 797.283" stroke="#4472C4" stroke-width="2.29167" stroke-linecap="square" stroke-miterlimit="8" stroke-dasharray="6.875 2.29167" fill="none" fill-rule="evenodd" transform="matrix(-1 0 0 1 1176.08 481)"/><path d="M0 0 329.963 0.000360892" stroke="#4472C4" stroke-width="2.29167" stroke-linecap="square" stroke-miterlimit="8" stroke-dasharray="6.875 2.29167" fill="none" fill-rule="evenodd" transform="matrix(-1 0 0 1 871.963 973)"/><path d="M248.5 124.5 248.5 1320.75" stroke="#4472C4" stroke-width="9.16667" stroke-miterlimit="8" fill="none" fill-rule="evenodd"/><path d="M0 0 1369.84 0.000360892" stroke="#4472C4" stroke-width="9.16667" stroke-miterlimit="8" fill="none" fill-rule="evenodd" transform="matrix(-1 0 0 1 1535.34 1238.5)"/><path d="M230.5 1094C230.5 1082.68 239.902 1073.5 251.5 1073.5 263.098 1073.5 272.5 1082.68 272.5 1094 272.5 1105.32 263.098 1114.5 251.5 1114.5 239.902 1114.5 230.5 1105.32 230.5 1094Z" stroke="#FF0000" stroke-width="4.58333" stroke-miterlimit="8" fill="#FF0000" fill-rule="evenodd"/><text font-family="Calibri,Calibri_MSFontService,sans-serif" font-weight="700" font-size="50" transform="matrix(6.12323e-17 -1 1 6.12323e-17 169.602 313)">capital</text><text font-family="Calibri,Calibri_MSFontService,sans-serif" font-weight="700" font-size="50" transform="matrix(1 0 0 1 1526.39 1329)">year</text><path d="M536.5 970C536.5 958.678 545.902 949.5 557.5 949.5 569.098 949.5 578.5 958.678 578.5 970 578.5 981.322 569.098 990.5 557.5 990.5 545.902 990.5 536.5 981.322 536.5 970Z" stroke="#92D050" stroke-width="4.58333" stroke-miterlimit="8" fill="#92D050" fill-rule="evenodd"/><path d="M560 984 560 1278.49" stroke="#4472C4" stroke-width="2.29167" stroke-linecap="square" stroke-miterlimit="8" stroke-dasharray="6.875 2.29167" fill="none" fill-rule="evenodd"/><path d="M0 0 276.798 94.5899" stroke="#000000" stroke-width="2.29167" stroke-miterlimit="8" fill="none" fill-rule="evenodd" transform="matrix(1 0 0 -1 266 1078.59)"/><path d="M0 0 294.809 0.000360892" stroke="#4472C4" stroke-width="2.29167" stroke-linecap="square" stroke-miterlimit="8" stroke-dasharray="6.875 2.29167" fill="none" fill-rule="evenodd" transform="matrix(-1 0 0 1 560.809 1108)"/><path d="M0 0C5.79898 -2.46669e-16 10.5 0.784056 10.5 1.75124L10.5 60.2486C10.5 61.2158 15.201 61.9999 21 61.9999 15.201 61.9999 10.5 62.7839 10.5 63.7511L10.5 122.248C10.5 123.216 5.79898 124-1.97335e-15 124" stroke="#4472C4" stroke-width="2.29167" stroke-miterlimit="8" fill="none" fill-rule="evenodd" transform="matrix(1 -1.22465e-16 -1.22465e-16 -1 603 1108)"/><text font-family="Calibri,Calibri_MSFontService,sans-serif" font-weight="700" font-size="50" transform="matrix(1 0 0 1 665.315 1055)">P1</text><text font-family="Calibri,Calibri_MSFontService,sans-serif" font-weight="700" font-size="50" transform="matrix(1 0 0 1 541.552 1329)">Y1</text><path d="M848.5 766C848.5 754.678 857.902 745.5 869.5 745.5 881.098 745.5 890.5 754.678 890.5 766 890.5 777.322 881.098 786.5 869.5 786.5 857.902 786.5 848.5 777.322 848.5 766Z" stroke="#92D050" stroke-width="4.58333" stroke-miterlimit="8" fill="#92D050" fill-rule="evenodd"/><path d="M0 0 13.5349 484.787" stroke="#4472C4" stroke-width="2.29167" stroke-linecap="square" stroke-miterlimit="8" stroke-dasharray="6.875 2.29167" fill="none" fill-rule="evenodd" transform="matrix(-1 0 0 1 872.535 780)"/><path d="M0 0 276.618 176.909" stroke="#000000" stroke-width="2.29167" stroke-miterlimit="8" fill="none" fill-rule="evenodd" transform="matrix(1 0 0 -1 578 956.909)"/><path d="M931 780C935.418 780 939 780.597 939 781.334L939 875.166C939 875.903 942.582 876.5 947 876.5 942.582 876.5 939 877.097 939 877.834L939 971.666C939 972.403 935.418 973 931 973" stroke="#4472C4" stroke-width="2.29167" stroke-miterlimit="8" fill="none" fill-rule="evenodd"/><text font-family="Calibri,Calibri_MSFontService,sans-serif" font-weight="700" font-size="50" transform="matrix(1 0 0 1 1005.2 892)">P2</text><text font-family="Calibri,Calibri_MSFontService,sans-serif" font-weight="700" font-size="50" transform="matrix(1 0 0 1 829.864 1329)">Y2</text><path d="M1152.5 505.5C1152.5 493.902 1161.68 484.5 1173 484.5 1184.32 484.5 1193.5 493.902 1193.5 505.5 1193.5 517.098 1184.32 526.5 1173 526.5 1161.68 526.5 1152.5 517.098 1152.5 505.5Z" stroke="#92D050" stroke-width="4.58333" stroke-miterlimit="8" fill="#92D050" fill-rule="evenodd"/><path d="M1234 520C1238.69 520 1242.5 520.636 1242.5 521.421L1242.5 636.579C1242.5 637.364 1246.31 638 1251 638 1246.31 638 1242.5 638.636 1242.5 639.421L1242.5 754.579C1242.5 755.364 1238.69 756 1234 756" stroke="#4472C4" stroke-width="2.29167" stroke-miterlimit="8" fill="none" fill-rule="evenodd"/><text font-family="Calibri,Calibri_MSFontService,sans-serif" font-weight="700" font-size="50" transform="matrix(1 0 0 1 1308.89 657)">P3</text><text font-family="Calibri,Calibri_MSFontService,sans-serif" font-weight="700" font-size="50" transform="matrix(1 0 0 1 1128.97 1329)">Y3</text><path d="M1545.5 176C1545.5 164.678 1553.56 155.5 1563.5 155.5 1573.44 155.5 1581.5 164.678 1581.5 176 1581.5 187.322 1573.44 196.5 1563.5 196.5 1553.56 196.5 1545.5 187.322 1545.5 176Z" stroke="#FF0000" stroke-width="4.58333" stroke-miterlimit="8" fill="#FF0000" fill-rule="evenodd"/><text font-family="Calibri,Calibri_MSFontService,sans-serif" font-weight="400" font-size="50" transform="matrix(1 0 0 1 1651.42 188)">Initial Capital</text><path d="M1541.5 299.5C1541.5 287.902 1549.78 278.5 1560 278.5 1570.22 278.5 1578.5 287.902 1578.5 299.5 1578.5 311.098 1570.22 320.5 1560 320.5 1549.78 320.5 1541.5 311.098 1541.5 299.5Z" stroke="#92D050" stroke-width="4.58333" stroke-miterlimit="8" fill="#92D050" fill-rule="evenodd"/><text font-family="Calibri,Calibri_MSFontService,sans-serif" font-weight="400" font-size="50" transform="matrix(1 0 0 1 1648.28 312)">Balance Sheet </text><path d="M0 0C5.52297 -2.4667e-16 10.0002 0.746902 10.0002 1.66825L10.0002 60.3318C10.0002 61.2532 14.4775 62.0001 20.0004 62.0001 14.4775 62.0001 10.0002 62.747 10.0002 63.6683L10.0002 122.332C10.0002 123.253 5.52297 124-1.97337e-15 124" stroke="#4472C4" stroke-width="2.29167" stroke-miterlimit="8" fill="none" fill-rule="evenodd" transform="matrix(1 -1.22465e-16 -1.22465e-16 -1 1558 495)"/><text font-family="Calibri,Calibri_MSFontService,sans-serif" font-weight="400" font-size="50" transform="matrix(1 0 0 1 1648.28 436)">Profit </text><rect x="1454.5" y="88.4998" width="571" height="456" stroke="#203864" stroke-width="4.58333" stroke-miterlimit="8" fill="none"/><text font-family="Calibri,Calibri_MSFontService,sans-serif" font-weight="700" font-size="62" transform="matrix(1 0 0 1 668.107 1511)">Figure 1: Profit Yields Capital</text></g></svg>