<svg width="1856" height="1158" xmlns="http://www.w3.org/2000/svg" xmlns:xlink="http://www.w3.org/1999/xlink" xml:space="preserve" overflow="hidden"><defs><filter id="fx0" x="-10%" y="-10%" width="120%" height="120%" filterUnits="userSpaceOnUse" primitiveUnits="userSpaceOnUse"><feComponentTransfer color-interpolation-filters="sRGB"><feFuncR type="discrete" tableValues="0 0"/><feFuncG type="discrete" tableValues="0 0"/><feFuncB type="discrete" tableValues="0 0"/><feFuncA type="linear" slope="0.631373" intercept="0"/></feComponentTransfer><feGaussianBlur stdDeviation="6.875 6.875"/></filter><filter id="fx1" x="-10%" y="-10%" width="120%" height="120%" filterUnits="userSpaceOnUse" primitiveUnits="userSpaceOnUse"><feComponentTransfer color-interpolation-filters="sRGB"><feFuncR type="discrete" tableValues="0 0"/><feFuncG type="discrete" tableValues="0 0"/><feFuncB type="discrete" tableValues="0 0"/><feFuncA type="linear" slope="0.631373" intercept="0"/></feComponentTransfer><feGaussianBlur stdDeviation="6.875 6.875"/></filter><filter id="fx2" x="-10%" y="-10%" width="120%" height="120%" filterUnits="userSpaceOnUse" primitiveUnits="userSpaceOnUse"><feComponentTransfer color-interpolation-filters="sRGB"><feFuncR type="discrete" tableValues="0 0"/><feFuncG type="discrete" tableValues="0 0"/><feFuncB type="discrete" tableValues="0 0"/><feFuncA type="linear" slope="0.631373" intercept="0"/></feComponentTransfer><feGaussianBlur stdDeviation="6.875 6.875"/></filter><filter id="fx3" x="-10%" y="-10%" width="120%" height="120%" filterUnits="userSpaceOnUse" primitiveUnits="userSpaceOnUse"><feComponentTransfer color-interpolation-filters="sRGB"><feFuncR type="discrete" tableValues="0 0"/><feFuncG type="discrete" tableValues="0 0"/><feFuncB type="discrete" tableValues="0 0"/><feFuncA type="linear" slope="0.631373" intercept="0"/></feComponentTransfer><feGaussianBlur stdDeviation="6.875 6.875"/></filter><clipPath id="clip4"><rect x="0" y="0" width="1856" height="1158"/></clipPath><clipPath id="clip5"><rect x="-3" y="-3" width="424" height="346"/></clipPath><clipPath id="clip6"><rect x="0" y="0" width="416" height="340"/></clipPath><clipPath id="clip7"><rect x="30" y="30" width="273" height="247"/></clipPath><clipPath id="clip8"><rect x="0" y="0" width="344" height="319"/></clipPath><linearGradient x1="718" y1="213" x2="718" y2="509" gradientUnits="userSpaceOnUse" spreadMethod="reflect" id="fill9"><stop offset="0" stop-color="#F18C55"/><stop offset="0.5" stop-color="#F67B28"/><stop offset="1" stop-color="#E56B17"/></linearGradient><clipPath id="clip10"><rect x="-3" y="-3" width="420" height="346"/></clipPath><clipPath id="clip11"><rect x="0" y="0" width="415" height="340"/></clipPath><clipPath id="clip12"><rect x="30" y="30" width="129" height="144"/></clipPath><clipPath id="clip13"><rect x="0" y="0" width="189" height="217"/></clipPath><linearGradient x1="1429.5" y1="220" x2="1429.5" y2="516" gradientUnits="userSpaceOnUse" spreadMethod="reflect" id="fill14"><stop offset="0" stop-color="#FFC746"/><stop offset="0.5" stop-color="#FFC600"/><stop offset="1" stop-color="#E5B600"/></linearGradient></defs><g clip-path="url(#clip4)"><rect x="0" y="0" width="1856" height="1158" fill="#FFFFFF"/><g clip-path="url(#clip5)" filter="url(#fx0)" transform="translate(510 198)"><g clip-path="url(#clip6)"><rect x="22.0001" y="21.8751" width="372" height="296" fill="#FF0000"/></g></g><g clip-path="url(#clip7)" filter="url(#fx1)" transform="translate(552 216)"><g clip-path="url(#clip8)"><path d="M25.9521-2.41699C26.2451-1.84733 26.4364-1.3916 26.5259-1.0498 26.6154-0.708008 26.5625-0.447591 26.3672-0.268555 26.1719-0.0895182 25.8179 0.0244141 25.3052 0.0732422 24.7925 0.12207 24.0804 0.146484 23.1689 0.146484 22.404 0.146484 21.8018 0.130208 21.3623 0.0976562 20.9228 0.0651042 20.577 0.012207 20.3247-0.0610352 20.0724-0.134277 19.8893-0.236003 19.7754-0.366211 19.6615-0.496419 19.5638-0.65918 19.4824-0.854492L13.5498-12.2559 7.6416-0.854492C7.54394-0.65918 7.43815-0.496419 7.32422-0.366211 7.21029-0.236003 7.02718-0.134277 6.7749-0.0610352 6.52262 0.012207 6.17269 0.0651042 5.7251 0.0976562 5.27751 0.130208 4.6875 0.146484 3.95508 0.146484 3.10872 0.146484 2.45361 0.12207 1.98975 0.0732422 1.52588 0.0244141 1.21256-0.0895182 1.0498-0.268555 0.887044-0.447591 0.854492-0.708008 0.952148-1.0498 1.0498-1.3916 1.25326-1.84733 1.5625-2.41699L9.13086-16.2109 2.09961-29.1748C1.80664-29.7607 1.60726-30.2287 1.50146-30.5786 1.39567-30.9285 1.43636-31.189 1.62354-31.3599 1.81071-31.5308 2.15658-31.6366 2.66113-31.6772 3.16569-31.7179 3.88184-31.7383 4.80957-31.7383 5.57454-31.7383 6.18083-31.722 6.62842-31.6895 7.07601-31.6569 7.43001-31.604 7.69043-31.5308 7.95085-31.4575 8.13395-31.3558 8.23975-31.2256 8.34554-31.0954 8.44726-30.9326 8.54492-30.7373L14.0869-20.2881 19.4824-30.7373C19.5801-30.9326 19.6818-31.0954 19.7876-31.2256 19.8934-31.3558 20.0643-31.4575 20.3003-31.5308 20.5363-31.604 20.8618-31.6569 21.2769-31.6895 21.6919-31.722 22.2656-31.7383 22.998-31.7383 23.8118-31.7383 24.4548-31.7179 24.9268-31.6772 25.3988-31.6366 25.7243-31.5267 25.9033-31.3477 26.0824-31.1686 26.1271-30.9082 26.0376-30.5664 25.9481-30.2246 25.765-29.7607 25.4883-29.1748L18.457-16.2842Z" fill="#FFFFFF" transform="matrix(1 0 0 1 152.198 86)"/><path d="M22.168-2.51465C22.168-2.04264 22.1476-1.64795 22.1069-1.33057 22.0662-1.01318 22.0052-0.756836 21.9238-0.561523 21.8424-0.366211 21.7407-0.223796 21.6187-0.134277 21.4966-0.0447591 21.3623 0 21.2158 0L5.34668 0C4.80957 0 4.35791-0.158691 3.9917-0.476074 3.62549-0.793457 3.44238-1.31022 3.44238-2.02637L3.44238-29.5654C3.44238-30.2816 3.62549-30.7983 3.9917-31.1157 4.35791-31.4331 4.80957-31.5918 5.34668-31.5918L21.1182-31.5918C21.2646-31.5918 21.3949-31.5511 21.5088-31.4697 21.6227-31.3883 21.7204-31.2459 21.8018-31.0425 21.8831-30.839 21.9442-30.5786 21.9849-30.2612 22.0256-29.9438 22.0459-29.541 22.0459-29.0527 22.0459-28.597 22.0256-28.2104 21.9849-27.8931 21.9442-27.5757 21.8831-27.3193 21.8018-27.124 21.7204-26.9287 21.6227-26.7863 21.5088-26.6968 21.3949-26.6073 21.2646-26.5625 21.1182-26.5625L9.83887-26.5625 9.83887-18.8477 19.3848-18.8477C19.5312-18.8477 19.6655-18.8029 19.7876-18.7134 19.9097-18.6239 20.0114-18.4855 20.0928-18.2983 20.1742-18.1112 20.2352-17.8589 20.2759-17.5415 20.3166-17.2241 20.3369-16.8376 20.3369-16.3818 20.3369-15.9098 20.3166-15.5192 20.2759-15.21 20.2352-14.9007 20.1742-14.6525 20.0928-14.4653 20.0114-14.2782 19.9097-14.1439 19.7876-14.0625 19.6655-13.9811 19.5312-13.9404 19.3848-13.9404L9.83887-13.9404 9.83887-5.0293 21.2158-5.0293C21.3623-5.0293 21.4966-4.98454 21.6187-4.89502 21.7407-4.8055 21.8424-4.66309 21.9238-4.46777 22.0052-4.27246 22.0662-4.01611 22.1069-3.69873 22.1476-3.38135 22.168-2.98665 22.168-2.51465ZM64.8484-0.878906C64.8484-0.716146 64.8036-0.569661 64.7141-0.439453 64.6246-0.309245 64.4618-0.203451 64.2258-0.12207 63.9898-0.0406901 63.6765 0.0244141 63.2859 0.0732422 62.8952 0.12207 62.3988 0.146484 61.7966 0.146484 61.2107 0.146484 60.7224 0.12207 60.3318 0.0732422 59.9411 0.0244141 59.6319-0.0406901 59.404-0.12207 59.1762-0.203451 59.0134-0.309245 58.9157-0.439453 58.8181-0.569661 58.7693-0.716146 58.7693-0.878906L58.7693-26.5869 58.7204-26.5869 49.5652-0.90332C49.5001-0.691732 49.3943-0.516764 49.2478-0.378418 49.1013-0.240072 48.9019-0.130208 48.6496-0.0488281 48.3974 0.0325521 48.0759 0.0854492 47.6853 0.109863 47.2947 0.134277 46.8227 0.146484 46.2693 0.146484 45.7159 0.146484 45.2439 0.126139 44.8533 0.0854492 44.4626 0.0447591 44.1412-0.0203451 43.8889-0.109863 43.6366-0.199381 43.4372-0.309245 43.2908-0.439453 43.1443-0.569661 43.0466-0.724284 42.9978-0.90332L34.1599-26.5869 34.1111-26.5869 34.1111-0.878906C34.1111-0.716146 34.0663-0.569661 33.9768-0.439453 33.8873-0.309245 33.7204-0.203451 33.4763-0.12207 33.2322-0.0406901 32.9188 0.0244141 32.5364 0.0732422 32.1539 0.12207 31.6615 0.146484 31.0593 0.146484 30.4734 0.146484 29.9851 0.12207 29.5945 0.0732422 29.2038 0.0244141 28.8905-0.0406901 28.6545-0.12207 28.4185-0.203451 28.2558-0.309245 28.1662-0.439453 28.0767-0.569661 28.032-0.716146 28.032-0.878906L28.032-29.0283C28.032-29.8584 28.2517-30.4932 28.6911-30.9326 29.1306-31.3721 29.7165-31.5918 30.449-31.5918L34.6482-31.5918C35.3969-31.5918 36.0398-31.5308 36.5769-31.4087 37.114-31.2866 37.5779-31.0832 37.9685-30.7983 38.3591-30.5135 38.6846-30.1392 38.945-29.6753 39.2055-29.2114 39.4333-28.6377 39.6286-27.9541L46.4646-9.13086 46.5622-9.13086 53.6423-27.9053C53.8539-28.5889 54.0858-29.1667 54.3381-29.6387 54.5904-30.1107 54.8834-30.4932 55.217-30.7861 55.5507-31.0791 55.9454-31.2866 56.4011-31.4087 56.8568-31.5308 57.3858-31.5918 57.988-31.5918L62.3093-31.5918C62.7488-31.5918 63.1272-31.5348 63.4446-31.4209 63.7619-31.307 64.0224-31.1401 64.2258-30.9204 64.4293-30.7007 64.5839-30.4321 64.6897-30.1147 64.7955-29.7974 64.8484-29.4352 64.8484-29.0283ZM93.7316-21.9971C93.7316-20.223 93.4549-18.6523 92.9015-17.2852 92.3481-15.918 91.5424-14.7664 90.4845-13.8306 89.4266-12.8947 88.1285-12.1826 86.5905-11.6943 85.0524-11.2061 83.2417-10.9619 81.1583-10.9619L78.5216-10.9619 78.5216-0.878906C78.5216-0.716146 78.4687-0.569661 78.3629-0.439453 78.2571-0.309245 78.0822-0.203451 77.838-0.12207 77.5939-0.0406901 77.2684 0.0244141 76.8615 0.0732422 76.4546 0.12207 75.9337 0.146484 75.299 0.146484 74.6805 0.146484 74.1637 0.12207 73.7487 0.0732422 73.3336 0.0244141 73.004-0.0406901 72.7599-0.12207 72.5158-0.203451 72.3449-0.309245 72.2472-0.439453 72.1495-0.569661 72.1007-0.716146 72.1007-0.878906L72.1007-29.2969C72.1007-30.0618 72.3001-30.6356 72.6989-31.0181 73.0976-31.4006 73.6225-31.5918 74.2736-31.5918L81.7199-31.5918C82.4686-31.5918 83.1806-31.5633 83.8561-31.5063 84.5315-31.4494 85.3413-31.3273 86.2853-31.1401 87.2293-30.953 88.1855-30.6071 89.1539-30.1025 90.1224-29.598 90.9484-28.9591 91.632-28.186 92.3156-27.4129 92.8364-26.5096 93.1945-25.4761 93.5525-24.4425 93.7316-23.2829 93.7316-21.9971ZM87.0177-21.5332C87.0177-22.64 86.8224-23.5514 86.4318-24.2676 86.0411-24.9837 85.561-25.5127 84.9913-25.8545 84.4217-26.1963 83.8235-26.4119 83.1969-26.5015 82.5703-26.591 81.9233-26.6357 81.256-26.6357L78.5216-26.6357 78.5216-15.918 81.4025-15.918C82.4279-15.918 83.2864-16.0563 83.9782-16.333 84.6699-16.6097 85.2355-16.9963 85.6749-17.4927 86.1144-17.9891 86.448-18.5832 86.6759-19.2749 86.9038-19.9666 87.0177-20.7194 87.0177-21.5332ZM116.295-2.68555C116.295-2.19727 116.274-1.7863 116.233-1.45264 116.193-1.11898 116.132-0.842285 116.05-0.622559 115.969-0.402832 115.867-0.244141 115.745-0.146484 115.623-0.0488281 115.481 0 115.318 0L100.84 0C100.303 0 99.8517-0.158691 99.4854-0.476074 99.1192-0.793457 98.9361-1.31022 98.9361-2.02637L98.9361-30.7129C98.9361-30.8756 98.989-31.0221 99.0948-31.1523 99.2006-31.2826 99.3756-31.3883 99.6197-31.4697 99.8639-31.5511 100.193-31.6162 100.608-31.665 101.024-31.7139 101.54-31.7383 102.159-31.7383 102.794-31.7383 103.314-31.7139 103.721-31.665 104.128-31.6162 104.454-31.5511 104.698-31.4697 104.942-31.3883 105.117-31.2826 105.223-31.1523 105.329-31.0221 105.381-30.8756 105.381-30.7129L105.381-5.29785 115.318-5.29785C115.481-5.29785 115.623-5.25309 115.745-5.16357 115.867-5.07406 115.969-4.92757 116.05-4.72412 116.132-4.52067 116.193-4.25212 116.233-3.91846 116.274-3.5848 116.295-3.17383 116.295-2.68555ZM148.667-16.1621C148.667-13.5417 148.341-11.1979 147.69-9.13086 147.039-7.0638 146.071-5.31006 144.785-3.86963 143.499-2.4292 141.908-1.33057 140.012-0.57373 138.116 0.183105 135.922 0.561523 133.432 0.561523 130.975 0.561523 128.83 0.240072 126.999-0.402832 125.168-1.04574 123.642-2.02637 122.421-3.34473 121.201-4.66309 120.285-6.33952 119.675-8.37402 119.065-10.4085 118.759-12.8174 118.759-15.6006 118.759-18.1559 119.085-20.4549 119.736-22.4976 120.387-24.5402 121.355-26.2777 122.641-27.71 123.927-29.1423 125.518-30.2409 127.414-31.0059 129.31-31.7708 131.512-32.1533 134.018-32.1533 136.411-32.1533 138.523-31.8359 140.354-31.2012 142.185-30.5664 143.715-29.5898 144.943-28.2715 146.172-26.9531 147.1-25.2889 147.727-23.2788 148.353-21.2687 148.667-18.8965 148.667-16.1621ZM141.928-15.8203C141.928-17.4805 141.798-18.9901 141.538-20.3491 141.277-21.7082 140.834-22.8719 140.207-23.8403 139.58-24.8088 138.746-25.5575 137.705-26.0864 136.663-26.6154 135.361-26.8799 133.798-26.8799 132.22-26.8799 130.901-26.5828 129.843-25.9888 128.785-25.3947 127.931-24.6012 127.28-23.6084 126.629-22.6156 126.169-21.4559 125.9-20.1294 125.632-18.8029 125.498-17.3991 125.498-15.918 125.498-14.1927 125.628-12.6424 125.888-11.2671 126.149-9.89176 126.588-8.71582 127.207-7.73926 127.825-6.76269 128.655-6.01807 129.697-5.50537 130.739-4.99267 132.049-4.73633 133.628-4.73633 135.206-4.73633 136.525-5.0293 137.583-5.61523 138.641-6.20117 139.495-6.9987 140.146-8.00781 140.797-9.01693 141.257-10.1929 141.525-11.5356 141.794-12.8784 141.928-14.3066 141.928-15.8203ZM167.117-11.9873 167.117-0.878906C167.117-0.716146 167.064-0.569661 166.958-0.439453 166.853-0.309245 166.678-0.203451 166.434-0.12207 166.189-0.0406901 165.86 0.0244141 165.445 0.0732422 165.03 0.12207 164.513 0.146484 163.895 0.146484 163.26 0.146484 162.739 0.12207 162.332 0.0732422 161.925 0.0244141 161.596-0.0406901 161.343-0.12207 161.091-0.203451 160.916-0.309245 160.818-0.439453 160.721-0.569661 160.672-0.716146 160.672-0.878906L160.672-11.9873 152.029-29.1992C151.72-29.8014 151.521-30.2694 151.431-30.603 151.342-30.9367 151.39-31.189 151.578-31.3599 151.765-31.5308 152.111-31.6366 152.615-31.6772 153.12-31.7179 153.82-31.7383 154.715-31.7383 155.464-31.7383 156.062-31.722 156.509-31.6895 156.957-31.6569 157.311-31.5959 157.571-31.5063 157.832-31.4168 158.023-31.2988 158.145-31.1523 158.267-31.0059 158.385-30.8187 158.499-30.5908L162.015-22.8271C162.356-22.0784 162.694-21.2891 163.028-20.459 163.361-19.6289 163.699-18.7581 164.041-17.8467L164.09-17.8467C164.399-18.7256 164.716-19.5801 165.042-20.4102 165.368-21.2402 165.685-22.0296 165.994-22.7783L169.461-30.4932C169.542-30.7536 169.644-30.9611 169.766-31.1157 169.888-31.2703 170.071-31.3965 170.315-31.4941 170.56-31.5918 170.893-31.6569 171.316-31.6895 171.74-31.722 172.301-31.7383 173.001-31.7383 173.929-31.7383 174.649-31.7179 175.162-31.6772 175.674-31.6366 176.024-31.5308 176.211-31.3599 176.399-31.189 176.443-30.9326 176.346-30.5908 176.248-30.249 176.053-29.7852 175.76-29.1992ZM199.268-2.51465C199.268-2.04264 199.248-1.64795 199.207-1.33057 199.166-1.01318 199.105-0.756836 199.024-0.561523 198.942-0.366211 198.841-0.223796 198.719-0.134277 198.597-0.0447591 198.462 0 198.316 0L182.447 0C181.91 0 181.458-0.158691 181.092-0.476074 180.725-0.793457 180.542-1.31022 180.542-2.02637L180.542-29.5654C180.542-30.2816 180.725-30.7983 181.092-31.1157 181.458-31.4331 181.91-31.5918 182.447-31.5918L198.218-31.5918C198.365-31.5918 198.495-31.5511 198.609-31.4697 198.723-31.3883 198.82-31.2459 198.902-31.0425 198.983-30.839 199.044-30.5786 199.085-30.2612 199.126-29.9438 199.146-29.541 199.146-29.0527 199.146-28.597 199.126-28.2104 199.085-27.8931 199.044-27.5757 198.983-27.3193 198.902-27.124 198.82-26.9287 198.723-26.7863 198.609-26.6968 198.495-26.6073 198.365-26.5625 198.218-26.5625L186.939-26.5625 186.939-18.8477 196.485-18.8477C196.631-18.8477 196.766-18.8029 196.888-18.7134 197.01-18.6239 197.111-18.4855 197.193-18.2983 197.274-18.1112 197.335-17.8589 197.376-17.5415 197.417-17.2241 197.437-16.8376 197.437-16.3818 197.437-15.9098 197.417-15.5192 197.376-15.21 197.335-14.9007 197.274-14.6525 197.193-14.4653 197.111-14.2782 197.01-14.1439 196.888-14.0625 196.766-13.9811 196.631-13.9404 196.485-13.9404L186.939-13.9404 186.939-5.0293 198.316-5.0293C198.462-5.0293 198.597-4.98454 198.719-4.89502 198.841-4.8055 198.942-4.66309 199.024-4.46777 199.105-4.27246 199.166-4.01611 199.207-3.69873 199.248-3.38135 199.268-2.98665 199.268-2.51465ZM223.858-2.51465C223.858-2.04264 223.837-1.64795 223.797-1.33057 223.756-1.01318 223.695-0.756836 223.613-0.561523 223.532-0.366211 223.43-0.223796 223.308-0.134277 223.186-0.0447591 223.052 0 222.905 0L207.036 0C206.499 0 206.047-0.158691 205.681-0.476074 205.315-0.793457 205.132-1.31022 205.132-2.02637L205.132-29.5654C205.132-30.2816 205.315-30.7983 205.681-31.1157 206.047-31.4331 206.499-31.5918 207.036-31.5918L222.808-31.5918C222.954-31.5918 223.084-31.5511 223.198-31.4697 223.312-31.3883 223.41-31.2459 223.491-31.0425 223.573-30.839 223.634-30.5786 223.674-30.2612 223.715-29.9438 223.735-29.541 223.735-29.0527 223.735-28.597 223.715-28.2104 223.674-27.8931 223.634-27.5757 223.573-27.3193 223.491-27.124 223.41-26.9287 223.312-26.7863 223.198-26.6968 223.084-26.6073 222.954-26.5625 222.808-26.5625L211.528-26.5625 211.528-18.8477 221.074-18.8477C221.221-18.8477 221.355-18.8029 221.477-18.7134 221.599-18.6239 221.701-18.4855 221.782-18.2983 221.864-18.1112 221.925-17.8589 221.965-17.5415 222.006-17.2241 222.026-16.8376 222.027-16.3818 222.026-15.9098 222.006-15.5192 221.965-15.21 221.925-14.9007 221.864-14.6525 221.782-14.4653 221.701-14.2782 221.599-14.1439 221.477-14.0625 221.355-13.9811 221.221-13.9404 221.074-13.9404L211.528-13.9404 211.528-5.0293 222.905-5.0293C223.052-5.0293 223.186-4.98454 223.308-4.89502 223.43-4.8055 223.532-4.66309 223.613-4.46777 223.695-4.27246 223.756-4.01611 223.797-3.69873 223.837-3.38135 223.858-2.98665 223.858-2.51465Z" fill="#FFFFFF" transform="matrix(1 0 0 1 52.9458 188)"/><path d="M9.88769-0.878906C9.88769-0.716146 9.8348-0.569661 9.729-0.439453 9.62321-0.309245 9.44824-0.203451 9.2041-0.12207 8.95996-0.0406901 8.63444 0.0244141 8.22754 0.0732422 7.82064 0.12207 7.2998 0.146484 6.66504 0.146484 6.04655 0.146484 5.52978 0.12207 5.11475 0.0732422 4.69971 0.0244141 4.37012-0.0406901 4.12598-0.12207 3.88184-0.203451 3.70687-0.309245 3.60107-0.439453 3.49528-0.569661 3.44238-0.716146 3.44238-0.878906L3.44238-30.7129C3.44238-30.8756 3.49528-31.0221 3.60107-31.1523 3.70687-31.2826 3.8859-31.3883 4.13818-31.4697 4.39046-31.5511 4.72005-31.6162 5.12695-31.665 5.53385-31.7139 6.04655-31.7383 6.66504-31.7383 7.2998-31.7383 7.82064-31.7139 8.22754-31.665 8.63444-31.6162 8.95996-31.5511 9.2041-31.4697 9.44824-31.3883 9.62321-31.2826 9.729-31.1523 9.8348-31.0221 9.88769-30.8756 9.88769-30.7129ZM42.9443-2.24609C42.9443-1.87174 42.8792-1.53809 42.749-1.24512 42.6187-0.952148 42.4438-0.708008 42.2241-0.512695 42.0043-0.317383 41.7439-0.174967 41.4428-0.0854492 41.1417 0.00406901 40.8365 0.0488281 40.5273 0.0488281L37.7929 0.0488281C37.2232 0.0488281 36.7309-0.00813802 36.3158-0.12207 35.9008-0.236003 35.5183-0.443522 35.1684-0.744629 34.8185-1.04574 34.4807-1.45264 34.1552-1.96533 33.8297-2.47803 33.4635-3.14128 33.0566-3.95508L25.1952-18.7256C24.7395-19.6045 24.2757-20.5526 23.8036-21.5698 23.3316-22.5871 22.9085-23.5758 22.5341-24.5361L22.4853-24.5361C22.5504-23.3643 22.5992-22.1964 22.6318-21.0327 22.6643-19.869 22.6806-18.6686 22.6806-17.4316L22.6806-0.90332C22.6806-0.74056 22.6358-0.594075 22.5463-0.463867 22.4568-0.333659 22.3022-0.223796 22.0825-0.134277 21.8627-0.0447591 21.5657 0.0244141 21.1913 0.0732422 20.817 0.12207 20.3368 0.146484 19.7509 0.146484 19.1812 0.146484 18.7092 0.12207 18.3349 0.0732422 17.9605 0.0244141 17.6676-0.0447591 17.456-0.134277 17.2444-0.223796 17.0979-0.333659 17.0165-0.463867 16.9352-0.594075 16.8945-0.74056 16.8945-0.90332L16.8945-29.2969C16.8945-30.0618 17.1183-30.6356 17.5659-31.0181 18.0134-31.4006 18.5628-31.5918 19.2138-31.5918L22.6562-31.5918C23.2747-31.5918 23.7955-31.5389 24.2187-31.4331 24.6419-31.3273 25.0203-31.1523 25.3539-30.9082 25.6876-30.6641 26.0009-30.3263 26.2939-29.895 26.5868-29.4637 26.888-28.9307 27.1972-28.2959L33.3495-16.748C33.7076-16.0482 34.0616-15.3605 34.4116-14.6851 34.7615-14.0096 35.0992-13.3341 35.4247-12.6587 35.7503-11.9832 36.0676-11.32 36.3769-10.6689 36.6861-10.0179 36.9872-9.36686 37.2802-8.71582L37.3046-8.71582C37.2558-9.85514 37.2192-11.0433 37.1948-12.2803 37.1703-13.5173 37.1581-14.6973 37.1581-15.8203L37.1581-30.6396C37.1581-30.8024 37.207-30.9489 37.3046-31.0791 37.4023-31.2093 37.565-31.3232 37.7929-31.4209 38.0208-31.5186 38.3219-31.5877 38.6962-31.6284 39.0706-31.6691 39.5507-31.6894 40.1367-31.6895 40.69-31.6894 41.1539-31.6691 41.5283-31.6284 41.9026-31.5877 42.1915-31.5186 42.395-31.4209 42.5984-31.3232 42.7408-31.2093 42.8222-31.0791 42.9036-30.9489 42.9443-30.8024 42.9443-30.6396ZM71.9513-4.78516C71.9513-4.37825 71.9391-4.03239 71.9147-3.74756 71.8903-3.46273 71.8536-3.21859 71.8048-3.01514 71.756-2.81169 71.6909-2.63672 71.6095-2.49023 71.5281-2.34375 71.3979-2.17692 71.2189-1.98975 71.0398-1.80257 70.694-1.5625 70.1813-1.26953 69.6686-0.976562 69.0419-0.695801 68.3014-0.427246 67.5608-0.158691 66.7145 0.0651042 65.7623 0.244141 64.8102 0.423177 63.7807 0.512695 62.674 0.512695 60.5092 0.512695 58.5561 0.179036 56.8146-0.488281 55.073-1.1556 53.5919-2.15251 52.3712-3.479 51.1505-4.8055 50.2146-6.46159 49.5636-8.44726 48.9126-10.4329 48.587-12.7441 48.587-15.3809 48.587-18.0664 48.9451-20.4508 49.6613-22.5342 50.3774-24.6175 51.3784-26.3672 52.6642-27.7832 53.95-29.1992 55.4921-30.2734 57.2907-31.0059 59.0892-31.7383 61.0708-32.1045 63.2355-32.1045 64.1144-32.1045 64.9607-32.0312 65.7745-31.8848 66.5883-31.7383 67.3411-31.547 68.0328-31.311 68.7246-31.075 69.3471-30.8024 69.9005-30.4932 70.4539-30.1839 70.8405-29.9194 71.0602-29.6997 71.2799-29.48 71.4305-29.2969 71.5118-29.1504 71.5932-29.0039 71.6583-28.8167 71.7072-28.5889 71.756-28.361 71.7926-28.0924 71.817-27.7832 71.8414-27.474 71.8536-27.0915 71.8536-26.6357 71.8536-26.1475 71.8374-25.7324 71.8048-25.3906 71.7723-25.0488 71.7153-24.7721 71.6339-24.5605 71.5525-24.349 71.4549-24.1943 71.3409-24.0967 71.227-23.999 71.0968-23.9502 70.9503-23.9502 70.7062-23.9502 70.3969-24.0926 70.0226-24.3774 69.6482-24.6623 69.164-24.9797 68.5699-25.3296 67.9759-25.6795 67.2679-25.9969 66.4459-26.2817 65.624-26.5666 64.6433-26.709 63.504-26.709 62.2508-26.709 61.1318-26.4526 60.1471-25.9399 59.1624-25.4272 58.3242-24.6948 57.6325-23.7427 56.9407-22.7905 56.4158-21.639 56.0577-20.2881 55.6997-18.9372 55.5206-17.4154 55.5206-15.7227 55.5206-13.8672 55.7119-12.2599 56.0944-10.9009 56.4769-9.54183 57.0221-8.42285 57.7301-7.54394 58.4381-6.66504 59.2926-6.00993 60.2936-5.57861 61.2946-5.1473 62.4217-4.93164 63.6749-4.93164 64.8142-4.93164 65.799-5.06592 66.629-5.33447 67.4591-5.60303 68.1712-5.90006 68.7653-6.22559 69.3593-6.55111 69.8476-6.84407 70.2301-7.10449 70.6126-7.36491 70.9096-7.49512 71.1212-7.49512 71.284-7.49512 71.4142-7.46256 71.5118-7.39746 71.6095-7.33236 71.6909-7.20215 71.756-7.00684 71.8211-6.81152 71.8699-6.5389 71.9025-6.18896 71.935-5.83903 71.9513-5.37109 71.9513-4.78516ZM105.194-16.1621C105.194-13.5417 104.868-11.1979 104.217-9.13086 103.566-7.0638 102.598-5.31006 101.312-3.86963 100.026-2.4292 98.4351-1.33057 96.5389-0.57373 94.6427 0.183105 92.4495 0.561523 89.9593 0.561523 87.5016 0.561523 85.3573 0.240072 83.5262-0.402832 81.6951-1.04574 80.1693-2.02637 78.9486-3.34473 77.7279-4.66309 76.8123-6.33952 76.202-8.37402 75.5916-10.4085 75.2865-12.8174 75.2865-15.6006 75.2865-18.1559 75.612-20.4549 76.263-22.4976 76.9141-24.5402 77.8825-26.2777 79.1683-27.71 80.4541-29.1423 82.0451-30.2409 83.9412-31.0059 85.8374-31.7708 88.0387-32.1533 90.5452-32.1533 92.9378-32.1533 95.0496-31.8359 96.8807-31.2012 98.7117-30.5664 100.242-29.5898 101.471-28.2715 102.699-26.9531 103.627-25.2889 104.254-23.2788 104.88-21.2687 105.194-18.8965 105.194-16.1621ZM98.4554-15.8203C98.4554-17.4805 98.3252-18.9901 98.0648-20.3491 97.8044-21.7082 97.3608-22.8719 96.7342-23.8403 96.1076-24.8088 95.2734-25.5575 94.2318-26.0864 93.1901-26.6154 91.888-26.8799 90.3255-26.8799 88.7467-26.8799 87.4284-26.5828 86.3704-25.9888 85.3125-25.3947 84.458-24.6012 83.807-23.6084 83.1559-22.6156 82.6961-21.4559 82.4276-20.1294 82.159-18.8029 82.0247-17.3991 82.0247-15.918 82.0247-14.1927 82.1549-12.6424 82.4154-11.2671 82.6758-9.89176 83.1152-8.71582 83.7337-7.73926 84.3522-6.76269 85.1823-6.01807 86.224-5.50537 87.2656-4.99267 88.5758-4.73633 90.1546-4.73633 91.7334-4.73633 93.0518-5.0293 94.1097-5.61523 95.1676-6.20117 96.0221-6.9987 96.6732-8.00781 97.3242-9.01693 97.784-10.1929 98.0526-11.5356 98.3211-12.8784 98.4554-14.3066 98.4554-15.8203ZM147.692-0.878906C147.692-0.716146 147.647-0.569661 147.558-0.439453 147.468-0.309245 147.306-0.203451 147.07-0.12207 146.834-0.0406901 146.52 0.0244141 146.13 0.0732422 145.739 0.12207 145.243 0.146484 144.64 0.146484 144.054 0.146484 143.566 0.12207 143.176 0.0732422 142.785 0.0244141 142.476-0.0406901 142.248-0.12207 142.02-0.203451 141.857-0.309245 141.759-0.439453 141.662-0.569661 141.613-0.716146 141.613-0.878906L141.613-26.5869 141.564-26.5869 132.409-0.90332C132.344-0.691732 132.238-0.516764 132.092-0.378418 131.945-0.240072 131.746-0.130208 131.493-0.0488281 131.241 0.0325521 130.92 0.0854492 130.529 0.109863 130.138 0.134277 129.666 0.146484 129.113 0.146484 128.56 0.146484 128.088 0.126139 127.697 0.0854492 127.306 0.0447591 126.985-0.0203451 126.733-0.109863 126.48-0.199381 126.281-0.309245 126.134-0.439453 125.988-0.569661 125.89-0.724284 125.842-0.90332L117.004-26.5869 116.955-26.5869 116.955-0.878906C116.955-0.716146 116.91-0.569661 116.821-0.439453 116.731-0.309245 116.564-0.203451 116.32-0.12207 116.076-0.0406901 115.763 0.0244141 115.38 0.0732422 114.998 0.12207 114.505 0.146484 113.903 0.146484 113.317 0.146484 112.829 0.12207 112.438 0.0732422 112.048 0.0244141 111.734-0.0406901 111.498-0.12207 111.262-0.203451 111.1-0.309245 111.01-0.439453 110.92-0.569661 110.876-0.716146 110.876-0.878906L110.876-29.0283C110.876-29.8584 111.095-30.4932 111.535-30.9326 111.974-31.3721 112.56-31.5918 113.293-31.5918L117.492-31.5918C118.241-31.5918 118.884-31.5308 119.421-31.4087 119.958-31.2866 120.422-31.0832 120.812-30.7983 121.203-30.5135 121.528-30.1392 121.789-29.6753 122.049-29.2114 122.277-28.6377 122.472-27.9541L129.308-9.13086 129.406-9.13086 136.486-27.9053C136.698-28.5889 136.93-29.1667 137.182-29.6387 137.434-30.1107 137.727-30.4932 138.061-30.7861 138.394-31.0791 138.789-31.2866 139.245-31.4087 139.701-31.5308 140.23-31.5918 140.832-31.5918L145.153-31.5918C145.592-31.5918 145.971-31.5348 146.288-31.4209 146.606-31.307 146.866-31.1401 147.07-30.9204 147.273-30.7007 147.428-30.4321 147.533-30.1147 147.639-29.7974 147.692-29.4352 147.692-29.0283ZM173.67-2.51465C173.67-2.04264 173.65-1.64795 173.609-1.33057 173.568-1.01318 173.507-0.756836 173.426-0.561523 173.345-0.366211 173.243-0.223796 173.121-0.134277 172.999-0.0447591 172.864 0 172.718 0L156.849 0C156.312 0 155.86-0.158691 155.494-0.476074 155.128-0.793457 154.944-1.31022 154.944-2.02637L154.944-29.5654C154.944-30.2816 155.128-30.7983 155.494-31.1157 155.86-31.4331 156.312-31.5918 156.849-31.5918L172.62-31.5918C172.767-31.5918 172.897-31.5511 173.011-31.4697 173.125-31.3883 173.222-31.2459 173.304-31.0425 173.385-30.839 173.446-30.5786 173.487-30.2612 173.528-29.9438 173.548-29.541 173.548-29.0527 173.548-28.597 173.528-28.2104 173.487-27.8931 173.446-27.5757 173.385-27.3193 173.304-27.124 173.222-26.9287 173.125-26.7863 173.011-26.6968 172.897-26.6073 172.767-26.5625 172.62-26.5625L161.341-26.5625 161.341-18.8477 170.887-18.8477C171.033-18.8477 171.168-18.8029 171.29-18.7134 171.412-18.6239 171.513-18.4855 171.595-18.2983 171.676-18.1112 171.737-17.8589 171.778-17.5415 171.819-17.2241 171.839-16.8376 171.839-16.3818 171.839-15.9098 171.819-15.5192 171.778-15.21 171.737-14.9007 171.676-14.6525 171.595-14.4653 171.513-14.2782 171.412-14.1439 171.29-14.0625 171.168-13.9811 171.033-13.9404 170.887-13.9404L161.341-13.9404 161.341-5.0293 172.718-5.0293C172.864-5.0293 172.999-4.98454 173.121-4.89502 173.243-4.8055 173.345-4.66309 173.426-4.46777 173.507-4.27246 173.568-4.01611 173.609-3.69873 173.65-3.38135 173.67-2.98665 173.67-2.51465Z" fill="#FFFFFF" transform="matrix(1 0 0 1 78.0396 252)"/></g></g><rect x="532" y="213" width="372" height="296" fill="url(#fill9)"/><text fill="#FFFFFF" font-family="Calibri,Calibri_MSFontService,sans-serif" font-weight="700" font-size="50" transform="matrix(1 0 0 1 704.198 295)">X </text><text fill="#FFFFFF" font-family="Calibri,Calibri_MSFontService,sans-serif" font-weight="700" font-size="50" transform="matrix(1 0 0 1 604.946 397)">EMPLOYEE </text><text fill="#FFFFFF" font-family="Calibri,Calibri_MSFontService,sans-serif" font-weight="700" font-size="50" transform="matrix(1 0 0 1 630.04 461)">INCOME</text><text font-family="Calibri,Calibri_MSFontService,sans-serif" font-weight="700" font-size="62" transform="matrix(1 0 0 1 637.278 986)">Figure 3: Taxing Payroll</text><g clip-path="url(#clip10)" filter="url(#fx2)" transform="translate(1222 205)"><g clip-path="url(#clip11)"><rect x="22" y="21.875" width="371" height="296" fill="#FF0000"/></g></g><g clip-path="url(#clip12)" filter="url(#fx3)" transform="translate(1335 274)"><g clip-path="url(#clip13)"><path d="M24.4629-28.9551C24.4629-28.4831 24.4425-28.0802 24.4019-27.7466 24.3612-27.4129 24.3001-27.1444 24.2187-26.9409 24.1374-26.7375 24.0356-26.5869 23.9136-26.4893 23.7915-26.3916 23.6572-26.3428 23.5107-26.3428L15.6006-26.3428 15.6006-0.878906C15.6006-0.716146 15.5477-0.569661 15.4419-0.439453 15.3361-0.309245 15.1611-0.203451 14.917-0.12207 14.6728-0.0406901 14.3433 0.0244141 13.9282 0.0732422 13.5132 0.12207 12.9964 0.146484 12.3779 0.146484 11.7594 0.146484 11.2427 0.12207 10.8276 0.0732422 10.4126 0.0244141 10.083-0.0406901 9.83887-0.12207 9.59472-0.203451 9.41976-0.309245 9.31396-0.439453 9.20817-0.569661 9.15527-0.716146 9.15527-0.878906L9.15527-26.3428 1.24512-26.3428C1.08236-26.3428 0.94401-26.3916 0.830078-26.4893 0.716146-26.5869 0.61849-26.7375 0.537109-26.9409 0.455729-27.1444 0.394694-27.4129 0.354004-27.7466 0.313314-28.0802 0.292969-28.4831 0.292969-28.9551 0.292969-29.4434 0.313314-29.8584 0.354004-30.2002 0.394694-30.542 0.455729-30.8146 0.537109-31.0181 0.61849-31.2215 0.716146-31.368 0.830078-31.4575 0.94401-31.547 1.08236-31.5918 1.24512-31.5918L23.5107-31.5918C23.6572-31.5918 23.7915-31.547 23.9136-31.4575 24.0356-31.368 24.1374-31.2215 24.2187-31.0181 24.3001-30.8146 24.3612-30.542 24.4019-30.2002 24.4425-29.8584 24.4629-29.4434 24.4629-28.9551ZM54.2775-2.39258C54.4728-1.80664 54.5949-1.34277 54.6437-1.00098 54.6926-0.65918 54.6275-0.402832 54.4484-0.231934 54.2694-0.0610352 53.952 0.0447591 53.4963 0.0854492 53.0406 0.126139 52.4139 0.146484 51.6164 0.146484 50.7863 0.146484 50.1393 0.134277 49.6755 0.109863 49.2116 0.0854492 48.8576 0.0366211 48.6135-0.0366211 48.3693-0.109863 48.1984-0.211589 48.1008-0.341797 48.0031-0.472005 47.9217-0.642904 47.8566-0.854492L45.7326-7.20215 33.8674-7.20215 31.8654-1.02539C31.8003-0.797526 31.7149-0.606282 31.6091-0.45166 31.5033-0.297038 31.3324-0.174967 31.0964-0.0854492 30.8604 0.00406901 30.5267 0.0651042 30.0954 0.0976562 29.6641 0.130208 29.0985 0.146484 28.3986 0.146484 27.6499 0.146484 27.064 0.12207 26.6408 0.0732422 26.2176 0.0244141 25.9247-0.0935872 25.7619-0.280762 25.5992-0.467936 25.5422-0.732422 25.591-1.07422 25.6398-1.41602 25.7619-1.87174 25.9572-2.44141L35.6984-30.4687C35.7961-30.7454 35.91-30.9692 36.0402-31.1401 36.1704-31.311 36.378-31.4412 36.6628-31.5308 36.9476-31.6203 37.3423-31.6772 37.8469-31.7017 38.3514-31.7261 39.0187-31.7383 39.8488-31.7383 40.8091-31.7383 41.5741-31.7261 42.1437-31.7017 42.7134-31.6772 43.1569-31.6203 43.4743-31.5308 43.7917-31.4412 44.0196-31.307 44.1579-31.1279 44.2962-30.9489 44.4143-30.7048 44.5119-30.3955ZM39.7756-25.5615 39.7512-25.5615 35.2834-12.1338 44.2434-12.1338ZM81.4563-2.41699C81.7493-1.84733 81.9405-1.3916 82.03-1.0498 82.1196-0.708008 82.0667-0.447591 81.8714-0.268555 81.676-0.0895182 81.322 0.0244141 80.8093 0.0732422 80.2966 0.12207 79.5846 0.146484 78.6731 0.146484 77.9081 0.146484 77.3059 0.130208 76.8665 0.0976562 76.427 0.0651042 76.0811 0.012207 75.8289-0.0610352 75.5766-0.134277 75.3935-0.236003 75.2796-0.366211 75.1656-0.496419 75.068-0.65918 74.9866-0.854492L69.054-12.2559 63.1458-0.854492C63.0481-0.65918 62.9423-0.496419 62.8284-0.366211 62.7145-0.236003 62.5313-0.134277 62.2791-0.0610352 62.0268 0.012207 61.6769 0.0651042 61.2293 0.0976562 60.7817 0.130208 60.1917 0.146484 59.4592 0.146484 58.6129 0.146484 57.9578 0.12207 57.4939 0.0732422 57.03 0.0244141 56.7167-0.0895182 56.554-0.268555 56.3912-0.447591 56.3587-0.708008 56.4563-1.0498 56.554-1.3916 56.7574-1.84733 57.0667-2.41699L64.635-16.2109 57.6038-29.1748C57.3108-29.7607 57.1114-30.2287 57.0056-30.5786 56.8998-30.9285 56.9405-31.189 57.1277-31.3599 57.3149-31.5308 57.6607-31.6366 58.1653-31.6772 58.6699-31.7179 59.386-31.7383 60.3137-31.7383 61.0787-31.7383 61.685-31.722 62.1326-31.6895 62.5802-31.6569 62.9342-31.604 63.1946-31.5308 63.455-31.4575 63.6381-31.3558 63.7439-31.2256 63.8497-31.0954 63.9514-30.9326 64.0491-30.7373L69.5911-20.2881 74.9866-30.7373C75.0842-30.9326 75.186-31.0954 75.2918-31.2256 75.3976-31.3558 75.5685-31.4575 75.8045-31.5308 76.0405-31.604 76.366-31.6569 76.781-31.6895 77.1961-31.722 77.7698-31.7383 78.5022-31.7383 79.316-31.7383 79.9589-31.7179 80.4309-31.6772 80.9029-31.6366 81.2284-31.5267 81.4075-31.3477 81.5865-31.1686 81.6313-30.9082 81.5418-30.5664 81.4522-30.2246 81.2691-29.7607 80.9924-29.1748L73.9612-16.2842Z" fill="#FFFFFF" transform="matrix(1 0 0 1 52.8939 85)"/><path d="M22.8516-2.53906C22.8516-2.06706 22.8312-1.66829 22.7905-1.34277 22.7498-1.01725 22.6888-0.752767 22.6074-0.549316 22.526-0.345866 22.4243-0.203451 22.3022-0.12207 22.1802-0.0406901 22.0459 0 21.8994 0L3.27148 0C2.62044 0 2.11995-0.187174 1.77002-0.561523 1.42008-0.935872 1.24512-1.48112 1.24512-2.19727L1.24512-3.27148C1.24512-3.597 1.26546-3.89404 1.30615-4.1626 1.34684-4.43115 1.41602-4.70378 1.51367-4.98047 1.61133-5.25716 1.75374-5.55827 1.94092-5.88379 2.12809-6.20931 2.36003-6.59993 2.63672-7.05566L14.8926-26.4893 2.73437-26.4893C2.53906-26.4893 2.37223-26.534 2.23389-26.6235 2.09554-26.7131 1.98161-26.8555 1.89209-27.0508 1.80257-27.2461 1.73747-27.5065 1.69678-27.832 1.65609-28.1575 1.63574-28.5482 1.63574-29.0039 1.63574-29.4922 1.65609-29.9032 1.69678-30.2368 1.73747-30.5705 1.80257-30.839 1.89209-31.0425 1.98161-31.2459 2.09554-31.3883 2.23389-31.4697 2.37223-31.5511 2.53906-31.5918 2.73437-31.5918L20.1904-31.5918C20.8577-31.5918 21.3501-31.4209 21.6675-31.0791 21.9849-30.7373 22.1436-30.2572 22.1436-29.6387L22.1436-28.4424C22.1436-28.0029 22.1232-27.6245 22.0825-27.3071 22.0418-26.9897 21.9686-26.6805 21.8628-26.3794 21.757-26.0783 21.6146-25.769 21.4355-25.4517 21.2565-25.1343 21.0286-24.7559 20.752-24.3164L8.69141-5.15137 21.8994-5.15137C22.2087-5.15137 22.4447-4.95605 22.6074-4.56543 22.7702-4.1748 22.8516-3.49935 22.8516-2.53906ZM50.0605-2.41699C50.3534-1.84733 50.5447-1.3916 50.6342-1.0498 50.7237-0.708008 50.6708-0.447591 50.4755-0.268555 50.2802-0.0895182 49.9262 0.0244141 49.4135 0.0732422 48.9008 0.12207 48.1887 0.146484 47.2773 0.146484 46.5123 0.146484 45.9101 0.130208 45.4706 0.0976562 45.0312 0.0651042 44.6853 0.012207 44.433-0.0610352 44.1808-0.134277 43.9977-0.236003 43.8837-0.366211 43.7698-0.496419 43.6721-0.65918 43.5908-0.854492L37.6581-12.2559 31.7499-0.854492C31.6523-0.65918 31.5465-0.496419 31.4326-0.366211 31.3186-0.236003 31.1355-0.134277 30.8832-0.0610352 30.631 0.012207 30.281 0.0651042 29.8334 0.0976562 29.3858 0.130208 28.7958 0.146484 28.0634 0.146484 27.2171 0.146484 26.5619 0.12207 26.0981 0.0732422 25.6342 0.0244141 25.3209-0.0895182 25.1581-0.268555 24.9954-0.447591 24.9628-0.708008 25.0605-1.0498 25.1581-1.3916 25.3616-1.84733 25.6708-2.41699L33.2392-16.2109 26.2079-29.1748C25.915-29.7607 25.7156-30.2287 25.6098-30.5786 25.504-30.9285 25.5447-31.189 25.7319-31.3599 25.919-31.5308 26.2649-31.6366 26.7695-31.6772 27.274-31.7179 27.9902-31.7383 28.9179-31.7383 29.6829-31.7383 30.2892-31.722 30.7367-31.6895 31.1843-31.6569 31.5383-31.604 31.7988-31.5308 32.0592-31.4575 32.2423-31.3558 32.3481-31.2256 32.4539-31.0954 32.5556-30.9326 32.6533-30.7373L38.1952-20.2881 43.5908-30.7373C43.6884-30.9326 43.7901-31.0954 43.8959-31.2256 44.0017-31.3558 44.1726-31.4575 44.4086-31.5308 44.6446-31.604 44.9701-31.6569 45.3852-31.6895 45.8002-31.722 46.374-31.7383 47.1064-31.7383 47.9202-31.7383 48.5631-31.7179 49.0351-31.6772 49.5071-31.6366 49.8326-31.5267 50.0117-31.3477 50.1907-31.1686 50.2354-30.9082 50.1459-30.5664 50.0564-30.2246 49.8733-29.7607 49.5966-29.1748L42.5654-16.2842Z" fill="#FFFFFF" transform="matrix(1 0 0 1 68.5918 150)"/></g></g><rect x="1244" y="220" width="371" height="296" fill="url(#fill14)"/><text fill="#FFFFFF" font-family="Calibri,Calibri_MSFontService,sans-serif" font-weight="700" font-size="50" transform="matrix(1 0 0 1 1387.89 352)">TAX</text><text fill="#FFFFFF" font-family="Calibri,Calibri_MSFontService,sans-serif" font-weight="700" font-size="50" transform="matrix(1 0 0 1 1403.59 417)">ZX</text><rect x="268" y="704" width="371" height="117" fill="#A5A5A5"/><text fill="#FFFFFF" font-family="Calibri,Calibri_MSFontService,sans-serif" font-weight="700" font-size="50" transform="matrix(1 0 0 1 331.401 780)">Employee 1</text><rect x="756" y="704" width="371" height="117" fill="#A5A5A5"/><text fill="#FFFFFF" font-family="Calibri,Calibri_MSFontService,sans-serif" font-weight="700" font-size="50" transform="matrix(1 0 0 1 810.99 780)">Employee..n</text><path d="M721.739 509.5 721.739 610.75 453.5 610.75 456.937 607.312 456.937 682.208 450.062 682.208 450.062 603.875 718.302 603.875 714.864 607.312 714.864 509.5ZM467.25 677.625 453.5 705.125 439.75 677.625Z" fill="#4472C4"/><path d="M0-3.4375 101.25-3.4375 101.25 223.323 97.8123 219.886 172.708 219.886 172.708 226.761 94.3748 226.761 94.3748 0 97.8123 3.4375 0 3.4375ZM168.125 209.573 195.625 223.323 168.125 237.073Z" fill="#4472C4" transform="matrix(1.83697e-16 1 1 -1.83697e-16 718.5 509.5)"/><rect x="1241" y="704" width="371" height="123" fill="#A5A5A5"/><text fill="#FFFFFF" font-family="Calibri,Calibri_MSFontService,sans-serif" font-weight="700" font-size="50" transform="matrix(1 0 0 1 1360.62 783)">HMRC</text><path d="M3.43693-0.0625546 6.4574 165.891-0.416463 166.016-3.43693 0.0625546ZM16.6848 161.121 3.4375 188.866-10.8107 161.621Z" fill="#4472C4" transform="matrix(-1 0 0 1 1429.94 516.5)"/><path d="M0.00254083-3.4375 317.398-3.2029 317.393 3.6721-0.00254083 3.4375ZM312.823-13.5188 340.312 0.251542 312.802 13.9812Z" fill="#4472C4" transform="matrix(1 0 0 -1 904.5 368.752)"/></g></svg>