<svg width="2777" height="1499" xmlns="http://www.w3.org/2000/svg" xmlns:xlink="http://www.w3.org/1999/xlink" xml:space="preserve" overflow="hidden"><defs><filter id="fx0" x="-10%" y="-10%" width="120%" height="120%" filterUnits="userSpaceOnUse" primitiveUnits="userSpaceOnUse"><feComponentTransfer color-interpolation-filters="sRGB"><feFuncR type="discrete" tableValues="0 0"/><feFuncG type="discrete" tableValues="0 0"/><feFuncB type="discrete" tableValues="0 0"/><feFuncA type="linear" slope="0.631373" intercept="0"/></feComponentTransfer><feGaussianBlur stdDeviation="6.875 6.875"/></filter><filter id="fx1" x="-10%" y="-10%" width="120%" height="120%" filterUnits="userSpaceOnUse" primitiveUnits="userSpaceOnUse"><feComponentTransfer color-interpolation-filters="sRGB"><feFuncR type="discrete" tableValues="0 0"/><feFuncG type="discrete" tableValues="0 0"/><feFuncB type="discrete" tableValues="0 0"/><feFuncA type="linear" slope="0.631373" intercept="0"/></feComponentTransfer><feGaussianBlur stdDeviation="6.875 6.875"/></filter><filter id="fx2" x="-10%" y="-10%" width="120%" height="120%" filterUnits="userSpaceOnUse" primitiveUnits="userSpaceOnUse"><feComponentTransfer color-interpolation-filters="sRGB"><feFuncR type="discrete" tableValues="0 0"/><feFuncG type="discrete" tableValues="0 0"/><feFuncB type="discrete" tableValues="0 0"/><feFuncA type="linear" slope="0.631373" intercept="0"/></feComponentTransfer><feGaussianBlur stdDeviation="6.875 6.875"/></filter><filter id="fx3" x="-10%" y="-10%" width="120%" height="120%" filterUnits="userSpaceOnUse" primitiveUnits="userSpaceOnUse"><feComponentTransfer color-interpolation-filters="sRGB"><feFuncR type="discrete" tableValues="0 0"/><feFuncG type="discrete" tableValues="0 0"/><feFuncB type="discrete" tableValues="0 0"/><feFuncA type="linear" slope="0.631373" intercept="0"/></feComponentTransfer><feGaussianBlur stdDeviation="6.875 6.875"/></filter><clipPath id="clip4"><rect x="0" y="0" width="2777" height="1499"/></clipPath><clipPath id="clip5"><rect x="-3" y="-3" width="420" height="166"/></clipPath><clipPath id="clip6"><rect x="0" y="0" width="416" height="160"/></clipPath><clipPath id="clip7"><rect x="30" y="30" width="199" height="81"/></clipPath><clipPath id="clip8"><rect x="0" y="0" width="258" height="153"/></clipPath><linearGradient x1="1221" y1="794" x2="1221" y2="910" gradientUnits="userSpaceOnUse" spreadMethod="reflect" id="fill9"><stop offset="0" stop-color="#F18C55"/><stop offset="0.5" stop-color="#F67B28"/><stop offset="1" stop-color="#E56B17"/></linearGradient><clipPath id="clip10"><rect x="-3" y="-3" width="424" height="218"/></clipPath><clipPath id="clip11"><rect x="0" y="0" width="419" height="212"/></clipPath><clipPath id="clip12"><rect x="30" y="27" width="247" height="84"/></clipPath><clipPath id="clip13"><rect x="0" y="0" width="307" height="152"/></clipPath><linearGradient x1="1652.5" y1="557" x2="1652.5" y2="725" gradientUnits="userSpaceOnUse" spreadMethod="reflect" id="fill14"><stop offset="0" stop-color="#FFC746"/><stop offset="0.5" stop-color="#FFC600"/><stop offset="1" stop-color="#E5B600"/></linearGradient></defs><g clip-path="url(#clip4)"><rect x="0" y="0" width="2776" height="1499" fill="#FFFFFF"/><path d="M22.931-3.34021 109.879-2.9712 109.85 3.90374 22.9018 3.53473ZM27.4414 13.8666 0 0 27.5581-13.6332Z" fill="#4472C4" transform="matrix(-1 0 0 1 2119.36 546.5)"/><text font-family="Calibri,Calibri_MSFontService,sans-serif" font-weight="700" font-size="62" transform="matrix(1 0 0 1 785.613 1381)">Figure 1: Tax Extraction Points</text><rect x="1039" y="24.0001" width="371" height="117" fill="#A5A5A5"/><text fill="#FFFFFF" font-family="Calibri,Calibri_MSFontService,sans-serif" font-weight="700" font-size="50" transform="matrix(1 0 0 1 1111.44 100)">EMPLOYEE</text><rect x="903" y="217" width="641" height="106" stroke="#000000" stroke-width="2.29167" stroke-linejoin="round" stroke-miterlimit="10"/><text fill="#FFFFFF" font-family="Calibri,Calibri_MSFontService,sans-serif" font-weight="700" font-size="50" transform="matrix(1 0 0 1 962.628 287)">[B]</text><text fill="#FFFFFF" font-family="Calibri,Calibri_MSFontService,sans-serif" font-weight="400" font-size="50" transform="matrix(1 0 0 1 1035 287)">Employment Contract</text><path d="M3.43711-0.0515856 4.57212 75.5731-2.30211 75.6762-3.43711 0.0515856ZM-13.7485 0.206343C-13.8624-7.38672-7.7994-13.6345-0.206343-13.7485 7.38672-13.8624 13.6345-7.7994 13.7485-0.206343 13.8624 7.38672 7.7994 13.6345 0.206343 13.7485-7.38672 13.8624-13.6345 7.7994-13.7485 0.206343Z" fill="#4472C4" transform="matrix(-1 0 0 1 1224.63 141.5)"/><rect x="1035" y="374" width="372" height="117" fill="#FF0000"/><text fill="#FFFFFF" font-family="Calibri,Calibri_MSFontService,sans-serif" font-weight="700" font-size="50" transform="matrix(1 0 0 1 1133.2 450)">LABOUR</text><path d="M3.43348-0.166204 5.91245 51.0448-0.95451 51.3772-3.43348 0.166204ZM16.2129 50.5462C16.5801 58.1312 10.7288 64.5777 3.14379 64.9449-4.44125 65.3121-10.8878 59.4608-11.2549 51.8758-11.6221 44.2908-5.77088 37.8442 1.81415 37.4771 9.39919 37.1099 15.8457 42.9611 16.2129 50.5462Z" fill="#4472C4" transform="matrix(-1 0 0 1 1223.98 323.5)"/><rect x="1034" y="557" width="371" height="168" fill="#70AD47"/><text fill="#FFFFFF" font-family="Calibri,Calibri_MSFontService,sans-serif" font-weight="700" font-size="50" transform="matrix(1 0 0 1 1076.31 670)">PRODUCTION</text><path d="M3.43667-0.0757216 4.38373 42.9071-2.48961 43.0585-3.43667 0.0757216ZM14.5928 38.0977 1.45187 65.8939-12.9006 38.7035Z" fill="#4472C4" transform="matrix(-1 0 0 1 1221.95 491.5)"/><rect x="1589" y="217" width="371" height="106" fill="#5B9BD5"/><text fill="#FFFFFF" font-family="Calibri,Calibri_MSFontService,sans-serif" font-weight="400" font-size="50" transform="matrix(1 0 0 1 1697.28 294)">SALARY</text><path d="M0-3.4375 371.457-3.4375 371.457 86.6441 364.582 86.6441 364.582 0 368.02 3.4375 0 3.4375ZM381.77 82.0608 368.02 109.561 354.27 82.0608Z" fill="#4472C4" transform="matrix(1 0 0 -1 1407.5 433.061)"/><path d="M0-3.4375 137.5-3.4375 137.5 341.464 130.625 341.464 130.625 0 134.062 3.4375 0 3.4375ZM147.812 336.881 134.062 364.381 120.312 336.881Z" fill="#4472C4" transform="matrix(-1.83697e-16 -1 -1 1.83697e-16 1774.88 217.562)"/><path d="M1978.5 251.75 2109 251.75 2109 241.5 2129.5 262 2109 282.5 2109 272.25 1978.5 272.25Z" stroke="#2F528F" stroke-width="4.58333" stroke-miterlimit="8" fill="#FF0000" fill-rule="evenodd"/><text font-family="Calibri,Calibri_MSFontService,sans-serif" font-weight="400" font-size="50" transform="matrix(1 0 0 1 2037.68 134)">Income </text><text font-family="Calibri,Calibri_MSFontService,sans-serif" font-weight="400" font-size="50" transform="matrix(1 0 0 1 2037.68 200)">Tax %</text><g clip-path="url(#clip5)" filter="url(#fx0)" transform="translate(1013 779)"><g clip-path="url(#clip6)"><rect x="22" y="21.8751" width="372" height="116" fill="#FF0000"/></g></g><g clip-path="url(#clip7)" filter="url(#fx1)" transform="translate(1092 791)"><g clip-path="url(#clip8)"><path d="M29.3213-2.39258C29.5166-1.80664 29.6387-1.34277 29.6875-1.00098 29.7363-0.65918 29.6712-0.402832 29.4922-0.231934 29.3131-0.0610352 28.9958 0.0447591 28.54 0.0854492 28.0843 0.126139 27.4577 0.146484 26.6602 0.146484 25.8301 0.146484 25.1831 0.134277 24.7192 0.109863 24.2554 0.0854492 23.9014 0.0366211 23.6572-0.0366211 23.4131-0.109863 23.2422-0.211589 23.1445-0.341797 23.0469-0.472005 22.9655-0.642904 22.9004-0.854492L20.7764-7.20215 8.91113-7.20215 6.90918-1.02539C6.84408-0.797526 6.75863-0.606282 6.65283-0.45166 6.54704-0.297038 6.37614-0.174967 6.14014-0.0854492 5.90413 0.00406901 5.57047 0.0651042 5.13916 0.0976562 4.70784 0.130208 4.14225 0.146484 3.44238 0.146484 2.69368 0.146484 2.10775 0.12207 1.68457 0.0732422 1.26139 0.0244141 0.968424-0.0935872 0.805664-0.280762 0.642904-0.467936 0.585937-0.732422 0.634766-1.07422 0.683594-1.41602 0.805664-1.87174 1.00098-2.44141L10.7422-30.4687C10.8398-30.7454 10.9538-30.9692 11.084-31.1401 11.2142-31.311 11.4217-31.4412 11.7065-31.5308 11.9914-31.6203 12.3861-31.6772 12.8906-31.7017 13.3952-31.7261 14.0625-31.7383 14.8926-31.7383 15.8529-31.7383 16.6178-31.7261 17.1875-31.7017 17.7572-31.6772 18.2007-31.6203 18.5181-31.5308 18.8354-31.4412 19.0633-31.307 19.2017-31.1279 19.34-30.9489 19.458-30.7048 19.5557-30.3955ZM14.8193-25.5615 14.7949-25.5615 10.3271-12.1338 19.2871-12.1338ZM52.7159-9.47266C52.7159-7.8125 52.4066-6.35579 51.7881-5.10254 51.1697-3.84928 50.3314-2.80355 49.2735-1.96533 48.2156-1.12712 46.9786-0.496419 45.5626-0.0732422 44.1465 0.349935 42.6329 0.561523 41.0215 0.561523 39.931 0.561523 38.9179 0.472005 37.982 0.292969 37.0461 0.113932 36.2201-0.101725 35.504-0.354004 34.7878-0.606282 34.1897-0.870768 33.7095-1.14746 33.2294-1.42415 32.8835-1.66829 32.6719-1.87988 32.4603-2.09147 32.3098-2.39665 32.2203-2.79541 32.1308-3.19417 32.086-3.7679 32.086-4.5166 32.086-5.02116 32.1023-5.44434 32.1348-5.78613 32.1674-6.12793 32.2203-6.40462 32.2935-6.61621 32.3668-6.8278 32.4644-6.97835 32.5865-7.06787 32.7086-7.15739 32.851-7.20215 33.0137-7.20215 33.2416-7.20215 33.563-7.06787 33.9781-6.79932 34.3931-6.53076 34.9262-6.23372 35.5772-5.9082 36.2282-5.58268 37.0054-5.28564 37.9088-5.01709 38.8121-4.74853 39.8578-4.61426 41.046-4.61426 41.8272-4.61426 42.5271-4.70784 43.1456-4.89502 43.7641-5.08219 44.289-5.34668 44.7203-5.68848 45.1516-6.03027 45.4812-6.45345 45.709-6.95801 45.9369-7.46256 46.0508-8.02409 46.0508-8.64258 46.0508-9.35872 45.8555-9.97314 45.4649-10.4858 45.0743-10.9985 44.5657-11.4543 43.939-11.853 43.3124-12.2518 42.6003-12.6261 41.8028-12.9761 41.0053-13.326 40.1833-13.6963 39.337-14.0869 38.4906-14.4775 37.6687-14.9211 36.8712-15.4175 36.0736-15.9139 35.3615-16.508 34.7349-17.1997 34.1083-17.8914 33.5997-18.7093 33.209-19.6533 32.8184-20.5973 32.6231-21.7285 32.6231-23.0469 32.6231-24.5605 32.9039-25.8911 33.4654-27.0386 34.0269-28.186 34.7838-29.1382 35.7359-29.895 36.688-30.6519 37.8111-31.2174 39.105-31.5918 40.399-31.9661 41.7702-32.1533 43.2188-32.1533 43.9675-32.1533 44.7162-32.0964 45.4649-31.9824 46.2136-31.8685 46.9135-31.7139 47.5645-31.5186 48.2156-31.3232 48.7934-31.1035 49.2979-30.8594 49.8025-30.6152 50.1361-30.4118 50.2989-30.249 50.4616-30.0863 50.5715-29.9479 50.6285-29.834 50.6854-29.7201 50.7343-29.5695 50.775-29.3823 50.8157-29.1951 50.8441-28.9591 50.8604-28.6743 50.8767-28.3895 50.8848-28.0355 50.8848-27.6123 50.8848-27.1403 50.8726-26.7415 50.8482-26.416 50.8238-26.0905 50.7831-25.8219 50.7261-25.6103 50.6692-25.3988 50.5878-25.2441 50.482-25.1465 50.3762-25.0488 50.2338-25 50.0547-25 49.8757-25 49.5909-25.1139 49.2003-25.3418 48.8096-25.5697 48.3295-25.8179 47.7598-26.0864 47.1902-26.355 46.531-26.5991 45.7823-26.8188 45.0336-27.0386 44.2116-27.1484 43.3165-27.1484 42.6166-27.1484 42.0062-27.063 41.4854-26.8921 40.9646-26.7212 40.5292-26.4852 40.1793-26.1841 39.8293-25.883 39.5689-25.5208 39.398-25.0977 39.2271-24.6745 39.1417-24.2269 39.1417-23.7549 39.1417-23.055 39.3329-22.4487 39.7154-21.936 40.0979-21.4233 40.6106-20.9676 41.2535-20.5688 41.8964-20.1701 42.6247-19.7957 43.4385-19.4458 44.2523-19.0959 45.0824-18.7256 45.9288-18.335 46.7751-17.9443 47.6052-17.5008 48.419-17.0044 49.2328-16.508 49.9571-15.9139 50.5919-15.2222 51.2266-14.5304 51.7393-13.7166 52.1299-12.7808 52.5206-11.8449 52.7159-10.7422 52.7159-9.47266ZM76.5492-9.47266C76.5492-7.8125 76.24-6.35579 75.6215-5.10254 75.003-3.84928 74.1648-2.80355 73.1068-1.96533 72.0489-1.12712 70.8119-0.496419 69.3959-0.0732422 67.9799 0.349935 66.4662 0.561523 64.8549 0.561523 63.7644 0.561523 62.7512 0.472005 61.8153 0.292969 60.8795 0.113932 60.0534-0.101725 59.3373-0.354004 58.6212-0.606282 58.023-0.870768 57.5429-1.14746 57.0627-1.42415 56.7169-1.66829 56.5053-1.87988 56.2937-2.09147 56.1431-2.39665 56.0536-2.79541 55.9641-3.19417 55.9193-3.7679 55.9193-4.5166 55.9193-5.02116 55.9356-5.44434 55.9682-5.78613 56.0007-6.12793 56.0536-6.40462 56.1269-6.61621 56.2001-6.8278 56.2978-6.97835 56.4198-7.06787 56.5419-7.15739 56.6843-7.20215 56.8471-7.20215 57.0749-7.20215 57.3964-7.06787 57.8114-6.79932 58.2265-6.53076 58.7595-6.23372 59.4105-5.9082 60.0616-5.58268 60.8388-5.28564 61.7421-5.01709 62.6454-4.74853 63.6911-4.61426 64.8793-4.61426 65.6605-4.61426 66.3604-4.70784 66.9789-4.89502 67.5974-5.08219 68.1223-5.34668 68.5536-5.68848 68.9849-6.03027 69.3145-6.45345 69.5424-6.95801 69.7702-7.46256 69.8842-8.02409 69.8842-8.64258 69.8842-9.35872 69.6889-9.97314 69.2982-10.4858 68.9076-10.9985 68.399-11.4543 67.7724-11.853 67.1457-12.2518 66.4337-12.6261 65.6361-12.9761 64.8386-13.326 64.0167-13.6963 63.1703-14.0869 62.324-14.4775 61.502-14.9211 60.7045-15.4175 59.907-15.9139 59.1949-16.508 58.5683-17.1997 57.9416-17.8914 57.433-18.7093 57.0424-19.6533 56.6518-20.5973 56.4564-21.7285 56.4564-23.0469 56.4564-24.5605 56.7372-25.8911 57.2987-27.0386 57.8603-28.186 58.6171-29.1382 59.5692-29.895 60.5214-30.6519 61.6444-31.2174 62.9384-31.5918 64.2323-31.9661 65.6036-32.1533 67.0521-32.1533 67.8008-32.1533 68.5495-32.0964 69.2982-31.9824 70.0469-31.8685 70.7468-31.7139 71.3979-31.5186 72.0489-31.3232 72.6267-31.1035 73.1312-30.8594 73.6358-30.6152 73.9695-30.4118 74.1322-30.249 74.295-30.0863 74.4048-29.9479 74.4618-29.834 74.5188-29.7201 74.5676-29.5695 74.6083-29.3823 74.649-29.1951 74.6775-28.9591 74.6937-28.6743 74.71-28.3895 74.7182-28.0355 74.7182-27.6123 74.7182-27.1403 74.706-26.7415 74.6815-26.416 74.6571-26.0905 74.6164-25.8219 74.5595-25.6103 74.5025-25.3988 74.4211-25.2441 74.3153-25.1465 74.2095-25.0488 74.0671-25 73.8881-25 73.709-25 73.4242-25.1139 73.0336-25.3418 72.643-25.5697 72.1628-25.8179 71.5932-26.0864 71.0235-26.355 70.3643-26.5991 69.6156-26.8188 68.8669-27.0386 68.045-27.1484 67.1498-27.1484 66.4499-27.1484 65.8396-27.063 65.3187-26.8921 64.7979-26.7212 64.3625-26.4852 64.0126-26.1841 63.6627-25.883 63.4022-25.5208 63.2313-25.0977 63.0604-24.6745 62.975-24.2269 62.975-23.7549 62.975-23.055 63.1662-22.4487 63.5487-21.936 63.9312-21.4233 64.4439-20.9676 65.0868-20.5688 65.7297-20.1701 66.4581-19.7957 67.2719-19.4458 68.0857-19.0959 68.9158-18.7256 69.7621-18.335 70.6085-17.9443 71.4385-17.5008 72.2523-17.0044 73.0661-16.508 73.7904-15.9139 74.4252-15.2222 75.06-14.5304 75.5727-13.7166 75.9633-12.7808 76.3539-11.8449 76.5492-10.7422 76.5492-9.47266ZM100.383-2.51465C100.383-2.04264 100.362-1.64795 100.322-1.33057 100.281-1.01318 100.22-0.756836 100.138-0.561523 100.057-0.366211 99.9553-0.223796 99.8332-0.134277 99.7112-0.0447591 99.5769 0 99.4304 0L83.5613 0C83.0242 0 82.5725-0.158691 82.2063-0.476074 81.8401-0.793457 81.657-1.31022 81.657-2.02637L81.657-29.5654C81.657-30.2816 81.8401-30.7983 82.2063-31.1157 82.5725-31.4331 83.0242-31.5918 83.5613-31.5918L99.3327-31.5918C99.4792-31.5918 99.6094-31.5511 99.7234-31.4697 99.8373-31.3883 99.935-31.2459 100.016-31.0425 100.098-30.839 100.159-30.5786 100.199-30.2612 100.24-29.9438 100.26-29.541 100.26-29.0527 100.26-28.597 100.24-28.2104 100.199-27.8931 100.159-27.5757 100.098-27.3193 100.016-27.124 99.935-26.9287 99.8373-26.7863 99.7234-26.6968 99.6094-26.6073 99.4792-26.5625 99.3327-26.5625L88.0535-26.5625 88.0535-18.8477 97.5993-18.8477C97.7458-18.8477 97.8801-18.8029 98.0022-18.7134 98.1243-18.6239 98.226-18.4855 98.3074-18.2983 98.3887-18.1112 98.4498-17.8589 98.4905-17.5415 98.5312-17.2241 98.5515-16.8376 98.5515-16.3818 98.5515-15.9098 98.5312-15.5192 98.4905-15.21 98.4498-14.9007 98.3887-14.6525 98.3074-14.4653 98.226-14.2782 98.1243-14.1439 98.0022-14.0625 97.8801-13.9811 97.7458-13.9404 97.5993-13.9404L88.0535-13.9404 88.0535-5.0293 99.4304-5.0293C99.5769-5.0293 99.7112-4.98454 99.8332-4.89502 99.9553-4.8055 100.057-4.66309 100.138-4.46777 100.22-4.27246 100.281-4.01611 100.322-3.69873 100.362-3.38135 100.383-2.98665 100.383-2.51465ZM127.267-28.9551C127.267-28.4831 127.247-28.0802 127.206-27.7466 127.165-27.4129 127.104-27.1444 127.023-26.9409 126.942-26.7375 126.84-26.5869 126.718-26.4893 126.596-26.3916 126.461-26.3428 126.315-26.3428L118.405-26.3428 118.405-0.878906C118.405-0.716146 118.352-0.569661 118.246-0.439453 118.14-0.309245 117.965-0.203451 117.721-0.12207 117.477-0.0406901 117.147 0.0244141 116.732 0.0732422 116.317 0.12207 115.801 0.146484 115.182 0.146484 114.564 0.146484 114.047 0.12207 113.632 0.0732422 113.217 0.0244141 112.887-0.0406901 112.643-0.12207 112.399-0.203451 112.224-0.309245 112.118-0.439453 112.012-0.569661 111.959-0.716146 111.959-0.878906L111.959-26.3428 104.049-26.3428C103.887-26.3428 103.748-26.3916 103.634-26.4893 103.52-26.5869 103.423-26.7375 103.341-26.9409 103.26-27.1444 103.199-27.4129 103.158-27.7466 103.117-28.0802 103.097-28.4831 103.097-28.9551 103.097-29.4434 103.117-29.8584 103.158-30.2002 103.199-30.542 103.26-30.8146 103.341-31.0181 103.423-31.2215 103.52-31.368 103.634-31.4575 103.748-31.547 103.887-31.5918 104.049-31.5918L126.315-31.5918C126.461-31.5918 126.596-31.547 126.718-31.4575 126.84-31.368 126.942-31.2215 127.023-31.0181 127.104-30.8146 127.165-30.542 127.206-30.2002 127.247-29.8584 127.267-29.4434 127.267-28.9551ZM149.928-9.47266C149.928-7.8125 149.619-6.35579 149.001-5.10254 148.382-3.84928 147.544-2.80355 146.486-1.96533 145.428-1.12712 144.191-0.496419 142.775-0.0732422 141.359 0.349935 139.845 0.561523 138.234 0.561523 137.144 0.561523 136.13 0.472005 135.195 0.292969 134.259 0.113932 133.433-0.101725 132.716-0.354004 132-0.606282 131.402-0.870768 130.922-1.14746 130.442-1.42415 130.096-1.66829 129.884-1.87988 129.673-2.09147 129.522-2.39665 129.433-2.79541 129.343-3.19417 129.298-3.7679 129.299-4.5166 129.298-5.02116 129.315-5.44434 129.347-5.78613 129.38-6.12793 129.433-6.40462 129.506-6.61621 129.579-6.8278 129.677-6.97835 129.799-7.06787 129.921-7.15739 130.063-7.20215 130.226-7.20215 130.454-7.20215 130.776-7.06787 131.191-6.79932 131.606-6.53076 132.139-6.23372 132.79-5.9082 133.441-5.58268 134.218-5.28564 135.121-5.01709 136.025-4.74853 137.07-4.61426 138.258-4.61426 139.04-4.61426 139.74-4.70784 140.358-4.89502 140.977-5.08219 141.501-5.34668 141.933-5.68848 142.364-6.03027 142.694-6.45345 142.922-6.95801 143.149-7.46256 143.263-8.02409 143.263-8.64258 143.263-9.35872 143.068-9.97314 142.677-10.4858 142.287-10.9985 141.778-11.4543 141.152-11.853 140.525-12.2518 139.813-12.6261 139.015-12.9761 138.218-13.326 137.396-13.6963 136.549-14.0869 135.703-14.4775 134.881-14.9211 134.084-15.4175 133.286-15.9139 132.574-16.508 131.947-17.1997 131.321-17.8914 130.812-18.7093 130.422-19.6533 130.031-20.5973 129.836-21.7285 129.836-23.0469 129.836-24.5605 130.116-25.8911 130.678-27.0386 131.239-28.186 131.996-29.1382 132.948-29.895 133.901-30.6519 135.024-31.2174 136.318-31.5918 137.611-31.9661 138.983-32.1533 140.431-32.1533 141.18-32.1533 141.929-32.0964 142.677-31.9824 143.426-31.8685 144.126-31.7139 144.777-31.5186 145.428-31.3232 146.006-31.1035 146.51-30.8594 147.015-30.6152 147.349-30.4118 147.511-30.249 147.674-30.0863 147.784-29.9479 147.841-29.834 147.898-29.7201 147.947-29.5695 147.987-29.3823 148.028-29.1951 148.057-28.9591 148.073-28.6743 148.089-28.3895 148.097-28.0355 148.097-27.6123 148.097-27.1403 148.085-26.7415 148.061-26.416 148.036-26.0905 147.996-25.8219 147.939-25.6103 147.882-25.3988 147.8-25.2441 147.695-25.1465 147.589-25.0488 147.446-25 147.267-25 147.088-25 146.803-25.1139 146.413-25.3418 146.022-25.5697 145.542-25.8179 144.972-26.0864 144.403-26.355 143.743-26.5991 142.995-26.8188 142.246-27.0386 141.424-27.1484 140.529-27.1484 139.829-27.1484 139.219-27.063 138.698-26.8921 138.177-26.7212 137.742-26.4852 137.392-26.1841 137.042-25.883 136.781-25.5208 136.611-25.0977 136.44-24.6745 136.354-24.2269 136.354-23.7549 136.354-23.055 136.545-22.4487 136.928-21.936 137.31-21.4233 137.823-20.9676 138.466-20.5688 139.109-20.1701 139.837-19.7957 140.651-19.4458 141.465-19.0959 142.295-18.7256 143.141-18.335 143.988-17.9443 144.818-17.5008 145.632-17.0044 146.445-16.508 147.17-15.9139 147.804-15.2222 148.439-14.5304 148.952-13.7166 149.342-12.7808 149.733-11.8449 149.928-10.7422 149.928-9.47266Z" fill="#FFFFFF" transform="matrix(1 0 0 1 53.1669 86)"/></g></g><rect x="1035" y="794" width="372" height="116" fill="url(#fill9)"/><text fill="#FFFFFF" font-family="Calibri,Calibri_MSFontService,sans-serif" font-weight="700" font-size="50" transform="matrix(1 0 0 1 1145.17 870)">ASSETS</text><rect x="899" y="996" width="642" height="107" stroke="#000000" stroke-width="2.29167" stroke-linejoin="round" stroke-miterlimit="10"/><text fill="#FFFFFF" font-family="Calibri,Calibri_MSFontService,sans-serif" font-weight="700" font-size="50" transform="matrix(1 0 0 1 1029.47 1067)">[A]</text><text fill="#FFFFFF" font-family="Calibri,Calibri_MSFontService,sans-serif" font-weight="400" font-size="50" transform="matrix(1 0 0 1 1104.13 1067)">Companies Act</text><path d="M3.43718-0.0465364 4.6007 85.891-2.27367 85.984-3.43718 0.0465364ZM-13.7487 0.186146C-13.8515-7.40707-7.77937-13.6459-0.186146-13.7487 7.40707-13.8515 13.6459-7.77937 13.7487-0.186146 13.8515 7.40707 7.77937 13.6459 0.186146 13.7487-7.40707 13.8515-13.6459 7.77937-13.7487 0.186146Z" fill="#4472C4" transform="matrix(-1 0 0 1 1221.66 910.5)"/><rect x="1032" y="1151" width="371" height="116" fill="#A5A5A5"/><text fill="#FFFFFF" font-family="Calibri,Calibri_MSFontService,sans-serif" font-weight="700" font-size="50" transform="matrix(1 0 0 1 1134.42 1226)">OWNER</text><path d="M3.43323-0.171203 5.82162 47.7246-1.04485 48.067-3.43323 0.171203ZM16.1213 47.211C16.4995 54.7955 10.6577 61.2506 3.0732 61.6288-4.5113 62.007-10.9663 56.1651-11.3446 48.5806-11.7228 40.9962-5.88092 34.5411 1.70358 34.1629 9.28807 33.7847 15.7431 39.6265 16.1213 47.211Z" fill="#4472C4" transform="matrix(-1 0 0 1 1219.89 1103.5)"/><rect x="1589" y="997" width="372" height="106" fill="#5B9BD5"/><text fill="#FFFFFF" font-family="Calibri,Calibri_MSFontService,sans-serif" font-weight="400" font-size="50" transform="matrix(1 0 0 1 1689.58 1074)">PROFITS</text><path d="M22.9164-3.4375 375.308-3.4375 375.308 106.017 368.433 106.017 368.433 0 371.871 3.4375 22.9164 3.4375ZM27.5 13.75 0 0 27.5-13.75Z" fill="#4472C4" transform="matrix(1 0 0 -1 1403.5 1209.52)"/><path d="M22.9167-3.4375 147.927-3.4375 147.927 368.204 141.052 368.204 141.052 0 144.489 3.4375 22.9167 3.4375ZM27.5 13.75 0 0 27.5-13.75Z" fill="#4472C4" transform="matrix(-1.83697e-16 -1 -1 1.83697e-16 1775.7 996.99)"/><path d="M1223.94 725.427 1224.9 770.914 1218.03 771.06 1217.06 725.573ZM1235.12 766.113 1221.95 793.898 1207.62 766.696Z" fill="#4472C4"/><path d="M1977.5 1038 2107.5 1038 2107.5 1027.5 2128.5 1048.5 2107.5 1069.5 2107.5 1059 1977.5 1059Z" stroke="#2F528F" stroke-width="4.58333" stroke-miterlimit="8" fill="#FF0000" fill-rule="evenodd"/><text font-family="Calibri,Calibri_MSFontService,sans-serif" font-weight="400" font-size="50" transform="matrix(1 0 0 1 2013.02 1148)">Corporation </text><text font-family="Calibri,Calibri_MSFontService,sans-serif" font-weight="400" font-size="50" transform="matrix(1 0 0 1 2013.02 1213)">Tax %</text><rect x="493" y="1000" width="371" height="106" fill="#5B9BD5"/><text fill="#FFFFFF" font-family="Calibri,Calibri_MSFontService,sans-serif" font-weight="400" font-size="50" transform="matrix(1 0 0 1 542.851 1077)">INVESTMENT</text><g clip-path="url(#clip10)" filter="url(#fx2)" transform="translate(1443 542)"><g clip-path="url(#clip11)"><rect x="22.0001" y="21.8749" width="375" height="168" fill="#FF0000"/></g></g><g clip-path="url(#clip12)" filter="url(#fx3)" transform="translate(1499 591)"><g clip-path="url(#clip13)"><path d="M31.8603-16.1621C31.8603-13.5417 31.5348-11.1979 30.8838-9.13086 30.2327-7.0638 29.2643-5.31006 27.9785-3.86963 26.6927-2.4292 25.1017-1.33057 23.2056-0.57373 21.3094 0.183105 19.1162 0.561523 16.626 0.561523 14.1683 0.561523 12.0239 0.240072 10.1929-0.402832 8.36182-1.04574 6.83594-2.02637 5.61523-3.34473 4.39453-4.66309 3.479-6.33952 2.86865-8.37402 2.2583-10.4085 1.95312-12.8174 1.95312-15.6006 1.95312-18.1559 2.27865-20.4549 2.92969-22.4976 3.58073-24.5402 4.54915-26.2777 5.83496-27.71 7.12077-29.1423 8.71175-30.2409 10.6079-31.0059 12.5041-31.7708 14.7054-32.1533 17.2119-32.1533 19.6045-32.1533 21.7163-31.8359 23.5474-31.2012 25.3784-30.5664 26.9084-29.5898 28.1372-28.2715 29.366-26.9531 30.2938-25.2889 30.9204-23.2788 31.547-21.2687 31.8603-18.8965 31.8603-16.1621ZM25.1221-15.8203C25.1221-17.4805 24.9919-18.9901 24.7314-20.3491 24.471-21.7082 24.0275-22.8719 23.4009-23.8403 22.7742-24.8088 21.9401-25.5575 20.8984-26.0864 19.8568-26.6154 18.5547-26.8799 16.9922-26.8799 15.4134-26.8799 14.0951-26.5828 13.0371-25.9888 11.9792-25.3947 11.1247-24.6012 10.4736-23.6084 9.82259-22.6156 9.36279-21.4559 9.09424-20.1294 8.82568-18.8029 8.69141-17.3991 8.69141-15.918 8.69141-14.1927 8.82161-12.6424 9.08203-11.2671 9.34245-9.89176 9.7819-8.71582 10.4004-7.73926 11.0189-6.76269 11.849-6.01807 12.8906-5.50537 13.9323-4.99267 15.2425-4.73633 16.8213-4.73633 18.4001-4.73633 19.7184-5.0293 20.7764-5.61523 21.8343-6.20117 22.6888-6.9987 23.3398-8.00781 23.9909-9.01693 24.4507-10.1929 24.7192-11.5356 24.9878-12.8784 25.1221-14.3066 25.1221-15.8203ZM63.3236-11.7676C63.3236-9.83073 63.0388-8.09733 62.4691-6.56738 61.8995-5.03743 61.0613-3.74349 59.9545-2.68555 58.8477-1.6276 57.4805-0.82194 55.8529-0.268555 54.2253 0.284831 52.3536 0.561523 50.2377 0.561523 48.252 0.561523 46.4698 0.313314 44.891-0.183105 43.3122-0.679525 41.9776-1.43229 40.8871-2.44141 39.7966-3.45052 38.9625-4.70784 38.3847-6.21338 37.8069-7.71891 37.518-9.48079 37.518-11.499L37.518-30.7129C37.518-30.8756 37.5668-31.0221 37.6645-31.1523 37.7621-31.2826 37.9371-31.3883 38.1894-31.4697 38.4416-31.5511 38.7712-31.6162 39.1781-31.665 39.585-31.7139 40.1059-31.7383 40.7406-31.7383 41.3591-31.7383 41.8718-31.7139 42.2787-31.665 42.6856-31.6162 43.0111-31.5511 43.2553-31.4697 43.4994-31.3883 43.6744-31.2826 43.7802-31.1523 43.886-31.0221 43.9389-30.8756 43.9389-30.7129L43.9389-12.0605C43.9389-10.8073 44.0935-9.72087 44.4027-8.80127 44.712-7.88167 45.1555-7.12077 45.7333-6.51855 46.3111-5.91634 47.0028-5.46468 47.8085-5.16357 48.6142-4.86247 49.5134-4.71191 50.5062-4.71191 51.5154-4.71191 52.4187-4.86654 53.2162-5.17578 54.0137-5.48503 54.6892-5.93669 55.2426-6.53076 55.796-7.12484 56.2232-7.85726 56.5243-8.72803 56.8254-9.59879 56.976-10.5876 56.976-11.6943L56.976-30.7129C56.976-30.8756 57.0248-31.0221 57.1225-31.1523 57.2201-31.2826 57.391-31.3883 57.6352-31.4697 57.8793-31.5511 58.2089-31.6162 58.6239-31.665 59.039-31.7139 59.5557-31.7383 60.1742-31.7383 60.7927-31.7383 61.3013-31.7139 61.7001-31.665 62.0989-31.6162 62.4203-31.5511 62.6645-31.4697 62.9086-31.3883 63.0795-31.2826 63.1771-31.1523 63.2748-31.0221 63.3236-30.8756 63.3236-30.7129ZM91.4712-28.9551C91.4712-28.4831 91.4509-28.0802 91.4102-27.7466 91.3695-27.4129 91.3085-27.1444 91.2271-26.9409 91.1457-26.7375 91.044-26.5869 90.9219-26.4893 90.7998-26.3916 90.6656-26.3428 90.5191-26.3428L82.6089-26.3428 82.6089-0.878906C82.6089-0.716146 82.556-0.569661 82.4502-0.439453 82.3444-0.309245 82.1695-0.203451 81.9253-0.12207 81.6812-0.0406901 81.3516 0.0244141 80.9366 0.0732422 80.5215 0.12207 80.0047 0.146484 79.3863 0.146484 78.7678 0.146484 78.251 0.12207 77.836 0.0732422 77.4209 0.0244141 77.0913-0.0406901 76.8472-0.12207 76.6031-0.203451 76.4281-0.309245 76.3223-0.439453 76.2165-0.569661 76.1636-0.716146 76.1636-0.878906L76.1636-26.3428 68.2534-26.3428C68.0907-26.3428 67.9523-26.3916 67.8384-26.4893 67.7245-26.5869 67.6268-26.7375 67.5454-26.9409 67.4641-27.1444 67.403-27.4129 67.3623-27.7466 67.3216-28.0802 67.3013-28.4831 67.3013-28.9551 67.3013-29.4434 67.3216-29.8584 67.3623-30.2002 67.403-30.542 67.4641-30.8146 67.5454-31.0181 67.6268-31.2215 67.7245-31.368 67.8384-31.4575 67.9523-31.547 68.0907-31.5918 68.2534-31.5918L90.5191-31.5918C90.6656-31.5918 90.7998-31.547 90.9219-31.4575 91.044-31.368 91.1457-31.2215 91.2271-31.0181 91.3085-30.8146 91.3695-30.542 91.4102-30.2002 91.4509-29.8584 91.4712-29.4434 91.4712-28.9551ZM117.038-21.9971C117.038-20.223 116.761-18.6523 116.208-17.2852 115.654-15.918 114.849-14.7664 113.791-13.8306 112.733-12.8947 111.435-12.1826 109.897-11.6943 108.359-11.2061 106.548-10.9619 104.465-10.9619L101.828-10.9619 101.828-0.878906C101.828-0.716146 101.775-0.569661 101.669-0.439453 101.563-0.309245 101.388-0.203451 101.144-0.12207 100.9-0.0406901 100.575 0.0244141 100.168 0.0732422 99.7608 0.12207 99.24 0.146484 98.6052 0.146484 97.9867 0.146484 97.4699 0.12207 97.0549 0.0732422 96.6399 0.0244141 96.3103-0.0406901 96.0661-0.12207 95.822-0.203451 95.6511-0.309245 95.5535-0.439453 95.4558-0.569661 95.407-0.716146 95.407-0.878906L95.407-29.2969C95.407-30.0618 95.6063-30.6356 96.0051-31.0181 96.4039-31.4006 96.9288-31.5918 97.5798-31.5918L105.026-31.5918C105.775-31.5918 106.487-31.5633 107.162-31.5063 107.838-31.4494 108.648-31.3273 109.592-31.1401 110.536-30.953 111.492-30.6071 112.46-30.1025 113.429-29.598 114.255-28.9591 114.938-28.186 115.622-27.4129 116.143-26.5096 116.501-25.4761 116.859-24.4425 117.038-23.2829 117.038-21.9971ZM110.324-21.5332C110.324-22.64 110.129-23.5514 109.738-24.2676 109.347-24.9837 108.867-25.5127 108.298-25.8545 107.728-26.1963 107.13-26.4119 106.503-26.5015 105.877-26.591 105.23-26.6357 104.562-26.6357L101.828-26.6357 101.828-15.918 104.709-15.918C105.734-15.918 106.593-16.0563 107.284-16.333 107.976-16.6097 108.542-16.9963 108.981-17.4927 109.421-17.9891 109.754-18.5832 109.982-19.2749 110.21-19.9666 110.324-20.7194 110.324-21.5332ZM148.024-11.7676C148.024-9.83073 147.739-8.09733 147.169-6.56738 146.599-5.03743 145.761-3.74349 144.654-2.68555 143.548-1.6276 142.181-0.82194 140.553-0.268555 138.925 0.284831 137.054 0.561523 134.938 0.561523 132.952 0.561523 131.17 0.313314 129.591-0.183105 128.012-0.679525 126.678-1.43229 125.587-2.44141 124.497-3.45052 123.662-4.70784 123.085-6.21338 122.507-7.71891 122.218-9.48079 122.218-11.499L122.218-30.7129C122.218-30.8756 122.267-31.0221 122.364-31.1523 122.462-31.2826 122.637-31.3883 122.889-31.4697 123.142-31.5511 123.471-31.6162 123.878-31.665 124.285-31.7139 124.806-31.7383 125.441-31.7383 126.059-31.7383 126.572-31.7139 126.979-31.665 127.386-31.6162 127.711-31.5511 127.955-31.4697 128.199-31.3883 128.374-31.2826 128.48-31.1523 128.586-31.0221 128.639-30.8756 128.639-30.7129L128.639-12.0605C128.639-10.8073 128.793-9.72087 129.103-8.80127 129.412-7.88167 129.855-7.12077 130.433-6.51855 131.011-5.91634 131.703-5.46468 132.508-5.16357 133.314-4.86247 134.213-4.71191 135.206-4.71191 136.215-4.71191 137.119-4.86654 137.916-5.17578 138.714-5.48503 139.389-5.93669 139.943-6.53076 140.496-7.12484 140.923-7.85726 141.224-8.72803 141.525-9.59879 141.676-10.5876 141.676-11.6943L141.676-30.7129C141.676-30.8756 141.725-31.0221 141.822-31.1523 141.92-31.2826 142.091-31.3883 142.335-31.4697 142.579-31.5511 142.909-31.6162 143.324-31.665 143.739-31.7139 144.256-31.7383 144.874-31.7383 145.493-31.7383 146.001-31.7139 146.4-31.665 146.799-31.6162 147.12-31.5511 147.364-31.4697 147.609-31.3883 147.779-31.2826 147.877-31.1523 147.975-31.0221 148.024-30.8756 148.024-30.7129ZM176.171-28.9551C176.171-28.4831 176.151-28.0802 176.11-27.7466 176.069-27.4129 176.008-27.1444 175.927-26.9409 175.846-26.7375 175.744-26.5869 175.622-26.4893 175.5-26.3916 175.366-26.3428 175.219-26.3428L167.309-26.3428 167.309-0.878906C167.309-0.716146 167.256-0.569661 167.15-0.439453 167.044-0.309245 166.869-0.203451 166.625-0.12207 166.381-0.0406901 166.052 0.0244141 165.637 0.0732422 165.222 0.12207 164.705 0.146484 164.086 0.146484 163.468 0.146484 162.951 0.12207 162.536 0.0732422 162.121 0.0244141 161.791-0.0406901 161.547-0.12207 161.303-0.203451 161.128-0.309245 161.022-0.439453 160.916-0.569661 160.864-0.716146 160.864-0.878906L160.864-26.3428 152.953-26.3428C152.791-26.3428 152.652-26.3916 152.538-26.4893 152.424-26.5869 152.327-26.7375 152.245-26.9409 152.164-27.1444 152.103-27.4129 152.062-27.7466 152.022-28.0802 152.001-28.4831 152.001-28.9551 152.001-29.4434 152.022-29.8584 152.062-30.2002 152.103-30.542 152.164-30.8146 152.245-31.0181 152.327-31.2215 152.424-31.368 152.538-31.4575 152.652-31.547 152.791-31.5918 152.953-31.5918L175.219-31.5918C175.366-31.5918 175.5-31.547 175.622-31.4575 175.744-31.368 175.846-31.2215 175.927-31.0181 176.008-30.8146 176.069-30.542 176.11-30.2002 176.151-29.8584 176.171-29.4434 176.171-28.9551ZM198.833-9.47266C198.833-7.8125 198.523-6.35579 197.905-5.10254 197.286-3.84928 196.448-2.80355 195.39-1.96533 194.332-1.12712 193.095-0.496419 191.679-0.0732422 190.263 0.349935 188.75 0.561523 187.138 0.561523 186.048 0.561523 185.035 0.472005 184.099 0.292969 183.163 0.113932 182.337-0.101725 181.621-0.354004 180.904-0.606282 180.306-0.870768 179.826-1.14746 179.346-1.42415 179-1.66829 178.789-1.87988 178.577-2.09147 178.426-2.39665 178.337-2.79541 178.247-3.19417 178.203-3.7679 178.203-4.5166 178.203-5.02116 178.219-5.44434 178.251-5.78613 178.284-6.12793 178.337-6.40462 178.41-6.61621 178.483-6.8278 178.581-6.97835 178.703-7.06787 178.825-7.15739 178.968-7.20215 179.13-7.20215 179.358-7.20215 179.68-7.06787 180.095-6.79932 180.51-6.53076 181.043-6.23372 181.694-5.9082 182.345-5.58268 183.122-5.28564 184.025-5.01709 184.929-4.74853 185.974-4.61426 187.163-4.61426 187.944-4.61426 188.644-4.70784 189.262-4.89502 189.881-5.08219 190.406-5.34668 190.837-5.68848 191.268-6.03027 191.598-6.45345 191.826-6.95801 192.054-7.46256 192.168-8.02409 192.168-8.64258 192.168-9.35872 191.972-9.97314 191.582-10.4858 191.191-10.9985 190.682-11.4543 190.056-11.853 189.429-12.2518 188.717-12.6261 187.919-12.9761 187.122-13.326 186.3-13.6963 185.454-14.0869 184.607-14.4775 183.785-14.9211 182.988-15.4175 182.19-15.9139 181.478-16.508 180.852-17.1997 180.225-17.8914 179.716-18.7093 179.326-19.6533 178.935-20.5973 178.74-21.7285 178.74-23.0469 178.74-24.5605 179.021-25.8911 179.582-27.0386 180.144-28.186 180.9-29.1382 181.853-29.895 182.805-30.6519 183.928-31.2174 185.222-31.5918 186.516-31.9661 187.887-32.1533 189.335-32.1533 190.084-32.1533 190.833-32.0964 191.582-31.9824 192.33-31.8685 193.03-31.7139 193.681-31.5186 194.332-31.3232 194.91-31.1035 195.415-30.8594 195.919-30.6152 196.253-30.4118 196.416-30.249 196.578-30.0863 196.688-29.9479 196.745-29.834 196.802-29.7201 196.851-29.5695 196.892-29.3823 196.932-29.1951 196.961-28.9591 196.977-28.6743 196.993-28.3895 197.001-28.0355 197.001-27.6123 197.001-27.1403 196.989-26.7415 196.965-26.416 196.94-26.0905 196.9-25.8219 196.843-25.6103 196.786-25.3988 196.704-25.2441 196.599-25.1465 196.493-25.0488 196.35-25 196.171-25 195.992-25 195.708-25.1139 195.317-25.3418 194.926-25.5697 194.446-25.8179 193.876-26.0864 193.307-26.355 192.648-26.5991 191.899-26.8188 191.15-27.0386 190.328-27.1484 189.433-27.1484 188.733-27.1484 188.123-27.063 187.602-26.8921 187.081-26.7212 186.646-26.4852 186.296-26.1841 185.946-25.883 185.686-25.5208 185.515-25.0977 185.344-24.6745 185.258-24.2269 185.258-23.7549 185.258-23.055 185.45-22.4487 185.832-21.936 186.215-21.4233 186.727-20.9676 187.37-20.5688 188.013-20.1701 188.741-19.7957 189.555-19.4458 190.369-19.0959 191.199-18.7256 192.045-18.335 192.892-17.9443 193.722-17.5008 194.536-17.0044 195.349-16.508 196.074-15.9139 196.709-15.2222 197.343-14.5304 197.856-13.7166 198.247-12.7808 198.637-11.8449 198.833-10.7422 198.833-9.47266Z" fill="#FFFFFF" transform="matrix(1 0 0 1 53.2461 85)"/></g></g><rect x="1465" y="557" width="375" height="168" fill="url(#fill14)"/><text fill="#FFFFFF" font-family="Calibri,Calibri_MSFontService,sans-serif" font-weight="700" font-size="50" transform="matrix(1 0 0 1 1552.25 670)">OUTPUTS</text><path d="M0.0268431-3.43739 36.8656-3.14972 36.8119 3.72507-0.0268431 3.43739ZM32.363-13.4977 59.7548 0.466634 32.1482 14.0015Z" fill="#4472C4" transform="matrix(1 0 0 -1 1405.5 641.967)"/><path d="M1032.04 1212.52 675.063 1212.52 675.063 1129.42 681.938 1129.42 681.938 1209.08 678.5 1205.64 1032.04 1205.64ZM664.75 1134 678.5 1106.5 692.25 1134Z" fill="#4472C4"/><path d="M675.063 1000.43 675.063 849.062 1012.57 849.062 1012.57 855.938 678.5 855.938 681.938 852.5 681.938 1000.43ZM1007.98 838.75 1035.48 852.5 1007.98 866.25Z" fill="#4472C4"/><path d="M1840.55 638.063 1890.79 638.797 1890.68 645.671 1840.45 644.937ZM1886.35 628.419 1913.65 642.569 1885.95 655.916Z" fill="#4472C4"/><rect x="2119" y="488" width="326" height="116" fill="#A5A5A5"/><text fill="#FFFFFF" font-family="Calibri,Calibri_MSFontService,sans-serif" font-weight="700" font-size="50" transform="matrix(1 0 0 1 2161.77 564)">CUSTOMER</text><rect x="2115" y="749" width="330" height="117" fill="#5B9BD5"/><text fill="#FFFFFF" font-family="Calibri,Calibri_MSFontService,sans-serif" font-weight="700" font-size="50" transform="matrix(1 0 0 1 2164.15 825)">EXCHANGE</text><path d="M3.43726-0.0408592 4.88379 121.648-1.99072 121.73-3.43726 0.0408592ZM15.1411 116.943 1.71893 144.604-12.357 117.27Z" fill="#4472C4" transform="matrix(-1 0 0 1 2282.22 604.5)"/><path d="M2458.5 790.75 2589 790.75 2589 780.5 2609.5 801 2589 821.5 2589 811.25 2458.5 811.25Z" stroke="#2F528F" stroke-width="4.58333" stroke-miterlimit="8" fill="#FF0000" fill-rule="evenodd"/><text font-family="Calibri,Calibri_MSFontService,sans-serif" font-weight="400" font-size="50" transform="matrix(1 0 0 1 2593.88 887)">VAT %</text><path d="M2115.07 811.552 1649.06 811.552 1649.06 748.417 1655.94 748.417 1655.94 808.115 1652.5 804.677 2115.07 804.677ZM1638.75 753 1652.5 725.5 1666.25 753Z" fill="#4472C4"/><rect x="1913" y="395" width="107" height="493" stroke="#000000" stroke-width="2.29167" stroke-linejoin="round" stroke-miterlimit="10"/><text fill="#FFFFFF" font-family="Calibri,Calibri_MSFontService,sans-serif" font-weight="700" font-size="50" transform="matrix(6.12323e-17 1 -1 6.12323e-17 1948.75 433)">[C]</text><text fill="#FFFFFF" font-family="Calibri,Calibri_MSFontService,sans-serif" font-weight="400" font-size="50" transform="matrix(6.12323e-17 1 -1 6.12323e-17 1948.75 504)">Licence or Terms</text><rect x="2020.5" y="395.5" width="40.9999" height="493" stroke="#2F528F" stroke-width="4.58333" stroke-miterlimit="8" fill="#FF0000"/><rect x="903.5" y="181.5" width="640" height="40.9999" stroke="#2F528F" stroke-width="4.58333" stroke-miterlimit="8" fill="#FF0000"/><rect x="900.5" y="955.5" width="639" height="40.9999" stroke="#2F528F" stroke-width="4.58333" stroke-miterlimit="8" fill="#FF0000"/><path d="M379.02 550.523 339.449 549.937 339.551 543.063 379.122 543.648ZM374.692 533.269 401.985 547.425 374.285 560.766Z" fill="#4472C4"/><rect x="597" y="556" width="375" height="168" fill="#FFC000"/><text fill="#FFFFFF" font-family="Calibri,Calibri_MSFontService,sans-serif" font-weight="700" font-size="50" transform="matrix(1 0 0 1 706.773 668)">INPUTS</text><path d="M0.0358054-3.43731 65.1204-2.75935 65.0488 4.11528-0.0358054 3.43731ZM60.6447-13.119 88 0.916667 60.3583 14.3795Z" fill="#4472C4" transform="matrix(1 0 0 -1 509.5 641.417)"/><rect x="13.0001" y="487" width="326" height="117" fill="#A5A5A5"/><text fill="#FFFFFF" font-family="Calibri,Calibri_MSFontService,sans-serif" font-weight="700" font-size="50" transform="matrix(1 0 0 1 76.8508 563)">SUPPLIER</text><rect x="13.0001" y="749" width="329" height="116" fill="#5B9BD5"/><text fill="#FFFFFF" font-family="Calibri,Calibri_MSFontService,sans-serif" font-weight="700" font-size="50" transform="matrix(1 0 0 1 61.9894 824)">EXCHANGE</text><path d="M180.209 627.374 181.656 749.063 174.782 749.145 173.335 627.456ZM163.078 632.162 176.5 604.5 190.576 631.835Z" fill="#4472C4"/><path d="M185.25 883.5 185.25 1014 195.5 1014 175 1034.5 154.5 1014 164.75 1014 164.75 883.5Z" stroke="#2F528F" stroke-width="4.58333" stroke-miterlimit="8" fill="#FF0000" fill-rule="evenodd"/><text font-family="Calibri,Calibri_MSFontService,sans-serif" font-weight="400" font-size="50" transform="matrix(1 0 0 1 220.485 985)">VAT %</text><path d="M22.9168-3.4375 445.5-3.4375 445.5 82.6148 438.625 82.6148 438.625 0 442.062 3.4375 22.9168 3.4375ZM27.5 13.75 0 0 27.5-13.75Z" fill="#4472C4" transform="matrix(1 0 0 -1 342.5 807.115)"/><rect x="402" y="395" width="107" height="493" stroke="#000000" stroke-width="2.29167" stroke-linejoin="round" stroke-miterlimit="10"/><text fill="#FFFFFF" font-family="Calibri,Calibri_MSFontService,sans-serif" font-weight="700" font-size="50" transform="matrix(6.12323e-17 1 -1 6.12323e-17 438.625 430)">[C] Licence or Terms</text><rect x="509.5" y="395.5" width="40.9999" height="492" stroke="#2F528F" stroke-width="4.58333" stroke-miterlimit="8" fill="#FF0000"/><path d="M972.551 637.063 1011.66 637.646 1011.56 644.52 972.449 643.937ZM1007.23 627.266 1034.53 641.425 1006.82 654.763Z" fill="#4472C4"/><rect x="54.5002" y="154.5" width="130" height="41.0003" stroke="#2F528F" stroke-width="4.58333" stroke-miterlimit="8"/><text font-family="Calibri,Calibri_MSFontService,sans-serif" font-weight="700" font-size="50" text-decoration="underline" transform="matrix(1 0 0 1 52.5055 109)">Relation</text><text font-family="Calibri,Calibri_MSFontService,sans-serif" font-weight="400" font-size="50" transform="matrix(1 0 0 1 224.38 188)">master</text><rect x="50.4999" y="220.5" width="130" height="40.0002" stroke="#2F528F" stroke-width="4.58333" stroke-miterlimit="8" fill="#FF0000"/><text font-family="Calibri,Calibri_MSFontService,sans-serif" font-weight="400" font-size="50" transform="matrix(1 0 0 1 220.943 253)">slave</text></g></svg>