<svg width="8267" height="1933" viewBox="0 0 8267 1933" fill="none" xmlns="http://www.w3.org/2000/svg">
<mask id="mask0_1_11" style="mask-type:luminance" maskUnits="userSpaceOnUse" x="348" y="263" width="1444" height="1439">
<path d="M1791.36 1702V263L348.1 263V1702H1791.36Z" fill="white"/>
</mask>
<g mask="url(#mask0_1_11)">
<path d="M1620.18 512.831C1638.03 530.764 1646.5 551.88 1645.21 576.772C1644.42 591.939 1638.96 605.479 1630.97 618.226C1614.16 645.067 1597.56 672.044 1580.8 698.917C1573.72 710.266 1571.46 722.339 1574.92 735.322C1575.7 738.249 1576.97 741.059 1578.13 743.871C1584.93 760.343 1592.11 776.672 1598.51 793.299C1604.78 809.557 1616.01 819.445 1632.88 823.326C1663.45 830.362 1693.95 837.692 1724.54 844.636C1751.57 850.774 1771.84 865.47 1783.82 890.83C1788.9 901.589 1791.17 913.034 1791.16 924.962C1791.12 963.011 1791.24 1001.06 1791.12 1039.11C1791.01 1077.58 1766.89 1109.07 1729.65 1118.39C1697.64 1126.39 1665.4 1133.49 1633.26 1140.98C1632.37 1141.19 1631.45 1141.26 1630.16 1141.46C1629.98 1139.68 1629.69 1138.12 1629.7 1136.57C1629.98 1061.59 1607.98 993.22 1568.23 930.311C1527.22 865.413 1472.63 814.418 1407.36 774.67C1350.6 740.107 1289.45 716.574 1224.7 702.162C1193.8 695.282 1162.51 691.012 1131.01 687.994C1118.91 686.834 1106.92 684.446 1094.81 683.349C1054.39 679.688 1014.82 684.328 976.338 697.202C913.404 718.255 862.922 756.226 824.585 810.471C823.795 811.59 822.965 812.681 821.493 814.683C821.493 812.396 821.235 811.127 821.529 810.005C840.957 736.046 872.205 667.806 919.709 607.561C961.873 554.089 1012.6 511.027 1074.28 481.594C1114.87 462.22 1157.51 450.297 1202.55 448.114C1216.32 447.447 1230.15 448.035 1243.95 448.275C1246.15 448.313 1248.41 449.338 1250.48 450.275C1254.94 452.298 1259.21 454.776 1263.71 456.685C1279.23 463.26 1294.99 469.28 1310.33 476.247C1326.88 483.764 1342.37 482.921 1357.74 473.21C1384.68 456.187 1411.74 439.333 1438.87 422.606C1466.8 405.386 1495.42 404.277 1524.08 420.51C1530.9 424.376 1537.07 429.781 1542.7 435.337C1568.57 460.884 1594.14 486.734 1620.18 512.831Z" fill="url(#paint0_linear_1_11)"/>
<path d="M1310.24 1182.31C1290.47 1244.95 1262.07 1302.53 1222.18 1354.14C1179.77 1409.03 1128.28 1452.95 1065.42 1482.76C1017.3 1505.58 966.727 1517.81 913.265 1517.05C909.136 1516.99 905.836 1515.95 902.313 1513.54C896.171 1509.33 889.593 1505.57 882.774 1502.6C864.747 1494.76 846.431 1487.58 828.347 1479.86C811.112 1472.5 793.453 1470.58 775.556 1476.2C767.612 1478.69 759.856 1482.43 752.724 1486.77C723.906 1504.33 695.46 1522.5 666.638 1540.05C660.95 1543.51 654.405 1546.2 647.905 1547.56C629.815 1551.33 614.108 1545.83 600.995 1532.99C590.438 1522.65 580.096 1512.09 569.659 1501.63C552.264 1484.19 534.888 1466.73 517.466 1449.32C509.452 1441.31 504.041 1431.93 501.937 1420.72C499.338 1406.86 502.404 1394.19 509.764 1382.36C524.261 1359.05 538.707 1335.71 553.163 1312.38C557.364 1305.6 561.733 1298.92 565.667 1291.98C578.827 1268.79 579.987 1244.88 569.645 1220.3C562.006 1202.14 554.476 1183.94 547.048 1165.7C536.987 1140.99 519.351 1124.54 493.551 1117.99C463.837 1110.44 433.883 1103.84 404.031 1096.84C399.473 1095.77 394.894 1094.79 390.34 1093.71C364.869 1087.65 348.848 1067.65 348.777 1041.43C348.668 1001.97 348.665 962.516 348.779 923.061C348.855 896.945 364.392 877.11 389.647 871.05C423.104 863.022 456.648 855.357 490.115 847.368C496.646 845.809 502.995 843.48 510.005 841.328C510.52 847.261 511.018 852.986 511.514 858.711C519.023 945.274 554.105 1019.96 609.628 1085.55C660.526 1145.68 723.163 1190.16 794.667 1222.41C846.866 1245.96 901.364 1261.73 957.962 1270.12C973.931 1272.49 990.03 1273.96 1006.05 1276.01C1015.8 1277.25 1025.48 1279.12 1035.25 1280.17C1115.53 1288.85 1188 1268.86 1252.44 1220.06C1276.54 1201.81 1297.06 1179.99 1314.52 1155.28C1315.58 1153.78 1316.74 1152.34 1319.09 1151.34C1316.19 1161.48 1313.29 1171.63 1310.24 1182.31Z" fill="url(#paint1_linear_1_11)"/>
<path d="M536.672 837.971C536.536 834.98 536.404 832.635 536.348 830.289C536.174 822.933 537.499 816.337 541.539 809.649C546.33 801.719 548.978 792.496 552.627 783.864C557.926 771.332 563.079 758.732 568.668 746.33C580.451 720.177 579.277 694.759 564.37 670.296C546.91 641.645 529.094 613.213 511.38 584.719C507.141 577.9 503.372 570.901 501.991 562.882C498.903 544.941 503.762 529.34 516.396 516.382C530.807 501.603 545.503 487.103 560.079 472.485C573.33 459.196 586.543 445.869 599.851 432.638C619.35 413.254 643.648 410.205 667.122 424.606C695.69 442.132 724.075 459.959 752.478 477.754C763.975 484.957 776.173 489.819 789.82 491.022C802.471 492.138 814.578 490.247 826.246 485.465C845.959 477.385 865.696 469.354 885.267 460.941C910.835 449.95 925.963 430.26 932.149 403.277C939.646 370.579 947.23 337.9 954.885 305.239C959.74 284.528 972.115 270.675 992.762 264.907C996.747 263.794 1001.08 263.556 1005.25 263.547C1047.89 263.455 1090.54 263.832 1133.17 263.371C1159.57 263.085 1193.45 279.855 1206.27 314.638C1210.46 326.015 1212.74 338.124 1215.58 349.976C1220.82 371.879 1225.82 393.838 1230.89 415.78C1231.25 417.323 1231.36 418.925 1231.63 420.893C1229.4 421.021 1227.58 421.236 1225.75 421.216C1153.97 420.415 1088 440.542 1026.89 477.378C962.036 516.462 910.454 569.243 869.845 632.952C827.043 700.102 799.64 773.319 785.956 851.67C781.924 874.756 779.588 898.141 776.507 921.394C774.843 933.949 772.852 946.477 771.699 959.081C768.521 993.816 771.997 1028.03 781.326 1061.57C800.544 1130.67 839.681 1185.84 897.755 1227.62C899.237 1228.69 900.591 1229.93 901.573 1232.09C891.734 1229.24 881.845 1226.56 872.064 1223.52C814.12 1205.53 760.063 1179.58 710.921 1143.75C655.527 1103.36 610.428 1053.8 578.248 992.893C558.002 954.57 544.657 913.954 539.06 870.918C537.67 860.23 537.463 849.388 536.672 837.971Z" fill="url(#paint2_linear_1_11)"/>
<path d="M1159.24 1455.23C1222.17 1404.98 1269.31 1342.92 1303.74 1270.88C1328.99 1218.03 1346.12 1162.59 1355.52 1104.8C1358.6 1085.82 1360.42 1066.64 1362.92 1047.57C1364.23 1037.57 1366.06 1027.63 1367.15 1017.6C1376.14 934.182 1354.8 859.451 1302.79 793.663C1285.5 771.803 1265.18 753.102 1242.46 737.004C1241.32 736.191 1240.18 735.353 1239.11 734.447C1238.82 734.197 1238.76 733.66 1238.24 732.391C1245.28 734.238 1251.83 735.784 1258.28 737.679C1325.96 757.563 1388.49 787.714 1443.97 831.755C1495.95 873.013 1538.01 922.517 1567.44 982.35C1586.9 1021.93 1599.06 1063.7 1602.45 1107.72C1603.74 1124.52 1602.76 1141.51 1602.71 1158.41C1602.7 1160.23 1602.29 1162.17 1601.59 1163.87C1593.66 1183.18 1585.83 1202.53 1577.59 1221.71C1571.05 1236.94 1572.05 1251.38 1580.74 1265.38C1597.81 1292.9 1614.92 1320.39 1631.94 1347.94C1648.12 1374.11 1649.96 1401.2 1636.73 1429.12C1632.77 1437.48 1627.13 1444.68 1620.63 1451.2C1594.3 1477.62 1567.98 1504.06 1541.59 1530.42C1523.24 1548.74 1501.12 1557 1475.26 1554.75C1461.93 1553.58 1449.84 1548.77 1438.54 1541.7C1411.91 1525.05 1385.1 1508.68 1358.63 1491.77C1342.57 1481.52 1326.64 1480.51 1309.35 1488.65C1294.54 1495.63 1279.32 1501.84 1263.94 1507.48C1246.28 1513.98 1235.91 1526.02 1231.82 1544.3C1224.91 1575.21 1217.59 1606.03 1210.47 1636.89C1202.55 1671.22 1177 1695.24 1142.53 1700.59C1138.85 1701.16 1135.07 1701.25 1131.33 1701.26C1113.75 1701.33 1096.17 1701.63 1078.61 1701.14C1070.52 1700.91 1062.48 1699.04 1053.92 1697.84C1053.25 1700.79 1050.8 1701.42 1047.44 1701.38C1033.38 1701.19 1019.32 1701.36 1005.27 1701.28C982.721 1701.14 962.914 1686.45 956.433 1664.66C953.695 1655.45 951.742 1646 949.563 1636.63C943.613 1611.04 937.784 1585.42 931.783 1559.84C930.558 1554.62 928.797 1549.52 927.041 1543.55C1014.21 1540.06 1090.68 1508.68 1159.24 1455.23Z" fill="url(#paint3_linear_1_11)"/>
</g>
<path d="M2060 743H1907V653H2309V743H2151V1353H2060V743ZM2656.34 1139C2651.01 1140.33 2643.34 1141 2633.34 1141H2478.34V1353H2387.34V653H2627.34C2691.34 653 2739.68 674.667 2772.34 718C2805.01 761.333 2821.34 816.333 2821.34 883C2821.34 915 2819.68 943.333 2816.34 968C2813.68 992.667 2806.34 1018 2794.34 1044C2783.01 1069.33 2765.01 1091 2740.34 1109L2822.34 1353H2729.34L2656.34 1139ZM2613.34 1053C2648.01 1053 2673.34 1044 2689.34 1026C2706.01 1007.33 2716.34 986.667 2720.34 964C2724.34 940.667 2726.34 913.667 2726.34 883C2726.34 831 2715.34 795 2693.34 775C2672.01 754.333 2640.68 744 2599.34 744H2478.34V1053H2613.34ZM3229.8 1148H3045.8L2992.8 1353H2891.8L3076.8 653H3195.8L3390.8 1353H3284.8L3229.8 1148ZM3067.8 1053H3207.8L3135.8 803L3067.8 1053ZM3479.14 652H3667.14C3742.47 652 3799.81 672.667 3839.14 714C3879.14 755.333 3899.14 810.333 3899.14 879V1153C3899.14 1286.33 3828.47 1353 3687.14 1353H3479.14V652ZM3808.14 869C3808.14 825.667 3796.14 793.667 3772.14 773C3748.81 752.333 3717.14 742 3677.14 742H3570.14V1270H3671.14C3711.81 1270 3744.81 1263 3770.14 1249C3795.47 1235 3808.14 1206.33 3808.14 1163V869ZM4024.06 653H4358.06V743H4115.06V940H4271.06L4244.06 1028H4115.06V1271H4356.06V1353H4024.06V653Z" fill="#727272"/>
<path d="M4837.91 1330C4778.57 1352 4723.24 1363 4671.91 1363C4613.91 1363 4566.91 1347.67 4530.91 1317C4494.91 1286.33 4476.91 1237.33 4476.91 1170V849C4476.91 798.333 4483.91 760 4497.91 734C4512.57 708 4534.57 686 4563.91 668C4593.24 651.333 4629.24 643 4671.91 643C4723.91 643 4770.91 654 4812.91 676L4786.91 754C4754.91 742 4720.57 736 4683.91 736C4651.91 736 4624.57 744.667 4601.91 762C4579.24 778.667 4567.91 804.667 4567.91 840V1168C4567.91 1236.67 4606.91 1271 4684.91 1271C4724.91 1271 4770.91 1262.67 4822.91 1246L4837.91 1330ZM5325.55 1168C5325.55 1235.33 5304.88 1285 5263.55 1317C5222.88 1348.33 5173.88 1364 5116.55 1364C5080.55 1364 5046.55 1357.67 5014.55 1345C4982.55 1331.67 4956.21 1310.33 4935.55 1281C4915.55 1251.67 4905.55 1214 4905.55 1168V846C4905.55 777.333 4924.21 725.333 4961.55 690C4999.55 654.667 5051.55 637 5117.55 637C5183.55 637 5234.55 655.667 5270.55 693C5307.21 730.333 5325.55 781.667 5325.55 847V1168ZM5234.55 867C5234.55 823 5225.21 789.667 5206.55 767C5188.55 744.333 5158.21 733 5115.55 733C5072.88 733 5042.21 744.333 5023.55 767C5005.55 789 4996.55 822 4996.55 866V1155C4996.55 1192.33 5006.88 1221.33 5027.55 1242C5048.88 1262.67 5078.21 1273 5115.55 1273C5151.55 1273 5180.21 1262.67 5201.55 1242C5223.55 1220.67 5234.55 1191.33 5234.55 1154V867ZM5560.38 837V1353H5469.38V653H5560.38L5869.38 1167V653H5961.38V1353H5869.38L5560.38 837ZM6194.77 743H6041.77V653H6443.77V743H6285.77V1353H6194.77V743ZM6791.11 1139C6785.78 1140.33 6778.11 1141 6768.11 1141H6613.11V1353H6522.11V653H6762.11C6826.11 653 6874.44 674.667 6907.11 718C6939.78 761.333 6956.11 816.333 6956.11 883C6956.11 915 6954.44 943.333 6951.11 968C6948.44 992.667 6941.11 1018 6929.11 1044C6917.78 1069.33 6899.78 1091 6875.11 1109L6957.11 1353H6864.11L6791.11 1139ZM6748.11 1053C6782.78 1053 6808.11 1044 6824.11 1026C6840.78 1007.33 6851.11 986.667 6855.11 964C6859.11 940.667 6861.11 913.667 6861.11 883C6861.11 831 6850.11 795 6828.11 775C6806.78 754.333 6775.44 744 6734.11 744H6613.11V1053H6748.11ZM7455.43 1168C7455.43 1235.33 7434.76 1285 7393.43 1317C7352.76 1348.33 7303.76 1364 7246.43 1364C7210.43 1364 7176.43 1357.67 7144.43 1345C7112.43 1331.67 7086.1 1310.33 7065.43 1281C7045.43 1251.67 7035.43 1214 7035.43 1168V846C7035.43 777.333 7054.1 725.333 7091.43 690C7129.43 654.667 7181.43 637 7247.43 637C7313.43 637 7364.43 655.667 7400.43 693C7437.1 730.333 7455.43 781.667 7455.43 847V1168ZM7364.43 867C7364.43 823 7355.1 789.667 7336.43 767C7318.43 744.333 7288.1 733 7245.43 733C7202.76 733 7172.1 744.333 7153.43 767C7135.43 789 7126.43 822 7126.43 866V1155C7126.43 1192.33 7136.76 1221.33 7157.43 1242C7178.76 1262.67 7208.1 1273 7245.43 1273C7281.43 1273 7310.1 1262.67 7331.43 1242C7353.43 1220.67 7364.43 1191.33 7364.43 1154V867ZM7599.26 653H7690.26V1270H7960.26V1353H7599.26V653Z" fill="url(#paint4_linear_1_11)"/>
<defs>
<linearGradient id="paint0_linear_1_11" x1="1560.95" y1="567.562" x2="1123.38" y2="295.803" gradientUnits="userSpaceOnUse">
<stop stop-color="#787878"/>
<stop offset="1" stop-color="#B1B1B1"/>
</linearGradient>
<linearGradient id="paint1_linear_1_11" x1="611.916" y1="1456.5" x2="1203.18" y2="1105.84" gradientUnits="userSpaceOnUse">
<stop offset="0.088581" stop-color="#787878"/>
<stop offset="1" stop-color="#B1B1B1"/>
</linearGradient>
<linearGradient id="paint2_linear_1_11" x1="918.487" y1="458.412" x2="708.043" y2="1233.19" gradientUnits="userSpaceOnUse">
<stop stop-color="#FFA564"/>
<stop offset="1" stop-color="#DC8554"/>
</linearGradient>
<linearGradient id="paint3_linear_1_11" x1="1337.54" y1="927.496" x2="1123.93" y2="1700.68" gradientUnits="userSpaceOnUse">
<stop stop-color="#FFA564"/>
<stop offset="1" stop-color="#DC8554"/>
</linearGradient>
<linearGradient id="paint4_linear_1_11" x1="5039" y1="389" x2="5039" y2="1521" gradientUnits="userSpaceOnUse">
<stop offset="0.0104167" stop-color="#FC8A49"/>
<stop offset="1" stop-color="#FF8E4E"/>
</linearGradient>
</defs>
</svg>
