<svg width="2231" height="1358" xmlns="http://www.w3.org/2000/svg" xmlns:xlink="http://www.w3.org/1999/xlink" xml:space="preserve" overflow="hidden"><defs><clipPath id="clip0"><rect x="0" y="0" width="2231" height="1358"/></clipPath></defs><g clip-path="url(#clip0)"><rect x="0" y="0" width="2231" height="1358" fill="#FFFFFF"/><rect x="161" y="1082" width="1623" height="121" fill="#FFFFFF"/><text font-family="Calibri,Calibri_MSFontService,sans-serif" font-weight="700" font-size="64" transform="matrix(1 0 0 1 485.309 1161)">Figure 3: The Agricultural Revolution</text><rect x="134" y="151" width="1172" height="83.0002" stroke="#000000" stroke-width="2.29167" stroke-linejoin="round" stroke-miterlimit="10" fill="#FF0000"/><text fill="#FFFFFF" font-family="Calibri,Calibri_MSFontService,sans-serif" font-weight="700" font-size="50" transform="matrix(1 0 0 1 632.397 199)">LABOUR</text><rect x="347.5" y="230.5" width="739" height="351" stroke="#507E32" stroke-width="4.58333" stroke-miterlimit="8" fill="#70AD47"/><text font-family="Calibri,Calibri_MSFontService,sans-serif" font-weight="700" font-size="50" transform="matrix(1 0 0 1 646.383 422)">GROW</text><rect x="1083.5" y="230.5" width="220" height="354" stroke="#BC8C00" stroke-width="4.58333" stroke-miterlimit="8" fill="#FFC000"/><text font-family="Calibri,Calibri_MSFontService,sans-serif" font-weight="700" font-size="50" transform="matrix(6.12323e-17 1 -1 6.12323e-17 1175.86 310)">HARVEST</text><rect x="134.5" y="227.5" width="216" height="354" stroke="#AE5A21" stroke-width="4.58333" stroke-miterlimit="8" fill="#ED7D31"/><text font-family="Calibri,Calibri_MSFontService,sans-serif" font-weight="700" font-size="50" transform="matrix(6.12323e-17 -1 1 6.12323e-17 258.996 451)">SEW</text><path d="M141.5 710.251 1238 710.251 1238 677.5 1303.5 743 1238 808.5 1238 775.751 141.5 775.751Z" stroke="#2F528F" stroke-width="4.58333" stroke-miterlimit="8" fill="#4472C4" fill-rule="evenodd"/><text fill="#FFFFFF" font-family="Calibri,Calibri_MSFontService,sans-serif" font-weight="700" font-size="50" transform="matrix(1 0 0 1 532.014 752)">TIME (1 YEAR)</text><rect x="1357.5" y="230.5" width="331" height="354" stroke="#BC8C00" stroke-width="4.58333" stroke-miterlimit="8" fill="#FFC000"/><text fill="#FFFFFF" font-family="Calibri,Calibri_MSFontService,sans-serif" font-weight="700" font-size="50" transform="matrix(1 0 0 1 1454.63 424)">STORE</text><path d="M1521.71 230 1521.71 85.6247 1522.86 86.7705 51.5026 86.7705 52.6484 85.6247 52.6484 403.594 51.5026 402.448 111.083 402.448 111.083 404.74 50.3567 404.74 50.3567 84.4788 1524 84.4788 1524 230ZM106.5 389.844 134 403.594 106.5 417.344Z" fill="#4472C4"/><rect x="1804.5" y="230.5" width="317" height="354" stroke="#000000" stroke-width="4.58333" stroke-miterlimit="8"/><text fill="#FFFFFF" font-family="Calibri,Calibri_MSFontService,sans-serif" font-weight="700" font-size="50" transform="matrix(1 0 0 1 1872.48 424)">MARKET</text><path d="M1688 405.854 1781.42 405.854 1781.42 408.146 1688 408.146ZM1776.84 393.25 1804.34 407 1776.84 420.75Z" fill="#4472C4"/><rect x="1357.5" y="663.5" width="331" height="135" stroke="#BC8C00" stroke-width="4.58333" stroke-miterlimit="8" fill="#FFC000"/><text fill="#FFFFFF" font-family="Calibri,Calibri_MSFontService,sans-serif" font-weight="700" font-size="50" transform="matrix(1 0 0 1 1383.19 747)">SUSTENANCE</text><rect x="1804.5" y="663.5" width="317" height="131" stroke="#000000" stroke-width="4.58333" stroke-miterlimit="8"/><text fill="#FFFFFF" font-family="Calibri,Calibri_MSFontService,sans-serif" font-weight="700" font-size="50" transform="matrix(1 0 0 1 1872.78 746)">WEALTH</text><path d="M1.14583-0.00302833 1.29422 56.1432-0.997439 56.1493-1.14583 0.00302833ZM13.8862 51.5266 0.208957 79.0629-13.6137 51.5993Z" fill="#4472C4" transform="matrix(-1 0 0 1 1522.21 584)"/><path d="M1.14582-0.0044039 1.36162 56.1416-0.930031 56.1504-1.14582 0.0044039ZM13.9481 51.5099 0.303871 79.0625-13.5517 51.6156Z" fill="#4472C4" transform="matrix(-1 0 0 1 1962.3 584)"/><rect x="1495" y="931" width="454" height="100" stroke="#000000" stroke-width="2.29167" stroke-linejoin="round" stroke-miterlimit="10" fill="#FF0000"/><text fill="#FFFFFF" font-family="Calibri,Calibri_MSFontService,sans-serif" font-weight="400" font-size="50" transform="matrix(1 0 0 1 1634.77 998)">FARMER</text><path d="M1963.2 794 1963.2 867.748 1722 867.748 1723.15 866.602 1723.15 908.431 1720.85 908.431 1720.85 865.456 1962.05 865.456 1960.91 866.602 1960.91 794ZM1735.75 903.848 1722 931.348 1708.25 903.848Z" fill="#4472C4"/><path d="M0 0 66.9549 0 66.9549 199.829 133.91 199.829" stroke="#4472C4" stroke-width="2.29167" stroke-miterlimit="8" fill="none" fill-rule="evenodd" transform="matrix(1.83697e-16 1 1 -1.83697e-16 1522 798)"/><path d="M0.00851164-1.1458 31.6013-0.911113 31.5843 1.38049-0.00851164 1.1458ZM27.1117-13.549 54.5088 0.404921 26.9074 13.9503Z" fill="#4472C4" transform="matrix(1 0 0 -1 1303 407.405)"/></g></svg>