<svg width="2323" height="1248" xmlns="http://www.w3.org/2000/svg" xmlns:xlink="http://www.w3.org/1999/xlink" xml:space="preserve" overflow="hidden"><defs><clipPath id="clip0"><rect x="0" y="0" width="2323" height="1248"/></clipPath></defs><g clip-path="url(#clip0)"><rect x="0" y="0" width="2317" height="1248" fill="#FFFFFF"/><path d="M0 0 3.45482 195.938" stroke="#FFC000" stroke-width="12.6042" stroke-miterlimit="8" fill="none" fill-rule="evenodd" transform="matrix(-1 0 0 1 292.955 433.5)"/><path d="M474.5 423.5 474.515 619.438" stroke="#FFC000" stroke-width="12.6042" stroke-miterlimit="8" fill="none" fill-rule="evenodd"/><rect x="1186.5" y="219.5" width="174" height="460" stroke="#FFC000" stroke-width="12.6042" stroke-miterlimit="8" fill="none"/><rect x="107.5" y="41.5001" width="1639" height="977" stroke="#70AD47" stroke-width="36.6667" stroke-miterlimit="8" fill="#E2F0D9" fill-opacity="0.180392"/><rect x="808.5" y="212.5" width="189" height="465" stroke="#FFC000" stroke-width="12.6042" stroke-miterlimit="8" fill="none"/><path d="M0 0 5.04167 178.521" stroke="#FFC000" stroke-width="12.6042" stroke-miterlimit="8" fill="none" fill-rule="evenodd" transform="matrix(-1 0 0 1 1290.54 37.5)"/><path d="M0 0 5.04167 178.521" stroke="#FFC000" stroke-width="12.6042" stroke-miterlimit="8" fill="none" fill-rule="evenodd" transform="matrix(-1 0 0 1 1524.54 40.5001)"/><path d="M0 0 5.23944 178.712" stroke="#FFC000" stroke-width="12.6042" stroke-miterlimit="8" fill="none" fill-rule="evenodd" transform="matrix(-1 0 0 1 842.739 34.4999)"/><text font-family="Calibri,Calibri_MSFontService,sans-serif" font-weight="700" font-size="62" transform="matrix(1 0 0 1 622.017 1126)">Figure 7: Industrial Cadastral</text><rect x="633.5" y="37.5" width="409" height="175" stroke="#2F528F" stroke-width="12.6042" stroke-miterlimit="8" fill="none"/><rect x="1048.5" y="37.5" width="698" height="175" stroke="#2F528F" stroke-width="12.6042" stroke-miterlimit="8" fill="none"/><path d="M629.5 371.5 1361.69 374.938" stroke="#FFC000" stroke-width="12.6042" stroke-miterlimit="8" fill="none" fill-rule="evenodd"/><path d="M632.5 525.5 1364.46 528.708" stroke="#FFC000" stroke-width="12.6042" stroke-miterlimit="8" fill="none" fill-rule="evenodd"/><rect x="629.5" y="216.5" width="732" height="464" stroke="#2F528F" stroke-width="12.6042" stroke-miterlimit="8" fill="none"/><path d="M1009.4 415.688 991.134 470.774 1027.74 470.774ZM1009.35 411.678 1009.45 411.678C1009.88 411.678 1010.27 411.954 1010.4 412.363L1030.07 471.458C1030.17 471.763 1030.12 472.098 1029.94 472.359 1029.75 472.62 1029.45 472.774 1029.12 472.774L989.749 472.774C989.428 472.774 989.126 472.62 988.938 472.359 988.75 472.099 988.699 471.764 988.8 471.459L1008.4 412.364C1008.53 411.955 1008.92 411.678 1009.35 411.678ZM1009.79 386.5 1004.91 386.586 1001.08 386.708 998.279 386.938 996.117 387.418 994.728 388.006 993.865 388.773 992.506 391.415 949.64 514.762 948.602 518.046 948.065 520.552 948.117 522.229 948.602 523.287 949.717 524.03 951.841 524.533 955.013 524.774 959.422 524.837 963.566 524.776 966.753 524.594 969.179 524.308 970.885 523.853 972.76 522.551 973.735 520.341 982.548 493.153C982.681 492.741 983.066 492.462 983.499 492.462L1035.69 492.462C1036.12 492.462 1036.5 492.736 1036.63 493.143L1045.97 520.972 1046.95 523.048 1047.55 523.605 1048.66 524.06 1050.47 524.403 1053.1 524.65 1056.7 524.774 1061.55 524.837 1066.24 524.777 1069.71 524.538 1072.09 524.131 1073.33 523.414 1073.87 522.501 1073.87 520.877 1073.35 518.366 1072.37 514.979 1029.38 391.816 1028.72 390.09 1027.97 388.858 1027.03 388.018 1025.47 387.425 1023.18 386.959 1019.85 386.711 1015.48 386.586ZM1009.76 384.501 1015.51 384.587 1019.9 384.712 1023.32 384.964 1025.95 385.481C1026 385.492 1026.05 385.507 1026.1 385.527L1027.92 386.214C1028.03 386.258 1028.14 386.322 1028.23 386.404L1029.42 387.466C1029.49 387.532 1029.55 387.608 1029.6 387.692L1030.48 389.129C1030.51 389.182 1030.54 389.237 1030.56 389.294L1031.25 391.107 1074.26 514.32 1075.27 517.807 1075.85 520.569C1075.87 520.637 1075.87 520.705 1075.87 520.774L1075.87 522.774C1075.87 522.953 1075.83 523.129 1075.73 523.283L1074.92 524.658C1074.83 524.806 1074.71 524.929 1074.56 525.015L1072.94 525.953C1072.83 526.012 1072.72 526.052 1072.6 526.072L1070.04 526.51 1066.38 526.772 1061.57 526.836 1056.67 526.774 1053.03 526.648 1050.28 526.395 1048.19 526.007C1048.12 525.995 1048.06 525.975 1048 525.95L1046.62 525.387C1046.51 525.342 1046.41 525.276 1046.32 525.194L1045.44 524.382C1045.35 524.295 1045.27 524.191 1045.22 524.076L1044.16 521.826 1034.97 494.462 984.226 494.462 975.638 520.957 974.477 523.614C974.403 523.783 974.284 523.928 974.132 524.033L971.882 525.595C971.787 525.661 971.681 525.711 971.569 525.74L969.694 526.24 966.995 526.579 963.682 526.772 959.451 526.836 954.985 526.774 951.611 526.521C951.559 526.517 951.507 526.509 951.456 526.497L949.081 525.935C948.966 525.907 948.856 525.859 948.757 525.794L947.257 524.794C947.102 524.691 946.98 524.547 946.902 524.378L946.215 522.878C946.159 522.757 946.129 522.626 946.125 522.493L946.062 520.493C946.06 520.412 946.067 520.331 946.084 520.252L946.646 517.627 947.733 514.161 990.617 390.758 992.171 387.694C992.227 387.584 992.304 387.484 992.397 387.402L993.522 386.402C993.604 386.329 993.696 386.271 993.797 386.228L995.422 385.541C995.478 385.517 995.536 385.499 995.595 385.485L997.845 384.985 1000.91 384.715 1004.84 384.587Z" fill="#ED7D31" fill-rule="evenodd"/><path d="M1002.19 405.526 982.536 464.608 1021.96 464.608 1002.3 405.526ZM1002.62 378.348C1006.85 378.348 1010.22 378.402 1012.72 378.509 1015.23 378.617 1017.18 378.868 1018.58 379.261 1019.97 379.655 1020.98 380.246 1021.58 381.034 1022.19 381.822 1022.71 382.896 1023.14 384.257L1066.11 507.469C1066.97 510.048 1067.51 512.089 1067.72 513.592 1067.94 515.096 1067.65 516.224 1066.86 516.976 1066.07 517.728 1064.68 518.194 1062.67 518.373 1060.67 518.552 1057.91 518.641 1054.4 518.641 1050.75 518.641 1047.9 518.588 1045.86 518.48 1043.82 518.373 1042.26 518.158 1041.19 517.836 1040.11 517.513 1039.36 517.066 1038.93 516.493 1038.5 515.92 1038.14 515.168 1037.86 514.237L1028.51 486.307 976.306 486.307 967.497 513.485C967.211 514.488 966.835 515.329 966.369 516.009 965.904 516.69 965.152 517.227 964.113 517.621 963.075 518.015 961.607 518.283 959.709 518.426 957.811 518.57 955.323 518.641 952.243 518.641 948.949 518.641 946.371 518.534 944.509 518.319 942.647 518.104 941.358 517.585 940.642 516.761 939.926 515.938 939.675 514.774 939.89 513.27 940.105 511.766 940.642 509.761 941.501 507.255L984.362 383.934C984.792 382.717 985.293 381.732 985.866 380.98 986.439 380.228 987.352 379.655 988.606 379.261 989.859 378.868 991.595 378.617 993.815 378.509 996.036 378.402 998.972 378.348 1002.62 378.348Z" stroke="#ED7D31" stroke-width="2" stroke-linejoin="round" stroke-miterlimit="10" fill="none" fill-rule="evenodd"/><text fill="#000000" fill-opacity="0" font-family="Arial,Arial_MSFontService,sans-serif" font-size="140.293" x="939.815" y="501.105">A</text><rect x="1358.5" y="216.5" width="203" height="791" stroke="#FFC000" stroke-width="12.6042" stroke-miterlimit="8" fill="none"/><rect x="1361.5" y="212.5" width="385" height="117" stroke="#FFC000" stroke-width="12.6042" stroke-miterlimit="8" fill="none"/><rect x="1364.5" y="436.5" width="385" height="116" stroke="#FFC000" stroke-width="12.6042" stroke-miterlimit="8" fill="none"/><rect x="1361.5" y="662.5" width="385" height="117" stroke="#FFC000" stroke-width="12.6042" stroke-miterlimit="8" fill="none"/><rect x="1361.5" y="212.5" width="385" height="571" stroke="#2F528F" stroke-width="12.6042" stroke-miterlimit="8" fill="none"/><path d="M1572.09 456.698 1556.39 456.699 1556.4 494.26 1575.84 494.26 1581.15 493.953 1585.49 493.049 1589.06 491.618 1592.14 489.608 1594.6 487.086 1596.42 483.974 1597.61 480.304 1598.02 476.133 1597.6 471.762 1596.47 467.897 1594.65 464.603 1592.07 461.849 1588.7 459.721 1584.44 458.1 1579.03 457.054ZM1555.39 454.699 1572.2 454.701 1579.41 455.09 1584.91 456.153C1584.96 456.164 1585.02 456.18 1585.07 456.2L1589.51 457.888C1589.57 457.911 1589.63 457.941 1589.69 457.977L1593.25 460.227C1593.32 460.272 1593.39 460.327 1593.45 460.389L1596.2 463.326C1596.25 463.386 1596.3 463.453 1596.34 463.525L1598.28 467.025C1598.31 467.09 1598.34 467.158 1598.36 467.229L1599.55 471.292C1599.57 471.352 1599.58 471.414 1599.59 471.477L1600.02 476.039C1600.03 476.104 1600.03 476.169 1600.02 476.234L1599.59 480.609C1599.58 480.68 1599.56 480.749 1599.54 480.817L1598.29 484.692C1598.27 484.761 1598.24 484.827 1598.2 484.89L1596.27 488.202C1596.23 488.272 1596.18 488.338 1596.12 488.396L1593.49 491.083C1593.44 491.135 1593.39 491.182 1593.33 491.222L1590.08 493.347C1590.02 493.383 1589.96 493.414 1589.9 493.438L1586.15 494.938C1586.1 494.96 1586.04 494.977 1585.98 494.989L1581.48 495.926C1581.43 495.936 1581.39 495.943 1581.34 495.946L1575.84 496.26 1555.4 496.26C1554.85 496.26 1554.4 495.812 1554.4 495.26L1554.39 455.7C1554.39 455.147 1554.84 454.699 1555.39 454.699ZM1569.62 399.979 1556.39 399.98 1556.4 434.135 1571.22 434.135 1576.55 433.769 1580.61 432.694 1583.79 431.105 1586.3 429 1588.3 426.422 1589.71 423.42 1590.54 420.156 1590.84 416.631 1590.54 412.813 1589.59 409.503 1588.14 406.65 1586 404.337 1583.31 402.524 1579.87 401.162 1575.4 400.304ZM1555.39 397.98 1569.73 397.982 1575.78 398.34 1580.34 399.215C1580.4 399.227 1580.46 399.245 1580.52 399.268L1584.15 400.705C1584.21 400.732 1584.28 400.765 1584.34 400.805L1587.21 402.743C1587.28 402.786 1587.34 402.836 1587.39 402.893L1589.7 405.393C1589.76 405.46 1589.81 405.536 1589.86 405.618L1591.42 408.68C1591.45 408.738 1591.47 408.798 1591.49 408.86L1592.49 412.36C1592.51 412.424 1592.52 412.49 1592.53 412.557L1592.84 416.557C1592.84 416.611 1592.84 416.665 1592.84 416.719L1592.52 420.407C1592.52 420.461 1592.51 420.516 1592.5 420.569L1591.62 424.006C1591.61 424.068 1591.59 424.128 1591.56 424.186L1590.06 427.373C1590.03 427.439 1589.99 427.501 1589.94 427.559L1587.82 430.309C1587.78 430.366 1587.73 430.418 1587.67 430.464L1584.98 432.714C1584.92 432.764 1584.86 432.807 1584.79 432.842L1581.41 434.529C1581.35 434.56 1581.29 434.584 1581.22 434.601L1576.97 435.726C1576.91 435.743 1576.85 435.753 1576.78 435.757L1571.22 436.135 1555.4 436.135C1554.85 436.135 1554.4 435.687 1554.4 435.135L1554.39 398.981C1554.39 398.428 1554.84 397.98 1555.39 397.98ZM1536.14 378.818 1533.18 379.34 1530.8 380.694 1529.3 383.057 1528.72 386.836 1528.72 507.871 1529.3 511.65 1530.8 514.013 1533.17 515.362 1536.17 515.822 1573 515.823 1580.92 515.578 1588.02 514.841 1594.55 513.552 1600.7 511.714 1606.34 509.329 1611.53 506.367 1616.03 502.775 1619.86 498.643 1623.02 493.787 1625.39 488.257 1626.85 482.108 1627.34 475.199 1626.85 468.615 1625.27 462.734 1622.79 457.584 1619.58 453.106 1615.71 449.419 1611.17 446.391 1606.14 444.207 1600.52 442.727C1600.11 442.618 1599.82 442.262 1599.78 441.839 1599.75 441.416 1599.99 441.017 1600.37 440.845L1604.67 438.943 1608.35 436.47 1611.55 433.572 1614.2 430.26 1616.31 426.525 1617.8 422.486 1618.79 417.933 1619.09 413.24 1618.92 408.974 1618.31 405.017 1617.35 401.39 1615.95 397.976 1612.13 392.096 1607 387.324 1600.37 383.616 1592.46 380.99 1587.83 380.064 1582.7 379.382 1577.13 378.947 1570.97 378.822ZM1536.05 376.818 1570.97 376.822 1577.17 376.947 1582.86 377.388 1588.1 378.081 1592.85 379.029 1601.09 381.748C1601.15 381.768 1601.21 381.793 1601.27 381.825L1608.08 385.637C1608.15 385.676 1608.21 385.723 1608.27 385.777L1613.58 390.715C1613.64 390.771 1613.7 390.834 1613.74 390.903L1617.68 396.965C1617.71 397.017 1617.74 397.072 1617.77 397.13L1619.2 400.63 1620.24 404.502 1620.89 408.67 1621.09 413.154 1620.78 418.136C1620.77 418.186 1620.77 418.235 1620.76 418.284L1619.76 422.909 1618.15 427.292C1618.14 427.343 1618.11 427.392 1618.09 427.439L1615.9 431.314C1615.87 431.36 1615.84 431.405 1615.81 431.447L1613.06 434.884C1613.03 434.926 1612.99 434.965 1612.95 435.001L1609.64 438.001C1609.6 438.033 1609.56 438.063 1609.52 438.09L1605.71 440.652C1605.66 440.685 1605.61 440.713 1605.56 440.737L1603.79 441.52 1606.72 442.293C1606.77 442.306 1606.82 442.322 1606.86 442.342L1612.05 444.592C1612.11 444.616 1612.16 444.645 1612.21 444.678L1616.9 447.803C1616.94 447.835 1616.99 447.871 1617.03 447.911L1621.03 451.723C1621.08 451.767 1621.12 451.814 1621.15 451.865L1624.47 456.49C1624.5 456.537 1624.53 456.586 1624.55 456.638L1627.12 461.95C1627.14 462.007 1627.17 462.065 1627.18 462.126L1628.81 468.188C1628.82 468.249 1628.83 468.311 1628.84 468.373L1629.34 475.123C1629.34 475.171 1629.34 475.22 1629.34 475.268L1628.84 482.33C1628.83 482.384 1628.83 482.438 1628.81 482.491L1627.31 488.803C1627.3 488.859 1627.28 488.914 1627.26 488.966L1624.82 494.654C1624.8 494.706 1624.77 494.757 1624.74 494.805L1621.49 499.805C1621.46 499.853 1621.43 499.897 1621.39 499.939L1617.45 504.189C1617.42 504.226 1617.38 504.26 1617.34 504.292L1612.71 507.979C1612.67 508.011 1612.63 508.04 1612.59 508.065L1607.34 511.065 1601.48 513.555 1595.13 515.468 1588.41 516.803 1581.13 517.567 1573.06 517.822 1536.09 517.822C1536.04 517.822 1535.99 517.818 1535.94 517.811L1532.69 517.311C1532.57 517.292 1532.45 517.252 1532.35 517.192L1529.6 515.629C1529.45 515.549 1529.33 515.434 1529.25 515.297L1527.5 512.547C1527.42 512.43 1527.37 512.299 1527.35 512.162L1526.73 508.099C1526.72 508.049 1526.72 507.998 1526.72 507.947L1526.72 386.76C1526.72 386.709 1526.72 386.658 1526.73 386.608L1527.35 382.545C1527.37 382.408 1527.42 382.277 1527.5 382.16L1529.25 379.41C1529.33 379.273 1529.45 379.158 1529.6 379.078L1532.35 377.515C1532.45 377.459 1532.55 377.42 1532.67 377.4L1535.88 376.833C1535.94 376.823 1536 376.818 1536.05 376.818Z" fill="#ED7D31" fill-rule="evenodd"/><path d="M1548.24 448.547 1548.24 488.078 1568.65 488.078C1572.59 488.078 1575.9 487.666 1578.58 486.843 1581.27 486.019 1583.6 484.802 1585.57 483.19 1587.54 481.579 1589.08 479.574 1590.19 477.175 1591.3 474.776 1591.85 472.036 1591.85 468.957 1591.85 465.734 1591.31 462.852 1590.24 460.31 1589.17 457.767 1587.59 455.637 1585.51 453.918 1583.44 452.199 1580.79 450.874 1577.56 449.943 1574.34 449.012 1570.15 448.547 1565 448.547ZM1548.24 391.828 1548.24 427.922 1564.03 427.922C1568.11 427.922 1571.37 427.438 1573.8 426.472 1576.24 425.505 1578.26 424.18 1579.87 422.497 1581.48 420.814 1582.68 418.845 1583.47 416.589 1584.26 414.333 1584.65 411.952 1584.65 409.445 1584.65 406.652 1584.22 404.146 1583.36 401.926 1582.51 399.706 1581.22 397.862 1579.5 396.394 1577.78 394.925 1575.61 393.798 1573 393.01 1570.38 392.222 1566.89 391.828 1562.52 391.828ZM1528.9 370.666 1563.81 370.666C1572.34 370.666 1579.55 371.382 1585.46 372.814 1591.37 374.247 1596.34 376.413 1600.39 379.313 1604.44 382.214 1607.53 385.884 1609.68 390.324 1611.83 394.764 1612.91 399.992 1612.91 406.008 1612.91 409.374 1612.48 412.543 1611.62 415.515 1610.76 418.487 1609.5 421.19 1607.86 423.625 1606.21 426.06 1604.19 428.208 1601.79 430.07 1599.39 431.932 1596.65 433.436 1593.57 434.582 1597.51 435.298 1601.14 436.551 1604.47 438.342 1607.8 440.132 1610.7 442.442 1613.17 445.27 1615.64 448.099 1617.6 451.411 1619.03 455.207 1620.46 459.003 1621.18 463.264 1621.18 467.99 1621.18 472.932 1620.5 477.408 1619.14 481.418 1617.78 485.428 1615.9 488.973 1613.5 492.053 1611.1 495.132 1608.23 497.782 1604.9 500.002 1601.57 502.222 1597.9 504.048 1593.89 505.48 1589.88 506.913 1585.6 507.969 1581.05 508.649 1576.51 509.33 1571.44 509.67 1565.85 509.67L1528.9 509.67C1526.54 509.67 1524.55 508.972 1522.94 507.575 1521.33 506.179 1520.52 503.905 1520.52 500.754L1520.52 379.582C1520.52 376.431 1521.33 374.157 1522.94 372.761 1524.55 371.364 1526.54 370.666 1528.9 370.666Z" stroke="#ED7D31" stroke-width="2" stroke-linejoin="round" stroke-miterlimit="10" fill="none" fill-rule="evenodd"/><text fill="#000000" fill-opacity="0" font-family="Arial,Arial_MSFontService,sans-serif" font-size="139.004" x="1520.52" y="492.294">B</text><path d="M1145.5 797.5 1355.19 797.5" stroke="#FFC000" stroke-width="12.6042" stroke-miterlimit="8" fill="none" fill-rule="evenodd"/><path d="M1148.5 896.5 1358.19 896.5" stroke="#FFC000" stroke-width="12.6042" stroke-miterlimit="8" fill="none" fill-rule="evenodd"/><rect x="1144.5" y="683.5" width="214" height="320" stroke="#2F528F" stroke-width="12.6042" stroke-miterlimit="8" fill="none"/><rect x="110.5" y="636.5" width="127" height="375" stroke="#FFC000" stroke-width="12.6042" stroke-miterlimit="8" fill="none"/><rect x="237.5" y="635.5" width="126" height="375" stroke="#FFC000" stroke-width="12.6042" stroke-miterlimit="8" fill="none"/><rect x="364.5" y="635.5" width="127" height="375" stroke="#FFC000" stroke-width="12.6042" stroke-miterlimit="8" fill="none"/><rect x="494.5" y="635.5" width="127" height="375" stroke="#FFC000" stroke-width="12.6042" stroke-miterlimit="8" fill="none"/><path d="M0 0 518.833 3.4375" stroke="#FFC000" stroke-width="12.6042" stroke-miterlimit="8" fill="none" fill-rule="evenodd" transform="matrix(1 0 0 -1 103.5 769.938)"/><path d="M0 0 518.604 3.20833" stroke="#FFC000" stroke-width="12.6042" stroke-miterlimit="8" fill="none" fill-rule="evenodd" transform="matrix(1 0 0 -1 103.5 893.708)"/><path d="M0 0 109.771 110" stroke="#FFC000" stroke-width="12.6042" stroke-miterlimit="8" fill="none" fill-rule="evenodd" transform="matrix(-1 0 0 1 618.271 894.5)"/><path d="M0 0 236.531 240.748" stroke="#FFC000" stroke-width="12.6042" stroke-miterlimit="8" fill="none" fill-rule="evenodd" transform="matrix(-1 0 0 1 612.031 766.5)"/><path d="M0 0 377.896 364.375" stroke="#FFC000" stroke-width="12.6042" stroke-miterlimit="8" fill="none" fill-rule="evenodd" transform="matrix(-1 0 0 1 615.396 650.5)"/><path d="M0 0 384.771 367.812" stroke="#FFC000" stroke-width="12.6042" stroke-miterlimit="8" fill="none" fill-rule="evenodd" transform="matrix(-1 0 0 1 491.271 643.5)"/><path d="M0 0 257.583 244.062" stroke="#FFC000" stroke-width="12.6042" stroke-miterlimit="8" fill="none" fill-rule="evenodd" transform="matrix(-1 0 0 1 364.083 646.5)"/><path d="M0 0 126.958 123.75" stroke="#FFC000" stroke-width="12.6042" stroke-miterlimit="8" fill="none" fill-rule="evenodd" transform="matrix(-1 0 0 1 237.458 643.5)"/><rect x="106.5" y="625.5" width="523" height="386" stroke="#2F528F" stroke-width="12.6042" stroke-miterlimit="8" fill="none"/><rect x="110.5" y="52.5001" width="127" height="375" stroke="#FFC000" stroke-width="12.6042" stroke-miterlimit="8" fill="none"/><rect x="237.5" y="51.5001" width="126" height="375" stroke="#FFC000" stroke-width="12.6042" stroke-miterlimit="8" fill="none"/><rect x="364.5" y="51.5001" width="127" height="375" stroke="#FFC000" stroke-width="12.6042" stroke-miterlimit="8" fill="none"/><rect x="495.5" y="51.5001" width="126" height="375" stroke="#FFC000" stroke-width="12.6042" stroke-miterlimit="8" fill="none"/><path d="M0 0 518.684 3.4375" stroke="#FFC000" stroke-width="12.6042" stroke-miterlimit="8" fill="none" fill-rule="evenodd" transform="matrix(1 0 0 -1 103.5 186.938)"/><path d="M0 0 518.455 3.20833" stroke="#FFC000" stroke-width="12.6042" stroke-miterlimit="8" fill="none" fill-rule="evenodd" transform="matrix(1 0 0 -1 103.5 309.708)"/><path d="M0 0 109.739 109.999" stroke="#FFC000" stroke-width="12.6042" stroke-miterlimit="8" fill="none" fill-rule="evenodd" transform="matrix(-1 0 0 1 619.239 310.5)"/><path d="M0 0 236.464 240.745" stroke="#FFC000" stroke-width="12.6042" stroke-miterlimit="8" fill="none" fill-rule="evenodd" transform="matrix(-1 0 0 1 611.963 183.5)"/><path d="M0 0 377.787 364.371" stroke="#FFC000" stroke-width="12.6042" stroke-miterlimit="8" fill="none" fill-rule="evenodd" transform="matrix(-1 0 0 1 615.287 66.4998)"/><path d="M0 0 384.66 367.808" stroke="#FFC000" stroke-width="12.6042" stroke-miterlimit="8" fill="none" fill-rule="evenodd" transform="matrix(-1 0 0 1 491.16 59.5)"/><path d="M0 0 257.509 244.06" stroke="#FFC000" stroke-width="12.6042" stroke-miterlimit="8" fill="none" fill-rule="evenodd" transform="matrix(-1 0 0 1 364.009 62.5001)"/><path d="M0 0 126.922 123.749" stroke="#FFC000" stroke-width="12.6042" stroke-miterlimit="8" fill="none" fill-rule="evenodd" transform="matrix(-1 0 0 1 237.422 59.5)"/><rect x="107.5" y="41.5001" width="522" height="386" stroke="#2F528F" stroke-width="12.6042" stroke-miterlimit="8" fill="none"/><rect x="112.5" y="42.5001" width="1631" height="970" stroke="#70AD47" stroke-width="30.9375" stroke-miterlimit="8" fill="none"/><rect x="1843.5" y="793.5" width="106" height="90.0001" stroke="#2F528F" stroke-width="12.6042" stroke-miterlimit="8" fill="none"/><rect x="1843.5" y="924.5" width="106" height="83.0002" stroke="#FFC000" stroke-width="12.6042" stroke-miterlimit="8" fill="none"/><text font-family="Calibri,Calibri_MSFontService,sans-serif" font-weight="400" font-size="50" transform="matrix(1 0 0 1 2003.91 850)">business</text><text font-family="Calibri,Calibri_MSFontService,sans-serif" font-weight="400" font-size="50" transform="matrix(1 0 0 1 2000.48 968)">share</text><rect x="1842.5" y="659.5" width="107" height="88.9997" stroke="#70AD47" stroke-width="12.6042" stroke-miterlimit="8" fill="none"/><text font-family="Calibri,Calibri_MSFontService,sans-serif" font-weight="400" font-size="50" transform="matrix(1 0 0 1 2000.48 724)">territory</text><rect x="1844" y="529" width="106" height="89.0001" fill="#FF0000"/><text font-family="Calibri,Calibri_MSFontService,sans-serif" font-weight="400" font-size="50" transform="matrix(1 0 0 1 2002.19 594)">Shareholder 2</text><rect x="1846" y="405" width="106" height="90.0001" fill="#A5A5A5"/><text font-family="Calibri,Calibri_MSFontService,sans-serif" font-weight="400" font-size="50" transform="matrix(1 0 0 1 2004.03 470)">Shareholder 1</text></g></svg>