<svg width="2068" height="1186" xmlns="http://www.w3.org/2000/svg" xmlns:xlink="http://www.w3.org/1999/xlink" xml:space="preserve" overflow="hidden"><defs><clipPath id="clip0"><rect x="0" y="0" width="2068" height="1186"/></clipPath></defs><g clip-path="url(#clip0)"><path d="M63.5021 528.5 63.5021 550.034 1867.5 550.034 1867.5 575.873 63.5021 575.873 63.5021 597.406 41.4999 562.954Z" stroke="#0EFA0E" stroke-width="4.58333" stroke-miterlimit="8" fill="#0EFA0E" fill-rule="evenodd"/><path d="M1515.54 672.5 1515.54 649.062 825.5 649.062 825.5 620.938 1515.54 620.938 1515.54 597.5 1539.5 635Z" stroke="#203864" stroke-width="4.58333" stroke-miterlimit="8" fill="#4472C4" fill-rule="evenodd"/><path d="M846.13 454.5 846.13 477.625 1539.5 477.625 1539.5 505.375 846.13 505.375 846.13 528.5 822.5 491.5Z" stroke="#843C0C" stroke-width="4.58333" stroke-miterlimit="8" fill="#FF0000" fill-rule="evenodd"/><path d="M297.5 852.233 321.25 852.233 321.25 234.5 349.75 234.5 349.75 852.233 373.5 852.233 335.5 876.5Z" stroke="#203864" stroke-width="4.58333" stroke-miterlimit="8" fill="#4472C4" fill-rule="evenodd"/><path d="M493.5 262.15 470.375 262.15 470.375 866.5 442.625 866.5 442.625 262.15 419.5 262.15 456.5 238.5Z" stroke="#843C0C" stroke-width="4.58333" stroke-miterlimit="8" fill="#FF0000" fill-rule="evenodd"/><text font-family="Calibri,Calibri_MSFontService,sans-serif" font-weight="700" font-size="62" transform="matrix(1 0 0 1 676.245 1087)">Figure 7: Production Network</text><rect x="194.5" y="326.5" width="422" height="128" stroke="#1F4E79" stroke-width="4.58333" stroke-miterlimit="8" fill="#5B9BD5"/><text fill="#FFFFFF" font-family="Calibri,Calibri_MSFontService,sans-serif" font-weight="700" font-size="46" transform="matrix(1 0 0 1 276.691 419)">COMPONENT</text><rect x="192.5" y="687.5" width="434" height="107" stroke="#843C0C" stroke-width="4.58333" stroke-miterlimit="8" fill="#ED7D31"/><text fill="#FFFFFF" font-family="Calibri,Calibri_MSFontService,sans-serif" font-weight="700" font-size="41" transform="matrix(1 0 0 1 319.986 742)">MATERIAL</text><rect x="194.5" y="498.5" width="428" height="135" stroke="#385723" stroke-width="4.58333" stroke-miterlimit="8" fill="#70AD47"/><text fill="#FFFFFF" font-family="Calibri,Calibri_MSFontService,sans-serif" font-weight="700" font-size="41" transform="matrix(1 0 0 1 241.332 547)">TRANSFORMATION</text><rect x="1327.5" y="371.5" width="127" height="373" stroke="#843C0C" stroke-width="4.58333" stroke-miterlimit="8" fill="#ED7D31"/><text fill="#FFFFFF" font-family="Calibri,Calibri_MSFontService,sans-serif" font-weight="700" font-size="41" transform="matrix(6.12323e-17 -1 1 6.12323e-17 1378.22 660)">MATERIAL</text><rect x="908.5" y="371.5" width="127" height="373" stroke="#203864" stroke-width="4.58333" stroke-miterlimit="8" fill="#4472C4"/><text fill="#FFFFFF" font-family="Calibri,Calibri_MSFontService,sans-serif" font-weight="700" font-size="41" transform="matrix(6.12323e-17 -1 1 6.12323e-17 959.019 617)">TOOL</text><rect x="1145.5" y="288.5" width="120" height="539" stroke="#385723" stroke-width="4.58333" stroke-miterlimit="8" fill="#70AD47"/><text fill="#FFFFFF" font-family="Calibri,Calibri_MSFontService,sans-serif" font-weight="700" font-size="41" transform="matrix(6.12323e-17 -1 1 6.12323e-17 1192.6 737)">TRANSFORMATION</text><text font-family="Calibri,Calibri_MSFontService,sans-serif" font-weight="400" font-size="37" transform="matrix(1 0 0 1 1728.17 187)">Supply</text><path d="M1535.42 157.5 1535.42 174.062 1691.5 174.062 1691.5 193.937 1535.42 193.937 1535.42 210.5 1518.5 184Z" stroke="#843C0C" stroke-width="4.58333" stroke-miterlimit="8" fill="#FF0000" fill-rule="evenodd"/><text font-family="Calibri,Calibri_MSFontService,sans-serif" font-weight="400" font-size="37" transform="matrix(1 0 0 1 1728.37 269)">Demand</text><path d="M0 156.395 16.25 156.395 16.25 0 35.7499 0 35.7499 156.395 51.9999 156.395 26 173Z" stroke="#203864" stroke-width="4.58333" stroke-miterlimit="8" fill="#4472C4" fill-rule="evenodd" transform="matrix(1.83697e-16 1 1 -1.83697e-16 1518.5 239.5)"/><path d="M1535.42 331.5 1535.42 348.063 1691.5 348.063 1691.5 367.937 1535.42 367.937 1535.42 384.5 1518.5 358Z" stroke="#203864" stroke-width="4.58333" stroke-miterlimit="8" fill="#0EFA0E" fill-rule="evenodd"/><text font-family="Calibri,Calibri_MSFontService,sans-serif" font-weight="400" font-size="37" transform="matrix(1 0 0 1 1741.24 361)">Production</text></g></svg>