<svg width="1980" height="1364" xmlns="http://www.w3.org/2000/svg" xmlns:xlink="http://www.w3.org/1999/xlink" xml:space="preserve" overflow="hidden"><defs><clipPath id="clip0"><rect x="0" y="0" width="1980" height="1364"/></clipPath></defs><g clip-path="url(#clip0)"><rect x="1024" y="320" width="495" height="92.9998" fill="#FFFFFF"/><text font-family="Calibri,Calibri_MSFontService,sans-serif" font-weight="700" font-size="50" transform="matrix(1 0 0 1 1074.09 385)">GOODS / SERVICES</text><path d="M304.75 816.5 304.75 370.999 290.5 370.999 319 342.5 347.5 370.999 333.25 370.999 333.25 816.5Z" stroke="#AE5A21" stroke-width="4.58333" stroke-miterlimit="8" fill="#ED7D31" fill-rule="evenodd"/><path d="M469.25 342.5 469.25 788 483.5 788 455 816.5 426.5 788 440.75 788 440.75 342.5Z" stroke="#2F528F" stroke-width="4.58333" stroke-miterlimit="8" fill="#4472C4" fill-rule="evenodd"/><rect x="230" y="904" width="320" height="151" fill="#FFFFFF"/><text font-family="Calibri,Calibri_MSFontService,sans-serif" font-weight="700" font-size="50" transform="matrix(1 0 0 1 294.674 970)">SUPPLY / </text><text font-family="Calibri,Calibri_MSFontService,sans-serif" font-weight="700" font-size="50" transform="matrix(1 0 0 1 291.076 1036)">SUPPLIER</text><rect x="230" y="82.9998" width="320" height="188" fill="#FFFFFF"/><text font-family="Calibri,Calibri_MSFontService,sans-serif" font-weight="700" font-size="50" transform="matrix(1 0 0 1 275.641 148)">DEMAND / </text><text font-family="Calibri,Calibri_MSFontService,sans-serif" font-weight="700" font-size="50" transform="matrix(1 0 0 1 270.394 213)">CUSTOMER</text><path d="M1509 254 1766.81 254" stroke="#4472C4" stroke-width="24.0625" stroke-miterlimit="8" fill="none" fill-rule="evenodd"/><path d="M1506 367 1763.81 367" stroke="#ED7D31" stroke-width="24.0625" stroke-miterlimit="8" fill="none" fill-rule="evenodd"/><rect x="1272" y="206" width="247" height="93.0002" fill="#FFFFFF"/><text font-family="Calibri,Calibri_MSFontService,sans-serif" font-weight="700" font-size="50" transform="matrix(1 0 0 1 1314.31 270)">MONEY</text><path d="M792.75 816.5 792.75 696 778.5 696 807 667.5 835.5 696 821.25 696 821.25 816.5Z" stroke="#AE5A21" stroke-width="4.58333" stroke-miterlimit="8" fill="#ED7D31" fill-rule="evenodd"/><path d="M956.5 667.5 956.5 788.5 970.5 788.5 942.5 816.5 914.5 788.5 928.5 788.5 928.5 667.5Z" stroke="#2F528F" stroke-width="4.58333" stroke-miterlimit="8" fill="#4472C4" fill-rule="evenodd"/><rect x="718" y="904" width="320" height="92.9998" fill="#FFFFFF"/><text font-family="Calibri,Calibri_MSFontService,sans-serif" font-weight="700" font-size="50" transform="matrix(1 0 0 1 827.787 970)">SALE</text><path d="M1209.5 667.5 1209.5 788.5 1223.5 788.5 1195.5 816.5 1167.5 788.5 1181.5 788.5 1181.5 667.5Z" stroke="#AE5A21" stroke-width="4.58333" stroke-miterlimit="8" fill="#ED7D31" fill-rule="evenodd"/><path d="M1316.75 817.5 1316.75 696 1302.5 696 1331 667.5 1359.5 696 1345.25 696 1345.25 817.5Z" stroke="#2F528F" stroke-width="4.58333" stroke-miterlimit="8" fill="#4472C4" fill-rule="evenodd"/><rect x="1107" y="904" width="319" height="92.9998" fill="#FFFFFF"/><text font-family="Calibri,Calibri_MSFontService,sans-serif" font-weight="700" font-size="50" transform="matrix(1 0 0 1 1153.57 969)">PURCHASE</text><path d="M0 0 6.87536 103.937" stroke="#4472C4" stroke-width="18.3333" stroke-miterlimit="8" fill="none" fill-rule="evenodd" transform="matrix(-1 0 0 1 202.875 271)"/><path d="M0 0 103.937 0.000360892" stroke="#4472C4" stroke-width="18.3333" stroke-miterlimit="8" fill="none" fill-rule="evenodd" transform="matrix(-1 0 0 1 247.937 328)"/><path d="M0 0 6.86706 103.812" stroke="#4472C4" stroke-width="18.3333" stroke-miterlimit="8" fill="none" fill-rule="evenodd" transform="matrix(-1 0 0 1 583.867 756)"/><path d="M0 0 103.811 0.000360892" stroke="#4472C4" stroke-width="18.3333" stroke-miterlimit="8" fill="none" fill-rule="evenodd" transform="matrix(-1 0 0 1 629.811 813)"/><path d="M0 0 103.811 0.000360892" stroke="#ED7D31" stroke-width="18.3333" stroke-miterlimit="8" fill="none" fill-rule="evenodd" transform="matrix(-1 0 0 1 642.811 314)"/><path d="M0 0 103.583 0.000360892" stroke="#ED7D31" stroke-width="18.3333" stroke-miterlimit="8" fill="none" fill-rule="evenodd" transform="matrix(-1 0 0 1 226.583 817)"/><path d="M0 0 103.583 0.000360892" stroke="#ED7D31" stroke-width="18.3333" stroke-miterlimit="8" fill="none" fill-rule="evenodd" transform="matrix(-1 0 0 1 852.583 593)"/><path d="M0 0 103.583 0.000360892" stroke="#ED7D31" stroke-width="18.3333" stroke-miterlimit="8" fill="none" fill-rule="evenodd" transform="matrix(-1 0 0 1 1384.58 593)"/><path d="M0 0 6.8519 103.812" stroke="#4472C4" stroke-width="18.3333" stroke-miterlimit="8" fill="none" fill-rule="evenodd" transform="matrix(-1 0 0 1 948.852 536)"/><path d="M0 0 103.582 0.000360892" stroke="#4472C4" stroke-width="18.3333" stroke-miterlimit="8" fill="none" fill-rule="evenodd" transform="matrix(-1 0 0 1 993.582 593)"/><path d="M0 0 6.8519 103.812" stroke="#4472C4" stroke-width="18.3333" stroke-miterlimit="8" fill="none" fill-rule="evenodd" transform="matrix(-1 0 0 1 1199.85 532)"/><path d="M0 0 103.582 0.000360892" stroke="#4472C4" stroke-width="18.3333" stroke-miterlimit="8" fill="none" fill-rule="evenodd" transform="matrix(-1 0 0 1 1244.58 589)"/><text font-family="Calibri,Calibri_MSFontService,sans-serif" font-weight="700" font-size="62" transform="matrix(1 0 0 1 661.298 1214)">Figure 1: Polarity</text></g></svg>