<svg width="1973" height="1535" xmlns="http://www.w3.org/2000/svg" xmlns:xlink="http://www.w3.org/1999/xlink" xml:space="preserve" overflow="hidden"><defs><clipPath id="clip0"><rect x="0" y="0" width="1973" height="1535"/></clipPath></defs><g clip-path="url(#clip0)"><text font-family="Calibri,Calibri_MSFontService,sans-serif" font-weight="700" font-size="62" transform="matrix(1 0 0 1 520.577 1405)">Figure 3: Engine Structure (Level 3)</text><rect x="808.5" y="26.5" width="352" height="156" stroke="#1F4E79" stroke-width="4.58333" stroke-miterlimit="8" fill="#5B9BD5"/><text fill="#FFFFFF" font-family="Calibri,Calibri_MSFontService,sans-serif" font-weight="700" font-size="50" transform="matrix(1 0 0 1 903.353 135)">ENGINE</text><rect x="38.5" y="484.5" width="268" height="194" stroke="#385723" stroke-width="4.58333" stroke-miterlimit="8" fill="#70AD47"/><text fill="#FFFFFF" font-family="Calibri,Calibri_MSFontService,sans-serif" font-weight="400" font-size="41" transform="matrix(1 0 0 1 92.8383 581)">IGNITION</text><path d="M608.207 333.5 608.207 408.694 172.5 408.694 172.5 483.887" stroke="#4472C4" stroke-width="12.6042" stroke-miterlimit="8" fill="none" fill-rule="evenodd"/><rect x="431.5" y="196.5" width="353" height="137" stroke="#525252" stroke-width="4.58333" stroke-miterlimit="8" fill="#A5A5A5"/><text fill="#FFFFFF" font-family="Calibri,Calibri_MSFontService,sans-serif" font-weight="700" font-size="41" transform="matrix(1 0 0 1 538.995 266)">SYSTEM </text><path d="M984.927 182.5 984.927 264.879 784.5 264.879" stroke="#4472C4" stroke-width="12.6042" stroke-miterlimit="8" fill="none" fill-rule="evenodd"/><rect x="1245.5" y="484.5" width="355" height="190" stroke="#525252" stroke-width="4.58333" stroke-miterlimit="8" fill="#A5A5A5"/><text fill="#FFFFFF" font-family="Calibri,Calibri_MSFontService,sans-serif" font-weight="700" font-size="41" transform="matrix(1 0 0 1 1338.6 579)">MACHINE</text><rect x="1181.5" y="830.5" width="272" height="191" stroke="#843C0C" stroke-width="4.58333" stroke-miterlimit="8" fill="#ED7D31"/><text fill="#FFFFFF" font-family="Calibri,Calibri_MSFontService,sans-serif" font-weight="400" font-size="41" transform="matrix(1 0 0 1 1249.66 926)">CRANKS</text><path d="M0 0 150.697 0 150.697 438.283 301.394 438.283" stroke="#4472C4" stroke-width="12.6042" stroke-miterlimit="8" fill="none" fill-rule="evenodd" transform="matrix(1.83697e-16 1 1 -1.83697e-16 984.5 182.5)"/><path d="M1422.43 674.5 1422.43 752.531 1317.5 752.531 1317.5 830.562" stroke="#4472C4" stroke-width="12.6042" stroke-miterlimit="8" fill="none" fill-rule="evenodd"/><rect x="322.5" y="484.5" width="268" height="193" stroke="#385723" stroke-width="4.58333" stroke-miterlimit="8" fill="#70AD47"/><text fill="#FFFFFF" font-family="Calibri,Calibri_MSFontService,sans-serif" font-weight="400" font-size="41" transform="matrix(1 0 0 1 377.17 582)">COOLING</text><path d="M608.31 333.5 608.31 408.658 456.5 408.658 456.5 483.815" stroke="#4472C4" stroke-width="12.6042" stroke-miterlimit="8" fill="none" fill-rule="evenodd"/><rect x="616.5" y="484.5" width="268" height="193" stroke="#385723" stroke-width="4.58333" stroke-miterlimit="8" fill="#70AD47"/><text fill="#FFFFFF" font-family="Calibri,Calibri_MSFontService,sans-serif" font-weight="400" font-size="41" transform="matrix(1 0 0 1 641.39 582)">FUEL SUPPLY</text><path d="M0 0 75.1575 0 75.1575 142.751 150.315 142.751" stroke="#4472C4" stroke-width="12.6042" stroke-miterlimit="8" fill="none" fill-rule="evenodd" transform="matrix(1.83697e-16 1 1 -1.83697e-16 608.5 333.5)"/><rect x="900.5" y="484.5" width="268" height="193" stroke="#385723" stroke-width="4.58333" stroke-miterlimit="8" fill="#70AD47"/><text fill="#FFFFFF" font-family="Calibri,Calibri_MSFontService,sans-serif" font-weight="400" font-size="41" transform="matrix(1 0 0 1 992.534 555)">FUEL </text><text fill="#FFFFFF" font-family="Calibri,Calibri_MSFontService,sans-serif" font-weight="400" font-size="41" transform="matrix(1 0 0 1 945.6 608)">INJECTION</text><path d="M0 0 75.1757 0 75.1757 426.486 150.351 426.486" stroke="#4472C4" stroke-width="12.6042" stroke-miterlimit="8" fill="none" fill-rule="evenodd" transform="matrix(1.83697e-16 1 1 -1.83697e-16 608.5 333.5)"/><rect x="898.5" y="830.5" width="271" height="191" stroke="#843C0C" stroke-width="4.58333" stroke-miterlimit="8" fill="#ED7D31"/><text fill="#FFFFFF" font-family="Calibri,Calibri_MSFontService,sans-serif" font-weight="400" font-size="41" transform="matrix(1 0 0 1 961.594 927)">PISTONS</text><rect x="610.5" y="830.5" width="271" height="191" stroke="#843C0C" stroke-width="4.58333" stroke-miterlimit="8" fill="#ED7D31"/><text fill="#FFFFFF" font-family="Calibri,Calibri_MSFontService,sans-serif" font-weight="400" font-size="41" transform="matrix(1 0 0 1 663.315 900)">CYLINDER </text><text fill="#FFFFFF" font-family="Calibri,Calibri_MSFontService,sans-serif" font-weight="400" font-size="41" transform="matrix(1 0 0 1 690.242 953)">BLOCK</text><rect x="326.5" y="830.5" width="272" height="191" stroke="#203864" stroke-width="4.58333" stroke-miterlimit="8" fill="#4472C4"/><text fill="#FFFFFF" font-family="Calibri,Calibri_MSFontService,sans-serif" font-weight="400" font-size="41" transform="matrix(1 0 0 1 369.235 926)">MANIFOLD</text><rect x="35.4999" y="830.5" width="271" height="191" stroke="#843C0C" stroke-width="4.58333" stroke-miterlimit="8" fill="#ED7D31"/><text fill="#FFFFFF" font-family="Calibri,Calibri_MSFontService,sans-serif" font-weight="400" font-size="41" transform="matrix(1 0 0 1 36.0631 927)">CYLINDER HEAD</text><rect x="176.5" y="1131.5" width="267" height="172" stroke="#843C0C" stroke-width="4.58333" stroke-miterlimit="8" fill="#ED7D31"/><text fill="#FFFFFF" font-family="Calibri,Calibri_MSFontService,sans-serif" font-weight="400" font-size="41" transform="matrix(1 0 0 1 248.157 1220)">INTAKE</text><path d="M461.869 1021.5 461.869 1076.46 309.5 1076.46 309.5 1131.42" stroke="#4472C4" stroke-width="12.6042" stroke-miterlimit="8" fill="none" fill-rule="evenodd"/><rect x="470.5" y="1131.5" width="268" height="172" stroke="#843C0C" stroke-width="4.58333" stroke-miterlimit="8" fill="#ED7D31"/><text fill="#FFFFFF" font-family="Calibri,Calibri_MSFontService,sans-serif" font-weight="400" font-size="41" transform="matrix(1 0 0 1 525.604 1218)">EXHAUST</text><path d="M0 0 54.9616 0 54.9616 142.102 109.923 142.102" stroke="#4472C4" stroke-width="12.6042" stroke-miterlimit="8" fill="none" fill-rule="evenodd" transform="matrix(1.83697e-16 1 1 -1.83697e-16 462.5 1021.5)"/><path d="M1422.29 674.5 1422.29 752.531 1033.5 752.531 1033.5 830.562" stroke="#4472C4" stroke-width="12.6042" stroke-miterlimit="8" fill="none" fill-rule="evenodd"/><path d="M1423.21 674.5 1423.21 752.532 746.5 752.532 746.5 830.562" stroke="#4472C4" stroke-width="12.6042" stroke-miterlimit="8" fill="none" fill-rule="evenodd"/><path d="M1422.91 674.5 1422.91 752.531 462.5 752.531 462.5 830.563" stroke="#4472C4" stroke-width="12.6042" stroke-miterlimit="8" fill="none" fill-rule="evenodd"/><path d="M1422.25 674.5 1422.25 752.604 170.5 752.604 170.5 830.707" stroke="#4472C4" stroke-width="12.6042" stroke-miterlimit="8" fill="none" fill-rule="evenodd"/><rect x="1463.5" y="830.5" width="272" height="191" stroke="#843C0C" stroke-width="4.58333" stroke-miterlimit="8" fill="#ED7D31"/><text fill="#FFFFFF" font-family="Calibri,Calibri_MSFontService,sans-serif" font-weight="400" font-size="41" transform="matrix(1 0 0 1 1502.87 900)">Connection </text><text fill="#FFFFFF" font-family="Calibri,Calibri_MSFontService,sans-serif" font-weight="400" font-size="41" transform="matrix(1 0 0 1 1515.54 953)">Rods/Pins</text><path d="M0 0 78.0312 0 78.0312 176.553 156.062 176.553" stroke="#4472C4" stroke-width="12.6042" stroke-miterlimit="8" fill="none" fill-rule="evenodd" transform="matrix(1.83697e-16 1 1 -1.83697e-16 1422.5 674.5)"/></g></svg>