<svg width="2310" height="2234" xmlns="http://www.w3.org/2000/svg" xmlns:xlink="http://www.w3.org/1999/xlink" xml:space="preserve" overflow="hidden"><defs><clipPath id="clip0"><rect x="0" y="0" width="2310" height="2234"/></clipPath></defs><g clip-path="url(#clip0)"><rect x="207" y="1576" width="501" height="162" stroke="#000000" stroke-width="2.29167" stroke-linejoin="round" stroke-miterlimit="10" fill="#FF0000"/><text fill="#FFFFFF" font-family="Calibri,Calibri_MSFontService,sans-serif" font-weight="400" font-size="50" transform="matrix(1 0 0 1 292.663 1675)">PRIMARY INPUT</text><rect x="207" y="1414" width="1000" height="162" stroke="#000000" stroke-width="2.29167" stroke-linejoin="round" stroke-miterlimit="10" fill="#35F52B"/><text font-family="Calibri,Calibri_MSFontService,sans-serif" font-weight="400" font-size="50" transform="matrix(1 0 0 1 525.289 1512)">RE</text><text font-family="Calibri,Calibri_MSFontService,sans-serif" font-weight="400" font-size="50" transform="matrix(1 0 0 1 577.287 1512)">-</text><text font-family="Calibri,Calibri_MSFontService,sans-serif" font-weight="400" font-size="50" transform="matrix(1 0 0 1 592.733 1512)">STRUCTURING</text><rect x="207" y="996" width="1000" height="161" stroke="#000000" stroke-width="2.29167" stroke-linejoin="round" stroke-miterlimit="10" fill="#FFFF00"/><text font-family="Calibri,Calibri_MSFontService,sans-serif" font-weight="400" font-size="50" transform="matrix(1 0 0 1 482.401 1093)">MATERIAL INTERFACE</text><rect x="197" y="1851" width="996" height="162" stroke="#000000" stroke-width="2.29167" stroke-linejoin="round" stroke-miterlimit="10" fill="#FF0000"/><text fill="#FFFFFF" font-family="Calibri,Calibri_MSFontService,sans-serif" font-weight="400" font-size="50" transform="matrix(1 0 0 1 484.286 1949)">PRIMARY RESOURCE</text><rect x="207" y="1252" width="1000" height="162" stroke="#000000" stroke-width="2.29167" stroke-linejoin="round" stroke-miterlimit="10" fill="#FFC000"/><text font-family="Calibri,Calibri_MSFontService,sans-serif" font-weight="400" font-size="50" transform="matrix(1 0 0 1 508.572 1350)">MATERIAL OUTPUT</text><path d="M1207 1323.83 1225.33 1323.83 1225.33 1342.17 1207 1342.17ZM1243.67 1323.83 1262 1323.83 1262 1342.17 1243.67 1342.17ZM1280.33 1323.83 1298.67 1323.83 1298.67 1342.17 1280.33 1342.17ZM1315.85 1343.31 1315.85 1361.65 1297.52 1361.65 1297.52 1343.31ZM1315.85 1379.98 1315.85 1398.31 1297.52 1398.31 1297.52 1379.98ZM1315.85 1416.65 1315.85 1434.98 1297.52 1434.98 1297.52 1416.65ZM1315.85 1453.31 1315.85 1471.65 1297.52 1471.65 1297.52 1453.31ZM1315.85 1489.98 1315.85 1508.31 1297.52 1508.31 1297.52 1489.98ZM1315.85 1526.65 1315.85 1544.98 1297.52 1544.98 1297.52 1526.65ZM1315.85 1563.31 1315.85 1581.65 1297.52 1581.65 1297.52 1563.31ZM1315.85 1599.98 1315.85 1618.31 1297.52 1618.31 1297.52 1599.98ZM1315.85 1636.65 1315.85 1654.98 1297.52 1654.98 1297.52 1636.65ZM1290.42 1666.21 1272.08 1666.21 1272.08 1647.87 1290.42 1647.87ZM1266.58 1684.54 1211.58 1657.04 1266.58 1629.54Z" fill="#FF0000"/><path d="M9.16667-3.47843e-05 9.16685 49.2722-9.16648 49.2723-9.16667 3.47843e-05ZM27.5002 40.1055 0.000360892 95.1056-27.4998 40.1057Z" fill="#4472C4" transform="matrix(1 0 0 -1 707 1252.11)"/><path d="M1461.14 279.834 1479.47 280.112 1479.19 298.443 1460.86 298.166ZM1497.8 280.39 1516.13 280.668 1515.85 298.999 1497.52 298.721ZM1534.46 280.946 1552.79 281.223 1552.52 299.555 1534.19 299.277ZM1571.13 281.501 1589.46 281.779 1589.18 300.11 1570.85 299.832ZM1607.79 282.057 1626.12 282.334 1625.84 300.666 1607.51 300.388ZM1633.3 264.108 1687.87 292.438 1632.46 319.101Z" fill="#4472C4"/><rect x="1412" y="115" width="706" height="124" fill="#FFFFFF"/><text font-family="Calibri,Calibri_MSFontService,sans-serif" font-weight="400" font-size="50" text-decoration="underline" transform="matrix(1 0 0 1 1445.28 180)">Production Loop</text><rect x="207" y="733" width="508" height="162" stroke="#000000" stroke-width="2.29167" stroke-linejoin="round" stroke-miterlimit="10" fill="#FFFF00"/><text font-family="Calibri,Calibri_MSFontService,sans-serif" font-weight="400" font-size="50" transform="matrix(1 0 0 1 285.433 831)">MATERIAL INPUT</text><rect x="207" y="571" width="1016" height="161" stroke="#000000" stroke-width="2.29167" stroke-linejoin="round" stroke-miterlimit="10" fill="#35F52B"/><text font-family="Calibri,Calibri_MSFontService,sans-serif" font-weight="400" font-size="50" transform="matrix(1 0 0 1 516.99 668)">TRANSFORMATION</text><rect x="207" y="409" width="1016" height="162" stroke="#000000" stroke-width="2.29167" stroke-linejoin="round" stroke-miterlimit="10" fill="#DAE3F3"/><text font-family="Calibri,Calibri_MSFontService,sans-serif" font-weight="400" font-size="50" transform="matrix(1 0 0 1 458.06 507)">COMPONENT INTERFACE</text><path d="M1223 480.833 1241.33 480.833 1241.33 499.167 1223 499.167ZM1259.67 480.833 1278 480.833 1278 499.167 1259.67 499.167ZM1296.33 480.833 1314.67 480.833 1314.67 499.167 1296.33 499.167ZM1338.73 493.437 1338.73 511.771 1320.4 511.771 1320.4 493.437ZM1338.73 530.104 1338.73 548.437 1320.4 548.437 1320.4 530.104ZM1338.73 566.771 1338.73 585.104 1320.4 585.104 1320.4 566.771ZM1338.73 603.437 1338.73 621.771 1320.4 621.771 1320.4 603.437ZM1338.73 640.104 1338.73 658.437 1320.4 658.437 1320.4 640.104ZM1338.73 676.771 1338.73 695.104 1320.4 695.104 1320.4 676.771ZM1338.73 713.437 1338.73 731.771 1320.4 731.771 1320.4 713.437ZM1338.73 750.104 1338.73 768.437 1320.4 768.437 1320.4 750.104ZM1338.73 786.771 1338.73 805.104 1320.4 805.104 1320.4 786.771ZM1320.96 824.002 1302.63 824.002 1302.63 805.669 1320.96 805.669ZM1284.29 824.002 1273.42 824.002 1273.42 805.669 1284.29 805.669ZM1282.58 842.335 1227.58 814.835 1282.58 787.335Z" fill="#4472C4"/><rect x="715" y="734" width="508" height="161" stroke="#000000" stroke-width="2.29167" stroke-linejoin="round" stroke-miterlimit="10" fill="#DAE3F3"/><text font-family="Calibri,Calibri_MSFontService,sans-serif" font-weight="400" font-size="50" transform="matrix(1 0 0 1 760.85 831)">COMPONENT INPUT</text><rect x="207" y="137" width="1016" height="162" stroke="#000000" stroke-width="2.29167" stroke-linejoin="round" stroke-miterlimit="10" fill="#4472C4"/><text fill="#FFFFFF" font-family="Calibri,Calibri_MSFontService,sans-serif" font-weight="400" font-size="50" transform="matrix(1 0 0 1 542.885 235)">USER INTERFACE</text><path d="M9.16667-0.00376714 9.19294 63.9337-9.14039 63.9413-9.16667 0.00376714ZM27.5225 54.7595 0.0451115 109.771-27.4775 54.7821Z" fill="#4472C4" transform="matrix(1 0 0 -1 715 408.771)"/><path d="M0-9.16667 129.534-9.16667 129.534 442.521 45.9236 442.521 45.9236 424.188 120.367 424.188 111.2 433.354 111.2 0 120.367 9.16667 0 9.16667ZM55.0902 460.854 0.0902231 433.354 55.0902 405.854Z" fill="#35F52B" transform="matrix(-1 1.22465e-16 1.22465e-16 1 207.09 218)"/><rect x="1709" y="239" width="494" height="123" fill="#FFFFFF"/><text font-family="Calibri,Calibri_MSFontService,sans-serif" font-weight="400" font-size="50" transform="matrix(1 0 0 1 1742.36 304)">Component Supply</text><path d="M1461.14 423.835 1479.47 424.113 1479.19 442.444 1460.86 442.166ZM1497.8 424.391 1516.13 424.669 1515.85 443 1497.52 442.722ZM1534.46 424.947 1552.8 425.225 1552.52 443.556 1534.19 443.278ZM1571.13 425.503 1589.46 425.781 1589.18 444.112 1570.85 443.834ZM1607.79 426.059 1626.12 426.337 1625.84 444.668 1607.51 444.39ZM1633.07 408.107 1687.65 436.438 1632.23 463.1Z" fill="#FF0000"/><rect x="1709" y="385" width="433" height="123" fill="#FFFFFF"/><text font-family="Calibri,Calibri_MSFontService,sans-serif" font-weight="400" font-size="50" transform="matrix(1 0 0 1 1742.36 449)">Material Supply</text><path d="M207 227.167 86.6517 227.167 95.8184 218 95.8184 1468.67 86.6517 1459.51 161.177 1459.51 161.177 1477.84 77.485 1477.84 77.485 208.833 207 208.833ZM152.011 1441.17 207.011 1468.67 152.011 1496.17Z" fill="#35F52B"/><rect x="193" y="2049" width="1622" height="120" fill="#FFFFFF"/><text font-family="Calibri,Calibri_MSFontService,sans-serif" font-weight="700" font-size="64" transform="matrix(1 0 0 1 478.718 2128)">Figure 5: The Technological Component</text><path d="M0-9.16667 129.709-9.16667 129.709 1722.88 56.3754 1722.88 56.3754 1704.54 120.542 1704.54 111.375 1713.71 111.375 0 120.542 9.16667 0 9.16667ZM65.542 1741.21 10.542 1713.71 65.542 1686.21Z" fill="#35F52B" transform="matrix(-1 1.22465e-16 1.22465e-16 1 207.542 218)"/><path d="M0-9.16667 39.0192-9.16667 39.0192 245.677 29.8526 236.51 55.1227 236.51 55.1227 254.844 20.6859 254.844 20.6859 0 29.8526 9.16667 0 9.16667ZM45.956 218.177 100.956 245.677 45.956 273.177Z" fill="#4472C4" transform="matrix(-1.83697e-16 -1 -1 1.83697e-16 706.677 995.956)"/><rect x="706" y="1576" width="501" height="162" stroke="#000000" stroke-width="2.29167" stroke-linejoin="round" stroke-miterlimit="10" fill="#FFC000"/><text font-family="Calibri,Calibri_MSFontService,sans-serif" font-weight="400" font-size="50" transform="matrix(1 0 0 1 780.438 1674)">MATERIAL INPUT</text><path d="M0-9.16667 48.3314-9.16667 48.3314 237.411 39.1648 228.244 66.8712 228.244 66.8712 246.578 29.9981 246.578 29.9981 0 39.1648 9.16667 0 9.16667ZM57.7045 209.911 112.705 237.411 57.7045 264.911Z" fill="#4472C4" transform="matrix(-1.83697e-16 -1 -1 1.83697e-16 695.411 1850.7)"/><path d="M1461.14 736.834 1642.19 739.577 1641.91 757.909 1460.86 755.166ZM1633.3 721.107 1687.87 749.437 1632.46 776.101Z" fill="#4472C4"/><rect x="1412" y="572" width="705" height="124" fill="#FFFFFF"/><text font-family="Calibri,Calibri_MSFontService,sans-serif" font-weight="400" font-size="50" text-decoration="underline" transform="matrix(1 0 0 1 1445.24 637)">Network</text><path d="M1461.14 880.834 1641.96 883.577 1641.68 901.908 1460.86 899.166ZM1633.07 865.107 1687.65 893.437 1632.23 920.1Z" fill="#46F828"/><rect x="1709" y="841" width="433" height="124" fill="#FFFFFF"/><text font-family="Calibri,Calibri_MSFontService,sans-serif" font-weight="400" font-size="50" transform="matrix(1 0 0 1 1742.46 906)">Production</text><rect x="1716" y="691" width="494" height="123" fill="#FFFFFF"/><text font-family="Calibri,Calibri_MSFontService,sans-serif" font-weight="400" font-size="50" transform="matrix(1 0 0 1 1748.77 755)">Supply/Demand</text></g></svg>