<svg width="2899" height="1824" xmlns="http://www.w3.org/2000/svg" xmlns:xlink="http://www.w3.org/1999/xlink" xml:space="preserve" overflow="hidden"><defs><clipPath id="clip0"><rect x="0" y="0" width="2899" height="1824"/></clipPath></defs><g clip-path="url(#clip0)"><rect x="0" y="0" width="2899" height="1823" fill="#FFFFFF"/><rect x="288.5" y="684.5" width="362" height="224" stroke="#507E32" stroke-width="4.58333" stroke-miterlimit="8" fill="#70AD47"/><text fill="#FFFFFF" font-family="Calibri,Calibri_MSFontService,sans-serif" font-weight="700" font-size="50" transform="matrix(1 0 0 1 333.397 813)">TRANSFORM</text><rect x="281.5" y="1073.5" width="375" height="223" stroke="#AE5A21" stroke-width="4.58333" stroke-miterlimit="8" fill="#FF0000"/><text fill="#FFFFFF" font-family="Calibri,Calibri_MSFontService,sans-serif" font-weight="700" font-size="50" transform="matrix(1 0 0 1 359.671 1169)">MATERIAL</text><text fill="#FFFFFF" font-family="Calibri,Calibri_MSFontService,sans-serif" font-weight="700" font-size="50" transform="matrix(1 0 0 1 402.937 1234)">INPUT</text><rect x="288.5" y="282.5" width="361" height="223" stroke="#AE5A21" stroke-width="4.58333" stroke-miterlimit="8" fill="#0070C0"/><text fill="#FFFFFF" font-family="Calibri,Calibri_MSFontService,sans-serif" font-weight="700" font-size="50" transform="matrix(1 0 0 1 390.631 360)">GOODS</text><text fill="#FFFFFF" font-family="Calibri,Calibri_MSFontService,sans-serif" font-weight="700" font-size="50" transform="matrix(1 0 0 1 380.273 462)">OUTPUT</text><path d="M3.4375-0.00237961 3.53604 142.343-3.33896 142.348-3.4375 0.00237961ZM13.8454 137.752 0.114403 165.262-13.6546 137.772Z" transform="matrix(1 0 0 -1 469.5 1073.76)"/><path d="M466.177 684.233 466.077 528.419 472.952 528.415 473.052 684.228ZM455.768 533.009 469.5 505.5 483.268 532.991Z"/><rect x="697.5" y="684.5" width="361" height="223" stroke="#AE5A21" stroke-width="4.58333" stroke-miterlimit="8" fill="#ED7D31"/><text fill="#FFFFFF" font-family="Calibri,Calibri_MSFontService,sans-serif" font-weight="700" font-size="50" transform="matrix(1 0 0 1 762.007 813)">EXCHANGE</text><rect x="690.5" y="1073.5" width="375" height="223" stroke="#AE5A21" stroke-width="4.58333" stroke-miterlimit="8" fill="#0070C0"/><text fill="#FFFFFF" font-family="Calibri,Calibri_MSFontService,sans-serif" font-weight="700" font-size="50" transform="matrix(1 0 0 1 822.771 1201)">COST</text><rect x="697.5" y="282.5" width="361" height="223" stroke="#AE5A21" stroke-width="4.58333" stroke-miterlimit="8" fill="#FF0000"/><text fill="#FFFFFF" font-family="Calibri,Calibri_MSFontService,sans-serif" font-weight="700" font-size="50" transform="matrix(1 0 0 1 817.58 411)">PRICE</text><path d="M3.4375-0.00238712 3.53635 142.343-3.33865 142.348-3.4375 0.00238712ZM13.8457 137.752 0.114764 165.262-13.6543 137.772Z" transform="matrix(-1 0 0 1 878.615 907.5)"/><path d="M881.938 505.498 882.037 661.541 875.162 661.545 875.063 505.502ZM892.347 656.951 878.615 684.46 864.847 656.969Z"/><path d="M0 0 47.6663 0.114403" stroke="#4472C4" stroke-width="6.875" stroke-miterlimit="8" fill="none" fill-rule="evenodd" transform="matrix(1 0 0 -1 649.5 393.615)"/><path d="M0 0 47.4371 0.114403" stroke="#4472C4" stroke-width="6.875" stroke-miterlimit="8" fill="none" fill-rule="evenodd" transform="matrix(1 0 0 -1 650.5 796.614)"/><rect x="145.5" y="205.5" width="1454" height="1403" stroke="#2F528F" stroke-width="4.58333" stroke-miterlimit="8" fill="none"/><path d="M0 0 33.9167 0.34393" stroke="#4472C4" stroke-width="6.875" stroke-miterlimit="8" fill="none" fill-rule="evenodd" transform="matrix(1 0 0 -1 656.5 1184.84)"/><rect x="1141.5" y="691.5" width="362" height="223" stroke="#000000" stroke-width="4.58333" stroke-miterlimit="8"/><text fill="#FFFFFF" font-family="Calibri,Calibri_MSFontService,sans-serif" font-weight="700" font-size="50" transform="matrix(1 0 0 1 1246.53 819)">PROFIT</text><path d="M1058 391.854 1322.98 391.854 1322.98 667.133 1320.69 667.133 1320.69 393 1321.84 394.146 1058 394.146ZM1335.59 662.549 1321.84 690.049 1308.09 662.549Z" fill="#4472C4"/><path d="M0-1.14583 258.107-1.14583 258.107 247.565 255.815 247.565 255.815 0 256.961 1.14583 0 1.14583ZM270.711 242.982 256.961 270.482 243.211 242.982Z" fill="#4472C4" transform="matrix(1 0 0 -1 1065 1184.48)"/><path d="M0 0 103.583 0.000360892" stroke="#ED7D31" stroke-width="18.3333" stroke-miterlimit="8" fill="none" fill-rule="evenodd" transform="matrix(-1 0 0 1 1464.58 1541)"/><path d="M0 0 6.83675 103.583" stroke="#4472C4" stroke-width="18.3333" stroke-miterlimit="8" fill="none" fill-rule="evenodd" transform="matrix(-1 0 0 1 1439.84 530)"/><path d="M0 0 103.353 0.000360892" stroke="#4472C4" stroke-width="18.3333" stroke-miterlimit="8" fill="none" fill-rule="evenodd" transform="matrix(-1 0 0 1 1484.35 586)"/><rect x="1145.5" y="1248.5" width="361" height="223" stroke="#AE5A21" stroke-width="4.58333" stroke-miterlimit="8" fill="#FF0000"/><text fill="#FFFFFF" font-family="Calibri,Calibri_MSFontService,sans-serif" font-weight="700" font-size="50" transform="matrix(1 0 0 1 1274.25 1377)">LOSS</text><text font-family="Calibri,Calibri_MSFontService,sans-serif" font-weight="700" font-size="62" transform="matrix(1 0 0 1 705.788 1759)">Figure 3: Polarity Shift</text><text font-family="Calibri,Calibri_MSFontService,sans-serif" font-weight="700" font-size="62" transform="matrix(1 0 0 1 690.498 1426)">PRODUCTION</text><rect x="1750.5" y="695.5" width="362" height="223" stroke="#507E32" stroke-width="4.58333" stroke-miterlimit="8" fill="#70AD47"/><text fill="#FFFFFF" font-family="Calibri,Calibri_MSFontService,sans-serif" font-weight="700" font-size="50" transform="matrix(1 0 0 1 1843.85 823)">CAPITAL</text><path d="M0 0 103.354 0.000360892" stroke="#ED7D31" stroke-width="18.3333" stroke-miterlimit="8" fill="none" fill-rule="evenodd" transform="matrix(-1 0 0 1 1989.35 600)"/><rect x="1604.5" y="203.5" width="592" height="1405" stroke="#2F528F" stroke-width="4.58333" stroke-miterlimit="8" fill="none"/><text font-family="Calibri,Calibri_MSFontService,sans-serif" font-weight="700" font-size="62" transform="matrix(1 0 0 1 1809.66 338)">BUSINESS </text><text font-family="Calibri,Calibri_MSFontService,sans-serif" font-weight="700" font-size="62" transform="matrix(1 0 0 1 1844.35 418)">ENTITY</text><rect x="1742.5" y="1248.5" width="361" height="223" stroke="#BC8C00" stroke-width="4.58333" stroke-miterlimit="8" fill="#FFC000"/><text fill="#FFFFFF" font-family="Calibri,Calibri_MSFontService,sans-serif" font-weight="700" font-size="50" transform="matrix(1 0 0 1 1788.49 1377)">EXTRACTION</text><rect x="2401.5" y="698.5" width="362" height="224" stroke="#787878" stroke-width="4.58333" stroke-miterlimit="8" fill="#A5A5A5"/><text fill="#FFFFFF" font-family="Calibri,Calibri_MSFontService,sans-serif" font-weight="700" font-size="50" transform="matrix(1 0 0 1 2499.18 827)">OWNER</text><rect x="2387.5" y="1249.5" width="375" height="223" stroke="#AE5A21" stroke-width="4.58333" stroke-miterlimit="8" fill="#ED7D31"/><text fill="#FFFFFF" font-family="Calibri,Calibri_MSFontService,sans-serif" font-weight="700" font-size="50" transform="matrix(1 0 0 1 2509.76 1377)">STATE</text><path d="M2103 1358.85 2245.93 1358.85 2245.93 1360.54 2244.79 1359.39 2363.66 1359.39 2363.66 1361.69 2243.64 1361.69 2243.64 1360 2244.79 1361.15 2103 1361.15ZM2359.08 1346.79 2386.58 1360.54 2359.08 1374.29Z" fill="#4472C4"/><path d="M0-1.14583 216.979-1.14583 216.979 549.542 215.833 548.396 275.393 548.396 275.393 550.688 214.687 550.688 214.687 0 215.833 1.14583 0 1.14583ZM270.809 535.792 298.309 549.542 270.809 563.292Z" fill="#4472C4" transform="matrix(1 0 0 -1 2103 1359.54)"/><path d="M0 0 6.82159 103.583" stroke="#4472C4" stroke-width="18.3333" stroke-miterlimit="8" fill="none" fill-rule="evenodd" transform="matrix(-1 0 0 1 2597.82 545)"/><path d="M0 0 103.124 0.000360892" stroke="#4472C4" stroke-width="18.3333" stroke-miterlimit="8" fill="none" fill-rule="evenodd" transform="matrix(-1 0 0 1 2643.12 602)"/><rect x="2190.5" y="203.5" width="79" height="1407" stroke="#2F528F" stroke-width="4.58333" stroke-miterlimit="8" fill="#FF0000"/><path d="M0 0 6.80643 103.583" stroke="#4472C4" stroke-width="18.3333" stroke-miterlimit="8" fill="none" fill-rule="evenodd" transform="matrix(-1 0 0 1 2582.81 1492)"/><path d="M0 0 102.895 0.000360892" stroke="#4472C4" stroke-width="18.3333" stroke-miterlimit="8" fill="none" fill-rule="evenodd" transform="matrix(-1 0 0 1 2626.9 1549)"/><path d="M1.75069e-06-1.14583 213.289-1.14551 213.289 1.14616-1.75069e-06 1.14583ZM208.706-13.7497 236.206 0.000360892 208.705 13.7503Z" fill="#4472C4" transform="matrix(-1 0 0 1 1742.21 1360)"/><path d="M1502.02 800.854 1726.85 804.524 1726.82 806.815 1501.98 803.146ZM1722.48 791.846 1749.75 806.043 1722.03 819.343Z" fill="#4472C4"/><rect x="1599.5" y="205.5" width="79.0001" height="1407" stroke="#2F528F" stroke-width="4.58333" stroke-miterlimit="8" fill="#A6A6A6"/><text font-family="Calibri,Calibri_MSFontService,sans-serif" font-weight="700" font-size="62" transform="matrix(6.12323e-17 1 -1 6.12323e-17 1708.06 244)">Recording Surface</text><text font-family="Calibri,Calibri_MSFontService,sans-serif" font-weight="700" font-size="62" transform="matrix(6.12323e-17 1 -1 6.12323e-17 2305.08 254)">Productive Asset</text></g></svg>