<svg width="2498" height="1756" xmlns="http://www.w3.org/2000/svg" xmlns:xlink="http://www.w3.org/1999/xlink" xml:space="preserve" overflow="hidden"><defs><filter id="fx0" x="-10%" y="-10%" width="120%" height="120%" filterUnits="userSpaceOnUse" primitiveUnits="userSpaceOnUse"><feComponentTransfer color-interpolation-filters="sRGB"><feFuncR type="discrete" tableValues="0 0"/><feFuncG type="discrete" tableValues="0 0"/><feFuncB type="discrete" tableValues="0 0"/><feFuncA type="linear" slope="0.631373" intercept="0"/></feComponentTransfer><feGaussianBlur stdDeviation="6.875 6.875"/></filter><filter id="fx1" x="-10%" y="-10%" width="120%" height="120%" filterUnits="userSpaceOnUse" primitiveUnits="userSpaceOnUse"><feComponentTransfer color-interpolation-filters="sRGB"><feFuncR type="discrete" tableValues="0 0"/><feFuncG type="discrete" tableValues="0 0"/><feFuncB type="discrete" tableValues="0 0"/><feFuncA type="linear" slope="0.631373" intercept="0"/></feComponentTransfer><feGaussianBlur stdDeviation="6.875 6.875"/></filter><filter id="fx2" x="-10%" y="-10%" width="120%" height="120%" filterUnits="userSpaceOnUse" primitiveUnits="userSpaceOnUse"><feComponentTransfer color-interpolation-filters="sRGB"><feFuncR type="discrete" tableValues="0 0"/><feFuncG type="discrete" tableValues="0 0"/><feFuncB type="discrete" tableValues="0 0"/><feFuncA type="linear" slope="0.631373" intercept="0"/></feComponentTransfer><feGaussianBlur stdDeviation="6.875 6.875"/></filter><filter id="fx3" x="-10%" y="-10%" width="120%" height="120%" filterUnits="userSpaceOnUse" primitiveUnits="userSpaceOnUse"><feComponentTransfer color-interpolation-filters="sRGB"><feFuncR type="discrete" tableValues="0 0"/><feFuncG type="discrete" tableValues="0 0"/><feFuncB type="discrete" tableValues="0 0"/><feFuncA type="linear" slope="0.631373" intercept="0"/></feComponentTransfer><feGaussianBlur stdDeviation="6.875 6.875"/></filter><clipPath id="clip4"><rect x="0" y="0" width="2498" height="1756"/></clipPath><clipPath id="clip5"><rect x="-3" y="-3" width="420" height="346"/></clipPath><clipPath id="clip6"><rect x="0" y="0" width="415" height="340"/></clipPath><clipPath id="clip7"><rect x="30" y="30" width="273" height="210"/></clipPath><clipPath id="clip8"><rect x="0" y="0" width="344" height="283"/></clipPath><linearGradient x1="295.5" y1="319" x2="295.5" y2="615" gradientUnits="userSpaceOnUse" spreadMethod="reflect" id="fill9"><stop offset="0" stop-color="#F18C55"/><stop offset="0.5" stop-color="#F67B28"/><stop offset="1" stop-color="#E56B17"/></linearGradient><clipPath id="clip10"><rect x="-3" y="-3" width="420" height="346"/></clipPath><clipPath id="clip11"><rect x="0" y="0" width="415" height="340"/></clipPath><clipPath id="clip12"><rect x="30" y="30" width="199" height="255"/></clipPath><clipPath id="clip13"><rect x="0" y="0" width="256" height="318"/></clipPath><linearGradient x1="2055.5" y1="319" x2="2055.5" y2="615" gradientUnits="userSpaceOnUse" spreadMethod="reflect" id="fill14"><stop offset="0" stop-color="#FFC746"/><stop offset="0.5" stop-color="#FFC600"/><stop offset="1" stop-color="#E5B600"/></linearGradient></defs><g clip-path="url(#clip4)"><rect x="0" y="0" width="2498" height="1756" fill="#FFFFFF"/><path d="M1708.5 443.5 1829.5 443.5 1829.5 426.5 1863.5 460.5 1829.5 494.5 1829.5 477.5 1708.5 477.5Z" stroke="#2F528F" stroke-width="4.58333" stroke-miterlimit="8" fill="#4472C4" fill-rule="evenodd"/><path d="M1129.31 864.839 1125.82 939.092 1140.17 939.768 1110.11 967.124 1082.75 937.066 1097.11 937.741 1100.6 863.488Z" stroke="#2F528F" stroke-width="4.58333" stroke-miterlimit="8" fill="#4472C4" fill-rule="evenodd"/><path d="M464.5 443.75 585 443.75 585 426.5 619.5 461 585 495.5 585 478.25 464.5 478.25Z" stroke="#2F528F" stroke-width="4.58333" stroke-miterlimit="8" fill="#4472C4" fill-rule="evenodd"/><g clip-path="url(#clip5)" filter="url(#fx0)" transform="translate(88 304)"><g clip-path="url(#clip6)"><rect x="22" y="21.875" width="371" height="296" fill="#FF0000"/></g></g><g clip-path="url(#clip7)" filter="url(#fx1)" transform="translate(129 341)"><g clip-path="url(#clip8)"><path d="M25.9521-2.41699C26.2451-1.84733 26.4364-1.3916 26.5259-1.0498 26.6154-0.708008 26.5625-0.447591 26.3672-0.268555 26.1719-0.0895182 25.8179 0.0244141 25.3052 0.0732422 24.7925 0.12207 24.0804 0.146484 23.1689 0.146484 22.404 0.146484 21.8018 0.130208 21.3623 0.0976562 20.9228 0.0651042 20.577 0.012207 20.3247-0.0610352 20.0724-0.134277 19.8893-0.236003 19.7754-0.366211 19.6615-0.496419 19.5638-0.65918 19.4824-0.854492L13.5498-12.2559 7.6416-0.854492C7.54394-0.65918 7.43815-0.496419 7.32422-0.366211 7.21029-0.236003 7.02718-0.134277 6.7749-0.0610352 6.52262 0.012207 6.17269 0.0651042 5.7251 0.0976562 5.27751 0.130208 4.6875 0.146484 3.95508 0.146484 3.10872 0.146484 2.45361 0.12207 1.98975 0.0732422 1.52588 0.0244141 1.21256-0.0895182 1.0498-0.268555 0.887044-0.447591 0.854492-0.708008 0.952148-1.0498 1.0498-1.3916 1.25326-1.84733 1.5625-2.41699L9.13086-16.2109 2.09961-29.1748C1.80664-29.7607 1.60726-30.2287 1.50146-30.5786 1.39567-30.9285 1.43636-31.189 1.62354-31.3599 1.81071-31.5308 2.15658-31.6366 2.66113-31.6772 3.16569-31.7179 3.88184-31.7383 4.80957-31.7383 5.57454-31.7383 6.18083-31.722 6.62842-31.6895 7.07601-31.6569 7.43001-31.604 7.69043-31.5308 7.95085-31.4575 8.13395-31.3558 8.23975-31.2256 8.34554-31.0954 8.44726-30.9326 8.54492-30.7373L14.0869-20.2881 19.4824-30.7373C19.5801-30.9326 19.6818-31.0954 19.7876-31.2256 19.8934-31.3558 20.0643-31.4575 20.3003-31.5308 20.5363-31.604 20.8618-31.6569 21.2769-31.6895 21.6919-31.722 22.2656-31.7383 22.998-31.7383 23.8118-31.7383 24.4548-31.7179 24.9268-31.6772 25.3988-31.6366 25.7243-31.5267 25.9033-31.3477 26.0824-31.1686 26.1271-30.9082 26.0376-30.5664 25.9481-30.2246 25.765-29.7607 25.4883-29.1748L18.457-16.2842Z" fill="#FFFFFF" transform="matrix(1 0 0 1 152.385 86)"/><path d="M22.168-2.51465C22.168-2.04264 22.1476-1.64795 22.1069-1.33057 22.0662-1.01318 22.0052-0.756836 21.9238-0.561523 21.8424-0.366211 21.7407-0.223796 21.6187-0.134277 21.4966-0.0447591 21.3623 0 21.2158 0L5.34668 0C4.80957 0 4.35791-0.158691 3.9917-0.476074 3.62549-0.793457 3.44238-1.31022 3.44238-2.02637L3.44238-29.5654C3.44238-30.2816 3.62549-30.7983 3.9917-31.1157 4.35791-31.4331 4.80957-31.5918 5.34668-31.5918L21.1182-31.5918C21.2646-31.5918 21.3949-31.5511 21.5088-31.4697 21.6227-31.3883 21.7204-31.2459 21.8018-31.0425 21.8831-30.839 21.9442-30.5786 21.9849-30.2612 22.0256-29.9438 22.0459-29.541 22.0459-29.0527 22.0459-28.597 22.0256-28.2104 21.9849-27.8931 21.9442-27.5757 21.8831-27.3193 21.8018-27.124 21.7204-26.9287 21.6227-26.7863 21.5088-26.6968 21.3949-26.6073 21.2646-26.5625 21.1182-26.5625L9.83887-26.5625 9.83887-18.8477 19.3848-18.8477C19.5312-18.8477 19.6655-18.8029 19.7876-18.7134 19.9097-18.6239 20.0114-18.4855 20.0928-18.2983 20.1742-18.1112 20.2352-17.8589 20.2759-17.5415 20.3166-17.2241 20.3369-16.8376 20.3369-16.3818 20.3369-15.9098 20.3166-15.5192 20.2759-15.21 20.2352-14.9007 20.1742-14.6525 20.0928-14.4653 20.0114-14.2782 19.9097-14.1439 19.7876-14.0625 19.6655-13.9811 19.5312-13.9404 19.3848-13.9404L9.83887-13.9404 9.83887-5.0293 21.2158-5.0293C21.3623-5.0293 21.4966-4.98454 21.6187-4.89502 21.7407-4.8055 21.8424-4.66309 21.9238-4.46777 22.0052-4.27246 22.0662-4.01611 22.1069-3.69873 22.1476-3.38135 22.168-2.98665 22.168-2.51465ZM64.8484-0.878906C64.8484-0.716146 64.8036-0.569661 64.7141-0.439453 64.6246-0.309245 64.4618-0.203451 64.2258-0.12207 63.9898-0.0406901 63.6765 0.0244141 63.2859 0.0732422 62.8952 0.12207 62.3988 0.146484 61.7966 0.146484 61.2107 0.146484 60.7224 0.12207 60.3318 0.0732422 59.9411 0.0244141 59.6319-0.0406901 59.404-0.12207 59.1762-0.203451 59.0134-0.309245 58.9157-0.439453 58.8181-0.569661 58.7693-0.716146 58.7693-0.878906L58.7693-26.5869 58.7204-26.5869 49.5652-0.90332C49.5001-0.691732 49.3943-0.516764 49.2478-0.378418 49.1013-0.240072 48.9019-0.130208 48.6496-0.0488281 48.3974 0.0325521 48.0759 0.0854492 47.6853 0.109863 47.2947 0.134277 46.8227 0.146484 46.2693 0.146484 45.7159 0.146484 45.2439 0.126139 44.8533 0.0854492 44.4626 0.0447591 44.1412-0.0203451 43.8889-0.109863 43.6366-0.199381 43.4372-0.309245 43.2908-0.439453 43.1443-0.569661 43.0466-0.724284 42.9978-0.90332L34.1599-26.5869 34.1111-26.5869 34.1111-0.878906C34.1111-0.716146 34.0663-0.569661 33.9768-0.439453 33.8873-0.309245 33.7204-0.203451 33.4763-0.12207 33.2322-0.0406901 32.9188 0.0244141 32.5364 0.0732422 32.1539 0.12207 31.6615 0.146484 31.0593 0.146484 30.4734 0.146484 29.9851 0.12207 29.5945 0.0732422 29.2038 0.0244141 28.8905-0.0406901 28.6545-0.12207 28.4185-0.203451 28.2558-0.309245 28.1662-0.439453 28.0767-0.569661 28.032-0.716146 28.032-0.878906L28.032-29.0283C28.032-29.8584 28.2517-30.4932 28.6911-30.9326 29.1306-31.3721 29.7165-31.5918 30.449-31.5918L34.6482-31.5918C35.3969-31.5918 36.0398-31.5308 36.5769-31.4087 37.114-31.2866 37.5779-31.0832 37.9685-30.7983 38.3591-30.5135 38.6846-30.1392 38.945-29.6753 39.2055-29.2114 39.4333-28.6377 39.6286-27.9541L46.4646-9.13086 46.5622-9.13086 53.6423-27.9053C53.8539-28.5889 54.0858-29.1667 54.3381-29.6387 54.5904-30.1107 54.8834-30.4932 55.217-30.7861 55.5507-31.0791 55.9454-31.2866 56.4011-31.4087 56.8568-31.5308 57.3858-31.5918 57.988-31.5918L62.3093-31.5918C62.7488-31.5918 63.1272-31.5348 63.4446-31.4209 63.7619-31.307 64.0224-31.1401 64.2258-30.9204 64.4293-30.7007 64.5839-30.4321 64.6897-30.1147 64.7955-29.7974 64.8484-29.4352 64.8484-29.0283ZM93.7316-21.9971C93.7316-20.223 93.4549-18.6523 92.9015-17.2852 92.3481-15.918 91.5424-14.7664 90.4845-13.8306 89.4266-12.8947 88.1285-12.1826 86.5905-11.6943 85.0524-11.2061 83.2417-10.9619 81.1583-10.9619L78.5216-10.9619 78.5216-0.878906C78.5216-0.716146 78.4687-0.569661 78.3629-0.439453 78.2571-0.309245 78.0822-0.203451 77.838-0.12207 77.5939-0.0406901 77.2684 0.0244141 76.8615 0.0732422 76.4546 0.12207 75.9337 0.146484 75.299 0.146484 74.6805 0.146484 74.1637 0.12207 73.7487 0.0732422 73.3336 0.0244141 73.004-0.0406901 72.7599-0.12207 72.5158-0.203451 72.3449-0.309245 72.2472-0.439453 72.1495-0.569661 72.1007-0.716146 72.1007-0.878906L72.1007-29.2969C72.1007-30.0618 72.3001-30.6356 72.6989-31.0181 73.0976-31.4006 73.6225-31.5918 74.2736-31.5918L81.7199-31.5918C82.4686-31.5918 83.1806-31.5633 83.8561-31.5063 84.5315-31.4494 85.3413-31.3273 86.2853-31.1401 87.2293-30.953 88.1855-30.6071 89.1539-30.1025 90.1224-29.598 90.9484-28.9591 91.632-28.186 92.3156-27.4129 92.8364-26.5096 93.1945-25.4761 93.5525-24.4425 93.7316-23.2829 93.7316-21.9971ZM87.0177-21.5332C87.0177-22.64 86.8224-23.5514 86.4318-24.2676 86.0411-24.9837 85.561-25.5127 84.9913-25.8545 84.4217-26.1963 83.8235-26.4119 83.1969-26.5015 82.5703-26.591 81.9233-26.6357 81.256-26.6357L78.5216-26.6357 78.5216-15.918 81.4025-15.918C82.4279-15.918 83.2864-16.0563 83.9782-16.333 84.6699-16.6097 85.2355-16.9963 85.6749-17.4927 86.1144-17.9891 86.448-18.5832 86.6759-19.2749 86.9038-19.9666 87.0177-20.7194 87.0177-21.5332ZM116.295-2.68555C116.295-2.19727 116.274-1.7863 116.233-1.45264 116.193-1.11898 116.132-0.842285 116.05-0.622559 115.969-0.402832 115.867-0.244141 115.745-0.146484 115.623-0.0488281 115.481 0 115.318 0L100.84 0C100.303 0 99.8517-0.158691 99.4854-0.476074 99.1192-0.793457 98.9361-1.31022 98.9361-2.02637L98.9361-30.7129C98.9361-30.8756 98.989-31.0221 99.0948-31.1523 99.2006-31.2826 99.3756-31.3883 99.6197-31.4697 99.8639-31.5511 100.193-31.6162 100.608-31.665 101.024-31.7139 101.54-31.7383 102.159-31.7383 102.794-31.7383 103.314-31.7139 103.721-31.665 104.128-31.6162 104.454-31.5511 104.698-31.4697 104.942-31.3883 105.117-31.2826 105.223-31.1523 105.329-31.0221 105.381-30.8756 105.381-30.7129L105.381-5.29785 115.318-5.29785C115.481-5.29785 115.623-5.25309 115.745-5.16357 115.867-5.07406 115.969-4.92757 116.05-4.72412 116.132-4.52067 116.193-4.25212 116.233-3.91846 116.274-3.5848 116.295-3.17383 116.295-2.68555ZM148.667-16.1621C148.667-13.5417 148.341-11.1979 147.69-9.13086 147.039-7.0638 146.071-5.31006 144.785-3.86963 143.499-2.4292 141.908-1.33057 140.012-0.57373 138.116 0.183105 135.922 0.561523 133.432 0.561523 130.975 0.561523 128.83 0.240072 126.999-0.402832 125.168-1.04574 123.642-2.02637 122.421-3.34473 121.201-4.66309 120.285-6.33952 119.675-8.37402 119.065-10.4085 118.759-12.8174 118.759-15.6006 118.759-18.1559 119.085-20.4549 119.736-22.4976 120.387-24.5402 121.355-26.2777 122.641-27.71 123.927-29.1423 125.518-30.2409 127.414-31.0059 129.31-31.7708 131.512-32.1533 134.018-32.1533 136.411-32.1533 138.523-31.8359 140.354-31.2012 142.185-30.5664 143.715-29.5898 144.943-28.2715 146.172-26.9531 147.1-25.2889 147.727-23.2788 148.353-21.2687 148.667-18.8965 148.667-16.1621ZM141.928-15.8203C141.928-17.4805 141.798-18.9901 141.538-20.3491 141.277-21.7082 140.834-22.8719 140.207-23.8403 139.58-24.8088 138.746-25.5575 137.705-26.0864 136.663-26.6154 135.361-26.8799 133.798-26.8799 132.22-26.8799 130.901-26.5828 129.843-25.9888 128.785-25.3947 127.931-24.6012 127.28-23.6084 126.629-22.6156 126.169-21.4559 125.9-20.1294 125.632-18.8029 125.498-17.3991 125.498-15.918 125.498-14.1927 125.628-12.6424 125.888-11.2671 126.149-9.89176 126.588-8.71582 127.207-7.73926 127.825-6.76269 128.655-6.01807 129.697-5.50537 130.739-4.99267 132.049-4.73633 133.628-4.73633 135.206-4.73633 136.525-5.0293 137.583-5.61523 138.641-6.20117 139.495-6.9987 140.146-8.00781 140.797-9.01693 141.257-10.1929 141.525-11.5356 141.794-12.8784 141.928-14.3066 141.928-15.8203ZM167.117-11.9873 167.117-0.878906C167.117-0.716146 167.064-0.569661 166.958-0.439453 166.853-0.309245 166.678-0.203451 166.434-0.12207 166.189-0.0406901 165.86 0.0244141 165.445 0.0732422 165.03 0.12207 164.513 0.146484 163.895 0.146484 163.26 0.146484 162.739 0.12207 162.332 0.0732422 161.925 0.0244141 161.596-0.0406901 161.343-0.12207 161.091-0.203451 160.916-0.309245 160.818-0.439453 160.721-0.569661 160.672-0.716146 160.672-0.878906L160.672-11.9873 152.029-29.1992C151.72-29.8014 151.521-30.2694 151.431-30.603 151.342-30.9367 151.39-31.189 151.578-31.3599 151.765-31.5308 152.111-31.6366 152.615-31.6772 153.12-31.7179 153.82-31.7383 154.715-31.7383 155.464-31.7383 156.062-31.722 156.509-31.6895 156.957-31.6569 157.311-31.5959 157.571-31.5063 157.832-31.4168 158.023-31.2988 158.145-31.1523 158.267-31.0059 158.385-30.8187 158.499-30.5908L162.015-22.8271C162.356-22.0784 162.694-21.2891 163.028-20.459 163.361-19.6289 163.699-18.7581 164.041-17.8467L164.09-17.8467C164.399-18.7256 164.716-19.5801 165.042-20.4102 165.368-21.2402 165.685-22.0296 165.994-22.7783L169.461-30.4932C169.542-30.7536 169.644-30.9611 169.766-31.1157 169.888-31.2703 170.071-31.3965 170.315-31.4941 170.56-31.5918 170.893-31.6569 171.316-31.6895 171.74-31.722 172.301-31.7383 173.001-31.7383 173.929-31.7383 174.649-31.7179 175.162-31.6772 175.674-31.6366 176.024-31.5308 176.211-31.3599 176.399-31.189 176.443-30.9326 176.346-30.5908 176.248-30.249 176.053-29.7852 175.76-29.1992ZM199.268-2.51465C199.268-2.04264 199.248-1.64795 199.207-1.33057 199.166-1.01318 199.105-0.756836 199.024-0.561523 198.942-0.366211 198.841-0.223796 198.719-0.134277 198.597-0.0447591 198.462 0 198.316 0L182.447 0C181.91 0 181.458-0.158691 181.092-0.476074 180.725-0.793457 180.542-1.31022 180.542-2.02637L180.542-29.5654C180.542-30.2816 180.725-30.7983 181.092-31.1157 181.458-31.4331 181.91-31.5918 182.447-31.5918L198.218-31.5918C198.365-31.5918 198.495-31.5511 198.609-31.4697 198.723-31.3883 198.82-31.2459 198.902-31.0425 198.983-30.839 199.044-30.5786 199.085-30.2612 199.126-29.9438 199.146-29.541 199.146-29.0527 199.146-28.597 199.126-28.2104 199.085-27.8931 199.044-27.5757 198.983-27.3193 198.902-27.124 198.82-26.9287 198.723-26.7863 198.609-26.6968 198.495-26.6073 198.365-26.5625 198.218-26.5625L186.939-26.5625 186.939-18.8477 196.485-18.8477C196.631-18.8477 196.766-18.8029 196.888-18.7134 197.01-18.6239 197.111-18.4855 197.193-18.2983 197.274-18.1112 197.335-17.8589 197.376-17.5415 197.417-17.2241 197.437-16.8376 197.437-16.3818 197.437-15.9098 197.417-15.5192 197.376-15.21 197.335-14.9007 197.274-14.6525 197.193-14.4653 197.111-14.2782 197.01-14.1439 196.888-14.0625 196.766-13.9811 196.631-13.9404 196.485-13.9404L186.939-13.9404 186.939-5.0293 198.316-5.0293C198.462-5.0293 198.597-4.98454 198.719-4.89502 198.841-4.8055 198.942-4.66309 199.024-4.46777 199.105-4.27246 199.166-4.01611 199.207-3.69873 199.248-3.38135 199.268-2.98665 199.268-2.51465ZM223.858-2.51465C223.858-2.04264 223.837-1.64795 223.797-1.33057 223.756-1.01318 223.695-0.756836 223.613-0.561523 223.532-0.366211 223.43-0.223796 223.308-0.134277 223.186-0.0447591 223.052 0 222.905 0L207.036 0C206.499 0 206.047-0.158691 205.681-0.476074 205.315-0.793457 205.132-1.31022 205.132-2.02637L205.132-29.5654C205.132-30.2816 205.315-30.7983 205.681-31.1157 206.047-31.4331 206.499-31.5918 207.036-31.5918L222.808-31.5918C222.954-31.5918 223.084-31.5511 223.198-31.4697 223.312-31.3883 223.41-31.2459 223.491-31.0425 223.573-30.839 223.634-30.5786 223.674-30.2612 223.715-29.9438 223.735-29.541 223.735-29.0527 223.735-28.597 223.715-28.2104 223.674-27.8931 223.634-27.5757 223.573-27.3193 223.491-27.124 223.41-26.9287 223.312-26.7863 223.198-26.6968 223.084-26.6073 222.954-26.5625 222.808-26.5625L211.528-26.5625 211.528-18.8477 221.074-18.8477C221.221-18.8477 221.355-18.8029 221.477-18.7134 221.599-18.6239 221.701-18.4855 221.782-18.2983 221.864-18.1112 221.925-17.8589 221.965-17.5415 222.006-17.2241 222.026-16.8376 222.027-16.3818 222.026-15.9098 222.006-15.5192 221.965-15.21 221.925-14.9007 221.864-14.6525 221.782-14.4653 221.701-14.2782 221.599-14.1439 221.477-14.0625 221.355-13.9811 221.221-13.9404 221.074-13.9404L211.528-13.9404 211.528-5.0293 222.905-5.0293C223.052-5.0293 223.186-4.98454 223.308-4.89502 223.43-4.8055 223.532-4.66309 223.613-4.46777 223.695-4.27246 223.756-4.01611 223.797-3.69873 223.837-3.38135 223.858-2.98665 223.858-2.51465Z" fill="#FFFFFF" transform="matrix(1 0 0 1 53.1334 151)"/><path d="M9.88769-0.878906C9.88769-0.716146 9.8348-0.569661 9.729-0.439453 9.62321-0.309245 9.44824-0.203451 9.2041-0.12207 8.95996-0.0406901 8.63444 0.0244141 8.22754 0.0732422 7.82064 0.12207 7.2998 0.146484 6.66504 0.146484 6.04655 0.146484 5.52978 0.12207 5.11475 0.0732422 4.69971 0.0244141 4.37012-0.0406901 4.12598-0.12207 3.88184-0.203451 3.70687-0.309245 3.60107-0.439453 3.49528-0.569661 3.44238-0.716146 3.44238-0.878906L3.44238-30.7129C3.44238-30.8756 3.49528-31.0221 3.60107-31.1523 3.70687-31.2826 3.8859-31.3883 4.13818-31.4697 4.39046-31.5511 4.72005-31.6162 5.12695-31.665 5.53385-31.7139 6.04655-31.7383 6.66504-31.7383 7.2998-31.7383 7.82064-31.7139 8.22754-31.665 8.63444-31.6162 8.95996-31.5511 9.2041-31.4697 9.44824-31.3883 9.62321-31.2826 9.729-31.1523 9.8348-31.0221 9.88769-30.8756 9.88769-30.7129ZM42.9443-2.24609C42.9443-1.87174 42.8792-1.53809 42.749-1.24512 42.6187-0.952148 42.4438-0.708008 42.2241-0.512695 42.0043-0.317383 41.7439-0.174967 41.4428-0.0854492 41.1417 0.00406901 40.8365 0.0488281 40.5273 0.0488281L37.7929 0.0488281C37.2232 0.0488281 36.7309-0.00813802 36.3158-0.12207 35.9008-0.236003 35.5183-0.443522 35.1684-0.744629 34.8185-1.04574 34.4807-1.45264 34.1552-1.96533 33.8297-2.47803 33.4635-3.14128 33.0566-3.95508L25.1952-18.7256C24.7395-19.6045 24.2757-20.5526 23.8036-21.5698 23.3316-22.5871 22.9085-23.5758 22.5341-24.5361L22.4853-24.5361C22.5504-23.3643 22.5992-22.1964 22.6318-21.0327 22.6643-19.869 22.6806-18.6686 22.6806-17.4316L22.6806-0.90332C22.6806-0.74056 22.6358-0.594075 22.5463-0.463867 22.4568-0.333659 22.3022-0.223796 22.0825-0.134277 21.8627-0.0447591 21.5657 0.0244141 21.1913 0.0732422 20.817 0.12207 20.3368 0.146484 19.7509 0.146484 19.1812 0.146484 18.7092 0.12207 18.3349 0.0732422 17.9605 0.0244141 17.6676-0.0447591 17.456-0.134277 17.2444-0.223796 17.0979-0.333659 17.0165-0.463867 16.9352-0.594075 16.8945-0.74056 16.8945-0.90332L16.8945-29.2969C16.8945-30.0618 17.1183-30.6356 17.5659-31.0181 18.0134-31.4006 18.5628-31.5918 19.2138-31.5918L22.6562-31.5918C23.2747-31.5918 23.7955-31.5389 24.2187-31.4331 24.6419-31.3273 25.0203-31.1523 25.3539-30.9082 25.6876-30.6641 26.0009-30.3263 26.2939-29.895 26.5868-29.4637 26.888-28.9307 27.1972-28.2959L33.3495-16.748C33.7076-16.0482 34.0616-15.3605 34.4116-14.6851 34.7615-14.0096 35.0992-13.3341 35.4247-12.6587 35.7503-11.9832 36.0676-11.32 36.3769-10.6689 36.6861-10.0179 36.9872-9.36686 37.2802-8.71582L37.3046-8.71582C37.2558-9.85514 37.2192-11.0433 37.1948-12.2803 37.1703-13.5173 37.1581-14.6973 37.1581-15.8203L37.1581-30.6396C37.1581-30.8024 37.207-30.9489 37.3046-31.0791 37.4023-31.2093 37.565-31.3232 37.7929-31.4209 38.0208-31.5186 38.3219-31.5877 38.6962-31.6284 39.0706-31.6691 39.5507-31.6894 40.1367-31.6895 40.69-31.6894 41.1539-31.6691 41.5283-31.6284 41.9026-31.5877 42.1915-31.5186 42.395-31.4209 42.5984-31.3232 42.7408-31.2093 42.8222-31.0791 42.9036-30.9489 42.9443-30.8024 42.9443-30.6396ZM71.9513-4.78516C71.9513-4.37825 71.9391-4.03239 71.9147-3.74756 71.8903-3.46273 71.8536-3.21859 71.8048-3.01514 71.756-2.81169 71.6909-2.63672 71.6095-2.49023 71.5281-2.34375 71.3979-2.17692 71.2189-1.98975 71.0398-1.80257 70.694-1.5625 70.1813-1.26953 69.6686-0.976562 69.0419-0.695801 68.3014-0.427246 67.5608-0.158691 66.7145 0.0651042 65.7623 0.244141 64.8102 0.423177 63.7807 0.512695 62.674 0.512695 60.5092 0.512695 58.5561 0.179036 56.8146-0.488281 55.073-1.1556 53.5919-2.15251 52.3712-3.479 51.1505-4.8055 50.2146-6.46159 49.5636-8.44726 48.9126-10.4329 48.587-12.7441 48.587-15.3809 48.587-18.0664 48.9451-20.4508 49.6613-22.5342 50.3774-24.6175 51.3784-26.3672 52.6642-27.7832 53.95-29.1992 55.4921-30.2734 57.2907-31.0059 59.0892-31.7383 61.0708-32.1045 63.2355-32.1045 64.1144-32.1045 64.9607-32.0312 65.7745-31.8848 66.5883-31.7383 67.3411-31.547 68.0328-31.311 68.7246-31.075 69.3471-30.8024 69.9005-30.4932 70.4539-30.1839 70.8405-29.9194 71.0602-29.6997 71.2799-29.48 71.4305-29.2969 71.5118-29.1504 71.5932-29.0039 71.6583-28.8167 71.7072-28.5889 71.756-28.361 71.7926-28.0924 71.817-27.7832 71.8414-27.474 71.8536-27.0915 71.8536-26.6357 71.8536-26.1475 71.8374-25.7324 71.8048-25.3906 71.7723-25.0488 71.7153-24.7721 71.6339-24.5605 71.5525-24.349 71.4549-24.1943 71.3409-24.0967 71.227-23.999 71.0968-23.9502 70.9503-23.9502 70.7062-23.9502 70.3969-24.0926 70.0226-24.3774 69.6482-24.6623 69.164-24.9797 68.5699-25.3296 67.9759-25.6795 67.2679-25.9969 66.4459-26.2817 65.624-26.5666 64.6433-26.709 63.504-26.709 62.2508-26.709 61.1318-26.4526 60.1471-25.9399 59.1624-25.4272 58.3242-24.6948 57.6325-23.7427 56.9407-22.7905 56.4158-21.639 56.0577-20.2881 55.6997-18.9372 55.5206-17.4154 55.5206-15.7227 55.5206-13.8672 55.7119-12.2599 56.0944-10.9009 56.4769-9.54183 57.0221-8.42285 57.7301-7.54394 58.4381-6.66504 59.2926-6.00993 60.2936-5.57861 61.2946-5.1473 62.4217-4.93164 63.6749-4.93164 64.8142-4.93164 65.799-5.06592 66.629-5.33447 67.4591-5.60303 68.1712-5.90006 68.7653-6.22559 69.3593-6.55111 69.8476-6.84407 70.2301-7.10449 70.6126-7.36491 70.9096-7.49512 71.1212-7.49512 71.284-7.49512 71.4142-7.46256 71.5118-7.39746 71.6095-7.33236 71.6909-7.20215 71.756-7.00684 71.8211-6.81152 71.8699-6.5389 71.9025-6.18896 71.935-5.83903 71.9513-5.37109 71.9513-4.78516ZM105.194-16.1621C105.194-13.5417 104.868-11.1979 104.217-9.13086 103.566-7.0638 102.598-5.31006 101.312-3.86963 100.026-2.4292 98.4351-1.33057 96.5389-0.57373 94.6427 0.183105 92.4495 0.561523 89.9593 0.561523 87.5016 0.561523 85.3573 0.240072 83.5262-0.402832 81.6951-1.04574 80.1693-2.02637 78.9486-3.34473 77.7279-4.66309 76.8123-6.33952 76.202-8.37402 75.5916-10.4085 75.2865-12.8174 75.2865-15.6006 75.2865-18.1559 75.612-20.4549 76.263-22.4976 76.9141-24.5402 77.8825-26.2777 79.1683-27.71 80.4541-29.1423 82.0451-30.2409 83.9412-31.0059 85.8374-31.7708 88.0387-32.1533 90.5452-32.1533 92.9378-32.1533 95.0496-31.8359 96.8807-31.2012 98.7117-30.5664 100.242-29.5898 101.471-28.2715 102.699-26.9531 103.627-25.2889 104.254-23.2788 104.88-21.2687 105.194-18.8965 105.194-16.1621ZM98.4554-15.8203C98.4554-17.4805 98.3252-18.9901 98.0648-20.3491 97.8044-21.7082 97.3608-22.8719 96.7342-23.8403 96.1076-24.8088 95.2734-25.5575 94.2318-26.0864 93.1901-26.6154 91.888-26.8799 90.3255-26.8799 88.7467-26.8799 87.4284-26.5828 86.3704-25.9888 85.3125-25.3947 84.458-24.6012 83.807-23.6084 83.1559-22.6156 82.6961-21.4559 82.4276-20.1294 82.159-18.8029 82.0247-17.3991 82.0247-15.918 82.0247-14.1927 82.1549-12.6424 82.4154-11.2671 82.6758-9.89176 83.1152-8.71582 83.7337-7.73926 84.3522-6.76269 85.1823-6.01807 86.224-5.50537 87.2656-4.99267 88.5758-4.73633 90.1546-4.73633 91.7334-4.73633 93.0518-5.0293 94.1097-5.61523 95.1676-6.20117 96.0221-6.9987 96.6732-8.00781 97.3242-9.01693 97.784-10.1929 98.0526-11.5356 98.3211-12.8784 98.4554-14.3066 98.4554-15.8203ZM147.692-0.878906C147.692-0.716146 147.647-0.569661 147.558-0.439453 147.468-0.309245 147.306-0.203451 147.07-0.12207 146.834-0.0406901 146.52 0.0244141 146.13 0.0732422 145.739 0.12207 145.243 0.146484 144.64 0.146484 144.054 0.146484 143.566 0.12207 143.176 0.0732422 142.785 0.0244141 142.476-0.0406901 142.248-0.12207 142.02-0.203451 141.857-0.309245 141.759-0.439453 141.662-0.569661 141.613-0.716146 141.613-0.878906L141.613-26.5869 141.564-26.5869 132.409-0.90332C132.344-0.691732 132.238-0.516764 132.092-0.378418 131.945-0.240072 131.746-0.130208 131.493-0.0488281 131.241 0.0325521 130.92 0.0854492 130.529 0.109863 130.138 0.134277 129.666 0.146484 129.113 0.146484 128.56 0.146484 128.088 0.126139 127.697 0.0854492 127.306 0.0447591 126.985-0.0203451 126.733-0.109863 126.48-0.199381 126.281-0.309245 126.134-0.439453 125.988-0.569661 125.89-0.724284 125.842-0.90332L117.004-26.5869 116.955-26.5869 116.955-0.878906C116.955-0.716146 116.91-0.569661 116.821-0.439453 116.731-0.309245 116.564-0.203451 116.32-0.12207 116.076-0.0406901 115.763 0.0244141 115.38 0.0732422 114.998 0.12207 114.505 0.146484 113.903 0.146484 113.317 0.146484 112.829 0.12207 112.438 0.0732422 112.048 0.0244141 111.734-0.0406901 111.498-0.12207 111.262-0.203451 111.1-0.309245 111.01-0.439453 110.92-0.569661 110.876-0.716146 110.876-0.878906L110.876-29.0283C110.876-29.8584 111.095-30.4932 111.535-30.9326 111.974-31.3721 112.56-31.5918 113.293-31.5918L117.492-31.5918C118.241-31.5918 118.884-31.5308 119.421-31.4087 119.958-31.2866 120.422-31.0832 120.812-30.7983 121.203-30.5135 121.528-30.1392 121.789-29.6753 122.049-29.2114 122.277-28.6377 122.472-27.9541L129.308-9.13086 129.406-9.13086 136.486-27.9053C136.698-28.5889 136.93-29.1667 137.182-29.6387 137.434-30.1107 137.727-30.4932 138.061-30.7861 138.394-31.0791 138.789-31.2866 139.245-31.4087 139.701-31.5308 140.23-31.5918 140.832-31.5918L145.153-31.5918C145.592-31.5918 145.971-31.5348 146.288-31.4209 146.606-31.307 146.866-31.1401 147.07-30.9204 147.273-30.7007 147.428-30.4321 147.533-30.1147 147.639-29.7974 147.692-29.4352 147.692-29.0283ZM173.67-2.51465C173.67-2.04264 173.65-1.64795 173.609-1.33057 173.568-1.01318 173.507-0.756836 173.426-0.561523 173.345-0.366211 173.243-0.223796 173.121-0.134277 172.999-0.0447591 172.864 0 172.718 0L156.849 0C156.312 0 155.86-0.158691 155.494-0.476074 155.128-0.793457 154.944-1.31022 154.944-2.02637L154.944-29.5654C154.944-30.2816 155.128-30.7983 155.494-31.1157 155.86-31.4331 156.312-31.5918 156.849-31.5918L172.62-31.5918C172.767-31.5918 172.897-31.5511 173.011-31.4697 173.125-31.3883 173.222-31.2459 173.304-31.0425 173.385-30.839 173.446-30.5786 173.487-30.2612 173.528-29.9438 173.548-29.541 173.548-29.0527 173.548-28.597 173.528-28.2104 173.487-27.8931 173.446-27.5757 173.385-27.3193 173.304-27.124 173.222-26.9287 173.125-26.7863 173.011-26.6968 172.897-26.6073 172.767-26.5625 172.62-26.5625L161.341-26.5625 161.341-18.8477 170.887-18.8477C171.033-18.8477 171.168-18.8029 171.29-18.7134 171.412-18.6239 171.513-18.4855 171.595-18.2983 171.676-18.1112 171.737-17.8589 171.778-17.5415 171.819-17.2241 171.839-16.8376 171.839-16.3818 171.839-15.9098 171.819-15.5192 171.778-15.21 171.737-14.9007 171.676-14.6525 171.595-14.4653 171.513-14.2782 171.412-14.1439 171.29-14.0625 171.168-13.9811 171.033-13.9404 170.887-13.9404L161.341-13.9404 161.341-5.0293 172.718-5.0293C172.864-5.0293 172.999-4.98454 173.121-4.89502 173.243-4.8055 173.345-4.66309 173.426-4.46777 173.507-4.27246 173.568-4.01611 173.609-3.69873 173.65-3.38135 173.67-2.98665 173.67-2.51465Z" fill="#FFFFFF" transform="matrix(1 0 0 1 78.2271 216)"/></g></g><rect x="110" y="319" width="371" height="296" fill="url(#fill9)"/><text fill="#FFFFFF" font-family="Calibri,Calibri_MSFontService,sans-serif" font-weight="700" font-size="50" transform="matrix(1 0 0 1 281.385 420)">X</text><text fill="#FFFFFF" font-family="Calibri,Calibri_MSFontService,sans-serif" font-weight="700" font-size="50" transform="matrix(1 0 0 1 182.133 485)">EMPLOYEE </text><text fill="#FFFFFF" font-family="Calibri,Calibri_MSFontService,sans-serif" font-weight="700" font-size="50" transform="matrix(1 0 0 1 207.227 550)">INCOME</text><text font-family="Calibri,Calibri_MSFontService,sans-serif" font-weight="700" font-size="62" transform="matrix(1 0 0 1 851.331 1443)">Figure 2: Taxing Income</text><g clip-path="url(#clip10)" filter="url(#fx2)" transform="translate(1848 304)"><g clip-path="url(#clip11)"><rect x="22" y="21.875" width="371" height="296" fill="#FF0000"/></g></g><g clip-path="url(#clip12)" filter="url(#fx3)" transform="translate(1927 323)"><g clip-path="url(#clip13)"><path d="M22.8516-2.53906C22.8516-2.06706 22.8312-1.66829 22.7905-1.34277 22.7498-1.01725 22.6888-0.752767 22.6074-0.549316 22.526-0.345866 22.4243-0.203451 22.3022-0.12207 22.1802-0.0406901 22.0459 0 21.8994 0L3.27148 0C2.62044 0 2.11995-0.187174 1.77002-0.561523 1.42008-0.935872 1.24512-1.48112 1.24512-2.19727L1.24512-3.27148C1.24512-3.597 1.26546-3.89404 1.30615-4.1626 1.34684-4.43115 1.41602-4.70378 1.51367-4.98047 1.61133-5.25716 1.75374-5.55827 1.94092-5.88379 2.12809-6.20931 2.36003-6.59993 2.63672-7.05566L14.8926-26.4893 2.73437-26.4893C2.53906-26.4893 2.37223-26.534 2.23389-26.6235 2.09554-26.7131 1.98161-26.8555 1.89209-27.0508 1.80257-27.2461 1.73747-27.5065 1.69678-27.832 1.65609-28.1575 1.63574-28.5482 1.63574-29.0039 1.63574-29.4922 1.65609-29.9032 1.69678-30.2368 1.73747-30.5705 1.80257-30.839 1.89209-31.0425 1.98161-31.2459 2.09554-31.3883 2.23389-31.4697 2.37223-31.5511 2.53906-31.5918 2.73437-31.5918L20.1904-31.5918C20.8577-31.5918 21.3501-31.4209 21.6675-31.0791 21.9849-30.7373 22.1436-30.2572 22.1436-29.6387L22.1436-28.4424C22.1436-28.0029 22.1232-27.6245 22.0825-27.3071 22.0418-26.9897 21.9686-26.6805 21.8628-26.3794 21.757-26.0783 21.6146-25.769 21.4355-25.4517 21.2565-25.1343 21.0286-24.7559 20.752-24.3164L8.69141-5.15137 21.8994-5.15137C22.2087-5.15137 22.4447-4.95605 22.6074-4.56543 22.7702-4.1748 22.8516-3.49935 22.8516-2.53906Z" fill="#FFFFFF" transform="matrix(1 0 0 1 116.104 85)"/><path d="M24.4629-28.9551C24.4629-28.4831 24.4425-28.0802 24.4019-27.7466 24.3612-27.4129 24.3001-27.1444 24.2187-26.9409 24.1374-26.7375 24.0356-26.5869 23.9136-26.4893 23.7915-26.3916 23.6572-26.3428 23.5107-26.3428L15.6006-26.3428 15.6006-0.878906C15.6006-0.716146 15.5477-0.569661 15.4419-0.439453 15.3361-0.309245 15.1611-0.203451 14.917-0.12207 14.6728-0.0406901 14.3433 0.0244141 13.9282 0.0732422 13.5132 0.12207 12.9964 0.146484 12.3779 0.146484 11.7594 0.146484 11.2427 0.12207 10.8276 0.0732422 10.4126 0.0244141 10.083-0.0406901 9.83887-0.12207 9.59472-0.203451 9.41976-0.309245 9.31396-0.439453 9.20817-0.569661 9.15527-0.716146 9.15527-0.878906L9.15527-26.3428 1.24512-26.3428C1.08236-26.3428 0.94401-26.3916 0.830078-26.4893 0.716146-26.5869 0.61849-26.7375 0.537109-26.9409 0.455729-27.1444 0.394694-27.4129 0.354004-27.7466 0.313314-28.0802 0.292969-28.4831 0.292969-28.9551 0.292969-29.4434 0.313314-29.8584 0.354004-30.2002 0.394694-30.542 0.455729-30.8146 0.537109-31.0181 0.61849-31.2215 0.716146-31.368 0.830078-31.4575 0.94401-31.547 1.08236-31.5918 1.24512-31.5918L23.5107-31.5918C23.6572-31.5918 23.7915-31.547 23.9136-31.4575 24.0356-31.368 24.1374-31.2215 24.2187-31.0181 24.3001-30.8146 24.3612-30.542 24.4019-30.2002 24.4425-29.8584 24.4629-29.4434 24.4629-28.9551ZM54.2775-2.39258C54.4728-1.80664 54.5949-1.34277 54.6437-1.00098 54.6926-0.65918 54.6275-0.402832 54.4484-0.231934 54.2694-0.0610352 53.952 0.0447591 53.4963 0.0854492 53.0406 0.126139 52.4139 0.146484 51.6164 0.146484 50.7863 0.146484 50.1393 0.134277 49.6755 0.109863 49.2116 0.0854492 48.8576 0.0366211 48.6135-0.0366211 48.3693-0.109863 48.1984-0.211589 48.1008-0.341797 48.0031-0.472005 47.9217-0.642904 47.8566-0.854492L45.7326-7.20215 33.8674-7.20215 31.8654-1.02539C31.8003-0.797526 31.7149-0.606282 31.6091-0.45166 31.5033-0.297038 31.3324-0.174967 31.0964-0.0854492 30.8604 0.00406901 30.5267 0.0651042 30.0954 0.0976562 29.6641 0.130208 29.0985 0.146484 28.3986 0.146484 27.6499 0.146484 27.064 0.12207 26.6408 0.0732422 26.2176 0.0244141 25.9247-0.0935872 25.7619-0.280762 25.5992-0.467936 25.5422-0.732422 25.591-1.07422 25.6398-1.41602 25.7619-1.87174 25.9572-2.44141L35.6984-30.4687C35.7961-30.7454 35.91-30.9692 36.0402-31.1401 36.1704-31.311 36.378-31.4412 36.6628-31.5308 36.9476-31.6203 37.3423-31.6772 37.8469-31.7017 38.3514-31.7261 39.0187-31.7383 39.8488-31.7383 40.8091-31.7383 41.5741-31.7261 42.1437-31.7017 42.7134-31.6772 43.1569-31.6203 43.4743-31.5308 43.7917-31.4412 44.0196-31.307 44.1579-31.1279 44.2962-30.9489 44.4143-30.7048 44.5119-30.3955ZM39.7756-25.5615 39.7512-25.5615 35.2834-12.1338 44.2434-12.1338ZM81.4563-2.41699C81.7493-1.84733 81.9405-1.3916 82.03-1.0498 82.1196-0.708008 82.0667-0.447591 81.8714-0.268555 81.676-0.0895182 81.322 0.0244141 80.8093 0.0732422 80.2966 0.12207 79.5846 0.146484 78.6731 0.146484 77.9081 0.146484 77.3059 0.130208 76.8665 0.0976562 76.427 0.0651042 76.0811 0.012207 75.8289-0.0610352 75.5766-0.134277 75.3935-0.236003 75.2796-0.366211 75.1656-0.496419 75.068-0.65918 74.9866-0.854492L69.054-12.2559 63.1458-0.854492C63.0481-0.65918 62.9423-0.496419 62.8284-0.366211 62.7145-0.236003 62.5313-0.134277 62.2791-0.0610352 62.0268 0.012207 61.6769 0.0651042 61.2293 0.0976562 60.7817 0.130208 60.1917 0.146484 59.4592 0.146484 58.6129 0.146484 57.9578 0.12207 57.4939 0.0732422 57.03 0.0244141 56.7167-0.0895182 56.554-0.268555 56.3912-0.447591 56.3587-0.708008 56.4563-1.0498 56.554-1.3916 56.7574-1.84733 57.0667-2.41699L64.635-16.2109 57.6038-29.1748C57.3108-29.7607 57.1114-30.2287 57.0056-30.5786 56.8998-30.9285 56.9405-31.189 57.1277-31.3599 57.3149-31.5308 57.6607-31.6366 58.1653-31.6772 58.6699-31.7179 59.386-31.7383 60.3137-31.7383 61.0787-31.7383 61.685-31.722 62.1326-31.6895 62.5802-31.6569 62.9342-31.604 63.1946-31.5308 63.455-31.4575 63.6381-31.3558 63.7439-31.2256 63.8497-31.0954 63.9514-30.9326 64.0491-30.7373L69.5911-20.2881 74.9866-30.7373C75.0842-30.9326 75.186-31.0954 75.2918-31.2256 75.3976-31.3558 75.5685-31.4575 75.8045-31.5308 76.0405-31.604 76.366-31.6569 76.781-31.6895 77.1961-31.722 77.7698-31.7383 78.5022-31.7383 79.316-31.7383 79.9589-31.7179 80.4309-31.6772 80.9029-31.6366 81.2284-31.5267 81.4075-31.3477 81.5865-31.1686 81.6313-30.9082 81.5418-30.5664 81.4522-30.2246 81.2691-29.7607 80.9924-29.1748L73.9612-16.2842ZM110.684-23.8281C110.684-22.5423 110.542-21.3826 110.257-20.3491 109.972-19.3156 109.529-18.4326 108.927-17.7002 108.324-16.9678 107.555-16.3981 106.619-15.9912 105.684-15.5843 104.565-15.3809 103.262-15.3809 101.879-15.3809 100.723-15.5843 99.7957-15.9912 98.868-16.3981 98.1274-16.9637 97.574-17.688 97.0206-18.4123 96.63-19.279 96.4021-20.2881 96.1743-21.2972 96.0603-22.4121 96.0603-23.6328 96.0603-24.8535 96.1987-25.9725 96.4754-26.9897 96.7521-28.007 97.1875-28.89 97.7815-29.6387 98.3756-30.3874 99.1406-30.9692 100.076-31.3843 101.012-31.7993 102.139-32.0068 103.458-32.0068 104.906-32.0068 106.099-31.7871 107.034-31.3477 107.97-30.9082 108.707-30.3141 109.244-29.5654 109.781-28.8167 110.155-27.946 110.367-26.9531 110.579-25.9603 110.684-24.9186 110.684-23.8281ZM105.85-23.6572C105.85-24.5524 105.802-25.3133 105.704-25.9399 105.606-26.5666 105.46-27.0752 105.264-27.4658 105.069-27.8564 104.809-28.1413 104.483-28.3203 104.158-28.4993 103.775-28.5889 103.336-28.5889 102.929-28.5889 102.571-28.5034 102.262-28.3325 101.952-28.1616 101.696-27.8849 101.492-27.5024 101.289-27.12 101.138-26.6235 101.041-26.0132 100.943-25.4028 100.894-24.6582 100.894-23.7793 100.894-22.7702 100.951-21.9442 101.065-21.3013 101.179-20.6584 101.342-20.1538 101.554-19.7876 101.765-19.4214 102.026-19.1691 102.335-19.0308 102.644-18.8924 103.002-18.8232 103.409-18.8232 103.881-18.8232 104.272-18.9168 104.581-19.104 104.89-19.2912 105.138-19.5801 105.325-19.9707 105.513-20.3613 105.647-20.8618 105.728-21.4722 105.81-22.0825 105.85-22.8109 105.85-23.6572ZM129.727-8.03223C129.727-6.74642 129.585-5.58675 129.3-4.55322 129.015-3.51969 128.572-2.63672 127.97-1.9043 127.367-1.17188 126.598-0.602214 125.662-0.195312 124.727 0.211589 123.608 0.415039 122.305 0.415039 120.922 0.415039 119.766 0.211589 118.839-0.195312 117.911-0.602214 117.17-1.16781 116.617-1.89209 116.064-2.61637 115.673-3.48307 115.445-4.49219 115.217-5.5013 115.103-6.61621 115.103-7.83691 115.103-9.05762 115.242-10.1766 115.518-11.1938 115.795-12.2111 116.23-13.0941 116.825-13.8428 117.419-14.5915 118.184-15.1733 119.119-15.5884 120.055-16.0034 121.182-16.2109 122.501-16.2109 123.949-16.2109 125.142-15.9912 126.077-15.5518 127.013-15.1123 127.75-14.5182 128.287-13.7695 128.824-13.0208 129.198-12.1501 129.41-11.1572 129.622-10.1644 129.727-9.12272 129.727-8.03223ZM124.893-7.86133C124.893-8.75651 124.845-9.51741 124.747-10.144 124.649-10.7707 124.503-11.2793 124.307-11.6699 124.112-12.0605 123.852-12.3454 123.526-12.5244 123.201-12.7034 122.818-12.793 122.379-12.793 121.972-12.793 121.614-12.7075 121.304-12.5366 120.995-12.3657 120.739-12.089 120.535-11.7065 120.332-11.3241 120.181-10.8276 120.084-10.2173 119.986-9.60693 119.937-8.8623 119.937-7.9834 119.937-6.97428 119.994-6.14827 120.108-5.50537 120.222-4.86247 120.385-4.35791 120.596-3.9917 120.808-3.62549 121.068-3.37321 121.378-3.23486 121.687-3.09652 122.045-3.02734 122.452-3.02734 122.924-3.02734 123.315-3.12093 123.624-3.30811 123.933-3.49528 124.181-3.78418 124.368-4.1748 124.556-4.56543 124.69-5.06592 124.771-5.67627 124.853-6.28662 124.893-7.01497 124.893-7.86133ZM104.019-0.170898C103.873 0.0244141 103.722 0.183105 103.568 0.305176 103.413 0.427246 103.222 0.528971 102.994 0.610352 102.766 0.691732 102.489 0.748698 102.164 0.78125 101.838 0.813802 101.44 0.830078 100.968 0.830078 100.43 0.830078 100.003 0.797526 99.6858 0.732422 99.3685 0.667318 99.1406 0.569661 99.0022 0.439453 98.8639 0.309245 98.8069 0.158691 98.8313-0.012207 98.8558-0.183105 98.9575-0.390625 99.1365-0.634766L121.646-31.4697C121.793-31.6488 121.939-31.8034 122.086-31.9336 122.232-32.0638 122.423-32.1696 122.659-32.251 122.895-32.3324 123.176-32.3893 123.502-32.4219 123.827-32.4544 124.226-32.4707 124.698-32.4707 125.235-32.4707 125.662-32.4381 125.98-32.373 126.297-32.3079 126.525-32.2103 126.663-32.0801 126.802-31.9499 126.855-31.7952 126.822-31.6162 126.79-31.4372 126.692-31.2337 126.529-31.0059Z" fill="#FFFFFF" transform="matrix(1 0 0 1 62.4332 187)"/><path d="M13.0615-33.3984C11.6943-30.2246 10.6608-26.9491 9.96094-23.5718 9.26107-20.1945 8.91113-16.7318 8.91113-13.1836 8.91113-9.61914 9.26514-6.15641 9.97314-2.79541 10.6812 0.565592 11.7025 3.85742 13.0371 7.08008 13.1348 7.34049 13.1836 7.56429 13.1836 7.75146 13.1836 7.93864 13.0941 8.09733 12.915 8.22754 12.736 8.35775 12.4634 8.4554 12.0972 8.52051 11.731 8.58561 11.2223 8.61816 10.5713 8.61816 10.1156 8.61816 9.72493 8.60189 9.39941 8.56933 9.07389 8.53678 8.80127 8.49202 8.58154 8.43506 8.36182 8.37809 8.19092 8.30485 8.06885 8.21533 7.94678 8.12581 7.86133 8.02409 7.8125 7.91016 6.93359 6.21745 6.16862 4.51253 5.51758 2.79541 4.86654 1.07829 4.32536-0.655111 3.89404-2.40478 3.46273-4.15446 3.14128-5.92041 2.92969-7.70264 2.7181-9.48486 2.6123-11.2956 2.6123-13.1348 2.6123-14.9577 2.72217-16.7603 2.94189-18.5425 3.16162-20.3247 3.49121-22.0907 3.93066-23.8403 4.37012-25.59 4.91129-27.3275 5.5542-29.0527 6.1971-30.778 6.94987-32.4951 7.8125-34.2041 7.84505-34.2855 7.91016-34.3587 8.00781-34.4238 8.10547-34.4889 8.25195-34.55 8.44726-34.6069 8.64258-34.6639 8.90706-34.7046 9.24072-34.729 9.57438-34.7534 10.0016-34.7656 10.5225-34.7656 11.1084-34.7656 11.5885-34.7371 11.9629-34.6802 12.3372-34.6232 12.6221-34.5378 12.8174-34.4238 13.0127-34.3099 13.1226-34.1634 13.147-33.9844 13.1714-33.8053 13.1429-33.61 13.0615-33.3984ZM41.6501-2.41699C41.943-1.84733 42.1343-1.3916 42.2238-1.0498 42.3133-0.708008 42.2604-0.447591 42.0651-0.268555 41.8698-0.0895182 41.5158 0.0244141 41.0031 0.0732422 40.4904 0.12207 39.7783 0.146484 38.8669 0.146484 38.1019 0.146484 37.4997 0.130208 37.0602 0.0976562 36.6208 0.0651042 36.2749 0.012207 36.0226-0.0610352 35.7703-0.134277 35.5872-0.236003 35.4733-0.366211 35.3594-0.496419 35.2617-0.65918 35.1803-0.854492L29.2477-12.2559 23.3395-0.854492C23.2419-0.65918 23.1361-0.496419 23.0221-0.366211 22.9082-0.236003 22.7251-0.134277 22.4728-0.0610352 22.2205 0.012207 21.8706 0.0651042 21.423 0.0976562 20.9754 0.130208 20.3854 0.146484 19.653 0.146484 18.8066 0.146484 18.1515 0.12207 17.6877 0.0732422 17.2238 0.0244141 16.9105-0.0895182 16.7477-0.268555 16.585-0.447591 16.5524-0.708008 16.6501-1.0498 16.7477-1.3916 16.9512-1.84733 17.2604-2.41699L24.8288-16.2109 17.7975-29.1748C17.5046-29.7607 17.3052-30.2287 17.1994-30.5786 17.0936-30.9285 17.1343-31.189 17.3215-31.3599 17.5086-31.5308 17.8545-31.6366 18.359-31.6772 18.8636-31.7179 19.5798-31.7383 20.5075-31.7383 21.2725-31.7383 21.8787-31.722 22.3263-31.6895 22.7739-31.6569 23.1279-31.604 23.3883-31.5308 23.6488-31.4575 23.8319-31.3558 23.9377-31.2256 24.0435-31.0954 24.1452-30.9326 24.2428-30.7373L29.7848-20.2881 35.1803-30.7373C35.278-30.9326 35.3797-31.0954 35.4855-31.2256 35.5913-31.3558 35.7622-31.4575 35.9982-31.5308 36.2342-31.604 36.5597-31.6569 36.9748-31.6895 37.3898-31.722 37.9635-31.7383 38.696-31.7383 39.5098-31.7383 40.1527-31.7179 40.6247-31.6772 41.0967-31.6366 41.4222-31.5267 41.6012-31.3477 41.7803-31.1686 41.825-30.9082 41.7355-30.5664 41.646-30.2246 41.4629-29.7607 41.1862-29.1748L34.1549-16.2842Z" fill="#FFFFFF" transform="matrix(1 0 0 1 53.0375 251)"/><path d="M13.8672-12.2803C13.8672-11.3363 13.7777-10.6771 13.5986-10.3027 13.4196-9.92838 13.1348-9.74121 12.7441-9.74121L2.58789-9.74121C2.18099-9.74121 1.88802-9.93245 1.70898-10.3149 1.52995-10.6974 1.44043-11.3525 1.44043-12.2803 1.44043-13.1917 1.52995-13.8346 1.70898-14.209 1.88802-14.5833 2.18099-14.7705 2.58789-14.7705L12.7441-14.7705C12.9395-14.7705 13.1063-14.7298 13.2446-14.6484 13.383-14.5671 13.501-14.4287 13.5986-14.2334 13.6963-14.0381 13.7655-13.7777 13.8062-13.4521 13.8468-13.1266 13.8672-12.736 13.8672-12.2803Z" fill="#FFFFFF" transform="matrix(1 0 0 1 96.5104 251)"/><path d="M16.2109-11.9873 16.2109-0.878906C16.2109-0.716146 16.158-0.569661 16.0522-0.439453 15.9465-0.309245 15.7715-0.203451 15.5273-0.12207 15.2832-0.0406901 14.9536 0.0244141 14.5386 0.0732422 14.1235 0.12207 13.6068 0.146484 12.9883 0.146484 12.3535 0.146484 11.8327 0.12207 11.4258 0.0732422 11.0189 0.0244141 10.6893-0.0406901 10.437-0.12207 10.1847-0.203451 10.0098-0.309245 9.91211-0.439453 9.81445-0.569661 9.76562-0.716146 9.76562-0.878906L9.76562-11.9873 1.12305-29.1992C0.813802-29.8014 0.614421-30.2694 0.524902-30.603 0.435384-30.9367 0.484212-31.189 0.671387-31.3599 0.858561-31.5308 1.20443-31.6366 1.70898-31.6772 2.21354-31.7179 2.91341-31.7383 3.80859-31.7383 4.55729-31.7383 5.15544-31.722 5.60303-31.6895 6.05062-31.6569 6.40462-31.5959 6.66504-31.5063 6.92546-31.4168 7.1167-31.2988 7.23877-31.1523 7.36084-31.0059 7.47884-30.8187 7.59277-30.5908L11.1084-22.8271C11.4502-22.0784 11.7879-21.2891 12.1216-20.459 12.4552-19.6289 12.793-18.7581 13.1348-17.8467L13.1836-17.8467C13.4928-18.7256 13.8102-19.5801 14.1357-20.4102 14.4613-21.2402 14.7786-22.0296 15.0879-22.7783L18.5547-30.4932C18.6361-30.7536 18.7378-30.9611 18.8599-31.1157 18.9819-31.2703 19.165-31.3965 19.4092-31.4941 19.6533-31.5918 19.987-31.6569 20.4102-31.6895 20.8333-31.722 21.3949-31.7383 22.0947-31.7383 23.0225-31.7383 23.7427-31.7179 24.2554-31.6772 24.7681-31.6366 25.118-31.5308 25.3052-31.3599 25.4923-31.189 25.5371-30.9326 25.4395-30.5908 25.3418-30.249 25.1465-29.7852 24.8535-29.1992ZM39.1332-13.1348C39.1332-11.2956 39.0274-9.48486 38.8158-7.70264 38.6042-5.92041 38.2828-4.15446 37.8515-2.40478 37.4201-0.655111 36.883 1.07829 36.2401 2.79541 35.5972 4.51253 34.8363 6.21745 33.9574 7.91016 33.9086 8.02409 33.8231 8.12581 33.7011 8.21533 33.579 8.30485 33.4081 8.37809 33.1884 8.43506 32.9687 8.49202 32.696 8.53678 32.3705 8.56933 32.045 8.60189 31.6544 8.61816 31.1986 8.61816 30.5313 8.61816 30.0145 8.58561 29.6483 8.52051 29.2821 8.4554 29.0095 8.35775 28.8305 8.22754 28.6514 8.09733 28.5619 7.93864 28.5619 7.75146 28.5619 7.56429 28.6107 7.34049 28.7084 7.08008 30.0593 3.88997 31.0888 0.606282 31.7968-2.771 32.5048-6.14827 32.8588-9.61914 32.8588-13.1836 32.8588-16.7318 32.5089-20.1945 31.809-23.5718 31.1091-26.9491 30.0674-30.2246 28.684-33.3984 28.6026-33.61 28.5741-33.8053 28.5985-33.9844 28.6229-34.1634 28.7369-34.3099 28.9403-34.4238 29.1438-34.5378 29.4286-34.6232 29.7948-34.6802 30.161-34.7371 30.6452-34.7656 31.2475-34.7656 31.752-34.7656 32.1671-34.7534 32.4926-34.729 32.8181-34.7046 33.0867-34.6639 33.2982-34.6069 33.5098-34.55 33.6604-34.4889 33.7499-34.4238 33.8394-34.3587 33.9086-34.2855 33.9574-34.2041 35.6501-30.7861 36.9359-27.3315 37.8148-23.8403 38.6937-20.3491 39.1332-16.7806 39.1332-13.1348ZM48.044 6.32324C47.9626 6.53483 47.8568 6.70573 47.7266 6.83594 47.5964 6.96615 47.4133 7.07194 47.1773 7.15332 46.9413 7.2347 46.6483 7.29573 46.2984 7.33643 45.9485 7.37712 45.5049 7.39746 44.9678 7.39746 44.3005 7.39746 43.7553 7.36491 43.3321 7.2998 42.9089 7.2347 42.5875 7.13704 42.3677 7.00684 42.148 6.87663 42.0219 6.7098 41.9893 6.50635 41.9568 6.3029 41.9893 6.06282 42.087 5.78613L56.6866-35.2051C56.7517-35.4167 56.8493-35.5916 56.9796-35.73 57.1098-35.8683 57.2888-35.9782 57.5167-36.0596 57.7445-36.1409 58.0416-36.202 58.4078-36.2427 58.774-36.2834 59.2175-36.3037 59.7383-36.3037 60.4219-36.3037 60.9712-36.2712 61.3863-36.2061 61.8013-36.1409 62.1146-36.0433 62.3262-35.9131 62.5378-35.7829 62.6599-35.616 62.6924-35.4126 62.725-35.2091 62.7006-34.9691 62.6192-34.6924ZM89.5001-2.41699C89.793-1.84733 89.9843-1.3916 90.0738-1.0498 90.1633-0.708008 90.1104-0.447591 89.9151-0.268555 89.7198-0.0895182 89.3658 0.0244141 88.8531 0.0732422 88.3404 0.12207 87.6283 0.146484 86.7169 0.146484 85.9519 0.146484 85.3497 0.130208 84.9102 0.0976562 84.4708 0.0651042 84.1249 0.012207 83.8726-0.0610352 83.6203-0.134277 83.4372-0.236003 83.3233-0.366211 83.2094-0.496419 83.1117-0.65918 83.0303-0.854492L77.0977-12.2559 71.1895-0.854492C71.0919-0.65918 70.9861-0.496419 70.8721-0.366211 70.7582-0.236003 70.5751-0.134277 70.3228-0.0610352 70.0705 0.012207 69.7206 0.0651042 69.273 0.0976562 68.8254 0.130208 68.2354 0.146484 67.503 0.146484 66.6566 0.146484 66.0015 0.12207 65.5377 0.0732422 65.0738 0.0244141 64.7605-0.0895182 64.5977-0.268555 64.435-0.447591 64.4024-0.708008 64.5001-1.0498 64.5977-1.3916 64.8012-1.84733 65.1104-2.41699L72.6788-16.2109 65.6475-29.1748C65.3546-29.7607 65.1552-30.2287 65.0494-30.5786 64.9436-30.9285 64.9843-31.189 65.1714-31.3599 65.3586-31.5308 65.7045-31.6366 66.209-31.6772 66.7136-31.7179 67.4297-31.7383 68.3575-31.7383 69.1225-31.7383 69.7287-31.722 70.1763-31.6895 70.6239-31.6569 70.9779-31.604 71.2383-31.5308 71.4988-31.4575 71.6819-31.3558 71.7877-31.2256 71.8934-31.0954 71.9952-30.9326 72.0928-30.7373L77.6348-20.2881 83.0303-30.7373C83.128-30.9326 83.2297-31.0954 83.3355-31.2256 83.4413-31.3558 83.6122-31.4575 83.8482-31.5308 84.0842-31.604 84.4097-31.6569 84.8248-31.6895 85.2398-31.722 85.8135-31.7383 86.546-31.7383 87.3598-31.7383 88.0027-31.7179 88.4747-31.6772 88.9467-31.6366 89.2722-31.5267 89.4512-31.3477 89.6303-31.1686 89.675-30.9082 89.5855-30.5664 89.496-30.2246 89.3129-29.7607 89.0362-29.1748L82.0049-16.2842Z" fill="#FFFFFF" transform="matrix(1 0 0 1 111.956 251)"/></g></g><rect x="1870" y="319" width="371" height="296" fill="url(#fill14)"/><text fill="#FFFFFF" font-family="Calibri,Calibri_MSFontService,sans-serif" font-weight="700" font-size="50" transform="matrix(1 0 0 1 2043.1 401)">Z</text><text fill="#FFFFFF" font-family="Calibri,Calibri_MSFontService,sans-serif" font-weight="700" font-size="50" transform="matrix(1 0 0 1 1989.43 503)">TAX %</text><text fill="#FFFFFF" font-family="Calibri,Calibri_MSFontService,sans-serif" font-weight="700" font-size="50" transform="matrix(1 0 0 1 1980.04 567)">(X</text><text fill="#FFFFFF" font-family="Calibri,Calibri_MSFontService,sans-serif" font-weight="700" font-size="50" transform="matrix(1 0 0 1 2023.51 567)">-</text><text fill="#FFFFFF" font-family="Calibri,Calibri_MSFontService,sans-serif" font-weight="700" font-size="50" transform="matrix(1 0 0 1 2038.96 567)">Y)/X</text><rect x="921" y="969" width="371" height="169" fill="#4472C4"/><text fill="#FFFFFF" font-family="Calibri,Calibri_MSFontService,sans-serif" font-weight="700" font-size="50" transform="matrix(1 0 0 1 1093.16 1020)">Y</text><text fill="#FFFFFF" font-family="Calibri,Calibri_MSFontService,sans-serif" font-weight="700" font-size="50" transform="matrix(1 0 0 1 1027.87 1122)">WAGES</text><rect x="587" y="1213" width="371" height="117" fill="#A5A5A5"/><text fill="#FFFFFF" font-family="Calibri,Calibri_MSFontService,sans-serif" font-weight="700" font-size="50" transform="matrix(1 0 0 1 651.089 1288)">Employee 1</text><rect x="1168" y="1213" width="371" height="117" fill="#A5A5A5"/><text fill="#FFFFFF" font-family="Calibri,Calibri_MSFontService,sans-serif" font-weight="700" font-size="50" transform="matrix(1 0 0 1 1223.49 1288)">Employee..n</text><path d="M1110.23 1138.5 1110.23 1179.63 773.5 1179.63 776.937 1176.19 776.937 1190.97 770.062 1190.97 770.062 1172.76 1106.8 1172.76 1103.36 1176.19 1103.36 1138.5ZM787.25 1186.39 773.5 1213.89 759.75 1186.39Z" fill="#4472C4"/><path d="M0-3.4375 41.1356-3.4375 41.1356 247.64 37.6981 244.203 52.4792 244.203 52.4792 251.078 34.2606 251.078 34.2606 0 37.6981 3.4375 0 3.4375ZM47.8958 233.89 75.3958 247.64 47.8958 261.39Z" fill="#4472C4" transform="matrix(1.83697e-16 1 1 -1.83697e-16 1106.5 1138.5)"/><rect x="670" y="388" width="371" height="168" fill="#FFC000"/><text fill="#FFFFFF" font-family="Calibri,Calibri_MSFontService,sans-serif" font-weight="700" font-size="50" transform="matrix(1 0 0 1 754.053 457)">PAYE TAX </text><text fill="#FFFFFF" font-family="Calibri,Calibri_MSFontService,sans-serif" font-weight="700" font-size="50" transform="matrix(1 0 0 1 789.322 522)">RATES</text><rect x="1192" y="233" width="371" height="117" fill="#70AD47"/><text fill="#FFFFFF" font-family="Calibri,Calibri_MSFontService,sans-serif" font-weight="700" font-size="50" transform="matrix(1 0 0 1 1239.21 157)">Employers NI</text><rect x="1179" y="416" width="371" height="116" fill="#70AD47"/><text fill="#FFFFFF" font-family="Calibri,Calibri_MSFontService,sans-serif" font-weight="700" font-size="50" transform="matrix(1 0 0 1 1216.03 389)">Employees NI</text><rect x="1186" y="594" width="371" height="117" fill="#70AD47"/><text fill="#FFFFFF" font-family="Calibri,Calibri_MSFontService,sans-serif" font-weight="700" font-size="50" transform="matrix(1 0 0 1 1251.32 517)">Income Tax</text><path d="M1041.54 469.063 1156.35 470.305 1156.28 477.179 1041.46 475.937ZM1151.88 459.943 1179.23 473.99 1151.58 487.442Z" fill="#4472C4"/><path d="M0-3.4375 79.182-3.4375 79.182 180.583 75.7445 177.146 128.572 177.146 128.572 184.021 72.307 184.021 72.307 0 75.7445 3.4375 0 3.4375ZM123.989 166.833 151.489 180.583 123.989 194.333Z" fill="#4472C4" transform="matrix(1 0 0 -1 1041.5 473.083)"/><path d="M1041.5 469.063 1117.24 469.063 1117.24 652.74 1113.8 649.302 1163.19 649.302 1163.19 656.177 1110.36 656.177 1110.36 472.5 1113.8 475.938 1041.5 475.938ZM1158.6 638.99 1186.1 652.74 1158.6 666.49Z" fill="#4472C4"/><rect x="629.5" y="172.5" width="1076" height="687" stroke="#000000" stroke-width="14.8958" stroke-miterlimit="8" fill="none"/><text font-family="Calibri,Calibri_MSFontService,sans-serif" font-weight="700" font-size="50" transform="matrix(1 0 0 1 696.086 721)">TAX</text><text font-family="Calibri,Calibri_MSFontService,sans-serif" font-weight="700" font-size="50" transform="matrix(1 0 0 1 696.086 786)">CALCULATOR</text><rect x="1859" y="1203" width="371" height="123" fill="#A5A5A5"/><text fill="#FFFFFF" font-family="Calibri,Calibri_MSFontService,sans-serif" font-weight="700" font-size="50" transform="matrix(1 0 0 1 1979.37 1281)">HMRC</text><path d="M3.43697-0.0602852 13.3476 564.962 6.47363 565.083-3.43697 0.0602852ZM23.5781 560.198 10.3125 587.935-3.91767 560.681Z" fill="#4472C4" transform="matrix(-1 0 0 1 2055.81 615.5)"/></g></svg>